<?xml version="1.0" encoding="UTF-8" standalone="no"?>
<!DOCTYPE svg PUBLIC "-//W3C//DTD SVG 1.1//EN"
 "http://www.w3.org/Graphics/SVG/1.1/DTD/svg11.dtd">
<!-- Generated by graphviz version 2.43.0 (0)
 -->
<!-- Title: /home/runner/work/amr&#45;wind/amr&#45;wind/src/boundary_conditions/BCInterface.H Pages: 1 -->
<svg width="1847pt" height="302pt"
 viewBox="0.00 0.00 1847.00 302.00" xmlns="http://www.w3.org/2000/svg" xmlns:xlink="http://www.w3.org/1999/xlink">
<g id="graph0" class="graph" transform="scale(1 1) rotate(0) translate(4 298)">
<title>/home/runner/work/amr&#45;wind/amr&#45;wind/src/boundary_conditions/BCInterface.H</title>
<!-- Node1 -->
<g id="Node000001" class="node">
<title>Node1</title>
<g id="a_Node000001"><a xlink:title=" ">
<polygon fill="#999999" stroke="#666666" points="1120.5,-294 961.5,-294 961.5,-253 1120.5,-253 1120.5,-294"/>
<text text-anchor="start" x="969.5" y="-282" font-family="Helvetica,sans-Serif" font-size="10.00">/home/runner/work/amr</text>
<text text-anchor="start" x="969.5" y="-271" font-family="Helvetica,sans-Serif" font-size="10.00">&#45;wind/amr&#45;wind/src/boundary</text>
<text text-anchor="middle" x="1041" y="-260" font-family="Helvetica,sans-Serif" font-size="10.00">_conditions/BCInterface.H</text>
</a>
</g>
</g>
<!-- Node2 -->
<g id="Node000002" class="node">
<title>Node2</title>
<g id="a_Node000002"><a xlink:href="_b_c_interface_8cpp.html" target="_top" xlink:title=" ">
<polygon fill="white" stroke="#666666" points="874.5,-217 715.5,-217 715.5,-176 874.5,-176 874.5,-217"/>
<text text-anchor="start" x="723.5" y="-205" font-family="Helvetica,sans-Serif" font-size="10.00">/home/runner/work/amr</text>
<text text-anchor="start" x="723.5" y="-194" font-family="Helvetica,sans-Serif" font-size="10.00">&#45;wind/amr&#45;wind/src/boundary</text>
<text text-anchor="middle" x="795" y="-183" font-family="Helvetica,sans-Serif" font-size="10.00">_conditions/BCInterface.cpp</text>
</a>
</g>
</g>
<!-- Node1&#45;&gt;Node2 -->
<g id="edge1_Node000001_Node000002" class="edge">
<title>Node1&#45;&gt;Node2</title>
<g id="a_edge1_Node000001_Node000002"><a xlink:title=" ">
<path fill="none" stroke="#63b8ff" d="M967.02,-249.94C932.64,-239.46 892.15,-227.12 859.1,-217.04"/>
<polygon fill="#63b8ff" stroke="#63b8ff" points="966.42,-253.42 977.01,-252.99 968.46,-246.73 966.42,-253.42"/>
</a>
</g>
</g>
<!-- Node3 -->
<g id="Node000003" class="node">
<title>Node3</title>
<g id="a_Node000003"><a xlink:href="_field_8cpp.html" target="_top" xlink:title=" ">
<polygon fill="white" stroke="#666666" points="1027,-217 893,-217 893,-176 1027,-176 1027,-217"/>
<text text-anchor="start" x="901" y="-205" font-family="Helvetica,sans-Serif" font-size="10.00">/home/runner/work/amr</text>
<text text-anchor="start" x="901" y="-194" font-family="Helvetica,sans-Serif" font-size="10.00">&#45;wind/amr&#45;wind/src/core</text>
<text text-anchor="middle" x="960" y="-183" font-family="Helvetica,sans-Serif" font-size="10.00">/Field.cpp</text>
</a>
</g>
</g>
<!-- Node1&#45;&gt;Node3 -->
<g id="edge2_Node000001_Node000003" class="edge">
<title>Node1&#45;&gt;Node3</title>
<g id="a_edge2_Node000001_Node000003"><a xlink:title=" ">
<path fill="none" stroke="#63b8ff" d="M1012.15,-245.79C1001.92,-236.32 990.61,-225.84 981.14,-217.07"/>
<polygon fill="#63b8ff" stroke="#63b8ff" points="1010,-248.57 1019.72,-252.79 1014.76,-243.43 1010,-248.57"/>
</a>
</g>
</g>
<!-- Node4 -->
<g id="Node000004" class="node">
<title>Node4</title>
<g id="a_Node000004"><a xlink:href="_b_c_ops_8_h.html" target="_top" xlink:title=" ">
<polygon fill="white" stroke="#666666" points="1201,-217 1045,-217 1045,-176 1201,-176 1201,-217"/>
<text text-anchor="start" x="1053" y="-205" font-family="Helvetica,sans-Serif" font-size="10.00">/home/runner/work/amr</text>
<text text-anchor="start" x="1053" y="-194" font-family="Helvetica,sans-Serif" font-size="10.00">&#45;wind/amr&#45;wind/src/equation</text>
<text text-anchor="middle" x="1123" y="-183" font-family="Helvetica,sans-Serif" font-size="10.00">_systems/BCOps.H</text>
</a>
</g>
</g>
<!-- Node1&#45;&gt;Node4 -->
<g id="edge3_Node000001_Node000004" class="edge">
<title>Node1&#45;&gt;Node4</title>
<g id="a_edge3_Node000001_Node000004"><a xlink:title=" ">
<path fill="none" stroke="#63b8ff" d="M1070.2,-245.79C1080.56,-236.32 1092.01,-225.84 1101.6,-217.07"/>
<polygon fill="#63b8ff" stroke="#63b8ff" points="1067.56,-243.46 1062.54,-252.79 1072.29,-248.63 1067.56,-243.46"/>
</a>
</g>
</g>
<!-- Node18 -->
<g id="Node000018" class="node">
<title>Node18</title>
<g id="a_Node000018"><a xlink:href="vof__bciface_8_h.html" target="_top" xlink:title=" ">
<polygon fill="white" stroke="#666666" points="1649,-217 1493,-217 1493,-176 1649,-176 1649,-217"/>
<text text-anchor="start" x="1501" y="-205" font-family="Helvetica,sans-Serif" font-size="10.00">/home/runner/work/amr</text>
<text text-anchor="start" x="1501" y="-194" font-family="Helvetica,sans-Serif" font-size="10.00">&#45;wind/amr&#45;wind/src/equation</text>
<text text-anchor="middle" x="1571" y="-183" font-family="Helvetica,sans-Serif" font-size="10.00">_systems/vof/vof_bciface.H</text>
</a>
</g>
</g>
<!-- Node1&#45;&gt;Node18 -->
<g id="edge18_Node000001_Node000018" class="edge">
<title>Node1&#45;&gt;Node18</title>
<g id="a_edge18_Node000001_Node000018"><a xlink:title=" ">
<path fill="none" stroke="#63b8ff" d="M1130.57,-259.82C1232.2,-245.44 1396.33,-222.22 1492.93,-208.55"/>
<polygon fill="#63b8ff" stroke="#63b8ff" points="1130.04,-256.36 1120.63,-261.23 1131.02,-263.3 1130.04,-256.36"/>
</a>
</g>
</g>
<!-- Node5 -->
<g id="Node000005" class="node">
<title>Node5</title>
<g id="a_Node000005"><a xlink:href="density_8cpp.html" target="_top" xlink:title=" ">
<polygon fill="white" stroke="#666666" points="1457,-134.5 1297,-134.5 1297,-93.5 1457,-93.5 1457,-134.5"/>
<text text-anchor="start" x="1305" y="-122.5" font-family="Helvetica,sans-Serif" font-size="10.00">/home/runner/work/amr</text>
<text text-anchor="start" x="1305" y="-111.5" font-family="Helvetica,sans-Serif" font-size="10.00">&#45;wind/amr&#45;wind/src/equation</text>
<text text-anchor="middle" x="1377" y="-100.5" font-family="Helvetica,sans-Serif" font-size="10.00">_systems/density/density.cpp</text>
</a>
</g>
</g>
<!-- Node4&#45;&gt;Node5 -->
<g id="edge4_Node000004_Node000005" class="edge">
<title>Node4&#45;&gt;Node5</title>
<g id="a_edge4_Node000004_Node000005"><a xlink:title=" ">
<path fill="none" stroke="#63b8ff" d="M1194.79,-172.75C1232.79,-160.7 1278.99,-146.06 1315.35,-134.54"/>
<polygon fill="#63b8ff" stroke="#63b8ff" points="1193.29,-169.55 1184.81,-175.91 1195.4,-176.23 1193.29,-169.55"/>
</a>
</g>
</g>
<!-- Node6 -->
<g id="Node000006" class="node">
<title>Node6</title>
<g id="a_Node000006"><a xlink:href="icns__bcop_8_h.html" target="_top" xlink:title=" ">
<polygon fill="white" stroke="#666666" points="156,-134.5 0,-134.5 0,-93.5 156,-93.5 156,-134.5"/>
<text text-anchor="start" x="8" y="-122.5" font-family="Helvetica,sans-Serif" font-size="10.00">/home/runner/work/amr</text>
<text text-anchor="start" x="8" y="-111.5" font-family="Helvetica,sans-Serif" font-size="10.00">&#45;wind/amr&#45;wind/src/equation</text>
<text text-anchor="middle" x="78" y="-100.5" font-family="Helvetica,sans-Serif" font-size="10.00">_systems/icns/icns_bcop.H</text>
</a>
</g>
</g>
<!-- Node4&#45;&gt;Node6 -->
<g id="edge5_Node000004_Node000006" class="edge">
<title>Node4&#45;&gt;Node6</title>
<g id="a_edge5_Node000004_Node000006"><a xlink:title=" ">
<path fill="none" stroke="#63b8ff" d="M1034.85,-175.99C650.07,-126.73 544.19,-201.41 165,-140 156.62,-138.64 147.91,-136.75 139.37,-134.6"/>
<polygon fill="#63b8ff" stroke="#63b8ff" points="1034.5,-179.47 1044.86,-177.29 1035.4,-172.53 1034.5,-179.47"/>
</a>
</g>
</g>
<!-- Node8 -->
<g id="Node000008" class="node">
<title>Node8</title>
<g id="a_Node000008"><a xlink:href="levelset_8cpp.html" target="_top" xlink:title=" ">
<polygon fill="white" stroke="#666666" points="341.5,-134.5 174.5,-134.5 174.5,-93.5 341.5,-93.5 341.5,-134.5"/>
<text text-anchor="start" x="182.5" y="-122.5" font-family="Helvetica,sans-Serif" font-size="10.00">/home/runner/work/amr</text>
<text text-anchor="start" x="182.5" y="-111.5" font-family="Helvetica,sans-Serif" font-size="10.00">&#45;wind/amr&#45;wind/src/equation</text>
<text text-anchor="middle" x="258" y="-100.5" font-family="Helvetica,sans-Serif" font-size="10.00">_systems/levelset/levelset.cpp</text>
</a>
</g>
</g>
<!-- Node4&#45;&gt;Node8 -->
<g id="edge7_Node000004_Node000008" class="edge">
<title>Node4&#45;&gt;Node8</title>
<g id="a_edge7_Node000004_Node000008"><a xlink:title=" ">
<path fill="none" stroke="#63b8ff" d="M1034.9,-175.99C731.74,-135.61 648.22,-187.79 350,-140 341.26,-138.6 332.15,-136.69 323.21,-134.55"/>
<polygon fill="#63b8ff" stroke="#63b8ff" points="1034.48,-179.46 1044.86,-177.34 1035.42,-172.52 1034.48,-179.46"/>
</a>
</g>
</g>
<!-- Node9 -->
<g id="Node000009" class="node">
<title>Node9</title>
<g id="a_Node000009"><a xlink:href="passive__scalar_8cpp.html" target="_top" xlink:title=" ">
<polygon fill="white" stroke="#666666" points="538.5,-140 359.5,-140 359.5,-88 538.5,-88 538.5,-140"/>
<text text-anchor="start" x="367.5" y="-128" font-family="Helvetica,sans-Serif" font-size="10.00">/home/runner/work/amr</text>
<text text-anchor="start" x="367.5" y="-117" font-family="Helvetica,sans-Serif" font-size="10.00">&#45;wind/amr&#45;wind/src/equation</text>
<text text-anchor="start" x="367.5" y="-106" font-family="Helvetica,sans-Serif" font-size="10.00">_systems/passive_scalar/passive</text>
<text text-anchor="middle" x="449" y="-95" font-family="Helvetica,sans-Serif" font-size="10.00">_scalar.cpp</text>
</a>
</g>
</g>
<!-- Node4&#45;&gt;Node9 -->
<g id="edge8_Node000004_Node000009" class="edge">
<title>Node4&#45;&gt;Node9</title>
<g id="a_edge8_Node000004_Node000009"><a xlink:title=" ">
<path fill="none" stroke="#63b8ff" d="M1034.79,-175.95C819.07,-145.04 759.43,-174.23 548,-140 544.94,-139.5 541.83,-138.96 538.7,-138.37"/>
<polygon fill="#63b8ff" stroke="#63b8ff" points="1034.45,-179.43 1044.85,-177.41 1035.46,-172.51 1034.45,-179.43"/>
</a>
</g>
</g>
<!-- Node10 -->
<g id="Node000010" class="node">
<title>Node10</title>
<g id="a_Node000010"><a xlink:href="_s_d_r_8cpp.html" target="_top" xlink:title=" ">
<polygon fill="white" stroke="#666666" points="713,-134.5 557,-134.5 557,-93.5 713,-93.5 713,-134.5"/>
<text text-anchor="start" x="565" y="-122.5" font-family="Helvetica,sans-Serif" font-size="10.00">/home/runner/work/amr</text>
<text text-anchor="start" x="565" y="-111.5" font-family="Helvetica,sans-Serif" font-size="10.00">&#45;wind/amr&#45;wind/src/equation</text>
<text text-anchor="middle" x="635" y="-100.5" font-family="Helvetica,sans-Serif" font-size="10.00">_systems/sdr/SDR.cpp</text>
</a>
</g>
</g>
<!-- Node4&#45;&gt;Node10 -->
<g id="edge9_Node000004_Node000010" class="edge">
<title>Node4&#45;&gt;Node10</title>
<g id="a_edge9_Node000004_Node000010"><a xlink:title=" ">
<path fill="none" stroke="#63b8ff" d="M1034.64,-175.88C895.67,-153.28 856.52,-166.85 722,-140 714.29,-138.46 706.28,-136.57 698.37,-134.52"/>
<polygon fill="#63b8ff" stroke="#63b8ff" points="1034.38,-179.38 1044.82,-177.57 1035.53,-172.47 1034.38,-179.38"/>
</a>
</g>
</g>
<!-- Node11 -->
<g id="Node000011" class="node">
<title>Node11</title>
<g id="a_Node000011"><a xlink:href="temperature_8cpp.html" target="_top" xlink:title=" ">
<polygon fill="white" stroke="#666666" points="942.5,-134.5 731.5,-134.5 731.5,-93.5 942.5,-93.5 942.5,-134.5"/>
<text text-anchor="start" x="739.5" y="-122.5" font-family="Helvetica,sans-Serif" font-size="10.00">/home/runner/work/amr</text>
<text text-anchor="start" x="739.5" y="-111.5" font-family="Helvetica,sans-Serif" font-size="10.00">&#45;wind/amr&#45;wind/src/equation</text>
<text text-anchor="middle" x="837" y="-100.5" font-family="Helvetica,sans-Serif" font-size="10.00">_systems/temperature/temperature.cpp</text>
</a>
</g>
</g>
<!-- Node4&#45;&gt;Node11 -->
<g id="edge10_Node000004_Node000011" class="edge">
<title>Node4&#45;&gt;Node11</title>
<g id="a_edge10_Node000004_Node000011"><a xlink:title=" ">
<path fill="none" stroke="#63b8ff" d="M1043.53,-173.13C1000.48,-161.02 947.8,-146.19 906.41,-134.54"/>
<polygon fill="#63b8ff" stroke="#63b8ff" points="1042.83,-176.57 1053.4,-175.91 1044.72,-169.83 1042.83,-176.57"/>
</a>
</g>
</g>
<!-- Node12 -->
<g id="Node000012" class="node">
<title>Node12</title>
<g id="a_Node000012"><a xlink:href="_t_k_e_8cpp.html" target="_top" xlink:title=" ">
<polygon fill="white" stroke="#666666" points="1117,-134.5 961,-134.5 961,-93.5 1117,-93.5 1117,-134.5"/>
<text text-anchor="start" x="969" y="-122.5" font-family="Helvetica,sans-Serif" font-size="10.00">/home/runner/work/amr</text>
<text text-anchor="start" x="969" y="-111.5" font-family="Helvetica,sans-Serif" font-size="10.00">&#45;wind/amr&#45;wind/src/equation</text>
<text text-anchor="middle" x="1039" y="-100.5" font-family="Helvetica,sans-Serif" font-size="10.00">_systems/tke/TKE.cpp</text>
</a>
</g>
</g>
<!-- Node4&#45;&gt;Node12 -->
<g id="edge11_Node000004_Node000012" class="edge">
<title>Node4&#45;&gt;Node12</title>
<g id="a_edge11_Node000004_Node000012"><a xlink:title=" ">
<path fill="none" stroke="#63b8ff" d="M1094.9,-168.57C1083.33,-157.48 1070.17,-144.87 1059.53,-134.67"/>
<polygon fill="#63b8ff" stroke="#63b8ff" points="1092.59,-171.21 1102.24,-175.6 1097.44,-166.16 1092.59,-171.21"/>
</a>
</g>
</g>
<!-- Node13 -->
<g id="Node000013" class="node">
<title>Node13</title>
<g id="a_Node000013"><a xlink:href="vof_8cpp.html" target="_top" xlink:title=" ">
<polygon fill="white" stroke="#666666" points="1786,-46.5 1630,-46.5 1630,-5.5 1786,-5.5 1786,-46.5"/>
<text text-anchor="start" x="1638" y="-34.5" font-family="Helvetica,sans-Serif" font-size="10.00">/home/runner/work/amr</text>
<text text-anchor="start" x="1638" y="-23.5" font-family="Helvetica,sans-Serif" font-size="10.00">&#45;wind/amr&#45;wind/src/equation</text>
<text text-anchor="middle" x="1708" y="-12.5" font-family="Helvetica,sans-Serif" font-size="10.00">_systems/vof/vof.cpp</text>
</a>
</g>
</g>
<!-- Node4&#45;&gt;Node13 -->
<g id="edge12_Node000004_Node000013" class="edge">
<title>Node4&#45;&gt;Node13</title>
<g id="a_edge12_Node000004_Node000013"><a xlink:title=" ">
<path fill="none" stroke="#63b8ff" d="M1211.11,-190.12C1348.25,-181.13 1600.78,-161.87 1636,-140 1645.14,-134.33 1678.67,-77.84 1696.57,-46.94"/>
<polygon fill="#63b8ff" stroke="#63b8ff" points="1210.79,-186.63 1201.03,-190.78 1211.24,-193.62 1210.79,-186.63"/>
</a>
</g>
</g>
<!-- Node14 -->
<g id="Node000014" class="node">
<title>Node14</title>
<g id="a_Node000014"><a xlink:href="vof__bcop_8_h.html" target="_top" xlink:title=" ">
<polygon fill="white" stroke="#666666" points="1839,-134.5 1683,-134.5 1683,-93.5 1839,-93.5 1839,-134.5"/>
<text text-anchor="start" x="1691" y="-122.5" font-family="Helvetica,sans-Serif" font-size="10.00">/home/runner/work/amr</text>
<text text-anchor="start" x="1691" y="-111.5" font-family="Helvetica,sans-Serif" font-size="10.00">&#45;wind/amr&#45;wind/src/equation</text>
<text text-anchor="middle" x="1761" y="-100.5" font-family="Helvetica,sans-Serif" font-size="10.00">_systems/vof/vof_bcop.H</text>
</a>
</g>
</g>
<!-- Node4&#45;&gt;Node14 -->
<g id="edge13_Node000004_Node000014" class="edge">
<title>Node4&#45;&gt;Node14</title>
<g id="a_edge13_Node000004_Node000014"><a xlink:title=" ">
<path fill="none" stroke="#63b8ff" d="M1211.58,-190.97C1320.11,-184.4 1509.27,-169.61 1669,-140 1677.22,-138.48 1685.77,-136.58 1694.22,-134.52"/>
<polygon fill="#63b8ff" stroke="#63b8ff" points="1211.1,-187.49 1201.33,-191.58 1211.52,-194.48 1211.1,-187.49"/>
</a>
</g>
</g>
<!-- Node15 -->
<g id="Node000015" class="node">
<title>Node15</title>
<g id="a_Node000015"><a xlink:href="waves2amr__ops_8_h.html" target="_top" xlink:title=" ">
<polygon fill="white" stroke="#666666" points="1278.5,-140 1135.5,-140 1135.5,-88 1278.5,-88 1278.5,-140"/>
<text text-anchor="start" x="1143.5" y="-128" font-family="Helvetica,sans-Serif" font-size="10.00">/home/runner/work/amr</text>
<text text-anchor="start" x="1143.5" y="-117" font-family="Helvetica,sans-Serif" font-size="10.00">&#45;wind/amr&#45;wind/src/ocean</text>
<text text-anchor="start" x="1143.5" y="-106" font-family="Helvetica,sans-Serif" font-size="10.00">_waves/relaxation_zones</text>
<text text-anchor="middle" x="1207" y="-95" font-family="Helvetica,sans-Serif" font-size="10.00">/waves2amr_ops.H</text>
</a>
</g>
</g>
<!-- Node4&#45;&gt;Node15 -->
<g id="edge15_Node000004_Node000015" class="edge">
<title>Node4&#45;&gt;Node15</title>
<g id="a_edge15_Node000004_Node000015"><a xlink:title=" ">
<path fill="none" stroke="#63b8ff" d="M1151.15,-168.52C1160.71,-159.36 1171.35,-149.17 1180.75,-140.16"/>
<polygon fill="#63b8ff" stroke="#63b8ff" points="1148.56,-166.16 1143.76,-175.6 1153.41,-171.21 1148.56,-166.16"/>
</a>
</g>
</g>
<!-- Node17 -->
<g id="Node000017" class="node">
<title>Node17</title>
<g id="a_Node000017"><a xlink:href="_multi_phase_8cpp.html" target="_top" xlink:title=" ">
<polygon fill="white" stroke="#666666" points="1627,-134.5 1475,-134.5 1475,-93.5 1627,-93.5 1627,-134.5"/>
<text text-anchor="start" x="1483" y="-122.5" font-family="Helvetica,sans-Serif" font-size="10.00">/home/runner/work/amr</text>
<text text-anchor="start" x="1483" y="-111.5" font-family="Helvetica,sans-Serif" font-size="10.00">&#45;wind/amr&#45;wind/src/physics</text>
<text text-anchor="middle" x="1551" y="-100.5" font-family="Helvetica,sans-Serif" font-size="10.00">/multiphase/MultiPhase.cpp</text>
</a>
</g>
</g>
<!-- Node4&#45;&gt;Node17 -->
<g id="edge17_Node000004_Node000017" class="edge">
<title>Node4&#45;&gt;Node17</title>
<g id="a_edge17_Node000004_Node000017"><a xlink:title=" ">
<path fill="none" stroke="#63b8ff" d="M1211.24,-184.33C1280.86,-174.77 1380.21,-159.47 1466,-140 1473.05,-138.4 1480.38,-136.54 1487.64,-134.58"/>
<polygon fill="#63b8ff" stroke="#63b8ff" points="1210.62,-180.88 1201.18,-185.7 1211.57,-187.82 1210.62,-180.88"/>
</a>
</g>
</g>
<!-- Node7 -->
<g id="Node000007" class="node">
<title>Node7</title>
<g id="a_Node000007"><a xlink:href="icns_8cpp.html" target="_top" xlink:title=" ">
<polygon fill="white" stroke="#666666" points="156,-46.5 0,-46.5 0,-5.5 156,-5.5 156,-46.5"/>
<text text-anchor="start" x="8" y="-34.5" font-family="Helvetica,sans-Serif" font-size="10.00">/home/runner/work/amr</text>
<text text-anchor="start" x="8" y="-23.5" font-family="Helvetica,sans-Serif" font-size="10.00">&#45;wind/amr&#45;wind/src/equation</text>
<text text-anchor="middle" x="78" y="-12.5" font-family="Helvetica,sans-Serif" font-size="10.00">_systems/icns/icns.cpp</text>
</a>
</g>
</g>
<!-- Node6&#45;&gt;Node7 -->
<g id="edge6_Node000006_Node000007" class="edge">
<title>Node6&#45;&gt;Node7</title>
<g id="a_edge6_Node000006_Node000007"><a xlink:title=" ">
<path fill="none" stroke="#63b8ff" d="M78,-83.36C78,-71.26 78,-57.58 78,-46.74"/>
<polygon fill="#63b8ff" stroke="#63b8ff" points="74.5,-83.49 78,-93.49 81.5,-83.49 74.5,-83.49"/>
</a>
</g>
</g>
<!-- Node14&#45;&gt;Node13 -->
<g id="edge14_Node000014_Node000013" class="edge">
<title>Node14&#45;&gt;Node13</title>
<g id="a_edge14_Node000014_Node000013"><a xlink:title=" ">
<path fill="none" stroke="#63b8ff" d="M1743.63,-84.82C1735.96,-72.37 1727.12,-58.02 1720.16,-46.74"/>
<polygon fill="#63b8ff" stroke="#63b8ff" points="1740.75,-86.81 1748.97,-93.49 1746.71,-83.14 1740.75,-86.81"/>
</a>
</g>
</g>
<!-- Node16 -->
<g id="Node000016" class="node">
<title>Node16</title>
<g id="a_Node000016"><a xlink:href="_w2_a_waves_8cpp.html" target="_top" xlink:title=" ">
<polygon fill="white" stroke="#666666" points="1278.5,-52 1135.5,-52 1135.5,0 1278.5,0 1278.5,-52"/>
<text text-anchor="start" x="1143.5" y="-40" font-family="Helvetica,sans-Serif" font-size="10.00">/home/runner/work/amr</text>
<text text-anchor="start" x="1143.5" y="-29" font-family="Helvetica,sans-Serif" font-size="10.00">&#45;wind/amr&#45;wind/src/ocean</text>
<text text-anchor="start" x="1143.5" y="-18" font-family="Helvetica,sans-Serif" font-size="10.00">_waves/relaxation_zones</text>
<text text-anchor="middle" x="1207" y="-7" font-family="Helvetica,sans-Serif" font-size="10.00">/W2AWaves.cpp</text>
</a>
</g>
</g>
<!-- Node15&#45;&gt;Node16 -->
<g id="edge16_Node000015_Node000016" class="edge">
<title>Node15&#45;&gt;Node16</title>
<g id="a_edge16_Node000015_Node000016"><a xlink:title=" ">
<path fill="none" stroke="#63b8ff" d="M1207,-77.56C1207,-69.04 1207,-60.1 1207,-52.16"/>
<polygon fill="#63b8ff" stroke="#63b8ff" points="1203.5,-77.66 1207,-87.66 1210.5,-77.66 1203.5,-77.66"/>
</a>
</g>
</g>
<!-- Node18&#45;&gt;Node14 -->
<g id="edge19_Node000018_Node000014" class="edge">
<title>Node18&#45;&gt;Node14</title>
<g id="a_edge19_Node000018_Node000014"><a xlink:title=" ">
<path fill="none" stroke="#63b8ff" d="M1626.73,-171.89C1654.69,-160.04 1688.15,-145.87 1714.67,-134.63"/>
<polygon fill="#63b8ff" stroke="#63b8ff" points="1625.32,-168.68 1617.48,-175.81 1628.05,-175.13 1625.32,-168.68"/>
</a>
</g>
</g>
</g>
</svg>
