<?xml version="1.0" encoding="UTF-8" standalone="no"?>
<!DOCTYPE svg PUBLIC "-//W3C//DTD SVG 1.1//EN"
 "http://www.w3.org/Graphics/SVG/1.1/DTD/svg11.dtd">
<!-- Generated by graphviz version 2.43.0 (0)
 -->
<!-- Title: /home/runner/work/amr&#45;wind/amr&#45;wind/src/utilities/sampling/DTUSpinnerSampler.H Pages: 1 -->
<!--zoomable 434 -->

<svg id="main" version="1.1" xmlns="http://www.w3.org/2000/svg" xmlns:xlink="http://www.w3.org/1999/xlink" xml:space="preserve" onload="init(evt)">

<style type="text/css"><![CDATA[
.node, .edge {opacity: 0.7;}
.node.selected, .edge.selected {opacity: 1;}
.edge:hover path { stroke: red; }
.edge:hover polygon { stroke: red; fill: red; }
]]></style>

<defs>
  <circle id="rim" cx="0" cy="0" r="7"/>
  <circle id="rim2" cx="0" cy="0" r="3.5"/>
  <g id="zoomPlus">
    <use xlink:href="#rim" fill="#404040"><set attributeName="fill" to="#808080" begin="zoomplus.mouseover" end="zoomplus.mouseout"/></use>
    <path d="M-4,0h8M0,-4v8" fill="none" stroke="white" stroke-width="1.5" pointer-events="none"/>
  </g>
  <g id="zoomMin">
    <use xlink:href="#rim" fill="#404040"><set attributeName="fill" to="#808080" begin="zoomminus.mouseover" end="zoomminus.mouseout"/></use>
    <path d="M-4,0h8" fill="none" stroke="white" stroke-width="1.5" pointer-events="none"/>
  </g>
  <g id="arrowUp" transform="translate(30 24)">
    <use xlink:href="#rim"/>
    <path pointer-events="none" fill="none" stroke="white" stroke-width="1.5" d="M0,-3.0v7 M-2.5,-0.5L0,-3.0L2.5,-0.5"/>
  </g>
  <g id="arrowRight" transform="rotate(90) translate(36 -43)">
    <use xlink:href="#rim"/>
    <path pointer-events="none" fill="none" stroke="white" stroke-width="1.5" d="M0,-3.0v7 M-2.5,-0.5L0,-3.0L2.5,-0.5"/>
  </g>
  <g id="arrowDown" transform="rotate(180) translate(-30 -48)">
    <use xlink:href="#rim"/>
    <path pointer-events="none" fill="none" stroke="white" stroke-width="1.5" d="M0,-3.0v7 M-2.5,-0.5L0,-3.0L2.5,-0.5"/>
  </g>
  <g id="arrowLeft" transform="rotate(270) translate(-36 17)">
    <use xlink:href="#rim"/>
    <path pointer-events="none" fill="none" stroke="white" stroke-width="1.5" d="M0,-3.0v7 M-2.5,-0.5L0,-3.0L2.5,-0.5"/>
  </g>
  <g id="resetDef">
    <use xlink:href="#rim2" fill="#404040"><set attributeName="fill" to="#808080" begin="reset.mouseover" end="reset.mouseout"/></use>
  </g>
</defs>
<script type="application/ecmascript">
var viewWidth = 1698;
var viewHeight = 434;
var sectionId = 'dynsection-0';
</script>
<script type="application/ecmascript" xlink:href="svg.min.js"/>
<svg id="graph" class="graph">
<g id="viewport">
<title>/home/runner/work/amr&#45;wind/amr&#45;wind/src/utilities/sampling/DTUSpinnerSampler.H</title>
<!-- Node1 -->
<g id="Node000001" class="node">
<title>Node1</title>
<g id="a_Node000001"><a xlink:title=" ">
<polygon fill="#999999" stroke="#666666" points="1146,-426 970,-426 970,-385 1146,-385 1146,-426"/>
<text text-anchor="start" x="978" y="-414" font-family="Helvetica,sans-Serif" font-size="10.00">/home/runner/work/amr</text>
<text text-anchor="start" x="978" y="-403" font-family="Helvetica,sans-Serif" font-size="10.00">&#45;wind/amr&#45;wind/src/utilities</text>
<text text-anchor="middle" x="1058" y="-392" font-family="Helvetica,sans-Serif" font-size="10.00">/sampling/DTUSpinnerSampler.H</text>
</a>
</g>
</g>
<!-- Node2 -->
<g id="Node000002" class="node">
<title>Node2</title>
<g id="a_Node000002"><a xlink:href="_sampling_utils_8_h.html" target="_top" xlink:title=" ">
<polygon fill="white" stroke="#666666" points="1073.5,-349 954.5,-349 954.5,-319 1073.5,-319 1073.5,-349"/>
<text text-anchor="start" x="962.5" y="-337" font-family="Helvetica,sans-Serif" font-size="10.00">src/utilities/sampling</text>
<text text-anchor="middle" x="1014" y="-326" font-family="Helvetica,sans-Serif" font-size="10.00">/SamplingUtils.H</text>
</a>
</g>
</g>
<!-- Node1&#45;&gt;Node2 -->
<g id="edge1_Node000001_Node000002" class="edge">
<title>Node1&#45;&gt;Node2</title>
<g id="a_edge1_Node000001_Node000002"><a xlink:title=" ">
<path fill="none" stroke="#63b8ff" d="M1045.51,-384.77C1040.15,-376.31 1033.87,-366.38 1028.32,-357.63"/>
<polygon fill="#63b8ff" stroke="#63b8ff" points="1031.19,-355.62 1022.89,-349.04 1025.28,-359.36 1031.19,-355.62"/>
</a>
</g>
</g>
<!-- Node5 -->
<g id="Node000005" class="node">
<title>Node5</title>
<g id="a_Node000005"><a xlink:href="vector__space_8_h.html" target="_top" xlink:title=" ">
<polygon fill="white" stroke="#666666" points="1233.5,-283 1130.5,-283 1130.5,-253 1233.5,-253 1233.5,-283"/>
<text text-anchor="start" x="1138.5" y="-271" font-family="Helvetica,sans-Serif" font-size="10.00">src/core/vs/vector</text>
<text text-anchor="middle" x="1182" y="-260" font-family="Helvetica,sans-Serif" font-size="10.00">_space.H</text>
</a>
</g>
</g>
<!-- Node1&#45;&gt;Node5 -->
<g id="edge53_Node000001_Node000005" class="edge">
<title>Node1&#45;&gt;Node5</title>
<g id="a_edge53_Node000001_Node000005"><a xlink:title=" ">
<path fill="none" stroke="#63b8ff" d="M1079.8,-384.78C1090.94,-374.43 1104.52,-361.35 1116,-349 1133.53,-330.13 1152.08,-307.36 1165.03,-290.95"/>
<polygon fill="#63b8ff" stroke="#63b8ff" points="1167.85,-293.03 1171.26,-283 1162.34,-288.72 1167.85,-293.03"/>
</a>
</g>
</g>
<!-- Node17 -->
<g id="Node000017" class="node">
<title>Node17</title>
<g id="a_Node000017"><a xlink:title=" ">
<polygon fill="#e0e0e0" stroke="#999999" points="1105,-19 1013,-19 1013,0 1105,0 1105,-19"/>
<text text-anchor="middle" x="1059" y="-7" font-family="Helvetica,sans-Serif" font-size="10.00">AMReX_REAL.H</text>
</a>
</g>
</g>
<!-- Node1&#45;&gt;Node17 -->
<g id="edge54_Node000001_Node000017" class="edge">
<title>Node1&#45;&gt;Node17</title>
<g id="a_edge54_Node000001_Node000017"><a xlink:title=" ">
<path fill="none" stroke="#63b8ff" d="M1068.65,-384.95C1081.67,-359.17 1102,-312.04 1102,-269 1102,-269 1102,-269 1102,-201 1102,-167.15 1075.84,-70.19 1064.33,-29.18"/>
<polygon fill="#63b8ff" stroke="#63b8ff" points="1067.65,-28.07 1061.56,-19.4 1060.91,-29.98 1067.65,-28.07"/>
</a>
</g>
</g>
<!-- Node20 -->
<g id="Node000020" class="node">
<title>Node20</title>
<g id="a_Node000020"><a xlink:href="_lidar_sampler_8_h.html" target="_top" xlink:title=" ">
<polygon fill="white" stroke="#666666" points="936.5,-349 817.5,-349 817.5,-319 936.5,-319 936.5,-349"/>
<text text-anchor="start" x="825.5" y="-337" font-family="Helvetica,sans-Serif" font-size="10.00">src/utilities/sampling</text>
<text text-anchor="middle" x="877" y="-326" font-family="Helvetica,sans-Serif" font-size="10.00">/LidarSampler.H</text>
</a>
</g>
</g>
<!-- Node1&#45;&gt;Node20 -->
<g id="edge30_Node000001_Node000020" class="edge">
<title>Node1&#45;&gt;Node20</title>
<g id="a_edge30_Node000001_Node000020"><a xlink:title=" ">
<path fill="none" stroke="#63b8ff" d="M1007.1,-384.96C980.68,-374.81 948.64,-362.51 922.97,-352.65"/>
<polygon fill="#63b8ff" stroke="#63b8ff" points="924.06,-349.32 913.47,-349 921.55,-355.86 924.06,-349.32"/>
</a>
</g>
</g>
<!-- Node3 -->
<g id="Node000003" class="node">
<title>Node3</title>
<g id="a_Node000003"><a xlink:title=" ">
<polygon fill="#e0e0e0" stroke="#999999" points="498,-19 454,-19 454,0 498,0 498,-19"/>
<text text-anchor="middle" x="476" y="-7" font-family="Helvetica,sans-Serif" font-size="10.00">string</text>
</a>
</g>
</g>
<!-- Node2&#45;&gt;Node3 -->
<g id="edge2_Node000002_Node000003" class="edge">
<title>Node2&#45;&gt;Node3</title>
<g id="a_edge2_Node000002_Node000003"><a xlink:title=" ">
<path fill="none" stroke="#63b8ff" d="M954.03,-319.43C828.17,-290.52 548,-223.84 548,-203 548,-203 548,-203 548,-135 548,-90.97 513.84,-48.52 492.57,-26.37"/>
<polygon fill="#63b8ff" stroke="#63b8ff" points="494.94,-23.79 485.41,-19.16 489.98,-28.72 494.94,-23.79"/>
</a>
</g>
</g>
<!-- Node4 -->
<g id="Node000004" class="node">
<title>Node4</title>
<g id="a_Node000004"><a xlink:title=" ">
<polygon fill="#e0e0e0" stroke="#999999" points="882,-277.5 832,-277.5 832,-258.5 882,-258.5 882,-277.5"/>
<text text-anchor="middle" x="857" y="-265.5" font-family="Helvetica,sans-Serif" font-size="10.00">cstdint</text>
</a>
</g>
</g>
<!-- Node2&#45;&gt;Node4 -->
<g id="edge3_Node000002_Node000004" class="edge">
<title>Node2&#45;&gt;Node4</title>
<g id="a_edge3_Node000002_Node000004"><a xlink:title=" ">
<path fill="none" stroke="#63b8ff" d="M979.26,-318.93C954.61,-308.93 920.76,-295.18 891,-283 889.8,-282.51 888.58,-282.01 887.35,-281.51"/>
<polygon fill="#63b8ff" stroke="#63b8ff" points="888.43,-278.17 877.85,-277.6 885.77,-284.64 888.43,-278.17"/>
</a>
</g>
</g>
<!-- Node2&#45;&gt;Node5 -->
<g id="edge4_Node000002_Node000005" class="edge">
<title>Node2&#45;&gt;Node5</title>
<g id="a_edge4_Node000002_Node000005"><a xlink:title=" ">
<path fill="none" stroke="#63b8ff" d="M1050.87,-318.95C1075.82,-309.45 1108.96,-296.82 1135.69,-286.64"/>
<polygon fill="#63b8ff" stroke="#63b8ff" points="1137.12,-289.84 1145.22,-283.01 1134.63,-283.3 1137.12,-289.84"/>
</a>
</g>
</g>
<!-- Node2&#45;&gt;Node17 -->
<g id="edge29_Node000002_Node000017" class="edge">
<title>Node2&#45;&gt;Node17</title>
<g id="a_edge29_Node000002_Node000017"><a xlink:title=" ">
<path fill="none" stroke="#63b8ff" d="M1016.15,-319C1019.6,-295.21 1026,-245.38 1026,-203 1026,-203 1026,-203 1026,-135 1026,-96.02 1041.3,-52.41 1051.06,-28.54"/>
<polygon fill="#63b8ff" stroke="#63b8ff" points="1054.41,-29.62 1055.08,-19.05 1047.96,-26.89 1054.41,-29.62"/>
</a>
</g>
</g>
<!-- Node18 -->
<g id="Node000018" class="node">
<title>Node18</title>
<g id="a_Node000018"><a xlink:href="tensor__ops_8_h.html" target="_top" xlink:title=" ">
<polygon fill="white" stroke="#666666" points="1196,-85 1092,-85 1092,-55 1196,-55 1196,-85"/>
<text text-anchor="start" x="1100" y="-73" font-family="Helvetica,sans-Serif" font-size="10.00">src/utilities/tensor</text>
<text text-anchor="middle" x="1144" y="-62" font-family="Helvetica,sans-Serif" font-size="10.00">_ops.H</text>
</a>
</g>
</g>
<!-- Node2&#45;&gt;Node18 -->
<g id="edge25_Node000002_Node000018" class="edge">
<title>Node2&#45;&gt;Node18</title>
<g id="a_edge25_Node000002_Node000018"><a xlink:title=" ">
<path fill="none" stroke="#63b8ff" d="M1021.6,-318.61C1026.83,-308.64 1033.91,-295.05 1040,-283 1074.44,-214.84 1113.82,-133.62 1132.72,-94.44"/>
<polygon fill="#63b8ff" stroke="#63b8ff" points="1135.99,-95.73 1137.18,-85.2 1129.68,-92.69 1135.99,-95.73"/>
</a>
</g>
</g>
<!-- Node19 -->
<g id="Node000019" class="node">
<title>Node19</title>
<g id="a_Node000019"><a xlink:title=" ">
<polygon fill="#e0e0e0" stroke="#999999" points="998,-277.5 900,-277.5 900,-258.5 998,-258.5 998,-277.5"/>
<text text-anchor="middle" x="949" y="-265.5" font-family="Helvetica,sans-Serif" font-size="10.00">AMReX_Vector.H</text>
</a>
</g>
</g>
<!-- Node2&#45;&gt;Node19 -->
<g id="edge28_Node000002_Node000019" class="edge">
<title>Node2&#45;&gt;Node19</title>
<g id="a_edge28_Node000002_Node000019"><a xlink:title=" ">
<path fill="none" stroke="#63b8ff" d="M999.57,-318.8C989.44,-308.82 975.87,-295.46 965.34,-285.09"/>
<polygon fill="#63b8ff" stroke="#63b8ff" points="967.56,-282.37 957.98,-277.84 962.65,-287.35 967.56,-282.37"/>
</a>
</g>
</g>
<!-- Node6 -->
<g id="Node000006" class="node">
<title>Node6</title>
<g id="a_Node000006"><a xlink:href="vector_8_h.html" target="_top" xlink:title=" ">
<polygon fill="white" stroke="#666666" points="1550.5,-145.5 1437.5,-145.5 1437.5,-126.5 1550.5,-126.5 1550.5,-145.5"/>
<text text-anchor="middle" x="1494" y="-133.5" font-family="Helvetica,sans-Serif" font-size="10.00">src/core/vs/vector.H</text>
</a>
</g>
</g>
<!-- Node5&#45;&gt;Node6 -->
<g id="edge5_Node000005_Node000006" class="edge">
<title>Node5&#45;&gt;Node6</title>
<g id="a_edge5_Node000005_Node000006"><a xlink:title=" ">
<path fill="none" stroke="#63b8ff" d="M1233.78,-259.69C1275.48,-252.51 1334.88,-239.31 1383,-217 1419.56,-200.05 1456.4,-170.44 1477.1,-152.39"/>
<polygon fill="#63b8ff" stroke="#63b8ff" points="1479.54,-154.9 1484.7,-145.65 1474.9,-149.67 1479.54,-154.9"/>
</a>
</g>
</g>
<!-- Node13 -->
<g id="Node000013" class="node">
<title>Node13</title>
<g id="a_Node000013"><a xlink:href="tensor_8_h.html" target="_top" xlink:title=" ">
<polygon fill="white" stroke="#666666" points="1373.5,-211.5 1260.5,-211.5 1260.5,-192.5 1373.5,-192.5 1373.5,-211.5"/>
<text text-anchor="middle" x="1317" y="-199.5" font-family="Helvetica,sans-Serif" font-size="10.00">src/core/vs/tensor.H</text>
</a>
</g>
</g>
<!-- Node5&#45;&gt;Node13 -->
<g id="edge13_Node000005_Node000013" class="edge">
<title>Node5&#45;&gt;Node13</title>
<g id="a_edge13_Node000005_Node000013"><a xlink:title=" ">
<path fill="none" stroke="#63b8ff" d="M1211.63,-252.95C1234.99,-241.88 1267.3,-226.56 1289.97,-215.82"/>
<polygon fill="#63b8ff" stroke="#63b8ff" points="1291.5,-218.96 1299.03,-211.52 1288.5,-212.64 1291.5,-218.96"/>
</a>
</g>
</g>
<!-- Node7 -->
<g id="Node000007" class="node">
<title>Node7</title>
<g id="a_Node000007"><a xlink:title=" ">
<polygon fill="#e0e0e0" stroke="#999999" points="1259.5,-19 1172.5,-19 1172.5,0 1259.5,0 1259.5,-19"/>
<text text-anchor="middle" x="1216" y="-7" font-family="Helvetica,sans-Serif" font-size="10.00">AMReX_Gpu.H</text>
</a>
</g>
</g>
<!-- Node6&#45;&gt;Node7 -->
<g id="edge6_Node000006_Node000007" class="edge">
<title>Node6&#45;&gt;Node7</title>
<g id="a_edge6_Node000006_Node000007"><a xlink:title=" ">
<path fill="none" stroke="#63b8ff" d="M1480.64,-126.38C1455.86,-110.64 1400.74,-76.87 1351,-55 1320.45,-41.57 1284.51,-29.91 1257.39,-21.9"/>
<polygon fill="#63b8ff" stroke="#63b8ff" points="1258.04,-18.44 1247.46,-19.01 1256.09,-25.17 1258.04,-18.44"/>
</a>
</g>
</g>
<!-- Node8 -->
<g id="Node000008" class="node">
<title>Node8</title>
<g id="a_Node000008"><a xlink:href="vstraits_8_h.html" target="_top" xlink:title=" ">
<polygon fill="white" stroke="#666666" points="1555.5,-79.5 1436.5,-79.5 1436.5,-60.5 1555.5,-60.5 1555.5,-79.5"/>
<text text-anchor="middle" x="1496" y="-67.5" font-family="Helvetica,sans-Serif" font-size="10.00">src/core/vs/vstraits.H</text>
</a>
</g>
</g>
<!-- Node6&#45;&gt;Node8 -->
<g id="edge7_Node000006_Node000008" class="edge">
<title>Node6&#45;&gt;Node8</title>
<g id="a_edge7_Node000006_Node000008"><a xlink:title=" ">
<path fill="none" stroke="#63b8ff" d="M1494.27,-126.37C1494.56,-117.16 1495.02,-102.29 1495.4,-90.27"/>
<polygon fill="#63b8ff" stroke="#63b8ff" points="1498.91,-90.01 1495.72,-79.91 1491.91,-89.79 1498.91,-90.01"/>
</a>
</g>
</g>
<!-- Node10 -->
<g id="Node000010" class="node">
<title>Node10</title>
<g id="a_Node000010"><a xlink:href="vector_i_8_h.html" target="_top" xlink:title=" ">
<polygon fill="white" stroke="#666666" points="1690,-79.5 1574,-79.5 1574,-60.5 1690,-60.5 1690,-79.5"/>
<text text-anchor="middle" x="1632" y="-67.5" font-family="Helvetica,sans-Serif" font-size="10.00">src/core/vs/vectorI.H</text>
</a>
</g>
</g>
<!-- Node6&#45;&gt;Node10 -->
<g id="edge9_Node000006_Node000010" class="edge">
<title>Node6&#45;&gt;Node10</title>
<g id="a_edge9_Node000006_Node000010"><a xlink:title=" ">
<path fill="none" stroke="#63b8ff" d="M1507.82,-126.37C1529.14,-115.39 1569.95,-96.36 1599.06,-83.72"/>
<polygon fill="#63b8ff" stroke="#63b8ff" points="1600.63,-86.86 1608.44,-79.7 1597.87,-80.42 1600.63,-86.86"/>
</a>
</g>
</g>
<!-- Node9 -->
<g id="Node000009" class="node">
<title>Node9</title>
<g id="a_Node000009"><a xlink:title=" ">
<polygon fill="#e0e0e0" stroke="#999999" points="1518,-19 1474,-19 1474,0 1518,0 1518,-19"/>
<text text-anchor="middle" x="1496" y="-7" font-family="Helvetica,sans-Serif" font-size="10.00">limits</text>
</a>
</g>
</g>
<!-- Node8&#45;&gt;Node9 -->
<g id="edge8_Node000008_Node000009" class="edge">
<title>Node8&#45;&gt;Node9</title>
<g id="a_edge8_Node000008_Node000009"><a xlink:title=" ">
<path fill="none" stroke="#63b8ff" d="M1496,-60.37C1496,-52.25 1496,-39.81 1496,-29.39"/>
<polygon fill="#63b8ff" stroke="#63b8ff" points="1499.5,-29.17 1496,-19.17 1492.5,-29.17 1499.5,-29.17"/>
</a>
</g>
</g>
<!-- Node10&#45;&gt;Node6 -->
<g id="edge12_Node000010_Node000006" class="edge">
<title>Node10&#45;&gt;Node6</title>
<g id="a_edge12_Node000010_Node000006"><a xlink:title=" ">
<path fill="none" stroke="#63b8ff" d="M1618.05,-79.7C1596.65,-90.71 1555.83,-109.75 1526.76,-122.36"/>
<polygon fill="#63b8ff" stroke="#63b8ff" points="1525.21,-119.21 1517.4,-126.37 1527.97,-125.65 1525.21,-119.21"/>
</a>
</g>
</g>
<!-- Node11 -->
<g id="Node000011" class="node">
<title>Node11</title>
<g id="a_Node000011"><a xlink:title=" ">
<polygon fill="#e0e0e0" stroke="#999999" points="1660.5,-19 1603.5,-19 1603.5,0 1660.5,0 1660.5,-19"/>
<text text-anchor="middle" x="1632" y="-7" font-family="Helvetica,sans-Serif" font-size="10.00">ostream</text>
</a>
</g>
</g>
<!-- Node10&#45;&gt;Node11 -->
<g id="edge10_Node000010_Node000011" class="edge">
<title>Node10&#45;&gt;Node11</title>
<g id="a_edge10_Node000010_Node000011"><a xlink:title=" ">
<path fill="none" stroke="#63b8ff" d="M1632,-60.37C1632,-52.25 1632,-39.81 1632,-29.39"/>
<polygon fill="#63b8ff" stroke="#63b8ff" points="1635.5,-29.17 1632,-19.17 1628.5,-29.17 1635.5,-29.17"/>
</a>
</g>
</g>
<!-- Node12 -->
<g id="Node000012" class="node">
<title>Node12</title>
<g id="a_Node000012"><a xlink:title=" ">
<polygon fill="#e0e0e0" stroke="#999999" points="1401.5,-19 1354.5,-19 1354.5,0 1401.5,0 1401.5,-19"/>
<text text-anchor="middle" x="1378" y="-7" font-family="Helvetica,sans-Serif" font-size="10.00">cmath</text>
</a>
</g>
</g>
<!-- Node10&#45;&gt;Node12 -->
<g id="edge11_Node000010_Node000012" class="edge">
<title>Node10&#45;&gt;Node12</title>
<g id="a_edge11_Node000010_Node000012"><a xlink:title=" ">
<path fill="none" stroke="#63b8ff" d="M1595.07,-60.49C1545.72,-49.13 1458.98,-29.15 1411.46,-18.21"/>
<polygon fill="#63b8ff" stroke="#63b8ff" points="1412.19,-14.78 1401.66,-15.95 1410.62,-21.61 1412.19,-14.78"/>
</a>
</g>
</g>
<!-- Node13&#45;&gt;Node6 -->
<g id="edge16_Node000013_Node000006" class="edge">
<title>Node13&#45;&gt;Node6</title>
<g id="a_edge16_Node000013_Node000006"><a xlink:title=" ">
<path fill="none" stroke="#63b8ff" d="M1340.87,-192.37C1371.7,-181.22 1425.55,-161.75 1460.48,-149.12"/>
<polygon fill="#63b8ff" stroke="#63b8ff" points="1462.01,-152.29 1470.23,-145.6 1459.63,-145.71 1462.01,-152.29"/>
</a>
</g>
</g>
<!-- Node13&#45;&gt;Node7 -->
<g id="edge14_Node000013_Node000007" class="edge">
<title>Node13&#45;&gt;Node7</title>
<g id="a_edge14_Node000013_Node000007"><a xlink:title=" ">
<path fill="none" stroke="#63b8ff" d="M1299.43,-192.4C1284.06,-183.96 1262.32,-169.65 1250,-151 1224.84,-112.9 1218.27,-57.99 1216.57,-29.41"/>
<polygon fill="#63b8ff" stroke="#63b8ff" points="1220.06,-29.04 1216.11,-19.21 1213.07,-29.35 1220.06,-29.04"/>
</a>
</g>
</g>
<!-- Node13&#45;&gt;Node8 -->
<g id="edge15_Node000013_Node000008" class="edge">
<title>Node13&#45;&gt;Node8</title>
<g id="a_edge15_Node000013_Node000008"><a xlink:title=" ">
<path fill="none" stroke="#63b8ff" d="M1328.74,-192.47C1358.7,-170.72 1438.22,-112.96 1475.8,-85.67"/>
<polygon fill="#63b8ff" stroke="#63b8ff" points="1477.94,-88.44 1483.98,-79.73 1473.83,-82.78 1477.94,-88.44"/>
</a>
</g>
</g>
<!-- Node14 -->
<g id="Node000014" class="node">
<title>Node14</title>
<g id="a_Node000014"><a xlink:href="tensor_i_8_h.html" target="_top" xlink:title=" ">
<polygon fill="white" stroke="#666666" points="1375,-145.5 1259,-145.5 1259,-126.5 1375,-126.5 1375,-145.5"/>
<text text-anchor="middle" x="1317" y="-133.5" font-family="Helvetica,sans-Serif" font-size="10.00">src/core/vs/tensorI.H</text>
</a>
</g>
</g>
<!-- Node13&#45;&gt;Node14 -->
<g id="edge17_Node000013_Node000014" class="edge">
<title>Node13&#45;&gt;Node14</title>
<g id="a_edge17_Node000013_Node000014"><a xlink:title=" ">
<path fill="none" stroke="#63b8ff" d="M1312.21,-192.37C1310.22,-183.07 1309.75,-167.98 1310.78,-155.9"/>
<polygon fill="#63b8ff" stroke="#63b8ff" points="1314.26,-156.29 1312.15,-145.91 1307.32,-155.34 1314.26,-156.29"/>
</a>
</g>
</g>
<!-- Node14&#45;&gt;Node12 -->
<g id="edge18_Node000014_Node000012" class="edge">
<title>Node14&#45;&gt;Node12</title>
<g id="a_edge18_Node000014_Node000012"><a xlink:title=" ">
<path fill="none" stroke="#63b8ff" d="M1323.98,-126.21C1331.42,-116.54 1343.17,-100.33 1351,-85 1360.37,-66.66 1368.01,-44.3 1372.75,-28.89"/>
<polygon fill="#63b8ff" stroke="#63b8ff" points="1376.17,-29.64 1375.66,-19.05 1369.46,-27.65 1376.17,-29.64"/>
</a>
</g>
</g>
<!-- Node14&#45;&gt;Node13 -->
<g id="edge19_Node000014_Node000013" class="edge">
<title>Node14&#45;&gt;Node13</title>
<g id="a_edge19_Node000014_Node000013"><a xlink:title=" ">
<path fill="none" stroke="#63b8ff" d="M1321.85,-145.91C1323.8,-155.32 1324.25,-170.43 1323.19,-182.45"/>
<polygon fill="#63b8ff" stroke="#63b8ff" points="1319.72,-181.98 1321.79,-192.37 1326.65,-182.96 1319.72,-181.98"/>
</a>
</g>
</g>
<!-- Node15 -->
<g id="Node000015" class="node">
<title>Node15</title>
<g id="a_Node000015"><a xlink:href="trig__ops_8_h.html" target="_top" xlink:title=" ">
<polygon fill="white" stroke="#666666" points="1342,-85 1252,-85 1252,-55 1342,-55 1342,-85"/>
<text text-anchor="start" x="1260" y="-73" font-family="Helvetica,sans-Serif" font-size="10.00">src/utilities/trig</text>
<text text-anchor="middle" x="1297" y="-62" font-family="Helvetica,sans-Serif" font-size="10.00">_ops.H</text>
</a>
</g>
</g>
<!-- Node14&#45;&gt;Node15 -->
<g id="edge20_Node000014_Node000015" class="edge">
<title>Node14&#45;&gt;Node15</title>
<g id="a_edge20_Node000014_Node000015"><a xlink:title=" ">
<path fill="none" stroke="#63b8ff" d="M1314.3,-126.37C1311.79,-118.32 1307.92,-105.94 1304.48,-94.93"/>
<polygon fill="#63b8ff" stroke="#63b8ff" points="1307.81,-93.86 1301.49,-85.36 1301.13,-95.95 1307.81,-93.86"/>
</a>
</g>
</g>
<!-- Node15&#45;&gt;Node7 -->
<g id="edge24_Node000015_Node000007" class="edge">
<title>Node15&#45;&gt;Node7</title>
<g id="a_edge24_Node000015_Node000007"><a xlink:title=" ">
<path fill="none" stroke="#63b8ff" d="M1277.39,-54.84C1265.03,-45.91 1249.1,-34.41 1236.57,-25.35"/>
<polygon fill="#63b8ff" stroke="#63b8ff" points="1238.29,-22.28 1228.14,-19.27 1234.2,-27.96 1238.29,-22.28"/>
</a>
</g>
</g>
<!-- Node15&#45;&gt;Node12 -->
<g id="edge21_Node000015_Node000012" class="edge">
<title>Node15&#45;&gt;Node12</title>
<g id="a_edge21_Node000015_Node000012"><a xlink:title=" ">
<path fill="none" stroke="#63b8ff" d="M1316.61,-54.84C1328.97,-45.91 1344.9,-34.41 1357.43,-25.35"/>
<polygon fill="#63b8ff" stroke="#63b8ff" points="1359.8,-27.96 1365.86,-19.27 1355.71,-22.28 1359.8,-27.96"/>
</a>
</g>
</g>
<!-- Node16 -->
<g id="Node000016" class="node">
<title>Node16</title>
<g id="a_Node000016"><a xlink:title=" ">
<polygon fill="#e0e0e0" stroke="#999999" points="1336.5,-19 1277.5,-19 1277.5,0 1336.5,0 1336.5,-19"/>
<text text-anchor="middle" x="1307" y="-7" font-family="Helvetica,sans-Serif" font-size="10.00">numbers</text>
</a>
</g>
</g>
<!-- Node15&#45;&gt;Node16 -->
<g id="edge22_Node000015_Node000016" class="edge">
<title>Node15&#45;&gt;Node16</title>
<g id="a_edge22_Node000015_Node000016"><a xlink:title=" ">
<path fill="none" stroke="#63b8ff" d="M1299.42,-54.84C1300.74,-47.13 1302.39,-37.49 1303.81,-29.17"/>
<polygon fill="#63b8ff" stroke="#63b8ff" points="1307.27,-29.71 1305.5,-19.27 1300.37,-28.53 1307.27,-29.71"/>
</a>
</g>
</g>
<!-- Node15&#45;&gt;Node17 -->
<g id="edge23_Node000015_Node000017" class="edge">
<title>Node15&#45;&gt;Node17</title>
<g id="a_edge23_Node000015_Node000017"><a xlink:title=" ">
<path fill="none" stroke="#63b8ff" d="M1251.95,-57.93C1209.41,-47.47 1145.97,-31.88 1103.58,-21.46"/>
<polygon fill="#63b8ff" stroke="#63b8ff" points="1104.36,-18.05 1093.81,-19.06 1102.69,-24.84 1104.36,-18.05"/>
</a>
</g>
</g>
<!-- Node18&#45;&gt;Node7 -->
<g id="edge26_Node000018_Node000007" class="edge">
<title>Node18&#45;&gt;Node7</title>
<g id="a_edge26_Node000018_Node000007"><a xlink:title=" ">
<path fill="none" stroke="#63b8ff" d="M1161.43,-54.84C1172.31,-46 1186.3,-34.63 1197.39,-25.62"/>
<polygon fill="#63b8ff" stroke="#63b8ff" points="1199.66,-28.29 1205.21,-19.27 1195.24,-22.86 1199.66,-28.29"/>
</a>
</g>
</g>
<!-- Node18&#45;&gt;Node17 -->
<g id="edge27_Node000018_Node000017" class="edge">
<title>Node18&#45;&gt;Node17</title>
<g id="a_edge27_Node000018_Node000017"><a xlink:title=" ">
<path fill="none" stroke="#63b8ff" d="M1123.42,-54.84C1110.33,-45.83 1093.41,-34.18 1080.2,-25.09"/>
<polygon fill="#63b8ff" stroke="#63b8ff" points="1081.96,-22.05 1071.74,-19.27 1077.99,-27.82 1081.96,-22.05"/>
</a>
</g>
</g>
<!-- Node20&#45;&gt;Node5 -->
<g id="edge52_Node000020_Node000005" class="edge">
<title>Node20&#45;&gt;Node5</title>
<g id="a_edge52_Node000020_Node000005"><a xlink:title=" ">
<path fill="none" stroke="#63b8ff" d="M936.53,-320.51C989.46,-309.4 1066.56,-293.22 1120.17,-281.97"/>
<polygon fill="#63b8ff" stroke="#63b8ff" points="1121.16,-285.34 1130.23,-279.86 1119.73,-278.49 1121.16,-285.34"/>
</a>
</g>
</g>
<!-- Node21 -->
<g id="Node000021" class="node">
<title>Node21</title>
<g id="a_Node000021"><a xlink:href="_line_sampler_8_h.html" target="_top" xlink:title=" ">
<polygon fill="white" stroke="#666666" points="760.5,-217 641.5,-217 641.5,-187 760.5,-187 760.5,-217"/>
<text text-anchor="start" x="649.5" y="-205" font-family="Helvetica,sans-Serif" font-size="10.00">src/utilities/sampling</text>
<text text-anchor="middle" x="701" y="-194" font-family="Helvetica,sans-Serif" font-size="10.00">/LineSampler.H</text>
</a>
</g>
</g>
<!-- Node20&#45;&gt;Node21 -->
<g id="edge31_Node000020_Node000021" class="edge">
<title>Node20&#45;&gt;Node21</title>
<g id="a_edge31_Node000020_Node000021"><a xlink:title=" ">
<path fill="none" stroke="#63b8ff" d="M857.83,-318.84C826.49,-295.69 764.17,-249.66 728.25,-223.13"/>
<polygon fill="#63b8ff" stroke="#63b8ff" points="730.27,-220.27 720.15,-217.14 726.11,-225.9 730.27,-220.27"/>
</a>
</g>
</g>
<!-- Node22 -->
<g id="Node000022" class="node">
<title>Node22</title>
<g id="a_Node000022"><a xlink:href="_sampler_base_8_h.html" target="_top" xlink:title=" ">
<polygon fill="white" stroke="#666666" points="760.5,-151 641.5,-151 641.5,-121 760.5,-121 760.5,-151"/>
<text text-anchor="start" x="649.5" y="-139" font-family="Helvetica,sans-Serif" font-size="10.00">src/utilities/sampling</text>
<text text-anchor="middle" x="701" y="-128" font-family="Helvetica,sans-Serif" font-size="10.00">/SamplerBase.H</text>
</a>
</g>
</g>
<!-- Node21&#45;&gt;Node22 -->
<g id="edge32_Node000021_Node000022" class="edge">
<title>Node21&#45;&gt;Node22</title>
<g id="a_edge32_Node000021_Node000022"><a xlink:title=" ">
<path fill="none" stroke="#63b8ff" d="M701,-186.8C701,-179.34 701,-169.99 701,-161.41"/>
<polygon fill="#63b8ff" stroke="#63b8ff" points="704.5,-161.16 701,-151.16 697.5,-161.16 704.5,-161.16"/>
</a>
</g>
</g>
<!-- Node22&#45;&gt;Node17 -->
<g id="edge51_Node000022_Node000017" class="edge">
<title>Node22&#45;&gt;Node17</title>
<g id="a_edge51_Node000022_Node000017"><a xlink:title=" ">
<path fill="none" stroke="#63b8ff" d="M760.58,-132.45C816.7,-128.1 901.92,-116.41 969,-85 985.04,-77.49 1021.1,-45.54 1042.38,-26"/>
<polygon fill="#63b8ff" stroke="#63b8ff" points="1044.78,-28.55 1049.75,-19.2 1040.03,-23.41 1044.78,-28.55"/>
</a>
</g>
</g>
<!-- Node23 -->
<g id="Node000023" class="node">
<title>Node23</title>
<g id="a_Node000023"><a xlink:title=" ">
<polygon fill="#e0e0e0" stroke="#999999" points="960,-79.5 850,-79.5 850,-60.5 960,-60.5 960,-79.5"/>
<text text-anchor="middle" x="905" y="-67.5" font-family="Helvetica,sans-Serif" font-size="10.00">AMReX_RealVect.H</text>
</a>
</g>
</g>
<!-- Node22&#45;&gt;Node23 -->
<g id="edge33_Node000022_Node000023" class="edge">
<title>Node22&#45;&gt;Node23</title>
<g id="a_edge33_Node000022_Node000023"><a xlink:title=" ">
<path fill="none" stroke="#63b8ff" d="M745.77,-120.95C782.49,-109.43 833.84,-93.32 868.2,-82.54"/>
<polygon fill="#63b8ff" stroke="#63b8ff" points="869.36,-85.85 877.85,-79.52 867.26,-79.17 869.36,-85.85"/>
</a>
</g>
</g>
<!-- Node24 -->
<g id="Node000024" class="node">
<title>Node24</title>
<g id="a_Node000024"><a xlink:href="_factory_8_h.html" target="_top" xlink:title=" ">
<polygon fill="white" stroke="#666666" points="307,-79.5 205,-79.5 205,-60.5 307,-60.5 307,-79.5"/>
<text text-anchor="middle" x="256" y="-67.5" font-family="Helvetica,sans-Serif" font-size="10.00">src/core/Factory.H</text>
</a>
</g>
</g>
<!-- Node22&#45;&gt;Node24 -->
<g id="edge34_Node000022_Node000024" class="edge">
<title>Node22&#45;&gt;Node24</title>
<g id="a_edge34_Node000022_Node000024"><a xlink:title=" ">
<path fill="none" stroke="#63b8ff" d="M641.45,-126.44C556.9,-114.28 402.87,-92.12 317.35,-79.82"/>
<polygon fill="#63b8ff" stroke="#63b8ff" points="317.67,-76.33 307.27,-78.37 316.67,-83.26 317.67,-76.33"/>
</a>
</g>
</g>
<!-- Node30 -->
<g id="Node000030" class="node">
<title>Node30</title>
<g id="a_Node000030"><a xlink:href="nc__interface_8_h.html" target="_top" xlink:title=" ">
<polygon fill="white" stroke="#666666" points="682,-85 576,-85 576,-55 682,-55 682,-85"/>
<text text-anchor="start" x="584" y="-73" font-family="Helvetica,sans-Serif" font-size="10.00">src/utilities/ncutils</text>
<text text-anchor="middle" x="629" y="-62" font-family="Helvetica,sans-Serif" font-size="10.00">/nc_interface.H</text>
</a>
</g>
</g>
<!-- Node22&#45;&gt;Node30 -->
<g id="edge40_Node000022_Node000030" class="edge">
<title>Node22&#45;&gt;Node30</title>
<g id="a_edge40_Node000022_Node000030"><a xlink:title=" ">
<path fill="none" stroke="#63b8ff" d="M685.02,-120.8C675.51,-112.34 663.27,-101.46 652.66,-92.03"/>
<polygon fill="#63b8ff" stroke="#63b8ff" points="654.73,-89.19 644.93,-85.16 650.08,-94.42 654.73,-89.19"/>
</a>
</g>
</g>
<!-- Node34 -->
<g id="Node000034" class="node">
<title>Node34</title>
<g id="a_Node000034"><a xlink:href="constants_8_h.html" target="_top" xlink:title=" ">
<polygon fill="white" stroke="#666666" points="831.5,-79.5 700.5,-79.5 700.5,-60.5 831.5,-60.5 831.5,-79.5"/>
<text text-anchor="middle" x="766" y="-67.5" font-family="Helvetica,sans-Serif" font-size="10.00">src/utilities/constants.H</text>
</a>
</g>
</g>
<!-- Node22&#45;&gt;Node34 -->
<g id="edge47_Node000022_Node000034" class="edge">
<title>Node22&#45;&gt;Node34</title>
<g id="a_edge47_Node000022_Node000034"><a xlink:title=" ">
<path fill="none" stroke="#63b8ff" d="M715.43,-120.8C725.56,-110.82 739.13,-97.46 749.66,-87.09"/>
<polygon fill="#63b8ff" stroke="#63b8ff" points="752.35,-89.35 757.02,-79.84 747.44,-84.37 752.35,-89.35"/>
</a>
</g>
</g>
<!-- Node25 -->
<g id="Node000025" class="node">
<title>Node25</title>
<g id="a_Node000025"><a xlink:title=" ">
<polygon fill="#e0e0e0" stroke="#999999" points="246,-19 188,-19 188,0 246,0 246,-19"/>
<text text-anchor="middle" x="217" y="-7" font-family="Helvetica,sans-Serif" font-size="10.00">memory</text>
</a>
</g>
</g>
<!-- Node24&#45;&gt;Node25 -->
<g id="edge35_Node000024_Node000025" class="edge">
<title>Node24&#45;&gt;Node25</title>
<g id="a_edge35_Node000024_Node000025"><a xlink:title=" ">
<path fill="none" stroke="#63b8ff" d="M250.25,-60.37C244.54,-51.81 235.65,-38.47 228.49,-27.74"/>
<polygon fill="#63b8ff" stroke="#63b8ff" points="231.24,-25.55 222.78,-19.17 225.41,-29.43 231.24,-25.55"/>
</a>
</g>
</g>
<!-- Node26 -->
<g id="Node000026" class="node">
<title>Node26</title>
<g id="a_Node000026"><a xlink:title=" ">
<polygon fill="#e0e0e0" stroke="#999999" points="435.5,-19 342.5,-19 342.5,0 435.5,0 435.5,-19"/>
<text text-anchor="middle" x="389" y="-7" font-family="Helvetica,sans-Serif" font-size="10.00">unordered_map</text>
</a>
</g>
</g>
<!-- Node24&#45;&gt;Node26 -->
<g id="edge36_Node000024_Node000026" class="edge">
<title>Node24&#45;&gt;Node26</title>
<g id="a_edge36_Node000024_Node000026"><a xlink:title=" ">
<path fill="none" stroke="#63b8ff" d="M275.34,-60.49C297.7,-50.66 334.71,-34.38 360.4,-23.08"/>
<polygon fill="#63b8ff" stroke="#63b8ff" points="361.89,-26.25 369.64,-19.02 359.07,-19.84 361.89,-26.25"/>
</a>
</g>
</g>
<!-- Node27 -->
<g id="Node000027" class="node">
<title>Node27</title>
<g id="a_Node000027"><a xlink:title=" ">
<polygon fill="#e0e0e0" stroke="#999999" points="324,-19 264,-19 264,0 324,0 324,-19"/>
<text text-anchor="middle" x="294" y="-7" font-family="Helvetica,sans-Serif" font-size="10.00">iostream</text>
</a>
</g>
</g>
<!-- Node24&#45;&gt;Node27 -->
<g id="edge37_Node000024_Node000027" class="edge">
<title>Node24&#45;&gt;Node27</title>
<g id="a_edge37_Node000024_Node000027"><a xlink:title=" ">
<path fill="none" stroke="#63b8ff" d="M261.61,-60.37C267.16,-51.81 275.83,-38.47 282.8,-27.74"/>
<polygon fill="#63b8ff" stroke="#63b8ff" points="285.86,-29.46 288.37,-19.17 279.99,-25.65 285.86,-29.46"/>
</a>
</g>
</g>
<!-- Node28 -->
<g id="Node000028" class="node">
<title>Node28</title>
<g id="a_Node000028"><a xlink:title=" ">
<polygon fill="#e0e0e0" stroke="#999999" points="90,-19 0,-19 0,0 90,0 90,-19"/>
<text text-anchor="middle" x="45" y="-7" font-family="Helvetica,sans-Serif" font-size="10.00">AMReX_Print.H</text>
</a>
</g>
</g>
<!-- Node24&#45;&gt;Node28 -->
<g id="edge38_Node000024_Node000028" class="edge">
<title>Node24&#45;&gt;Node28</title>
<g id="a_edge38_Node000024_Node000028"><a xlink:title=" ">
<path fill="none" stroke="#63b8ff" d="M225.32,-60.49C188.44,-50.27 126.43,-33.08 85.61,-21.76"/>
<polygon fill="#63b8ff" stroke="#63b8ff" points="86.29,-18.32 75.72,-19.02 84.42,-25.06 86.29,-18.32"/>
</a>
</g>
</g>
<!-- Node29 -->
<g id="Node000029" class="node">
<title>Node29</title>
<g id="a_Node000029"><a xlink:title=" ">
<polygon fill="#e0e0e0" stroke="#999999" points="170,-19 108,-19 108,0 170,0 170,-19"/>
<text text-anchor="middle" x="139" y="-7" font-family="Helvetica,sans-Serif" font-size="10.00">AMReX.H</text>
</a>
</g>
</g>
<!-- Node24&#45;&gt;Node29 -->
<g id="edge39_Node000024_Node000029" class="edge">
<title>Node24&#45;&gt;Node29</title>
<g id="a_edge39_Node000024_Node000029"><a xlink:title=" ">
<path fill="none" stroke="#63b8ff" d="M238.99,-60.49C219.58,-50.79 187.61,-34.81 165.06,-23.53"/>
<polygon fill="#63b8ff" stroke="#63b8ff" points="166.54,-20.36 156.03,-19.02 163.41,-26.62 166.54,-20.36"/>
</a>
</g>
</g>
<!-- Node30&#45;&gt;Node3 -->
<g id="edge41_Node000030_Node000003" class="edge">
<title>Node30&#45;&gt;Node3</title>
<g id="a_edge41_Node000030_Node000003"><a xlink:title=" ">
<path fill="none" stroke="#63b8ff" d="M592.35,-54.99C566.56,-45.12 532.37,-32.05 507.74,-22.64"/>
<polygon fill="#63b8ff" stroke="#63b8ff" points="508.74,-19.27 498.15,-18.97 506.24,-25.81 508.74,-19.27"/>
</a>
</g>
</g>
<!-- Node30&#45;&gt;Node17 -->
<g id="edge46_Node000030_Node000017" class="edge">
<title>Node30&#45;&gt;Node17</title>
<g id="a_edge46_Node000030_Node000017"><a xlink:title=" ">
<path fill="none" stroke="#63b8ff" d="M682.03,-56.63C685.06,-56.05 688.06,-55.5 691,-55 825.81,-32.09 863.47,-37.42 1002.61,-19.13"/>
<polygon fill="#63b8ff" stroke="#63b8ff" points="1003.36,-22.56 1012.81,-17.77 1002.43,-15.62 1003.36,-22.56"/>
</a>
</g>
</g>
<!-- Node30&#45;&gt;Node26 -->
<g id="edge42_Node000030_Node000026" class="edge">
<title>Node30&#45;&gt;Node26</title>
<g id="a_edge42_Node000030_Node000026"><a xlink:title=" ">
<path fill="none" stroke="#63b8ff" d="M575.74,-56.02C533.09,-45.62 473.95,-31.21 433.73,-21.4"/>
<polygon fill="#63b8ff" stroke="#63b8ff" points="434.48,-17.98 423.93,-19.02 432.82,-24.78 434.48,-17.98"/>
</a>
</g>
</g>
<!-- Node31 -->
<g id="Node000031" class="node">
<title>Node31</title>
<g id="a_Node000031"><a xlink:title=" ">
<polygon fill="#e0e0e0" stroke="#999999" points="658.5,-19 611.5,-19 611.5,0 658.5,0 658.5,-19"/>
<text text-anchor="middle" x="635" y="-7" font-family="Helvetica,sans-Serif" font-size="10.00">vector</text>
</a>
</g>
</g>
<!-- Node30&#45;&gt;Node31 -->
<g id="edge43_Node000030_Node000031" class="edge">
<title>Node30&#45;&gt;Node31</title>
<g id="a_edge43_Node000030_Node000031"><a xlink:title=" ">
<path fill="none" stroke="#63b8ff" d="M630.45,-54.84C631.23,-47.21 632.21,-37.7 633.06,-29.45"/>
<polygon fill="#63b8ff" stroke="#63b8ff" points="636.56,-29.57 634.1,-19.27 629.6,-28.86 636.56,-29.57"/>
</a>
</g>
</g>
<!-- Node32 -->
<g id="Node000032" class="node">
<title>Node32</title>
<g id="a_Node000032"><a xlink:title=" ">
<polygon fill="#e0e0e0" stroke="#999999" points="733,-19 677,-19 677,0 733,0 733,-19"/>
<text text-anchor="middle" x="705" y="-7" font-family="Helvetica,sans-Serif" font-size="10.00">netcdf.h</text>
</a>
</g>
</g>
<!-- Node30&#45;&gt;Node32 -->
<g id="edge44_Node000030_Node000032" class="edge">
<title>Node30&#45;&gt;Node32</title>
<g id="a_edge44_Node000030_Node000032"><a xlink:title=" ">
<path fill="none" stroke="#63b8ff" d="M647.4,-54.84C658.88,-46 673.65,-34.63 685.36,-25.62"/>
<polygon fill="#63b8ff" stroke="#63b8ff" points="687.82,-28.14 693.61,-19.27 683.55,-22.59 687.82,-28.14"/>
</a>
</g>
</g>
<!-- Node33 -->
<g id="Node000033" class="node">
<title>Node33</title>
<g id="a_Node000033"><a xlink:title=" ">
<polygon fill="#e0e0e0" stroke="#999999" points="593.5,-19 516.5,-19 516.5,0 593.5,0 593.5,-19"/>
<text text-anchor="middle" x="555" y="-7" font-family="Helvetica,sans-Serif" font-size="10.00">netcdf_par.h</text>
</a>
</g>
</g>
<!-- Node30&#45;&gt;Node33 -->
<g id="edge45_Node000030_Node000033" class="edge">
<title>Node30&#45;&gt;Node33</title>
<g id="a_edge45_Node000030_Node000033"><a xlink:title=" ">
<path fill="none" stroke="#63b8ff" d="M611.09,-54.84C599.91,-46 585.52,-34.63 574.12,-25.62"/>
<polygon fill="#63b8ff" stroke="#63b8ff" points="576.1,-22.72 566.09,-19.27 571.76,-28.21 576.1,-22.72"/>
</a>
</g>
</g>
<!-- Node34&#45;&gt;Node17 -->
<g id="edge48_Node000034_Node000017" class="edge">
<title>Node34&#45;&gt;Node17</title>
<g id="a_edge48_Node000034_Node000017"><a xlink:title=" ">
<path fill="none" stroke="#63b8ff" d="M808.6,-60.49C861.01,-50.03 949.96,-32.27 1006.52,-20.98"/>
<polygon fill="#63b8ff" stroke="#63b8ff" points="1007.22,-24.41 1016.34,-19.02 1005.85,-17.54 1007.22,-24.41"/>
</a>
</g>
</g>
<!-- Node35 -->
<g id="Node000035" class="node">
<title>Node35</title>
<g id="a_Node000035"><a xlink:title=" ">
<polygon fill="#e0e0e0" stroke="#999999" points="843,-19 751,-19 751,0 843,0 843,-19"/>
<text text-anchor="middle" x="797" y="-7" font-family="Helvetica,sans-Serif" font-size="10.00">AMReX_Math.H</text>
</a>
</g>
</g>
<!-- Node34&#45;&gt;Node35 -->
<g id="edge49_Node000034_Node000035" class="edge">
<title>Node34&#45;&gt;Node35</title>
<g id="a_edge49_Node000034_Node000035"><a xlink:title=" ">
<path fill="none" stroke="#63b8ff" d="M770.57,-60.37C775.06,-51.9 782.03,-38.74 787.69,-28.07"/>
<polygon fill="#63b8ff" stroke="#63b8ff" points="790.82,-29.64 792.41,-19.17 784.63,-26.36 790.82,-29.64"/>
</a>
</g>
</g>
<!-- Node36 -->
<g id="Node000036" class="node">
<title>Node36</title>
<g id="a_Node000036"><a xlink:title=" ">
<polygon fill="#e0e0e0" stroke="#999999" points="995,-19 861,-19 861,0 995,0 995,-19"/>
<text text-anchor="middle" x="928" y="-7" font-family="Helvetica,sans-Serif" font-size="10.00">AMReX_GpuQualifiers.H</text>
</a>
</g>
</g>
<!-- Node34&#45;&gt;Node36 -->
<g id="edge50_Node000034_Node000036" class="edge">
<title>Node34&#45;&gt;Node36</title>
<g id="a_edge50_Node000034_Node000036"><a xlink:title=" ">
<path fill="none" stroke="#63b8ff" d="M789.56,-60.49C817.27,-50.49 863.47,-33.8 894.81,-22.49"/>
<polygon fill="#63b8ff" stroke="#63b8ff" points="896.2,-25.71 904.42,-19.02 893.82,-19.12 896.2,-25.71"/>
</a>
</g>
</g>
</g>
</svg>

<g id="navigator" transform="translate(0 0)" fill="#404254">
  <rect fill="#f2f5e9" fill-opacity="0.5" stroke="#606060" stroke-width=".5" x="0" y="0" width="60" height="60"/>
  <use id="zoomplus" xlink:href="#zoomPlus" x="17" y="9" onmousedown="handleZoom(evt,'in')"/>
  <use id="zoomminus" xlink:href="#zoomMin" x="42" y="9" onmousedown="handleZoom(evt,'out')"/>
  <use id="reset" xlink:href="#resetDef" x="30" y="36" onmousedown="handleReset()"/>
   <use id="arrowup" xlink:href="#arrowUp" x="0" y="0" onmousedown="handlePan(0,-1)"/>
  <use id="arrowright" xlink:href="#arrowRight" x="0" y="0" onmousedown="handlePan(1,0)"/>
  <use id="arrowdown" xlink:href="#arrowDown" x="0" y="0" onmousedown="handlePan(0,1)"/>
  <use id="arrowleft" xlink:href="#arrowLeft" x="0" y="0" onmousedown="handlePan(-1,0)"/>
</g>
<svg viewBox="0 0 15 15" width="100%" height="30px" preserveAspectRatio="xMaxYMin meet">
 <g id="arrow_out" transform="scale(0.3 0.3)">
  <a xlink:href="_d_t_u_spinner_sampler_8_h__incl_org.svg" target="_base">
   <rect id="button" ry="5" rx="5" y="6" x="6" height="38" width="38"
        fill="#f2f5e9" fill-opacity="0.5" stroke="#606060" stroke-width="1.0"/>
   <path id="arrow"
     d="M 11.500037,31.436501 C 11.940474,20.09759 22.043105,11.32322 32.158766,21.979434 L 37.068811,17.246167 C 37.068811,17.246167 37.088388,32 37.088388,32 L 22.160133,31.978069 C 22.160133,31.978069 26.997745,27.140456 26.997745,27.140456 C 18.528582,18.264221 13.291696,25.230495 11.500037,31.436501 z"
     style="fill:#404040;"/>
  </a>
 </g>
</svg>

<style type='text/css'>
<![CDATA[
[data-mouse-over-selected='false'] { opacity: 0.7; }
[data-mouse-over-selected='true']  { opacity: 1.0; }
]]>
</style>
<script type="application/ecmascript"><![CDATA[
document.addEventListener('DOMContentLoaded', (event) => {
  highlightEdges();
  highlightAdjacentNodes();
});
]]></script>
</svg>
