<?xml version="1.0" encoding="UTF-8" standalone="no"?>
<!DOCTYPE svg PUBLIC "-//W3C//DTD SVG 1.1//EN"
 "http://www.w3.org/Graphics/SVG/1.1/DTD/svg11.dtd">
<!-- Generated by graphviz version 2.43.0 (0)
 -->
<!-- Title: /home/runner/work/amr&#45;wind/amr&#45;wind/src/core/ExtSolver.H Pages: 1 -->
<svg width="646pt" height="588pt"
 viewBox="0.00 0.00 646.00 588.00" xmlns="http://www.w3.org/2000/svg" xmlns:xlink="http://www.w3.org/1999/xlink">
<g id="graph0" class="graph" transform="scale(1 1) rotate(0) translate(4 584)">
<title>/home/runner/work/amr&#45;wind/amr&#45;wind/src/core/ExtSolver.H</title>
<!-- Node1 -->
<g id="Node000001" class="node">
<title>Node1</title>
<g id="a_Node000001"><a xlink:title=" ">
<polygon fill="#999999" stroke="#666666" points="327.5,-580 193.5,-580 193.5,-539 327.5,-539 327.5,-580"/>
<text text-anchor="start" x="201.5" y="-568" font-family="Helvetica,sans-Serif" font-size="10.00">/home/runner/work/amr</text>
<text text-anchor="start" x="201.5" y="-557" font-family="Helvetica,sans-Serif" font-size="10.00">&#45;wind/amr&#45;wind/src/core</text>
<text text-anchor="middle" x="260.5" y="-546" font-family="Helvetica,sans-Serif" font-size="10.00">/ExtSolver.H</text>
</a>
</g>
</g>
<!-- Node2 -->
<g id="Node000002" class="node">
<title>Node2</title>
<g id="a_Node000002"><a xlink:href="_c_f_d_sim_8cpp.html" target="_top" xlink:title=" ">
<polygon fill="white" stroke="#666666" points="232,-492 59,-492 59,-462 232,-462 232,-492"/>
<text text-anchor="start" x="67" y="-480" font-family="Helvetica,sans-Serif" font-size="10.00">/home/runner/work/amr</text>
<text text-anchor="middle" x="145.5" y="-469" font-family="Helvetica,sans-Serif" font-size="10.00">&#45;wind/amr&#45;wind/src/CFDSim.cpp</text>
</a>
</g>
</g>
<!-- Node1&#45;&gt;Node2 -->
<g id="edge1_Node000001_Node000002" class="edge">
<title>Node1&#45;&gt;Node2</title>
<g id="a_edge1_Node000001_Node000002"><a xlink:title=" ">
<path fill="none" stroke="#63b8ff" d="M224.09,-533.01C204.81,-519.52 181.87,-503.46 165.77,-492.19"/>
<polygon fill="#63b8ff" stroke="#63b8ff" points="222.17,-535.94 232.37,-538.81 226.18,-530.21 222.17,-535.94"/>
</a>
</g>
</g>
<!-- Node3 -->
<g id="Node000003" class="node">
<title>Node3</title>
<g id="a_Node000003"><a xlink:href="_ext_turb_iface_8_h.html" target="_top" xlink:title=" ">
<polygon fill="white" stroke="#666666" points="460,-503 323,-503 323,-451 460,-451 460,-503"/>
<text text-anchor="start" x="331" y="-491" font-family="Helvetica,sans-Serif" font-size="10.00">/home/runner/work/amr</text>
<text text-anchor="start" x="331" y="-480" font-family="Helvetica,sans-Serif" font-size="10.00">&#45;wind/amr&#45;wind/src/wind</text>
<text text-anchor="start" x="331" y="-469" font-family="Helvetica,sans-Serif" font-size="10.00">_energy/actuator/turbine</text>
<text text-anchor="middle" x="391.5" y="-458" font-family="Helvetica,sans-Serif" font-size="10.00">/external/ExtTurbIface.H</text>
</a>
</g>
</g>
<!-- Node1&#45;&gt;Node3 -->
<g id="edge2_Node000001_Node000003" class="edge">
<title>Node1&#45;&gt;Node3</title>
<g id="a_edge2_Node000001_Node000003"><a xlink:title=" ">
<path fill="none" stroke="#63b8ff" d="M301.44,-533.34C317.02,-523.77 334.77,-512.86 350.37,-503.28"/>
<polygon fill="#63b8ff" stroke="#63b8ff" points="299.23,-530.59 292.55,-538.81 302.9,-536.55 299.23,-530.59"/>
</a>
</g>
</g>
<!-- Node4 -->
<g id="Node000004" class="node">
<title>Node4</title>
<g id="a_Node000004"><a xlink:href="_turbine_external_8_h.html" target="_top" xlink:title=" ">
<polygon fill="white" stroke="#666666" points="318,-415 169,-415 169,-363 318,-363 318,-415"/>
<text text-anchor="start" x="177" y="-403" font-family="Helvetica,sans-Serif" font-size="10.00">/home/runner/work/amr</text>
<text text-anchor="start" x="177" y="-392" font-family="Helvetica,sans-Serif" font-size="10.00">&#45;wind/amr&#45;wind/src/wind</text>
<text text-anchor="start" x="177" y="-381" font-family="Helvetica,sans-Serif" font-size="10.00">_energy/actuator/turbine</text>
<text text-anchor="middle" x="243.5" y="-370" font-family="Helvetica,sans-Serif" font-size="10.00">/external/TurbineExternal.H</text>
</a>
</g>
</g>
<!-- Node1&#45;&gt;Node4 -->
<g id="edge18_Node000001_Node000004" class="edge">
<title>Node1&#45;&gt;Node4</title>
<g id="a_edge18_Node000001_Node000004"><a xlink:title=" ">
<path fill="none" stroke="#63b8ff" d="M257.49,-528.68C254.24,-496.44 249.11,-445.63 246.05,-415.28"/>
<polygon fill="#63b8ff" stroke="#63b8ff" points="254.03,-529.24 258.52,-538.84 261,-528.54 254.03,-529.24"/>
</a>
</g>
</g>
<!-- Node3&#45;&gt;Node4 -->
<g id="edge3_Node000003_Node000004" class="edge">
<title>Node3&#45;&gt;Node4</title>
<g id="a_edge3_Node000003_Node000004"><a xlink:title=" ">
<path fill="none" stroke="#63b8ff" d="M339.47,-445.76C322.24,-435.75 303.26,-424.72 286.76,-415.14"/>
<polygon fill="#63b8ff" stroke="#63b8ff" points="337.89,-448.9 348.29,-450.89 341.41,-442.84 337.89,-448.9"/>
</a>
</g>
</g>
<!-- Node13 -->
<g id="Node000013" class="node">
<title>Node13</title>
<g id="a_Node000013"><a xlink:href="_fast_iface_8cpp.html" target="_top" xlink:title=" ">
<polygon fill="white" stroke="#666666" points="638,-415 501,-415 501,-363 638,-363 638,-415"/>
<text text-anchor="start" x="509" y="-403" font-family="Helvetica,sans-Serif" font-size="10.00">/home/runner/work/amr</text>
<text text-anchor="start" x="509" y="-392" font-family="Helvetica,sans-Serif" font-size="10.00">&#45;wind/amr&#45;wind/src/wind</text>
<text text-anchor="start" x="509" y="-381" font-family="Helvetica,sans-Serif" font-size="10.00">_energy/actuator/turbine</text>
<text text-anchor="middle" x="569.5" y="-370" font-family="Helvetica,sans-Serif" font-size="10.00">/fast/FastIface.cpp</text>
</a>
</g>
</g>
<!-- Node3&#45;&gt;Node13 -->
<g id="edge16_Node000003_Node000013" class="edge">
<title>Node3&#45;&gt;Node13</title>
<g id="a_edge16_Node000003_Node000013"><a xlink:title=" ">
<path fill="none" stroke="#63b8ff" d="M452.66,-446.45C473.76,-436.26 497.17,-424.94 517.47,-415.14"/>
<polygon fill="#63b8ff" stroke="#63b8ff" points="450.95,-443.39 443.46,-450.89 453.99,-449.7 450.95,-443.39"/>
</a>
</g>
</g>
<!-- Node14 -->
<g id="Node000014" class="node">
<title>Node14</title>
<g id="a_Node000014"><a xlink:href="_kynema_iface_8cpp.html" target="_top" xlink:title=" ">
<polygon fill="white" stroke="#666666" points="482.5,-415 336.5,-415 336.5,-363 482.5,-363 482.5,-415"/>
<text text-anchor="start" x="344.5" y="-403" font-family="Helvetica,sans-Serif" font-size="10.00">/home/runner/work/amr</text>
<text text-anchor="start" x="344.5" y="-392" font-family="Helvetica,sans-Serif" font-size="10.00">&#45;wind/amr&#45;wind/src/wind</text>
<text text-anchor="start" x="344.5" y="-381" font-family="Helvetica,sans-Serif" font-size="10.00">_energy/actuator/turbine</text>
<text text-anchor="middle" x="409.5" y="-370" font-family="Helvetica,sans-Serif" font-size="10.00">/kynema/KynemaIface.cpp</text>
</a>
</g>
</g>
<!-- Node3&#45;&gt;Node14 -->
<g id="edge17_Node000003_Node000014" class="edge">
<title>Node3&#45;&gt;Node14</title>
<g id="a_edge17_Node000003_Node000014"><a xlink:title=" ">
<path fill="none" stroke="#63b8ff" d="M398.86,-440.84C400.66,-432.23 402.55,-423.19 404.23,-415.16"/>
<polygon fill="#63b8ff" stroke="#63b8ff" points="395.43,-440.16 396.8,-450.66 402.28,-441.59 395.43,-440.16"/>
</a>
</g>
</g>
<!-- Node5 -->
<g id="Node000005" class="node">
<title>Node5</title>
<g id="a_Node000005"><a xlink:href="turbine__external__utils_8_h.html" target="_top" xlink:title=" ">
<polygon fill="white" stroke="#666666" points="315,-327 172,-327 172,-264 315,-264 315,-327"/>
<text text-anchor="start" x="180" y="-315" font-family="Helvetica,sans-Serif" font-size="10.00">/home/runner/work/amr</text>
<text text-anchor="start" x="180" y="-304" font-family="Helvetica,sans-Serif" font-size="10.00">&#45;wind/amr&#45;wind/src/wind</text>
<text text-anchor="start" x="180" y="-293" font-family="Helvetica,sans-Serif" font-size="10.00">_energy/actuator/turbine</text>
<text text-anchor="start" x="180" y="-282" font-family="Helvetica,sans-Serif" font-size="10.00">/external/turbine_external</text>
<text text-anchor="middle" x="243.5" y="-271" font-family="Helvetica,sans-Serif" font-size="10.00">_utils.H</text>
</a>
</g>
</g>
<!-- Node4&#45;&gt;Node5 -->
<g id="edge4_Node000004_Node000005" class="edge">
<title>Node4&#45;&gt;Node5</title>
<g id="a_edge4_Node000004_Node000005"><a xlink:title=" ">
<path fill="none" stroke="#63b8ff" d="M243.5,-352.93C243.5,-344.39 243.5,-335.32 243.5,-327.02"/>
<polygon fill="#63b8ff" stroke="#63b8ff" points="240,-353 243.5,-363 247,-353 240,-353"/>
</a>
</g>
</g>
<!-- Node11 -->
<g id="Node000011" class="node">
<title>Node11</title>
<g id="a_Node000011"><a xlink:href="_turbine_fast_8_h.html" target="_top" xlink:title=" ">
<polygon fill="white" stroke="#666666" points="137,-228 0,-228 0,-176 137,-176 137,-228"/>
<text text-anchor="start" x="8" y="-216" font-family="Helvetica,sans-Serif" font-size="10.00">/home/runner/work/amr</text>
<text text-anchor="start" x="8" y="-205" font-family="Helvetica,sans-Serif" font-size="10.00">&#45;wind/amr&#45;wind/src/wind</text>
<text text-anchor="start" x="8" y="-194" font-family="Helvetica,sans-Serif" font-size="10.00">_energy/actuator/turbine</text>
<text text-anchor="middle" x="68.5" y="-183" font-family="Helvetica,sans-Serif" font-size="10.00">/fast/TurbineFast.H</text>
</a>
</g>
</g>
<!-- Node4&#45;&gt;Node11 -->
<g id="edge10_Node000004_Node000011" class="edge">
<title>Node4&#45;&gt;Node11</title>
<g id="a_edge10_Node000004_Node000011"><a xlink:title=" ">
<path fill="none" stroke="#63b8ff" d="M197.68,-356.95C185.68,-347.91 173.14,-337.6 162.5,-327 131.51,-296.1 102.1,-254.65 84.68,-228.38"/>
<polygon fill="#63b8ff" stroke="#63b8ff" points="195.74,-359.87 205.87,-362.99 199.89,-354.24 195.74,-359.87"/>
</a>
</g>
</g>
<!-- Node12 -->
<g id="Node000012" class="node">
<title>Node12</title>
<g id="a_Node000012"><a xlink:href="_turbine_kynema_8_h.html" target="_top" xlink:title=" ">
<polygon fill="white" stroke="#666666" points="497,-228 350,-228 350,-176 497,-176 497,-228"/>
<text text-anchor="start" x="358" y="-216" font-family="Helvetica,sans-Serif" font-size="10.00">/home/runner/work/amr</text>
<text text-anchor="start" x="358" y="-205" font-family="Helvetica,sans-Serif" font-size="10.00">&#45;wind/amr&#45;wind/src/wind</text>
<text text-anchor="start" x="358" y="-194" font-family="Helvetica,sans-Serif" font-size="10.00">_energy/actuator/turbine</text>
<text text-anchor="middle" x="423.5" y="-183" font-family="Helvetica,sans-Serif" font-size="10.00">/kynema/TurbineKynema.H</text>
</a>
</g>
</g>
<!-- Node4&#45;&gt;Node12 -->
<g id="edge13_Node000004_Node000012" class="edge">
<title>Node4&#45;&gt;Node12</title>
<g id="a_edge13_Node000004_Node000012"><a xlink:title=" ">
<path fill="none" stroke="#63b8ff" d="M288.53,-356.67C300.38,-347.63 312.82,-337.39 323.5,-327 355.61,-295.75 387.12,-254.4 405.94,-228.24"/>
<polygon fill="#63b8ff" stroke="#63b8ff" points="286.35,-353.92 280.45,-362.72 290.55,-359.52 286.35,-353.92"/>
</a>
</g>
</g>
<!-- Node6 -->
<g id="Node000006" class="node">
<title>Node6</title>
<g id="a_Node000006"><a xlink:href="turbine__external__ops_8_h.html" target="_top" xlink:title=" ">
<polygon fill="white" stroke="#666666" points="331.5,-228 155.5,-228 155.5,-176 331.5,-176 331.5,-228"/>
<text text-anchor="start" x="163.5" y="-216" font-family="Helvetica,sans-Serif" font-size="10.00">/home/runner/work/amr</text>
<text text-anchor="start" x="163.5" y="-205" font-family="Helvetica,sans-Serif" font-size="10.00">&#45;wind/amr&#45;wind/src/wind</text>
<text text-anchor="start" x="163.5" y="-194" font-family="Helvetica,sans-Serif" font-size="10.00">_energy/actuator/turbine</text>
<text text-anchor="middle" x="243.5" y="-183" font-family="Helvetica,sans-Serif" font-size="10.00">/external/turbine_external_ops.H</text>
</a>
</g>
</g>
<!-- Node5&#45;&gt;Node6 -->
<g id="edge5_Node000005_Node000006" class="edge">
<title>Node5&#45;&gt;Node6</title>
<g id="a_edge5_Node000005_Node000006"><a xlink:title=" ">
<path fill="none" stroke="#63b8ff" d="M243.5,-253.7C243.5,-244.95 243.5,-235.96 243.5,-228.02"/>
<polygon fill="#63b8ff" stroke="#63b8ff" points="240,-253.78 243.5,-263.78 247,-253.78 240,-253.78"/>
</a>
</g>
</g>
<!-- Node7 -->
<g id="Node000007" class="node">
<title>Node7</title>
<g id="a_Node000007"><a xlink:href="turbine__fast__ops_8_h.html" target="_top" xlink:title=" ">
<polygon fill="white" stroke="#666666" points="219,-140 82,-140 82,-88 219,-88 219,-140"/>
<text text-anchor="start" x="90" y="-128" font-family="Helvetica,sans-Serif" font-size="10.00">/home/runner/work/amr</text>
<text text-anchor="start" x="90" y="-117" font-family="Helvetica,sans-Serif" font-size="10.00">&#45;wind/amr&#45;wind/src/wind</text>
<text text-anchor="start" x="90" y="-106" font-family="Helvetica,sans-Serif" font-size="10.00">_energy/actuator/turbine</text>
<text text-anchor="middle" x="150.5" y="-95" font-family="Helvetica,sans-Serif" font-size="10.00">/fast/turbine_fast_ops.H</text>
</a>
</g>
</g>
<!-- Node6&#45;&gt;Node7 -->
<g id="edge6_Node000006_Node000007" class="edge">
<title>Node6&#45;&gt;Node7</title>
<g id="a_edge6_Node000006_Node000007"><a xlink:title=" ">
<path fill="none" stroke="#63b8ff" d="M208.5,-168.63C198.31,-159.21 187.34,-149.06 177.7,-140.16"/>
<polygon fill="#63b8ff" stroke="#63b8ff" points="206.38,-171.44 216.1,-175.66 211.13,-166.3 206.38,-171.44"/>
</a>
</g>
</g>
<!-- Node9 -->
<g id="Node000009" class="node">
<title>Node9</title>
<g id="a_Node000009"><a xlink:href="turbine__kynema__ops_8_h.html" target="_top" xlink:title=" ">
<polygon fill="white" stroke="#666666" points="410,-140 237,-140 237,-88 410,-88 410,-140"/>
<text text-anchor="start" x="245" y="-128" font-family="Helvetica,sans-Serif" font-size="10.00">/home/runner/work/amr</text>
<text text-anchor="start" x="245" y="-117" font-family="Helvetica,sans-Serif" font-size="10.00">&#45;wind/amr&#45;wind/src/wind</text>
<text text-anchor="start" x="245" y="-106" font-family="Helvetica,sans-Serif" font-size="10.00">_energy/actuator/turbine</text>
<text text-anchor="middle" x="323.5" y="-95" font-family="Helvetica,sans-Serif" font-size="10.00">/kynema/turbine_kynema_ops.H</text>
</a>
</g>
</g>
<!-- Node6&#45;&gt;Node9 -->
<g id="edge8_Node000006_Node000009" class="edge">
<title>Node6&#45;&gt;Node9</title>
<g id="a_edge8_Node000006_Node000009"><a xlink:title=" ">
<path fill="none" stroke="#63b8ff" d="M274.13,-168.08C282.74,-158.81 291.98,-148.89 300.1,-140.16"/>
<polygon fill="#63b8ff" stroke="#63b8ff" points="271.32,-165.96 267.07,-175.66 276.44,-170.72 271.32,-165.96"/>
</a>
</g>
</g>
<!-- Node8 -->
<g id="Node000008" class="node">
<title>Node8</title>
<g id="a_Node000008"><a xlink:href="_turbine_fast_8cpp.html" target="_top" xlink:title=" ">
<polygon fill="white" stroke="#666666" points="171,-52 34,-52 34,0 171,0 171,-52"/>
<text text-anchor="start" x="42" y="-40" font-family="Helvetica,sans-Serif" font-size="10.00">/home/runner/work/amr</text>
<text text-anchor="start" x="42" y="-29" font-family="Helvetica,sans-Serif" font-size="10.00">&#45;wind/amr&#45;wind/src/wind</text>
<text text-anchor="start" x="42" y="-18" font-family="Helvetica,sans-Serif" font-size="10.00">_energy/actuator/turbine</text>
<text text-anchor="middle" x="102.5" y="-7" font-family="Helvetica,sans-Serif" font-size="10.00">/fast/TurbineFast.cpp</text>
</a>
</g>
</g>
<!-- Node7&#45;&gt;Node8 -->
<g id="edge7_Node000007_Node000008" class="edge">
<title>Node7&#45;&gt;Node8</title>
<g id="a_edge7_Node000007_Node000008"><a xlink:title=" ">
<path fill="none" stroke="#63b8ff" d="M131.35,-78.68C126.4,-69.82 121.17,-60.45 116.54,-52.16"/>
<polygon fill="#63b8ff" stroke="#63b8ff" points="128.43,-80.64 136.36,-87.66 134.54,-77.22 128.43,-80.64"/>
</a>
</g>
</g>
<!-- Node10 -->
<g id="Node000010" class="node">
<title>Node10</title>
<g id="a_Node000010"><a xlink:href="_turbine_kynema_8cpp.html" target="_top" xlink:title=" ">
<polygon fill="white" stroke="#666666" points="459,-52 302,-52 302,0 459,0 459,-52"/>
<text text-anchor="start" x="310" y="-40" font-family="Helvetica,sans-Serif" font-size="10.00">/home/runner/work/amr</text>
<text text-anchor="start" x="310" y="-29" font-family="Helvetica,sans-Serif" font-size="10.00">&#45;wind/amr&#45;wind/src/wind</text>
<text text-anchor="start" x="310" y="-18" font-family="Helvetica,sans-Serif" font-size="10.00">_energy/actuator/turbine</text>
<text text-anchor="middle" x="380.5" y="-7" font-family="Helvetica,sans-Serif" font-size="10.00">/kynema/TurbineKynema.cpp</text>
</a>
</g>
</g>
<!-- Node9&#45;&gt;Node10 -->
<g id="edge9_Node000009_Node000010" class="edge">
<title>Node9&#45;&gt;Node10</title>
<g id="a_edge9_Node000009_Node000010"><a xlink:title=" ">
<path fill="none" stroke="#63b8ff" d="M345.87,-79.24C351.85,-70.22 358.21,-60.63 363.83,-52.16"/>
<polygon fill="#63b8ff" stroke="#63b8ff" points="342.9,-77.39 340.29,-87.66 348.74,-81.26 342.9,-77.39"/>
</a>
</g>
</g>
<!-- Node11&#45;&gt;Node7 -->
<g id="edge12_Node000011_Node000007" class="edge">
<title>Node11&#45;&gt;Node7</title>
<g id="a_edge12_Node000011_Node000007"><a xlink:title=" ">
<path fill="none" stroke="#63b8ff" d="M99.63,-168.35C108.54,-159.01 118.1,-148.98 126.51,-140.16"/>
<polygon fill="#63b8ff" stroke="#63b8ff" points="97.03,-166.01 92.66,-175.66 102.09,-170.84 97.03,-166.01"/>
</a>
</g>
</g>
<!-- Node11&#45;&gt;Node8 -->
<g id="edge11_Node000011_Node000008" class="edge">
<title>Node11&#45;&gt;Node8</title>
<g id="a_edge11_Node000011_Node000008"><a xlink:title=" ">
<path fill="none" stroke="#63b8ff" d="M65.99,-165.75C65.3,-143.19 66.1,-113.47 72.5,-88 75.61,-75.64 81.43,-62.85 87.13,-52.2"/>
<polygon fill="#63b8ff" stroke="#63b8ff" points="62.5,-166.05 66.41,-175.89 69.49,-165.75 62.5,-166.05"/>
</a>
</g>
</g>
<!-- Node12&#45;&gt;Node9 -->
<g id="edge15_Node000012_Node000009" class="edge">
<title>Node12&#45;&gt;Node9</title>
<g id="a_edge15_Node000012_Node000009"><a xlink:title=" ">
<path fill="none" stroke="#63b8ff" d="M386.44,-169.13C375.38,-159.62 363.41,-149.32 352.9,-140.29"/>
<polygon fill="#63b8ff" stroke="#63b8ff" points="384.44,-172.03 394.31,-175.89 389.01,-166.72 384.44,-172.03"/>
</a>
</g>
</g>
<!-- Node12&#45;&gt;Node10 -->
<g id="edge14_Node000012_Node000010" class="edge">
<title>Node12&#45;&gt;Node10</title>
<g id="a_edge14_Node000012_Node000010"><a xlink:title=" ">
<path fill="none" stroke="#63b8ff" d="M426.49,-165.5C427.29,-142.83 426.28,-113.1 418.5,-88 414.58,-75.37 407.39,-62.74 400.32,-52.27"/>
<polygon fill="#63b8ff" stroke="#63b8ff" points="422.98,-165.53 425.99,-175.69 429.97,-165.87 422.98,-165.53"/>
</a>
</g>
</g>
</g>
</svg>
