<?xml version="1.0" encoding="UTF-8" standalone="no"?>
<!DOCTYPE svg PUBLIC "-//W3C//DTD SVG 1.1//EN"
 "http://www.w3.org/Graphics/SVG/1.1/DTD/svg11.dtd">
<!-- Generated by graphviz version 2.43.0 (0)
 -->
<!-- Title: /home/runner/work/amr&#45;wind/amr&#45;wind/src/utilities/FieldPlaneAveraging.H Pages: 1 -->
<!--zoomable 456 -->

<svg id="main" version="1.1" xmlns="http://www.w3.org/2000/svg" xmlns:xlink="http://www.w3.org/1999/xlink" xml:space="preserve" onload="init(evt)">

<style type="text/css"><![CDATA[
.node, .edge {opacity: 0.7;}
.node.selected, .edge.selected {opacity: 1;}
.edge:hover path { stroke: red; }
.edge:hover polygon { stroke: red; fill: red; }
]]></style>

<defs>
  <circle id="rim" cx="0" cy="0" r="7"/>
  <circle id="rim2" cx="0" cy="0" r="3.5"/>
  <g id="zoomPlus">
    <use xlink:href="#rim" fill="#404040"><set attributeName="fill" to="#808080" begin="zoomplus.mouseover" end="zoomplus.mouseout"/></use>
    <path d="M-4,0h8M0,-4v8" fill="none" stroke="white" stroke-width="1.5" pointer-events="none"/>
  </g>
  <g id="zoomMin">
    <use xlink:href="#rim" fill="#404040"><set attributeName="fill" to="#808080" begin="zoomminus.mouseover" end="zoomminus.mouseout"/></use>
    <path d="M-4,0h8" fill="none" stroke="white" stroke-width="1.5" pointer-events="none"/>
  </g>
  <g id="arrowUp" transform="translate(30 24)">
    <use xlink:href="#rim"/>
    <path pointer-events="none" fill="none" stroke="white" stroke-width="1.5" d="M0,-3.0v7 M-2.5,-0.5L0,-3.0L2.5,-0.5"/>
  </g>
  <g id="arrowRight" transform="rotate(90) translate(36 -43)">
    <use xlink:href="#rim"/>
    <path pointer-events="none" fill="none" stroke="white" stroke-width="1.5" d="M0,-3.0v7 M-2.5,-0.5L0,-3.0L2.5,-0.5"/>
  </g>
  <g id="arrowDown" transform="rotate(180) translate(-30 -48)">
    <use xlink:href="#rim"/>
    <path pointer-events="none" fill="none" stroke="white" stroke-width="1.5" d="M0,-3.0v7 M-2.5,-0.5L0,-3.0L2.5,-0.5"/>
  </g>
  <g id="arrowLeft" transform="rotate(270) translate(-36 17)">
    <use xlink:href="#rim"/>
    <path pointer-events="none" fill="none" stroke="white" stroke-width="1.5" d="M0,-3.0v7 M-2.5,-0.5L0,-3.0L2.5,-0.5"/>
  </g>
  <g id="resetDef">
    <use xlink:href="#rim2" fill="#404040"><set attributeName="fill" to="#808080" begin="reset.mouseover" end="reset.mouseout"/></use>
  </g>
</defs>
<script type="application/ecmascript">
var viewWidth = 3153;
var viewHeight = 456;
var sectionId = 'dynsection-1';
</script>
<script type="application/ecmascript" xlink:href="svg.min.js"/>
<svg id="graph" class="graph">
<g id="viewport">
<title>/home/runner/work/amr&#45;wind/amr&#45;wind/src/utilities/FieldPlaneAveraging.H</title>
<!-- Node1 -->
<g id="Node000001" class="node">
<title>Node1</title>
<g id="a_Node000001"><a xlink:title=" ">
<polygon fill="#999999" stroke="#666666" points="1682,-448 1532,-448 1532,-407 1682,-407 1682,-448"/>
<text text-anchor="start" x="1540" y="-436" font-family="Helvetica,sans-Serif" font-size="10.00">/home/runner/work/amr</text>
<text text-anchor="start" x="1540" y="-425" font-family="Helvetica,sans-Serif" font-size="10.00">&#45;wind/amr&#45;wind/src/utilities</text>
<text text-anchor="middle" x="1607" y="-414" font-family="Helvetica,sans-Serif" font-size="10.00">/FieldPlaneAveraging.H</text>
</a>
</g>
</g>
<!-- Node2 -->
<g id="Node000002" class="node">
<title>Node2</title>
<g id="a_Node000002"><a xlink:href="_a_b_l_mean_boussinesq_8_h.html" target="_top" xlink:title=" ">
<polygon fill="white" stroke="#666666" points="314,-217 158,-217 158,-165 314,-165 314,-217"/>
<text text-anchor="start" x="166" y="-205" font-family="Helvetica,sans-Serif" font-size="10.00">/home/runner/work/amr</text>
<text text-anchor="start" x="166" y="-194" font-family="Helvetica,sans-Serif" font-size="10.00">&#45;wind/amr&#45;wind/src/equation</text>
<text text-anchor="start" x="166" y="-183" font-family="Helvetica,sans-Serif" font-size="10.00">_systems/icns/source_terms</text>
<text text-anchor="middle" x="236" y="-172" font-family="Helvetica,sans-Serif" font-size="10.00">/ABLMeanBoussinesq.H</text>
</a>
</g>
</g>
<!-- Node1&#45;&gt;Node2 -->
<g id="edge1_Node000001_Node000002" class="edge">
<title>Node1&#45;&gt;Node2</title>
<g id="a_edge1_Node000001_Node000002"><a xlink:title=" ">
<path fill="none" stroke="#63b8ff" d="M1521.36,-421.92C1404.42,-414.91 1188.43,-399.27 1006,-371 847.74,-346.48 810.22,-329.25 654,-294 506.67,-260.75 469.19,-254.98 323,-217 320.11,-216.25 317.17,-215.47 314.2,-214.68"/>
<polygon fill="#63b8ff" stroke="#63b8ff" points="1521.49,-425.44 1531.68,-422.53 1521.9,-418.45 1521.49,-425.44"/>
</a>
</g>
</g>
<!-- Node5 -->
<g id="Node000005" class="node">
<title>Node5</title>
<g id="a_Node000005"><a xlink:href="_hurricane_forcing_8_h.html" target="_top" xlink:title=" ">
<polygon fill="white" stroke="#666666" points="488,-217 332,-217 332,-165 488,-165 488,-217"/>
<text text-anchor="start" x="340" y="-205" font-family="Helvetica,sans-Serif" font-size="10.00">/home/runner/work/amr</text>
<text text-anchor="start" x="340" y="-194" font-family="Helvetica,sans-Serif" font-size="10.00">&#45;wind/amr&#45;wind/src/equation</text>
<text text-anchor="start" x="340" y="-183" font-family="Helvetica,sans-Serif" font-size="10.00">_systems/icns/source_terms</text>
<text text-anchor="middle" x="410" y="-172" font-family="Helvetica,sans-Serif" font-size="10.00">/HurricaneForcing.H</text>
</a>
</g>
</g>
<!-- Node1&#45;&gt;Node5 -->
<g id="edge4_Node000001_Node000005" class="edge">
<title>Node1&#45;&gt;Node5</title>
<g id="a_edge4_Node000001_Node000005"><a xlink:title=" ">
<path fill="none" stroke="#63b8ff" d="M1521.7,-415.36C1445.54,-405.07 1331.05,-388.72 1232,-371 904.31,-312.38 822.31,-296.28 499,-217 495.41,-216.12 491.76,-215.2 488.06,-214.25"/>
<polygon fill="#63b8ff" stroke="#63b8ff" points="1521.34,-418.85 1531.72,-416.71 1522.28,-411.91 1521.34,-418.85"/>
</a>
</g>
</g>
<!-- Node7 -->
<g id="Node000007" class="node">
<title>Node7</title>
<g id="a_Node000007"><a xlink:href="_hurricane_temp_forcing_8_h.html" target="_top" xlink:title=" ">
<polygon fill="white" stroke="#666666" points="681.5,-217 508.5,-217 508.5,-165 681.5,-165 681.5,-217"/>
<text text-anchor="start" x="516.5" y="-205" font-family="Helvetica,sans-Serif" font-size="10.00">/home/runner/work/amr</text>
<text text-anchor="start" x="516.5" y="-194" font-family="Helvetica,sans-Serif" font-size="10.00">&#45;wind/amr&#45;wind/src/equation</text>
<text text-anchor="start" x="516.5" y="-183" font-family="Helvetica,sans-Serif" font-size="10.00">_systems/temperature/source</text>
<text text-anchor="middle" x="595" y="-172" font-family="Helvetica,sans-Serif" font-size="10.00">_terms/HurricaneTempForcing.H</text>
</a>
</g>
</g>
<!-- Node1&#45;&gt;Node7 -->
<g id="edge7_Node000001_Node000007" class="edge">
<title>Node1&#45;&gt;Node7</title>
<g id="a_edge7_Node000001_Node000007"><a xlink:title=" ">
<path fill="none" stroke="#63b8ff" d="M1522.1,-406.05C1479.67,-395.73 1427.57,-382.91 1381,-371 1183.18,-320.43 1136.34,-297.19 937,-253 850.74,-233.88 751.2,-216.67 681.84,-205.44"/>
<polygon fill="#63b8ff" stroke="#63b8ff" points="1521.29,-409.46 1531.83,-408.42 1522.94,-402.66 1521.29,-409.46"/>
</a>
</g>
</g>
<!-- Node9 -->
<g id="Node000009" class="node">
<title>Node9</title>
<g id="a_Node000009"><a xlink:href="_field_plane_averaging_8cpp.html" target="_top" xlink:title=" ">
<polygon fill="white" stroke="#666666" points="2394,-371 2244,-371 2244,-330 2394,-330 2394,-371"/>
<text text-anchor="start" x="2252" y="-359" font-family="Helvetica,sans-Serif" font-size="10.00">/home/runner/work/amr</text>
<text text-anchor="start" x="2252" y="-348" font-family="Helvetica,sans-Serif" font-size="10.00">&#45;wind/amr&#45;wind/src/utilities</text>
<text text-anchor="middle" x="2319" y="-337" font-family="Helvetica,sans-Serif" font-size="10.00">/FieldPlaneAveraging.cpp</text>
</a>
</g>
</g>
<!-- Node1&#45;&gt;Node9 -->
<g id="edge10_Node000001_Node000009" class="edge">
<title>Node1&#45;&gt;Node9</title>
<g id="a_edge10_Node000001_Node000009"><a xlink:title=" ">
<path fill="none" stroke="#63b8ff" d="M1692.43,-422.33C1812.85,-415.67 2039.15,-400.29 2230,-371 2234.53,-370.3 2239.18,-369.52 2243.86,-368.66"/>
<polygon fill="#63b8ff" stroke="#63b8ff" points="1691.96,-418.85 1682.17,-422.89 1692.35,-425.84 1691.96,-418.85"/>
</a>
</g>
</g>
<!-- Node10 -->
<g id="Node000010" class="node">
<title>Node10</title>
<g id="a_Node000010"><a xlink:href="_second_moment_averaging_8_h.html" target="_top" xlink:title=" ">
<polygon fill="white" stroke="#666666" points="2073.5,-371 1918.5,-371 1918.5,-330 2073.5,-330 2073.5,-371"/>
<text text-anchor="start" x="1926.5" y="-359" font-family="Helvetica,sans-Serif" font-size="10.00">/home/runner/work/amr</text>
<text text-anchor="start" x="1926.5" y="-348" font-family="Helvetica,sans-Serif" font-size="10.00">&#45;wind/amr&#45;wind/src/utilities</text>
<text text-anchor="middle" x="1996" y="-337" font-family="Helvetica,sans-Serif" font-size="10.00">/SecondMomentAveraging.H</text>
</a>
</g>
</g>
<!-- Node1&#45;&gt;Node10 -->
<g id="edge11_Node000001_Node000010" class="edge">
<title>Node1&#45;&gt;Node10</title>
<g id="a_edge11_Node000001_Node000010"><a xlink:title=" ">
<path fill="none" stroke="#63b8ff" d="M1692.17,-410.08C1759.55,-397.09 1852.85,-379.1 1918.23,-366.49"/>
<polygon fill="#63b8ff" stroke="#63b8ff" points="1691.16,-406.71 1682,-412.04 1692.48,-413.58 1691.16,-406.71"/>
</a>
</g>
</g>
<!-- Node12 -->
<g id="Node000012" class="node">
<title>Node12</title>
<g id="a_Node000012"><a xlink:href="_a_b_l_stats_8_h.html" target="_top" xlink:title=" ">
<polygon fill="white" stroke="#666666" points="1969.5,-211.5 1832.5,-211.5 1832.5,-170.5 1969.5,-170.5 1969.5,-211.5"/>
<text text-anchor="start" x="1840.5" y="-199.5" font-family="Helvetica,sans-Serif" font-size="10.00">/home/runner/work/amr</text>
<text text-anchor="start" x="1840.5" y="-188.5" font-family="Helvetica,sans-Serif" font-size="10.00">&#45;wind/amr&#45;wind/src/wind</text>
<text text-anchor="middle" x="1901" y="-177.5" font-family="Helvetica,sans-Serif" font-size="10.00">_energy/ABLStats.H</text>
</a>
</g>
</g>
<!-- Node1&#45;&gt;Node12 -->
<g id="edge38_Node000001_Node000012" class="edge">
<title>Node1&#45;&gt;Node12</title>
<g id="a_edge38_Node000001_Node000012"><a xlink:title=" ">
<path fill="none" stroke="#63b8ff" d="M1692.23,-421.42C1809.32,-413.62 2013.36,-396.82 2083,-371 2140.33,-349.74 2168.31,-347.99 2197,-294 2205.55,-277.91 2208.51,-267.13 2197,-253 2168.87,-218.48 2047.9,-202.92 1969.58,-196.35"/>
<polygon fill="#63b8ff" stroke="#63b8ff" points="1691.96,-417.93 1682.22,-422.08 1692.42,-424.92 1691.96,-417.93"/>
</a>
</g>
</g>
<!-- Node14 -->
<g id="Node000014" class="node">
<title>Node14</title>
<g id="a_Node000014"><a xlink:href="_third_moment_averaging_8_h.html" target="_top" xlink:title=" ">
<polygon fill="white" stroke="#666666" points="1861,-371 1711,-371 1711,-330 1861,-330 1861,-371"/>
<text text-anchor="start" x="1719" y="-359" font-family="Helvetica,sans-Serif" font-size="10.00">/home/runner/work/amr</text>
<text text-anchor="start" x="1719" y="-348" font-family="Helvetica,sans-Serif" font-size="10.00">&#45;wind/amr&#45;wind/src/utilities</text>
<text text-anchor="middle" x="1786" y="-337" font-family="Helvetica,sans-Serif" font-size="10.00">/ThirdMomentAveraging.H</text>
</a>
</g>
</g>
<!-- Node1&#45;&gt;Node14 -->
<g id="edge15_Node000001_Node000014" class="edge">
<title>Node1&#45;&gt;Node14</title>
<g id="a_edge15_Node000001_Node000014"><a xlink:title=" ">
<path fill="none" stroke="#63b8ff" d="M1663.1,-403C1687.61,-392.72 1716.03,-380.82 1739.36,-371.04"/>
<polygon fill="#63b8ff" stroke="#63b8ff" points="1661.43,-399.9 1653.56,-406.99 1664.14,-406.35 1661.43,-399.9"/>
</a>
</g>
</g>
<!-- Node16 -->
<g id="Node000016" class="node">
<title>Node16</title>
<g id="a_Node000016"><a xlink:href="_a_b_l_8_h.html" target="_top" xlink:title=" ">
<polygon fill="white" stroke="#666666" points="1465.5,-211.5 1328.5,-211.5 1328.5,-170.5 1465.5,-170.5 1465.5,-211.5"/>
<text text-anchor="start" x="1336.5" y="-199.5" font-family="Helvetica,sans-Serif" font-size="10.00">/home/runner/work/amr</text>
<text text-anchor="start" x="1336.5" y="-188.5" font-family="Helvetica,sans-Serif" font-size="10.00">&#45;wind/amr&#45;wind/src/wind</text>
<text text-anchor="middle" x="1397" y="-177.5" font-family="Helvetica,sans-Serif" font-size="10.00">_energy/ABL.H</text>
</a>
</g>
</g>
<!-- Node1&#45;&gt;Node16 -->
<g id="edge18_Node000001_Node000016" class="edge">
<title>Node1&#45;&gt;Node16</title>
<g id="a_edge18_Node000001_Node000016"><a xlink:title=" ">
<path fill="none" stroke="#63b8ff" d="M1522.41,-406.57C1464.21,-387.98 1391.13,-353.82 1355,-294 1338.76,-267.12 1360.57,-232.82 1378.33,-211.64"/>
<polygon fill="#63b8ff" stroke="#63b8ff" points="1521.4,-409.92 1531.99,-409.54 1523.47,-403.24 1521.4,-409.92"/>
</a>
</g>
</g>
<!-- Node32 -->
<g id="Node000032" class="node">
<title>Node32</title>
<g id="a_Node000032"><a xlink:href="_a_b_l_wall_function_8_h.html" target="_top" xlink:title=" ">
<polygon fill="white" stroke="#666666" points="1681.5,-371 1532.5,-371 1532.5,-330 1681.5,-330 1681.5,-371"/>
<text text-anchor="start" x="1540.5" y="-359" font-family="Helvetica,sans-Serif" font-size="10.00">/home/runner/work/amr</text>
<text text-anchor="start" x="1540.5" y="-348" font-family="Helvetica,sans-Serif" font-size="10.00">&#45;wind/amr&#45;wind/src/wind</text>
<text text-anchor="middle" x="1607" y="-337" font-family="Helvetica,sans-Serif" font-size="10.00">_energy/ABLWallFunction.H</text>
</a>
</g>
</g>
<!-- Node1&#45;&gt;Node32 -->
<g id="edge39_Node000001_Node000032" class="edge">
<title>Node1&#45;&gt;Node32</title>
<g id="a_edge39_Node000001_Node000032"><a xlink:title=" ">
<path fill="none" stroke="#63b8ff" d="M1607,-396.69C1607,-388.08 1607,-378.9 1607,-371.07"/>
<polygon fill="#63b8ff" stroke="#63b8ff" points="1603.5,-396.79 1607,-406.79 1610.5,-396.79 1603.5,-396.79"/>
</a>
</g>
</g>
<!-- Node3 -->
<g id="Node000003" class="node">
<title>Node3</title>
<g id="a_Node000003"><a xlink:href="_a_b_l_mean_boussinesq_8cpp.html" target="_top" xlink:title=" ">
<polygon fill="white" stroke="#666666" points="156,-129 0,-129 0,-77 156,-77 156,-129"/>
<text text-anchor="start" x="8" y="-117" font-family="Helvetica,sans-Serif" font-size="10.00">/home/runner/work/amr</text>
<text text-anchor="start" x="8" y="-106" font-family="Helvetica,sans-Serif" font-size="10.00">&#45;wind/amr&#45;wind/src/equation</text>
<text text-anchor="start" x="8" y="-95" font-family="Helvetica,sans-Serif" font-size="10.00">_systems/icns/source_terms</text>
<text text-anchor="middle" x="78" y="-84" font-family="Helvetica,sans-Serif" font-size="10.00">/ABLMeanBoussinesq.cpp</text>
</a>
</g>
</g>
<!-- Node2&#45;&gt;Node3 -->
<g id="edge2_Node000002_Node000003" class="edge">
<title>Node2&#45;&gt;Node3</title>
<g id="a_edge2_Node000002_Node000003"><a xlink:title=" ">
<path fill="none" stroke="#63b8ff" d="M180.96,-160.04C162.43,-149.95 141.96,-138.81 124.18,-129.14"/>
<polygon fill="#63b8ff" stroke="#63b8ff" points="179.42,-163.19 189.88,-164.89 182.77,-157.04 179.42,-163.19"/>
</a>
</g>
</g>
<!-- Node4 -->
<g id="Node000004" class="node">
<title>Node4</title>
<g id="a_Node000004"><a xlink:href="_a_b_l_8cpp.html" target="_top" xlink:title=" ">
<polygon fill="white" stroke="#666666" points="311.5,-123.5 174.5,-123.5 174.5,-82.5 311.5,-82.5 311.5,-123.5"/>
<text text-anchor="start" x="182.5" y="-111.5" font-family="Helvetica,sans-Serif" font-size="10.00">/home/runner/work/amr</text>
<text text-anchor="start" x="182.5" y="-100.5" font-family="Helvetica,sans-Serif" font-size="10.00">&#45;wind/amr&#45;wind/src/wind</text>
<text text-anchor="middle" x="243" y="-89.5" font-family="Helvetica,sans-Serif" font-size="10.00">_energy/ABL.cpp</text>
</a>
</g>
</g>
<!-- Node2&#45;&gt;Node4 -->
<g id="edge3_Node000002_Node000004" class="edge">
<title>Node2&#45;&gt;Node4</title>
<g id="a_edge3_Node000002_Node000004"><a xlink:title=" ">
<path fill="none" stroke="#63b8ff" d="M238.89,-154.45C239.75,-143.94 240.65,-132.82 241.4,-123.7"/>
<polygon fill="#63b8ff" stroke="#63b8ff" points="235.39,-154.41 238.06,-164.66 242.36,-154.98 235.39,-154.41"/>
</a>
</g>
</g>
<!-- Node5&#45;&gt;Node4 -->
<g id="edge6_Node000005_Node000004" class="edge">
<title>Node5&#45;&gt;Node4</title>
<g id="a_edge6_Node000005_Node000004"><a xlink:title=" ">
<path fill="none" stroke="#63b8ff" d="M352.05,-160.16C328.49,-148.03 301.93,-134.35 280.93,-123.53"/>
<polygon fill="#63b8ff" stroke="#63b8ff" points="350.75,-163.43 361.25,-164.89 353.96,-157.2 350.75,-163.43"/>
</a>
</g>
</g>
<!-- Node6 -->
<g id="Node000006" class="node">
<title>Node6</title>
<g id="a_Node000006"><a xlink:href="_hurricane_forcing_8cpp.html" target="_top" xlink:title=" ">
<polygon fill="white" stroke="#666666" points="486,-129 330,-129 330,-77 486,-77 486,-129"/>
<text text-anchor="start" x="338" y="-117" font-family="Helvetica,sans-Serif" font-size="10.00">/home/runner/work/amr</text>
<text text-anchor="start" x="338" y="-106" font-family="Helvetica,sans-Serif" font-size="10.00">&#45;wind/amr&#45;wind/src/equation</text>
<text text-anchor="start" x="338" y="-95" font-family="Helvetica,sans-Serif" font-size="10.00">_systems/icns/source_terms</text>
<text text-anchor="middle" x="408" y="-84" font-family="Helvetica,sans-Serif" font-size="10.00">/HurricaneForcing.cpp</text>
</a>
</g>
</g>
<!-- Node5&#45;&gt;Node6 -->
<g id="edge5_Node000005_Node000006" class="edge">
<title>Node5&#45;&gt;Node6</title>
<g id="a_edge5_Node000005_Node000006"><a xlink:title=" ">
<path fill="none" stroke="#63b8ff" d="M409.18,-154.56C408.98,-146.04 408.77,-137.1 408.59,-129.16"/>
<polygon fill="#63b8ff" stroke="#63b8ff" points="405.68,-154.75 409.41,-164.66 412.68,-154.58 405.68,-154.75"/>
</a>
</g>
</g>
<!-- Node7&#45;&gt;Node4 -->
<g id="edge9_Node000007_Node000004" class="edge">
<title>Node7&#45;&gt;Node4</title>
<g id="a_edge9_Node000007_Node000004"><a xlink:title=" ">
<path fill="none" stroke="#63b8ff" d="M498.42,-165.33C497.94,-165.22 497.47,-165.11 497,-165 419.18,-147.13 398.24,-149.21 321,-129 314.67,-127.34 308.1,-125.48 301.57,-123.53"/>
<polygon fill="#63b8ff" stroke="#63b8ff" points="497.95,-168.81 508.48,-167.69 499.55,-162 497.95,-168.81"/>
</a>
</g>
</g>
<!-- Node8 -->
<g id="Node000008" class="node">
<title>Node8</title>
<g id="a_Node000008"><a xlink:href="_hurricane_temp_forcing_8cpp.html" target="_top" xlink:title=" ">
<polygon fill="white" stroke="#666666" points="686,-129 504,-129 504,-77 686,-77 686,-129"/>
<text text-anchor="start" x="512" y="-117" font-family="Helvetica,sans-Serif" font-size="10.00">/home/runner/work/amr</text>
<text text-anchor="start" x="512" y="-106" font-family="Helvetica,sans-Serif" font-size="10.00">&#45;wind/amr&#45;wind/src/equation</text>
<text text-anchor="start" x="512" y="-95" font-family="Helvetica,sans-Serif" font-size="10.00">_systems/temperature/source</text>
<text text-anchor="middle" x="595" y="-84" font-family="Helvetica,sans-Serif" font-size="10.00">_terms/HurricaneTempForcing.cpp</text>
</a>
</g>
</g>
<!-- Node7&#45;&gt;Node8 -->
<g id="edge8_Node000007_Node000008" class="edge">
<title>Node7&#45;&gt;Node8</title>
<g id="a_edge8_Node000007_Node000008"><a xlink:title=" ">
<path fill="none" stroke="#63b8ff" d="M595,-154.56C595,-146.04 595,-137.1 595,-129.16"/>
<polygon fill="#63b8ff" stroke="#63b8ff" points="591.5,-154.66 595,-164.66 598.5,-154.66 591.5,-154.66"/>
</a>
</g>
</g>
<!-- Node11 -->
<g id="Node000011" class="node">
<title>Node11</title>
<g id="a_Node000011"><a xlink:href="_second_moment_averaging_8cpp.html" target="_top" xlink:title=" ">
<polygon fill="white" stroke="#666666" points="2188,-294 2024,-294 2024,-253 2188,-253 2188,-294"/>
<text text-anchor="start" x="2032" y="-282" font-family="Helvetica,sans-Serif" font-size="10.00">/home/runner/work/amr</text>
<text text-anchor="start" x="2032" y="-271" font-family="Helvetica,sans-Serif" font-size="10.00">&#45;wind/amr&#45;wind/src/utilities</text>
<text text-anchor="middle" x="2106" y="-260" font-family="Helvetica,sans-Serif" font-size="10.00">/SecondMomentAveraging.cpp</text>
</a>
</g>
</g>
<!-- Node10&#45;&gt;Node11 -->
<g id="edge12_Node000010_Node000011" class="edge">
<title>Node10&#45;&gt;Node11</title>
<g id="a_edge12_Node000010_Node000011"><a xlink:title=" ">
<path fill="none" stroke="#63b8ff" d="M2033.26,-324.09C2047.6,-314.32 2063.72,-303.32 2077.15,-294.17"/>
<polygon fill="#63b8ff" stroke="#63b8ff" points="2030.9,-321.47 2024.61,-329.99 2034.85,-327.25 2030.9,-321.47"/>
</a>
</g>
</g>
<!-- Node10&#45;&gt;Node12 -->
<g id="edge13_Node000010_Node000012" class="edge">
<title>Node10&#45;&gt;Node12</title>
<g id="a_edge13_Node000010_Node000012"><a xlink:title=" ">
<path fill="none" stroke="#63b8ff" d="M1995.4,-319.81C1993.78,-299.69 1989.22,-273.18 1977,-253 1966.84,-236.21 1950.28,-222.11 1935.21,-211.71"/>
<polygon fill="#63b8ff" stroke="#63b8ff" points="1991.91,-320.2 1996.01,-329.97 1998.9,-319.78 1991.91,-320.2"/>
</a>
</g>
</g>
<!-- Node13 -->
<g id="Node000013" class="node">
<title>Node13</title>
<g id="a_Node000013"><a xlink:href="_a_b_l_stats_8cpp.html" target="_top" xlink:title=" ">
<polygon fill="white" stroke="#666666" points="3144.5,-123.5 3007.5,-123.5 3007.5,-82.5 3144.5,-82.5 3144.5,-123.5"/>
<text text-anchor="start" x="3015.5" y="-111.5" font-family="Helvetica,sans-Serif" font-size="10.00">/home/runner/work/amr</text>
<text text-anchor="start" x="3015.5" y="-100.5" font-family="Helvetica,sans-Serif" font-size="10.00">&#45;wind/amr&#45;wind/src/wind</text>
<text text-anchor="middle" x="3076" y="-89.5" font-family="Helvetica,sans-Serif" font-size="10.00">_energy/ABLStats.cpp</text>
</a>
</g>
</g>
<!-- Node12&#45;&gt;Node13 -->
<g id="edge14_Node000012_Node000013" class="edge">
<title>Node12&#45;&gt;Node13</title>
<g id="a_edge14_Node000012_Node000013"><a xlink:title=" ">
<path fill="none" stroke="#63b8ff" d="M1979.58,-188.27C2196.97,-183.06 2803.18,-165.59 2999,-129 3006.46,-127.61 3014.2,-125.69 3021.77,-123.53"/>
<polygon fill="#63b8ff" stroke="#63b8ff" points="1979.44,-184.77 1969.53,-188.51 1979.61,-191.77 1979.44,-184.77"/>
</a>
</g>
</g>
<!-- Node14&#45;&gt;Node12 -->
<g id="edge17_Node000014_Node000012" class="edge">
<title>Node14&#45;&gt;Node12</title>
<g id="a_edge17_Node000014_Node000012"><a xlink:title=" ">
<path fill="none" stroke="#63b8ff" d="M1785.89,-319.65C1787.17,-299.29 1791.63,-272.57 1805,-253 1817.15,-235.23 1836.35,-221.53 1854.41,-211.66"/>
<polygon fill="#63b8ff" stroke="#63b8ff" points="1782.39,-319.51 1785.48,-329.64 1789.39,-319.8 1782.39,-319.51"/>
</a>
</g>
</g>
<!-- Node15 -->
<g id="Node000015" class="node">
<title>Node15</title>
<g id="a_Node000015"><a xlink:href="_third_moment_averaging_8cpp.html" target="_top" xlink:title=" ">
<polygon fill="white" stroke="#666666" points="1968,-294 1814,-294 1814,-253 1968,-253 1968,-294"/>
<text text-anchor="start" x="1822" y="-282" font-family="Helvetica,sans-Serif" font-size="10.00">/home/runner/work/amr</text>
<text text-anchor="start" x="1822" y="-271" font-family="Helvetica,sans-Serif" font-size="10.00">&#45;wind/amr&#45;wind/src/utilities</text>
<text text-anchor="middle" x="1891" y="-260" font-family="Helvetica,sans-Serif" font-size="10.00">/ThirdMomentAveraging.cpp</text>
</a>
</g>
</g>
<!-- Node14&#45;&gt;Node15 -->
<g id="edge16_Node000014_Node000015" class="edge">
<title>Node14&#45;&gt;Node15</title>
<g id="a_edge16_Node000014_Node000015"><a xlink:title=" ">
<path fill="none" stroke="#63b8ff" d="M1821.57,-324.09C1835.25,-314.32 1850.65,-303.32 1863.46,-294.17"/>
<polygon fill="#63b8ff" stroke="#63b8ff" points="1819.42,-321.33 1813.31,-329.99 1823.49,-327.03 1819.42,-321.33"/>
</a>
</g>
</g>
<!-- Node16&#45;&gt;Node3 -->
<g id="edge21_Node000016_Node000003" class="edge">
<title>Node16&#45;&gt;Node3</title>
<g id="a_edge21_Node000016_Node000003"><a xlink:title=" ">
<path fill="none" stroke="#63b8ff" d="M1318.08,-187.15C1064.14,-177.83 278.1,-147.79 165,-129 162.05,-128.51 159.07,-127.96 156.06,-127.35"/>
<polygon fill="#63b8ff" stroke="#63b8ff" points="1318.21,-190.66 1328.33,-187.53 1318.47,-183.66 1318.21,-190.66"/>
</a>
</g>
</g>
<!-- Node16&#45;&gt;Node4 -->
<g id="edge35_Node000016_Node000004" class="edge">
<title>Node16&#45;&gt;Node4</title>
<g id="a_edge35_Node000016_Node000004"><a xlink:title=" ">
<path fill="none" stroke="#63b8ff" d="M1318.17,-188.12C1103.6,-182.59 512.41,-164.5 321,-129 313.45,-127.6 305.61,-125.68 297.95,-123.52"/>
<polygon fill="#63b8ff" stroke="#63b8ff" points="1318.31,-191.63 1328.4,-188.38 1318.49,-184.63 1318.31,-191.63"/>
</a>
</g>
</g>
<!-- Node16&#45;&gt;Node6 -->
<g id="edge25_Node000016_Node000006" class="edge">
<title>Node16&#45;&gt;Node6</title>
<g id="a_edge25_Node000016_Node000006"><a xlink:title=" ">
<path fill="none" stroke="#63b8ff" d="M1318.15,-190.26C1160.53,-189.57 795.84,-181.78 495,-129 492.06,-128.48 489.08,-127.91 486.07,-127.28"/>
<polygon fill="#63b8ff" stroke="#63b8ff" points="1318.22,-193.76 1328.23,-190.3 1318.24,-186.76 1318.22,-193.76"/>
</a>
</g>
</g>
<!-- Node16&#45;&gt;Node8 -->
<g id="edge27_Node000016_Node000008" class="edge">
<title>Node16&#45;&gt;Node8</title>
<g id="a_edge27_Node000016_Node000008"><a xlink:title=" ">
<path fill="none" stroke="#63b8ff" d="M1317.99,-187.21C1187.5,-181.7 919.08,-166.5 695,-129 692.09,-128.51 689.14,-127.98 686.16,-127.42"/>
<polygon fill="#63b8ff" stroke="#63b8ff" points="1318.15,-190.72 1328.29,-187.64 1318.44,-183.73 1318.15,-190.72"/>
</a>
</g>
</g>
<!-- Node17 -->
<g id="Node000017" class="node">
<title>Node17</title>
<g id="a_Node000017"><a xlink:href="_c_f_d_sim_8cpp.html" target="_top" xlink:title=" ">
<polygon fill="white" stroke="#666666" points="1917.5,-118 1744.5,-118 1744.5,-88 1917.5,-88 1917.5,-118"/>
<text text-anchor="start" x="1752.5" y="-106" font-family="Helvetica,sans-Serif" font-size="10.00">/home/runner/work/amr</text>
<text text-anchor="middle" x="1831" y="-95" font-family="Helvetica,sans-Serif" font-size="10.00">&#45;wind/amr&#45;wind/src/CFDSim.cpp</text>
</a>
</g>
</g>
<!-- Node16&#45;&gt;Node17 -->
<g id="edge19_Node000016_Node000017" class="edge">
<title>Node16&#45;&gt;Node17</title>
<g id="a_edge19_Node000016_Node000017"><a xlink:title=" ">
<path fill="none" stroke="#63b8ff" d="M1475.74,-177.65C1544.67,-166.4 1647.38,-148.6 1736,-129 1750.49,-125.8 1766.1,-121.88 1780.4,-118.11"/>
<polygon fill="#63b8ff" stroke="#63b8ff" points="1475.13,-174.2 1465.82,-179.26 1476.25,-181.11 1475.13,-174.2"/>
</a>
</g>
</g>
<!-- Node18 -->
<g id="Node000018" class="node">
<title>Node18</title>
<g id="a_Node000018"><a xlink:href="_a_b_l_forcing_8cpp.html" target="_top" xlink:title=" ">
<polygon fill="white" stroke="#666666" points="2092,-129 1936,-129 1936,-77 2092,-77 2092,-129"/>
<text text-anchor="start" x="1944" y="-117" font-family="Helvetica,sans-Serif" font-size="10.00">/home/runner/work/amr</text>
<text text-anchor="start" x="1944" y="-106" font-family="Helvetica,sans-Serif" font-size="10.00">&#45;wind/amr&#45;wind/src/equation</text>
<text text-anchor="start" x="1944" y="-95" font-family="Helvetica,sans-Serif" font-size="10.00">_systems/icns/source_terms</text>
<text text-anchor="middle" x="2014" y="-84" font-family="Helvetica,sans-Serif" font-size="10.00">/ABLForcing.cpp</text>
</a>
</g>
</g>
<!-- Node16&#45;&gt;Node18 -->
<g id="edge20_Node000016_Node000018" class="edge">
<title>Node16&#45;&gt;Node18</title>
<g id="a_edge20_Node000016_Node000018"><a xlink:title=" ">
<path fill="none" stroke="#63b8ff" d="M1475.86,-185.01C1579.96,-177.49 1768.56,-160.66 1927,-129 1929.93,-128.41 1932.9,-127.78 1935.9,-127.1"/>
<polygon fill="#63b8ff" stroke="#63b8ff" points="1475.48,-181.53 1465.75,-185.73 1475.97,-188.51 1475.48,-181.53"/>
</a>
</g>
</g>
<!-- Node19 -->
<g id="Node000019" class="node">
<title>Node19</title>
<g id="a_Node000019"><a xlink:href="_a_b_l_meso_forcing_mom_8cpp.html" target="_top" xlink:title=" ">
<polygon fill="white" stroke="#666666" points="2266,-129 2110,-129 2110,-77 2266,-77 2266,-129"/>
<text text-anchor="start" x="2118" y="-117" font-family="Helvetica,sans-Serif" font-size="10.00">/home/runner/work/amr</text>
<text text-anchor="start" x="2118" y="-106" font-family="Helvetica,sans-Serif" font-size="10.00">&#45;wind/amr&#45;wind/src/equation</text>
<text text-anchor="start" x="2118" y="-95" font-family="Helvetica,sans-Serif" font-size="10.00">_systems/icns/source_terms</text>
<text text-anchor="middle" x="2188" y="-84" font-family="Helvetica,sans-Serif" font-size="10.00">/ABLMesoForcingMom.cpp</text>
</a>
</g>
</g>
<!-- Node16&#45;&gt;Node19 -->
<g id="edge22_Node000016_Node000019" class="edge">
<title>Node16&#45;&gt;Node19</title>
<g id="a_edge22_Node000016_Node000019"><a xlink:title=" ">
<path fill="none" stroke="#63b8ff" d="M1475.85,-183.37C1656.44,-168.15 2085.77,-131.82 2101,-129 2103.94,-128.46 2106.92,-127.86 2109.92,-127.21"/>
<polygon fill="#63b8ff" stroke="#63b8ff" points="1475.29,-179.9 1465.62,-184.23 1475.87,-186.88 1475.29,-179.9"/>
</a>
</g>
</g>
<!-- Node20 -->
<g id="Node000020" class="node">
<title>Node20</title>
<g id="a_Node000020"><a xlink:href="_drag_forcing_8cpp.html" target="_top" xlink:title=" ">
<polygon fill="white" stroke="#666666" points="2440,-129 2284,-129 2284,-77 2440,-77 2440,-129"/>
<text text-anchor="start" x="2292" y="-117" font-family="Helvetica,sans-Serif" font-size="10.00">/home/runner/work/amr</text>
<text text-anchor="start" x="2292" y="-106" font-family="Helvetica,sans-Serif" font-size="10.00">&#45;wind/amr&#45;wind/src/equation</text>
<text text-anchor="start" x="2292" y="-95" font-family="Helvetica,sans-Serif" font-size="10.00">_systems/icns/source_terms</text>
<text text-anchor="middle" x="2362" y="-84" font-family="Helvetica,sans-Serif" font-size="10.00">/DragForcing.cpp</text>
</a>
</g>
</g>
<!-- Node16&#45;&gt;Node20 -->
<g id="edge23_Node000016_Node000020" class="edge">
<title>Node16&#45;&gt;Node20</title>
<g id="a_edge23_Node000016_Node000020"><a xlink:title=" ">
<path fill="none" stroke="#63b8ff" d="M1475.75,-182.95C1536.02,-177.67 1621.23,-170.45 1696,-165 1953.15,-146.26 2020.93,-172.86 2275,-129 2277.94,-128.49 2280.93,-127.92 2283.93,-127.3"/>
<polygon fill="#63b8ff" stroke="#63b8ff" points="1475.2,-179.49 1465.55,-183.85 1475.82,-186.46 1475.2,-179.49"/>
</a>
</g>
</g>
<!-- Node21 -->
<g id="Node000021" class="node">
<title>Node21</title>
<g id="a_Node000021"><a xlink:href="_forest_forcing_8cpp.html" target="_top" xlink:title=" ">
<polygon fill="white" stroke="#666666" points="2614,-129 2458,-129 2458,-77 2614,-77 2614,-129"/>
<text text-anchor="start" x="2466" y="-117" font-family="Helvetica,sans-Serif" font-size="10.00">/home/runner/work/amr</text>
<text text-anchor="start" x="2466" y="-106" font-family="Helvetica,sans-Serif" font-size="10.00">&#45;wind/amr&#45;wind/src/equation</text>
<text text-anchor="start" x="2466" y="-95" font-family="Helvetica,sans-Serif" font-size="10.00">_systems/icns/source_terms</text>
<text text-anchor="middle" x="2536" y="-84" font-family="Helvetica,sans-Serif" font-size="10.00">/ForestForcing.cpp</text>
</a>
</g>
</g>
<!-- Node16&#45;&gt;Node21 -->
<g id="edge24_Node000016_Node000021" class="edge">
<title>Node16&#45;&gt;Node21</title>
<g id="a_edge24_Node000016_Node000021"><a xlink:title=" ">
<path fill="none" stroke="#63b8ff" d="M1475.73,-182.65C1535.99,-177.2 1621.19,-169.91 1696,-165 2030.33,-143.04 2118.44,-183.63 2449,-129 2451.95,-128.51 2454.93,-127.96 2457.94,-127.36"/>
<polygon fill="#63b8ff" stroke="#63b8ff" points="1475.17,-179.18 1465.53,-183.57 1475.8,-186.15 1475.17,-179.18"/>
</a>
</g>
</g>
<!-- Node22 -->
<g id="Node000022" class="node">
<title>Node22</title>
<g id="a_Node000022"><a xlink:href="_a_b_l_meso_forcing_temp_8cpp.html" target="_top" xlink:title=" ">
<polygon fill="white" stroke="#666666" points="2812,-129 2632,-129 2632,-77 2812,-77 2812,-129"/>
<text text-anchor="start" x="2640" y="-117" font-family="Helvetica,sans-Serif" font-size="10.00">/home/runner/work/amr</text>
<text text-anchor="start" x="2640" y="-106" font-family="Helvetica,sans-Serif" font-size="10.00">&#45;wind/amr&#45;wind/src/equation</text>
<text text-anchor="start" x="2640" y="-95" font-family="Helvetica,sans-Serif" font-size="10.00">_systems/temperature/source</text>
<text text-anchor="middle" x="2722" y="-84" font-family="Helvetica,sans-Serif" font-size="10.00">_terms/ABLMesoForcingTemp.cpp</text>
</a>
</g>
</g>
<!-- Node16&#45;&gt;Node22 -->
<g id="edge26_Node000016_Node000022" class="edge">
<title>Node16&#45;&gt;Node22</title>
<g id="a_edge26_Node000016_Node000022"><a xlink:title=" ">
<path fill="none" stroke="#63b8ff" d="M1475.72,-182.45C1535.97,-176.91 1621.17,-169.58 1696,-165 2107.54,-139.82 2214.9,-187.79 2623,-129 2625.9,-128.58 2628.83,-128.12 2631.78,-127.61"/>
<polygon fill="#63b8ff" stroke="#63b8ff" points="1475.15,-178.99 1465.52,-183.4 1475.8,-185.96 1475.15,-178.99"/>
</a>
</g>
</g>
<!-- Node23 -->
<g id="Node000023" class="node">
<title>Node23</title>
<g id="a_Node000023"><a xlink:href="helics_8cpp.html" target="_top" xlink:title=" ">
<polygon fill="white" stroke="#666666" points="866,-118 704,-118 704,-88 866,-88 866,-118"/>
<text text-anchor="start" x="712" y="-106" font-family="Helvetica,sans-Serif" font-size="10.00">/home/runner/work/amr</text>
<text text-anchor="middle" x="785" y="-95" font-family="Helvetica,sans-Serif" font-size="10.00">&#45;wind/amr&#45;wind/src/helics.cpp</text>
</a>
</g>
</g>
<!-- Node16&#45;&gt;Node23 -->
<g id="edge28_Node000016_Node000023" class="edge">
<title>Node16&#45;&gt;Node23</title>
<g id="a_edge28_Node000016_Node000023"><a xlink:title=" ">
<path fill="none" stroke="#63b8ff" d="M1318.52,-184.63C1215.87,-176.74 1030.76,-159.54 875,-129 860.36,-126.13 844.62,-122.09 830.46,-118.1"/>
<polygon fill="#63b8ff" stroke="#63b8ff" points="1318.26,-188.12 1328.49,-185.39 1318.79,-181.14 1318.26,-188.12"/>
</a>
</g>
</g>
<!-- Node24 -->
<g id="Node000024" class="node">
<title>Node24</title>
<g id="a_Node000024"><a xlink:href="incflo_8cpp.html" target="_top" xlink:title=" ">
<polygon fill="white" stroke="#666666" points="1044,-118 884,-118 884,-88 1044,-88 1044,-118"/>
<text text-anchor="start" x="892" y="-106" font-family="Helvetica,sans-Serif" font-size="10.00">/home/runner/work/amr</text>
<text text-anchor="middle" x="964" y="-95" font-family="Helvetica,sans-Serif" font-size="10.00">&#45;wind/amr&#45;wind/src/incflo.cpp</text>
</a>
</g>
</g>
<!-- Node16&#45;&gt;Node24 -->
<g id="edge29_Node000016_Node000024" class="edge">
<title>Node16&#45;&gt;Node24</title>
<g id="a_edge29_Node000016_Node000024"><a xlink:title=" ">
<path fill="none" stroke="#63b8ff" d="M1318.33,-178.31C1248.31,-167.36 1143.31,-149.64 1053,-129 1039.23,-125.85 1024.41,-121.92 1010.89,-118.1"/>
<polygon fill="#63b8ff" stroke="#63b8ff" points="1317.98,-181.79 1328.4,-179.87 1319.05,-174.88 1317.98,-181.79"/>
</a>
</g>
</g>
<!-- Node25 -->
<g id="Node000025" class="node">
<title>Node25</title>
<g id="a_Node000025"><a xlink:href="nodal__projection__ops_8_h.html" target="_top" xlink:title=" ">
<polygon fill="white" stroke="#666666" points="1224,-123.5 1062,-123.5 1062,-82.5 1224,-82.5 1224,-123.5"/>
<text text-anchor="start" x="1070" y="-111.5" font-family="Helvetica,sans-Serif" font-size="10.00">/home/runner/work/amr</text>
<text text-anchor="start" x="1070" y="-100.5" font-family="Helvetica,sans-Serif" font-size="10.00">&#45;wind/amr&#45;wind/src/projection</text>
<text text-anchor="middle" x="1143" y="-89.5" font-family="Helvetica,sans-Serif" font-size="10.00">/nodal_projection_ops.H</text>
</a>
</g>
</g>
<!-- Node16&#45;&gt;Node25 -->
<g id="edge30_Node000016_Node000025" class="edge">
<title>Node16&#45;&gt;Node25</title>
<g id="a_edge30_Node000016_Node000025"><a xlink:title=" ">
<path fill="none" stroke="#63b8ff" d="M1329.66,-167.2C1289.55,-153.62 1239.16,-136.56 1200.85,-123.59"/>
<polygon fill="#63b8ff" stroke="#63b8ff" points="1328.77,-170.59 1339.36,-170.49 1331.01,-163.96 1328.77,-170.59"/>
</a>
</g>
</g>
<!-- Node28 -->
<g id="Node000028" class="node">
<title>Node28</title>
<g id="a_Node000028"><a xlink:href="init_8cpp.html" target="_top" xlink:title=" ">
<polygon fill="white" stroke="#666666" points="1382,-123.5 1242,-123.5 1242,-82.5 1382,-82.5 1382,-123.5"/>
<text text-anchor="start" x="1250" y="-111.5" font-family="Helvetica,sans-Serif" font-size="10.00">/home/runner/work/amr</text>
<text text-anchor="start" x="1250" y="-100.5" font-family="Helvetica,sans-Serif" font-size="10.00">&#45;wind/amr&#45;wind/src/setup</text>
<text text-anchor="middle" x="1312" y="-89.5" font-family="Helvetica,sans-Serif" font-size="10.00">/init.cpp</text>
</a>
</g>
</g>
<!-- Node16&#45;&gt;Node28 -->
<g id="edge33_Node000016_Node000028" class="edge">
<title>Node16&#45;&gt;Node28</title>
<g id="a_edge33_Node000016_Node000028"><a xlink:title=" ">
<path fill="none" stroke="#63b8ff" d="M1370.57,-163.26C1357.94,-150.48 1343.09,-135.46 1331.51,-123.74"/>
<polygon fill="#63b8ff" stroke="#63b8ff" points="1368.19,-165.83 1377.71,-170.49 1373.17,-160.91 1368.19,-165.83"/>
</a>
</g>
</g>
<!-- Node29 -->
<g id="Node000029" class="node">
<title>Node29</title>
<g id="a_Node000029"><a xlink:href="_kosovic_8cpp.html" target="_top" xlink:title=" ">
<polygon fill="white" stroke="#666666" points="1565.5,-123.5 1400.5,-123.5 1400.5,-82.5 1565.5,-82.5 1565.5,-123.5"/>
<text text-anchor="start" x="1408.5" y="-111.5" font-family="Helvetica,sans-Serif" font-size="10.00">/home/runner/work/amr</text>
<text text-anchor="start" x="1408.5" y="-100.5" font-family="Helvetica,sans-Serif" font-size="10.00">&#45;wind/amr&#45;wind/src/turbulence</text>
<text text-anchor="middle" x="1483" y="-89.5" font-family="Helvetica,sans-Serif" font-size="10.00">/LES/Kosovic.cpp</text>
</a>
</g>
</g>
<!-- Node16&#45;&gt;Node29 -->
<g id="edge34_Node000016_Node000029" class="edge">
<title>Node16&#45;&gt;Node29</title>
<g id="a_edge34_Node000016_Node000029"><a xlink:title=" ">
<path fill="none" stroke="#63b8ff" d="M1423.74,-163.26C1436.52,-150.48 1451.54,-135.46 1463.26,-123.74"/>
<polygon fill="#63b8ff" stroke="#63b8ff" points="1421.11,-160.94 1416.51,-170.49 1426.06,-165.89 1421.11,-160.94"/>
</a>
</g>
</g>
<!-- Node30 -->
<g id="Node000030" class="node">
<title>Node30</title>
<g id="a_Node000030"><a xlink:href="_a_b_l_anelastic_8cpp.html" target="_top" xlink:title=" ">
<polygon fill="white" stroke="#666666" points="1726.5,-123.5 1583.5,-123.5 1583.5,-82.5 1726.5,-82.5 1726.5,-123.5"/>
<text text-anchor="start" x="1591.5" y="-111.5" font-family="Helvetica,sans-Serif" font-size="10.00">/home/runner/work/amr</text>
<text text-anchor="start" x="1591.5" y="-100.5" font-family="Helvetica,sans-Serif" font-size="10.00">&#45;wind/amr&#45;wind/src/wind</text>
<text text-anchor="middle" x="1655" y="-89.5" font-family="Helvetica,sans-Serif" font-size="10.00">_energy/ABLAnelastic.cpp</text>
</a>
</g>
</g>
<!-- Node16&#45;&gt;Node30 -->
<g id="edge36_Node000016_Node000030" class="edge">
<title>Node16&#45;&gt;Node30</title>
<g id="a_edge36_Node000016_Node000030"><a xlink:title=" ">
<path fill="none" stroke="#63b8ff" d="M1465.14,-167.29C1505.93,-153.69 1557.24,-136.59 1596.24,-123.59"/>
<polygon fill="#63b8ff" stroke="#63b8ff" points="1463.92,-164 1455.54,-170.49 1466.14,-170.64 1463.92,-164"/>
</a>
</g>
</g>
<!-- Node31 -->
<g id="Node000031" class="node">
<title>Node31</title>
<g id="a_Node000031"><a xlink:href="_a_b_l_wall_function_8cpp.html" target="_top" xlink:title=" ">
<polygon fill="white" stroke="#666666" points="2989.5,-123.5 2830.5,-123.5 2830.5,-82.5 2989.5,-82.5 2989.5,-123.5"/>
<text text-anchor="start" x="2838.5" y="-111.5" font-family="Helvetica,sans-Serif" font-size="10.00">/home/runner/work/amr</text>
<text text-anchor="start" x="2838.5" y="-100.5" font-family="Helvetica,sans-Serif" font-size="10.00">&#45;wind/amr&#45;wind/src/wind</text>
<text text-anchor="middle" x="2910" y="-89.5" font-family="Helvetica,sans-Serif" font-size="10.00">_energy/ABLWallFunction.cpp</text>
</a>
</g>
</g>
<!-- Node16&#45;&gt;Node31 -->
<g id="edge37_Node000016_Node000031" class="edge">
<title>Node16&#45;&gt;Node31</title>
<g id="a_edge37_Node000016_Node000031"><a xlink:title=" ">
<path fill="none" stroke="#63b8ff" d="M1475.71,-182.31C1535.96,-176.69 1621.15,-169.32 1696,-165 1945.71,-150.57 2573.79,-167.1 2821,-129 2829.72,-127.66 2838.81,-125.73 2847.69,-123.55"/>
<polygon fill="#63b8ff" stroke="#63b8ff" points="1475.14,-178.84 1465.51,-183.26 1475.79,-185.81 1475.14,-178.84"/>
</a>
</g>
</g>
<!-- Node26 -->
<g id="Node000026" class="node">
<title>Node26</title>
<g id="a_Node000026"><a xlink:href="_overset_ops_8cpp.html" target="_top" xlink:title=" ">
<polygon fill="white" stroke="#666666" points="1125,-41 975,-41 975,0 1125,0 1125,-41"/>
<text text-anchor="start" x="983" y="-29" font-family="Helvetica,sans-Serif" font-size="10.00">/home/runner/work/amr</text>
<text text-anchor="start" x="983" y="-18" font-family="Helvetica,sans-Serif" font-size="10.00">&#45;wind/amr&#45;wind/src/overset</text>
<text text-anchor="middle" x="1050" y="-7" font-family="Helvetica,sans-Serif" font-size="10.00">/OversetOps.cpp</text>
</a>
</g>
</g>
<!-- Node25&#45;&gt;Node26 -->
<g id="edge31_Node000025_Node000026" class="edge">
<title>Node25&#45;&gt;Node26</title>
<g id="a_edge31_Node000025_Node000026"><a xlink:title=" ">
<path fill="none" stroke="#63b8ff" d="M1112.26,-75.39C1099.36,-64.22 1084.62,-51.47 1072.72,-41.17"/>
<polygon fill="#63b8ff" stroke="#63b8ff" points="1110.16,-78.2 1120.01,-82.1 1114.74,-72.91 1110.16,-78.2"/>
</a>
</g>
</g>
<!-- Node27 -->
<g id="Node000027" class="node">
<title>Node27</title>
<g id="a_Node000027"><a xlink:href="incflo__apply__nodal__projection_8cpp.html" target="_top" xlink:title=" ">
<polygon fill="white" stroke="#666666" points="1327.5,-41 1142.5,-41 1142.5,0 1327.5,0 1327.5,-41"/>
<text text-anchor="start" x="1150.5" y="-29" font-family="Helvetica,sans-Serif" font-size="10.00">/home/runner/work/amr</text>
<text text-anchor="start" x="1150.5" y="-18" font-family="Helvetica,sans-Serif" font-size="10.00">&#45;wind/amr&#45;wind/src/projection</text>
<text text-anchor="middle" x="1235" y="-7" font-family="Helvetica,sans-Serif" font-size="10.00">/incflo_apply_nodal_projection.cpp</text>
</a>
</g>
</g>
<!-- Node25&#45;&gt;Node27 -->
<g id="edge32_Node000025_Node000027" class="edge">
<title>Node25&#45;&gt;Node27</title>
<g id="a_edge32_Node000025_Node000027"><a xlink:title=" ">
<path fill="none" stroke="#63b8ff" d="M1173.41,-75.39C1186.17,-64.22 1200.75,-51.47 1212.52,-41.17"/>
<polygon fill="#63b8ff" stroke="#63b8ff" points="1170.96,-72.88 1165.74,-82.1 1175.57,-78.15 1170.96,-72.88"/>
</a>
</g>
</g>
<!-- Node32&#45;&gt;Node12 -->
<g id="edge42_Node000032_Node000012" class="edge">
<title>Node32&#45;&gt;Node12</title>
<g id="a_edge42_Node000032_Node000012"><a xlink:title=" ">
<path fill="none" stroke="#63b8ff" d="M1661.52,-325.69C1681.51,-316.43 1704.1,-305.33 1724,-294 1752.39,-277.84 1756.95,-269.74 1785,-253 1809.82,-238.19 1838.56,-223.07 1861.22,-211.58"/>
<polygon fill="#63b8ff" stroke="#63b8ff" points="1659.87,-322.59 1652.24,-329.94 1662.79,-328.96 1659.87,-322.59"/>
</a>
</g>
</g>
<!-- Node32&#45;&gt;Node16 -->
<g id="edge41_Node000032_Node000016" class="edge">
<title>Node32&#45;&gt;Node16</title>
<g id="a_edge41_Node000032_Node000016"><a xlink:title=" ">
<path fill="none" stroke="#63b8ff" d="M1522.21,-340.91C1461.51,-332.81 1387.23,-318.21 1368,-294 1348.88,-269.93 1367.04,-233.86 1381.99,-211.68"/>
<polygon fill="#63b8ff" stroke="#63b8ff" points="1521.85,-344.39 1532.21,-342.21 1522.74,-337.45 1521.85,-344.39"/>
</a>
</g>
</g>
<!-- Node32&#45;&gt;Node31 -->
<g id="edge46_Node000032_Node000031" class="edge">
<title>Node32&#45;&gt;Node31</title>
<g id="a_edge46_Node000032_Node000031"><a xlink:title=" ">
<path fill="none" stroke="#63b8ff" d="M1650.6,-324.33C1664.19,-315.56 1678.81,-305.1 1691,-294 1708.3,-278.25 1707.83,-269.9 1724,-253 1764.93,-210.23 1769,-186.9 1824,-165 1926.99,-124 2711.48,-146.11 2821,-129 2829.72,-127.64 2838.8,-125.71 2847.69,-123.51"/>
<polygon fill="#63b8ff" stroke="#63b8ff" points="1648.44,-321.56 1641.85,-329.85 1652.17,-327.48 1648.44,-321.56"/>
</a>
</g>
</g>
<!-- Node33 -->
<g id="Node000033" class="node">
<title>Node33</title>
<g id="a_Node000033"><a xlink:href="_boussinesq_bubble_8cpp.html" target="_top" xlink:title=" ">
<polygon fill="white" stroke="#666666" points="1682,-294 1532,-294 1532,-253 1682,-253 1682,-294"/>
<text text-anchor="start" x="1540" y="-282" font-family="Helvetica,sans-Serif" font-size="10.00">/home/runner/work/amr</text>
<text text-anchor="start" x="1540" y="-271" font-family="Helvetica,sans-Serif" font-size="10.00">&#45;wind/amr&#45;wind/src/physics</text>
<text text-anchor="middle" x="1607" y="-260" font-family="Helvetica,sans-Serif" font-size="10.00">/BoussinesqBubble.cpp</text>
</a>
</g>
</g>
<!-- Node32&#45;&gt;Node33 -->
<g id="edge40_Node000032_Node000033" class="edge">
<title>Node32&#45;&gt;Node33</title>
<g id="a_edge40_Node000032_Node000033"><a xlink:title=" ">
<path fill="none" stroke="#63b8ff" d="M1607,-319.69C1607,-311.08 1607,-301.9 1607,-294.07"/>
<polygon fill="#63b8ff" stroke="#63b8ff" points="1603.5,-319.79 1607,-329.79 1610.5,-319.79 1603.5,-319.79"/>
</a>
</g>
</g>
<!-- Node34 -->
<g id="Node000034" class="node">
<title>Node34</title>
<g id="a_Node000034"><a xlink:href="_a_b_l_stats_base_8_h.html" target="_top" xlink:title=" ">
<polygon fill="white" stroke="#666666" points="1513.5,-294 1376.5,-294 1376.5,-253 1513.5,-253 1513.5,-294"/>
<text text-anchor="start" x="1384.5" y="-282" font-family="Helvetica,sans-Serif" font-size="10.00">/home/runner/work/amr</text>
<text text-anchor="start" x="1384.5" y="-271" font-family="Helvetica,sans-Serif" font-size="10.00">&#45;wind/amr&#45;wind/src/wind</text>
<text text-anchor="middle" x="1445" y="-260" font-family="Helvetica,sans-Serif" font-size="10.00">_energy/ABLStatsBase.H</text>
</a>
</g>
</g>
<!-- Node32&#45;&gt;Node34 -->
<g id="edge43_Node000032_Node000034" class="edge">
<title>Node32&#45;&gt;Node34</title>
<g id="a_edge43_Node000032_Node000034"><a xlink:title=" ">
<path fill="none" stroke="#63b8ff" d="M1555.64,-325.72C1533.59,-315.51 1508.14,-303.73 1487.21,-294.04"/>
<polygon fill="#63b8ff" stroke="#63b8ff" points="1554.31,-328.97 1564.86,-329.99 1557.26,-322.61 1554.31,-328.97"/>
</a>
</g>
</g>
<!-- Node34&#45;&gt;Node12 -->
<g id="edge45_Node000034_Node000012" class="edge">
<title>Node34&#45;&gt;Node12</title>
<g id="a_edge45_Node000034_Node000012"><a xlink:title=" ">
<path fill="none" stroke="#63b8ff" d="M1523.76,-252.93C1637.54,-229.87 1758.56,-211.67 1832.39,-201.28"/>
<polygon fill="#63b8ff" stroke="#63b8ff" points="1522.93,-249.52 1513.83,-254.96 1524.33,-256.38 1522.93,-249.52"/>
</a>
</g>
</g>
<!-- Node34&#45;&gt;Node16 -->
<g id="edge44_Node000034_Node000016" class="edge">
<title>Node34&#45;&gt;Node16</title>
<g id="a_edge44_Node000034_Node000016"><a xlink:title=" ">
<path fill="none" stroke="#63b8ff" d="M1427.99,-243.98C1421.62,-233.29 1414.52,-221.38 1408.73,-211.67"/>
<polygon fill="#63b8ff" stroke="#63b8ff" points="1425.01,-245.8 1433.13,-252.6 1431.02,-242.22 1425.01,-245.8"/>
</a>
</g>
</g>
</g>
</svg>

<g id="navigator" transform="translate(0 0)" fill="#404254">
  <rect fill="#f2f5e9" fill-opacity="0.5" stroke="#606060" stroke-width=".5" x="0" y="0" width="60" height="60"/>
  <use id="zoomplus" xlink:href="#zoomPlus" x="17" y="9" onmousedown="handleZoom(evt,'in')"/>
  <use id="zoomminus" xlink:href="#zoomMin" x="42" y="9" onmousedown="handleZoom(evt,'out')"/>
  <use id="reset" xlink:href="#resetDef" x="30" y="36" onmousedown="handleReset()"/>
   <use id="arrowup" xlink:href="#arrowUp" x="0" y="0" onmousedown="handlePan(0,-1)"/>
  <use id="arrowright" xlink:href="#arrowRight" x="0" y="0" onmousedown="handlePan(1,0)"/>
  <use id="arrowdown" xlink:href="#arrowDown" x="0" y="0" onmousedown="handlePan(0,1)"/>
  <use id="arrowleft" xlink:href="#arrowLeft" x="0" y="0" onmousedown="handlePan(-1,0)"/>
</g>
<svg viewBox="0 0 15 15" width="100%" height="30px" preserveAspectRatio="xMaxYMin meet">
 <g id="arrow_out" transform="scale(0.3 0.3)">
  <a xlink:href="_field_plane_averaging_8_h__dep__incl_org.svg" target="_base">
   <rect id="button" ry="5" rx="5" y="6" x="6" height="38" width="38"
        fill="#f2f5e9" fill-opacity="0.5" stroke="#606060" stroke-width="1.0"/>
   <path id="arrow"
     d="M 11.500037,31.436501 C 11.940474,20.09759 22.043105,11.32322 32.158766,21.979434 L 37.068811,17.246167 C 37.068811,17.246167 37.088388,32 37.088388,32 L 22.160133,31.978069 C 22.160133,31.978069 26.997745,27.140456 26.997745,27.140456 C 18.528582,18.264221 13.291696,25.230495 11.500037,31.436501 z"
     style="fill:#404040;"/>
  </a>
 </g>
</svg>

<style type='text/css'>
<![CDATA[
[data-mouse-over-selected='false'] { opacity: 0.7; }
[data-mouse-over-selected='true']  { opacity: 1.0; }
]]>
</style>
<script type="application/ecmascript"><![CDATA[
document.addEventListener('DOMContentLoaded', (event) => {
  highlightEdges();
  highlightAdjacentNodes();
});
]]></script>
</svg>
