<?xml version="1.0" encoding="UTF-8" standalone="no"?>
<!DOCTYPE svg PUBLIC "-//W3C//DTD SVG 1.1//EN"
 "http://www.w3.org/Graphics/SVG/1.1/DTD/svg11.dtd">
<!-- Generated by graphviz version 2.43.0 (0)
 -->
<!-- Title: /home/runner/work/amr&#45;wind/amr&#45;wind/src/utilities/FieldPlaneAveragingFine.H Pages: 1 -->
<!--zoomable 456 -->

<svg id="main" version="1.1" xmlns="http://www.w3.org/2000/svg" xmlns:xlink="http://www.w3.org/1999/xlink" xml:space="preserve" onload="init(evt)">

<style type="text/css"><![CDATA[
.node, .edge {opacity: 0.7;}
.node.selected, .edge.selected {opacity: 1;}
.edge:hover path { stroke: red; }
.edge:hover polygon { stroke: red; fill: red; }
]]></style>

<defs>
  <circle id="rim" cx="0" cy="0" r="7"/>
  <circle id="rim2" cx="0" cy="0" r="3.5"/>
  <g id="zoomPlus">
    <use xlink:href="#rim" fill="#404040"><set attributeName="fill" to="#808080" begin="zoomplus.mouseover" end="zoomplus.mouseout"/></use>
    <path d="M-4,0h8M0,-4v8" fill="none" stroke="white" stroke-width="1.5" pointer-events="none"/>
  </g>
  <g id="zoomMin">
    <use xlink:href="#rim" fill="#404040"><set attributeName="fill" to="#808080" begin="zoomminus.mouseover" end="zoomminus.mouseout"/></use>
    <path d="M-4,0h8" fill="none" stroke="white" stroke-width="1.5" pointer-events="none"/>
  </g>
  <g id="arrowUp" transform="translate(30 24)">
    <use xlink:href="#rim"/>
    <path pointer-events="none" fill="none" stroke="white" stroke-width="1.5" d="M0,-3.0v7 M-2.5,-0.5L0,-3.0L2.5,-0.5"/>
  </g>
  <g id="arrowRight" transform="rotate(90) translate(36 -43)">
    <use xlink:href="#rim"/>
    <path pointer-events="none" fill="none" stroke="white" stroke-width="1.5" d="M0,-3.0v7 M-2.5,-0.5L0,-3.0L2.5,-0.5"/>
  </g>
  <g id="arrowDown" transform="rotate(180) translate(-30 -48)">
    <use xlink:href="#rim"/>
    <path pointer-events="none" fill="none" stroke="white" stroke-width="1.5" d="M0,-3.0v7 M-2.5,-0.5L0,-3.0L2.5,-0.5"/>
  </g>
  <g id="arrowLeft" transform="rotate(270) translate(-36 17)">
    <use xlink:href="#rim"/>
    <path pointer-events="none" fill="none" stroke="white" stroke-width="1.5" d="M0,-3.0v7 M-2.5,-0.5L0,-3.0L2.5,-0.5"/>
  </g>
  <g id="resetDef">
    <use xlink:href="#rim2" fill="#404040"><set attributeName="fill" to="#808080" begin="reset.mouseover" end="reset.mouseout"/></use>
  </g>
</defs>
<script type="application/ecmascript">
var viewWidth = 3161;
var viewHeight = 456;
var sectionId = 'dynsection-1';
</script>
<script type="application/ecmascript" xlink:href="svg.min.js"/>
<svg id="graph" class="graph">
<g id="viewport">
<title>/home/runner/work/amr&#45;wind/amr&#45;wind/src/utilities/FieldPlaneAveragingFine.H</title>
<!-- Node1 -->
<g id="Node000001" class="node">
<title>Node1</title>
<g id="a_Node000001"><a xlink:title=" ">
<polygon fill="#999999" stroke="#666666" points="657,-448 507,-448 507,-407 657,-407 657,-448"/>
<text text-anchor="start" x="515" y="-436" font-family="Helvetica,sans-Serif" font-size="10.00">/home/runner/work/amr</text>
<text text-anchor="start" x="515" y="-425" font-family="Helvetica,sans-Serif" font-size="10.00">&#45;wind/amr&#45;wind/src/utilities</text>
<text text-anchor="middle" x="582" y="-414" font-family="Helvetica,sans-Serif" font-size="10.00">/FieldPlaneAveragingFine.H</text>
</a>
</g>
</g>
<!-- Node2 -->
<g id="Node000002" class="node">
<title>Node2</title>
<g id="a_Node000002"><a xlink:href="_wall_function_8_h.html" target="_top" xlink:title=" ">
<polygon fill="white" stroke="#666666" points="399,-371 187,-371 187,-330 399,-330 399,-371"/>
<text text-anchor="start" x="195" y="-359" font-family="Helvetica,sans-Serif" font-size="10.00">/home/runner/work/amr</text>
<text text-anchor="start" x="195" y="-348" font-family="Helvetica,sans-Serif" font-size="10.00">&#45;wind/amr&#45;wind/src/boundary</text>
<text text-anchor="middle" x="293" y="-337" font-family="Helvetica,sans-Serif" font-size="10.00">_conditions/wall_models/WallFunction.H</text>
</a>
</g>
</g>
<!-- Node1&#45;&gt;Node2 -->
<g id="edge1_Node000001_Node000002" class="edge">
<title>Node1&#45;&gt;Node2</title>
<g id="a_edge1_Node000001_Node000002"><a xlink:title=" ">
<path fill="none" stroke="#63b8ff" d="M496.9,-404.42C456.13,-393.84 407.72,-381.27 368.3,-371.04"/>
<polygon fill="#63b8ff" stroke="#63b8ff" points="496.26,-407.87 506.82,-406.99 498.02,-401.09 496.26,-407.87"/>
</a>
</g>
</g>
<!-- Node6 -->
<g id="Node000006" class="node">
<title>Node6</title>
<g id="a_Node000006"><a xlink:href="_a_b_l_meso_forcing_mom_8_h.html" target="_top" xlink:title=" ">
<polygon fill="white" stroke="#666666" points="324,-217 168,-217 168,-165 324,-165 324,-217"/>
<text text-anchor="start" x="176" y="-205" font-family="Helvetica,sans-Serif" font-size="10.00">/home/runner/work/amr</text>
<text text-anchor="start" x="176" y="-194" font-family="Helvetica,sans-Serif" font-size="10.00">&#45;wind/amr&#45;wind/src/equation</text>
<text text-anchor="start" x="176" y="-183" font-family="Helvetica,sans-Serif" font-size="10.00">_systems/icns/source_terms</text>
<text text-anchor="middle" x="246" y="-172" font-family="Helvetica,sans-Serif" font-size="10.00">/ABLMesoForcingMom.H</text>
</a>
</g>
</g>
<!-- Node1&#45;&gt;Node6 -->
<g id="edge5_Node000001_Node000006" class="edge">
<title>Node1&#45;&gt;Node6</title>
<g id="a_edge5_Node000001_Node000006"><a xlink:title=" ">
<path fill="none" stroke="#63b8ff" d="M546.01,-400.75C534.39,-391.83 521.75,-381.44 511,-371 486.54,-347.26 440.86,-272.64 413,-253 397.8,-242.29 359.91,-228.14 324.05,-216.17"/>
<polygon fill="#63b8ff" stroke="#63b8ff" points="544.15,-403.74 554.24,-406.97 548.37,-398.15 544.15,-403.74"/>
</a>
</g>
</g>
<!-- Node10 -->
<g id="Node000010" class="node">
<title>Node10</title>
<g id="a_Node000010"><a xlink:href="_a_b_l_meso_forcing_temp_8_h.html" target="_top" xlink:title=" ">
<polygon fill="white" stroke="#666666" points="668,-217 498,-217 498,-165 668,-165 668,-217"/>
<text text-anchor="start" x="506" y="-205" font-family="Helvetica,sans-Serif" font-size="10.00">/home/runner/work/amr</text>
<text text-anchor="start" x="506" y="-194" font-family="Helvetica,sans-Serif" font-size="10.00">&#45;wind/amr&#45;wind/src/equation</text>
<text text-anchor="start" x="506" y="-183" font-family="Helvetica,sans-Serif" font-size="10.00">_systems/temperature/source</text>
<text text-anchor="middle" x="583" y="-172" font-family="Helvetica,sans-Serif" font-size="10.00">_terms/ABLMesoForcingTemp.H</text>
</a>
</g>
</g>
<!-- Node1&#45;&gt;Node10 -->
<g id="edge9_Node000001_Node000010" class="edge">
<title>Node1&#45;&gt;Node10</title>
<g id="a_edge9_Node000001_Node000010"><a xlink:title=" ">
<path fill="none" stroke="#63b8ff" d="M582.13,-396.86C582.32,-350.33 582.71,-260.97 582.89,-217.29"/>
<polygon fill="#63b8ff" stroke="#63b8ff" points="578.63,-396.9 582.08,-406.91 585.63,-396.93 578.63,-396.9"/>
</a>
</g>
</g>
<!-- Node12 -->
<g id="Node000012" class="node">
<title>Node12</title>
<g id="a_Node000012"><a xlink:href="_a_m_d_8_h.html" target="_top" xlink:title=" ">
<polygon fill="white" stroke="#666666" points="942.5,-371 777.5,-371 777.5,-330 942.5,-330 942.5,-371"/>
<text text-anchor="start" x="785.5" y="-359" font-family="Helvetica,sans-Serif" font-size="10.00">/home/runner/work/amr</text>
<text text-anchor="start" x="785.5" y="-348" font-family="Helvetica,sans-Serif" font-size="10.00">&#45;wind/amr&#45;wind/src/turbulence</text>
<text text-anchor="middle" x="860" y="-337" font-family="Helvetica,sans-Serif" font-size="10.00">/LES/AMD.H</text>
</a>
</g>
</g>
<!-- Node1&#45;&gt;Node12 -->
<g id="edge13_Node000001_Node000012" class="edge">
<title>Node1&#45;&gt;Node12</title>
<g id="a_edge13_Node000001_Node000012"><a xlink:title=" ">
<path fill="none" stroke="#63b8ff" d="M664.11,-404.35C703.27,-393.78 749.73,-381.25 787.56,-371.04"/>
<polygon fill="#63b8ff" stroke="#63b8ff" points="663.06,-401.01 654.32,-406.99 664.88,-407.76 663.06,-401.01"/>
</a>
</g>
</g>
<!-- Node14 -->
<g id="Node000014" class="node">
<title>Node14</title>
<g id="a_Node000014"><a xlink:href="_field_plane_averaging_fine_8cpp.html" target="_top" xlink:title=" ">
<polygon fill="white" stroke="#666666" points="1119.5,-371 960.5,-371 960.5,-330 1119.5,-330 1119.5,-371"/>
<text text-anchor="start" x="968.5" y="-359" font-family="Helvetica,sans-Serif" font-size="10.00">/home/runner/work/amr</text>
<text text-anchor="start" x="968.5" y="-348" font-family="Helvetica,sans-Serif" font-size="10.00">&#45;wind/amr&#45;wind/src/utilities</text>
<text text-anchor="middle" x="1040" y="-337" font-family="Helvetica,sans-Serif" font-size="10.00">/FieldPlaneAveragingFine.cpp</text>
</a>
</g>
</g>
<!-- Node1&#45;&gt;Node14 -->
<g id="edge15_Node000001_Node000014" class="edge">
<title>Node1&#45;&gt;Node14</title>
<g id="a_edge15_Node000001_Node000014"><a xlink:title=" ">
<path fill="none" stroke="#63b8ff" d="M667.48,-415.28C742.44,-405.06 854.26,-388.85 951,-371 954.11,-370.43 957.28,-369.82 960.48,-369.2"/>
<polygon fill="#63b8ff" stroke="#63b8ff" points="666.59,-411.87 657.16,-416.69 667.54,-418.81 666.59,-411.87"/>
</a>
</g>
</g>
<!-- Node15 -->
<g id="Node000015" class="node">
<title>Node15</title>
<g id="a_Node000015"><a xlink:href="_a_b_l_stats_8_h.html" target="_top" xlink:title=" ">
<polygon fill="white" stroke="#666666" points="479.5,-211.5 342.5,-211.5 342.5,-170.5 479.5,-170.5 479.5,-211.5"/>
<text text-anchor="start" x="350.5" y="-199.5" font-family="Helvetica,sans-Serif" font-size="10.00">/home/runner/work/amr</text>
<text text-anchor="start" x="350.5" y="-188.5" font-family="Helvetica,sans-Serif" font-size="10.00">&#45;wind/amr&#45;wind/src/wind</text>
<text text-anchor="middle" x="411" y="-177.5" font-family="Helvetica,sans-Serif" font-size="10.00">_energy/ABLStats.H</text>
</a>
</g>
</g>
<!-- Node1&#45;&gt;Node15 -->
<g id="edge16_Node000001_Node000015" class="edge">
<title>Node1&#45;&gt;Node15</title>
<g id="a_edge16_Node000001_Node000015"><a xlink:title=" ">
<path fill="none" stroke="#63b8ff" d="M561.82,-398.83C526.85,-350.87 455.8,-253.44 425.36,-211.7"/>
<polygon fill="#63b8ff" stroke="#63b8ff" points="558.99,-400.89 567.71,-406.91 564.65,-396.77 558.99,-400.89"/>
</a>
</g>
</g>
<!-- Node16 -->
<g id="Node000016" class="node">
<title>Node16</title>
<g id="a_Node000016"><a xlink:href="_a_b_l_wall_function_8_h.html" target="_top" xlink:title=" ">
<polygon fill="white" stroke="#666666" points="759.5,-371 610.5,-371 610.5,-330 759.5,-330 759.5,-371"/>
<text text-anchor="start" x="618.5" y="-359" font-family="Helvetica,sans-Serif" font-size="10.00">/home/runner/work/amr</text>
<text text-anchor="start" x="618.5" y="-348" font-family="Helvetica,sans-Serif" font-size="10.00">&#45;wind/amr&#45;wind/src/wind</text>
<text text-anchor="middle" x="685" y="-337" font-family="Helvetica,sans-Serif" font-size="10.00">_energy/ABLWallFunction.H</text>
</a>
</g>
</g>
<!-- Node1&#45;&gt;Node16 -->
<g id="edge18_Node000001_Node000016" class="edge">
<title>Node1&#45;&gt;Node16</title>
<g id="a_edge18_Node000001_Node000016"><a xlink:title=" ">
<path fill="none" stroke="#63b8ff" d="M616.89,-401.09C630.31,-391.32 645.42,-380.32 657.98,-371.17"/>
<polygon fill="#63b8ff" stroke="#63b8ff" points="614.82,-398.27 608.79,-406.99 618.94,-403.93 614.82,-398.27"/>
</a>
</g>
</g>
<!-- Node3 -->
<g id="Node000003" class="node">
<title>Node3</title>
<g id="a_Node000003"><a xlink:href="_wall_function_8cpp.html" target="_top" xlink:title=" ">
<polygon fill="white" stroke="#666666" points="404,-294 182,-294 182,-253 404,-253 404,-294"/>
<text text-anchor="start" x="190" y="-282" font-family="Helvetica,sans-Serif" font-size="10.00">/home/runner/work/amr</text>
<text text-anchor="start" x="190" y="-271" font-family="Helvetica,sans-Serif" font-size="10.00">&#45;wind/amr&#45;wind/src/boundary</text>
<text text-anchor="middle" x="293" y="-260" font-family="Helvetica,sans-Serif" font-size="10.00">_conditions/wall_models/WallFunction.cpp</text>
</a>
</g>
</g>
<!-- Node2&#45;&gt;Node3 -->
<g id="edge2_Node000002_Node000003" class="edge">
<title>Node2&#45;&gt;Node3</title>
<g id="a_edge2_Node000002_Node000003"><a xlink:title=" ">
<path fill="none" stroke="#63b8ff" d="M293,-319.69C293,-311.08 293,-301.9 293,-294.07"/>
<polygon fill="#63b8ff" stroke="#63b8ff" points="289.5,-319.79 293,-329.79 296.5,-319.79 289.5,-319.79"/>
</a>
</g>
</g>
<!-- Node4 -->
<g id="Node000004" class="node">
<title>Node4</title>
<g id="a_Node000004"><a xlink:href="_channel_flow_8_h.html" target="_top" xlink:title=" ">
<polygon fill="white" stroke="#666666" points="151,-294 1,-294 1,-253 151,-253 151,-294"/>
<text text-anchor="start" x="9" y="-282" font-family="Helvetica,sans-Serif" font-size="10.00">/home/runner/work/amr</text>
<text text-anchor="start" x="9" y="-271" font-family="Helvetica,sans-Serif" font-size="10.00">&#45;wind/amr&#45;wind/src/physics</text>
<text text-anchor="middle" x="76" y="-260" font-family="Helvetica,sans-Serif" font-size="10.00">/ChannelFlow.H</text>
</a>
</g>
</g>
<!-- Node2&#45;&gt;Node4 -->
<g id="edge3_Node000002_Node000004" class="edge">
<title>Node2&#45;&gt;Node4</title>
<g id="a_edge3_Node000002_Node000004"><a xlink:title=" ">
<path fill="none" stroke="#63b8ff" d="M226.96,-326.67C196.8,-316.25 161.45,-304.03 132.54,-294.04"/>
<polygon fill="#63b8ff" stroke="#63b8ff" points="225.96,-330.03 236.55,-329.99 228.24,-323.42 225.96,-330.03"/>
</a>
</g>
</g>
<!-- Node5 -->
<g id="Node000005" class="node">
<title>Node5</title>
<g id="a_Node000005"><a xlink:href="_channel_flow_8cpp.html" target="_top" xlink:title=" ">
<polygon fill="white" stroke="#666666" points="150,-211.5 0,-211.5 0,-170.5 150,-170.5 150,-211.5"/>
<text text-anchor="start" x="8" y="-199.5" font-family="Helvetica,sans-Serif" font-size="10.00">/home/runner/work/amr</text>
<text text-anchor="start" x="8" y="-188.5" font-family="Helvetica,sans-Serif" font-size="10.00">&#45;wind/amr&#45;wind/src/physics</text>
<text text-anchor="middle" x="75" y="-177.5" font-family="Helvetica,sans-Serif" font-size="10.00">/ChannelFlow.cpp</text>
</a>
</g>
</g>
<!-- Node4&#45;&gt;Node5 -->
<g id="edge4_Node000004_Node000005" class="edge">
<title>Node4&#45;&gt;Node5</title>
<g id="a_edge4_Node000004_Node000005"><a xlink:title=" ">
<path fill="none" stroke="#63b8ff" d="M75.63,-242.37C75.5,-232.1 75.36,-220.9 75.24,-211.67"/>
<polygon fill="#63b8ff" stroke="#63b8ff" points="72.13,-242.65 75.75,-252.6 79.13,-242.56 72.13,-242.65"/>
</a>
</g>
</g>
<!-- Node7 -->
<g id="Node000007" class="node">
<title>Node7</title>
<g id="a_Node000007"><a xlink:href="_a_b_l_meso_forcing_mom_8cpp.html" target="_top" xlink:title=" ">
<polygon fill="white" stroke="#666666" points="319,-129 163,-129 163,-77 319,-77 319,-129"/>
<text text-anchor="start" x="171" y="-117" font-family="Helvetica,sans-Serif" font-size="10.00">/home/runner/work/amr</text>
<text text-anchor="start" x="171" y="-106" font-family="Helvetica,sans-Serif" font-size="10.00">&#45;wind/amr&#45;wind/src/equation</text>
<text text-anchor="start" x="171" y="-95" font-family="Helvetica,sans-Serif" font-size="10.00">_systems/icns/source_terms</text>
<text text-anchor="middle" x="241" y="-84" font-family="Helvetica,sans-Serif" font-size="10.00">/ABLMesoForcingMom.cpp</text>
</a>
</g>
</g>
<!-- Node6&#45;&gt;Node7 -->
<g id="edge6_Node000006_Node000007" class="edge">
<title>Node6&#45;&gt;Node7</title>
<g id="a_edge6_Node000006_Node000007"><a xlink:title=" ">
<path fill="none" stroke="#63b8ff" d="M243.94,-154.56C243.44,-146.04 242.92,-137.1 242.46,-129.16"/>
<polygon fill="#63b8ff" stroke="#63b8ff" points="240.45,-154.88 244.53,-164.66 247.44,-154.48 240.45,-154.88"/>
</a>
</g>
</g>
<!-- Node8 -->
<g id="Node000008" class="node">
<title>Node8</title>
<g id="a_Node000008"><a xlink:href="_a_b_l_8cpp.html" target="_top" xlink:title=" ">
<polygon fill="white" stroke="#666666" points="474.5,-123.5 337.5,-123.5 337.5,-82.5 474.5,-82.5 474.5,-123.5"/>
<text text-anchor="start" x="345.5" y="-111.5" font-family="Helvetica,sans-Serif" font-size="10.00">/home/runner/work/amr</text>
<text text-anchor="start" x="345.5" y="-100.5" font-family="Helvetica,sans-Serif" font-size="10.00">&#45;wind/amr&#45;wind/src/wind</text>
<text text-anchor="middle" x="406" y="-89.5" font-family="Helvetica,sans-Serif" font-size="10.00">_energy/ABL.cpp</text>
</a>
</g>
</g>
<!-- Node6&#45;&gt;Node8 -->
<g id="edge7_Node000006_Node000008" class="edge">
<title>Node6&#45;&gt;Node8</title>
<g id="a_edge7_Node000006_Node000008"><a xlink:title=" ">
<path fill="none" stroke="#63b8ff" d="M301.52,-160.16C324.09,-148.03 349.54,-134.35 369.66,-123.53"/>
<polygon fill="#63b8ff" stroke="#63b8ff" points="299.86,-157.08 292.71,-164.89 303.17,-163.24 299.86,-157.08"/>
</a>
</g>
</g>
<!-- Node9 -->
<g id="Node000009" class="node">
<title>Node9</title>
<g id="a_Node000009"><a xlink:href="_a_b_l_stats_8cpp.html" target="_top" xlink:title=" ">
<polygon fill="white" stroke="#666666" points="144.5,-123.5 7.5,-123.5 7.5,-82.5 144.5,-82.5 144.5,-123.5"/>
<text text-anchor="start" x="15.5" y="-111.5" font-family="Helvetica,sans-Serif" font-size="10.00">/home/runner/work/amr</text>
<text text-anchor="start" x="15.5" y="-100.5" font-family="Helvetica,sans-Serif" font-size="10.00">&#45;wind/amr&#45;wind/src/wind</text>
<text text-anchor="middle" x="76" y="-89.5" font-family="Helvetica,sans-Serif" font-size="10.00">_energy/ABLStats.cpp</text>
</a>
</g>
</g>
<!-- Node6&#45;&gt;Node9 -->
<g id="edge8_Node000006_Node000009" class="edge">
<title>Node6&#45;&gt;Node9</title>
<g id="a_edge8_Node000006_Node000009"><a xlink:title=" ">
<path fill="none" stroke="#63b8ff" d="M187.32,-160.32C163.27,-148.15 136.09,-134.4 114.61,-123.53"/>
<polygon fill="#63b8ff" stroke="#63b8ff" points="185.87,-163.5 196.37,-164.89 189.03,-157.26 185.87,-163.5"/>
</a>
</g>
</g>
<!-- Node10&#45;&gt;Node8 -->
<g id="edge11_Node000010_Node000008" class="edge">
<title>Node10&#45;&gt;Node8</title>
<g id="a_edge11_Node000010_Node000008"><a xlink:title=" ">
<path fill="none" stroke="#63b8ff" d="M522.24,-160.48C497.11,-148.27 468.66,-134.44 446.2,-123.53"/>
<polygon fill="#63b8ff" stroke="#63b8ff" points="520.8,-163.67 531.33,-164.89 523.86,-157.38 520.8,-163.67"/>
</a>
</g>
</g>
<!-- Node10&#45;&gt;Node9 -->
<g id="edge12_Node000010_Node000009" class="edge">
<title>Node10&#45;&gt;Node9</title>
<g id="a_edge12_Node000010_Node000009"><a xlink:title=" ">
<path fill="none" stroke="#63b8ff" d="M488.31,-165.06C488.2,-165.04 488.1,-165.02 488,-165 341.17,-137.93 300.06,-159.94 154,-129 146.91,-127.5 139.54,-125.6 132.3,-123.53"/>
<polygon fill="#63b8ff" stroke="#63b8ff" points="487.46,-168.46 497.94,-166.96 488.81,-161.59 487.46,-168.46"/>
</a>
</g>
</g>
<!-- Node11 -->
<g id="Node000011" class="node">
<title>Node11</title>
<g id="a_Node000011"><a xlink:href="_a_b_l_meso_forcing_temp_8cpp.html" target="_top" xlink:title=" ">
<polygon fill="white" stroke="#666666" points="673,-129 493,-129 493,-77 673,-77 673,-129"/>
<text text-anchor="start" x="501" y="-117" font-family="Helvetica,sans-Serif" font-size="10.00">/home/runner/work/amr</text>
<text text-anchor="start" x="501" y="-106" font-family="Helvetica,sans-Serif" font-size="10.00">&#45;wind/amr&#45;wind/src/equation</text>
<text text-anchor="start" x="501" y="-95" font-family="Helvetica,sans-Serif" font-size="10.00">_systems/temperature/source</text>
<text text-anchor="middle" x="583" y="-84" font-family="Helvetica,sans-Serif" font-size="10.00">_terms/ABLMesoForcingTemp.cpp</text>
</a>
</g>
</g>
<!-- Node10&#45;&gt;Node11 -->
<g id="edge10_Node000010_Node000011" class="edge">
<title>Node10&#45;&gt;Node11</title>
<g id="a_edge10_Node000010_Node000011"><a xlink:title=" ">
<path fill="none" stroke="#63b8ff" d="M583,-154.56C583,-146.04 583,-137.1 583,-129.16"/>
<polygon fill="#63b8ff" stroke="#63b8ff" points="579.5,-154.66 583,-164.66 586.5,-154.66 579.5,-154.66"/>
</a>
</g>
</g>
<!-- Node13 -->
<g id="Node000013" class="node">
<title>Node13</title>
<g id="a_Node000013"><a xlink:href="_a_m_d_8cpp.html" target="_top" xlink:title=" ">
<polygon fill="white" stroke="#666666" points="1686.5,-294 1521.5,-294 1521.5,-253 1686.5,-253 1686.5,-294"/>
<text text-anchor="start" x="1529.5" y="-282" font-family="Helvetica,sans-Serif" font-size="10.00">/home/runner/work/amr</text>
<text text-anchor="start" x="1529.5" y="-271" font-family="Helvetica,sans-Serif" font-size="10.00">&#45;wind/amr&#45;wind/src/turbulence</text>
<text text-anchor="middle" x="1604" y="-260" font-family="Helvetica,sans-Serif" font-size="10.00">/LES/AMD.cpp</text>
</a>
</g>
</g>
<!-- Node12&#45;&gt;Node13 -->
<g id="edge14_Node000012_Node000013" class="edge">
<title>Node12&#45;&gt;Node13</title>
<g id="a_edge14_Node000012_Node000013"><a xlink:title=" ">
<path fill="none" stroke="#63b8ff" d="M952.67,-329.87C1198.03,-296.76 1264.75,-326.05 1507,-294 1511.68,-293.38 1516.48,-292.67 1521.31,-291.89"/>
<polygon fill="#63b8ff" stroke="#63b8ff" points="952.17,-326.41 942.74,-331.23 953.12,-333.34 952.17,-326.41"/>
</a>
</g>
</g>
<!-- Node15&#45;&gt;Node9 -->
<g id="edge17_Node000015_Node000009" class="edge">
<title>Node15&#45;&gt;Node9</title>
<g id="a_edge17_Node000015_Node000009"><a xlink:title=" ">
<path fill="none" stroke="#63b8ff" d="M342.64,-167.61C339.39,-166.7 336.17,-165.82 333,-165 254.46,-144.58 232.54,-149.42 154,-129 147.67,-127.35 141.09,-125.49 134.57,-123.55"/>
<polygon fill="#63b8ff" stroke="#63b8ff" points="341.85,-171.03 352.43,-170.45 343.8,-164.31 341.85,-171.03"/>
</a>
</g>
</g>
<!-- Node16&#45;&gt;Node15 -->
<g id="edge40_Node000016_Node000015" class="edge">
<title>Node16&#45;&gt;Node15</title>
<g id="a_edge40_Node000016_Node000015"><a xlink:title=" ">
<path fill="none" stroke="#63b8ff" d="M642.14,-324.86C587.75,-293.6 495.02,-240.3 445.15,-211.63"/>
<polygon fill="#63b8ff" stroke="#63b8ff" points="640.44,-327.92 650.85,-329.87 643.93,-321.85 640.44,-327.92"/>
</a>
</g>
</g>
<!-- Node17 -->
<g id="Node000017" class="node">
<title>Node17</title>
<g id="a_Node000017"><a xlink:href="_boussinesq_bubble_8cpp.html" target="_top" xlink:title=" ">
<polygon fill="white" stroke="#666666" points="760,-294 610,-294 610,-253 760,-253 760,-294"/>
<text text-anchor="start" x="618" y="-282" font-family="Helvetica,sans-Serif" font-size="10.00">/home/runner/work/amr</text>
<text text-anchor="start" x="618" y="-271" font-family="Helvetica,sans-Serif" font-size="10.00">&#45;wind/amr&#45;wind/src/physics</text>
<text text-anchor="middle" x="685" y="-260" font-family="Helvetica,sans-Serif" font-size="10.00">/BoussinesqBubble.cpp</text>
</a>
</g>
</g>
<!-- Node16&#45;&gt;Node17 -->
<g id="edge19_Node000016_Node000017" class="edge">
<title>Node16&#45;&gt;Node17</title>
<g id="a_edge19_Node000016_Node000017"><a xlink:title=" ">
<path fill="none" stroke="#63b8ff" d="M685,-319.69C685,-311.08 685,-301.9 685,-294.07"/>
<polygon fill="#63b8ff" stroke="#63b8ff" points="681.5,-319.79 685,-329.79 688.5,-319.79 681.5,-319.79"/>
</a>
</g>
</g>
<!-- Node18 -->
<g id="Node000018" class="node">
<title>Node18</title>
<g id="a_Node000018"><a xlink:href="_a_b_l_8_h.html" target="_top" xlink:title=" ">
<polygon fill="white" stroke="#666666" points="1464.5,-211.5 1327.5,-211.5 1327.5,-170.5 1464.5,-170.5 1464.5,-211.5"/>
<text text-anchor="start" x="1335.5" y="-199.5" font-family="Helvetica,sans-Serif" font-size="10.00">/home/runner/work/amr</text>
<text text-anchor="start" x="1335.5" y="-188.5" font-family="Helvetica,sans-Serif" font-size="10.00">&#45;wind/amr&#45;wind/src/wind</text>
<text text-anchor="middle" x="1396" y="-177.5" font-family="Helvetica,sans-Serif" font-size="10.00">_energy/ABL.H</text>
</a>
</g>
</g>
<!-- Node16&#45;&gt;Node18 -->
<g id="edge20_Node000016_Node000018" class="edge">
<title>Node16&#45;&gt;Node18</title>
<g id="a_edge20_Node000016_Node000018"><a xlink:title=" ">
<path fill="none" stroke="#63b8ff" d="M769.57,-329.65C978.49,-282.23 1213.34,-231.31 1327.16,-206.79"/>
<polygon fill="#63b8ff" stroke="#63b8ff" points="768.62,-326.28 759.64,-331.91 770.17,-333.11 768.62,-326.28"/>
</a>
</g>
</g>
<!-- Node34 -->
<g id="Node000034" class="node">
<title>Node34</title>
<g id="a_Node000034"><a xlink:href="_a_b_l_wall_function_8cpp.html" target="_top" xlink:title=" ">
<polygon fill="white" stroke="#666666" points="3152.5,-123.5 2993.5,-123.5 2993.5,-82.5 3152.5,-82.5 3152.5,-123.5"/>
<text text-anchor="start" x="3001.5" y="-111.5" font-family="Helvetica,sans-Serif" font-size="10.00">/home/runner/work/amr</text>
<text text-anchor="start" x="3001.5" y="-100.5" font-family="Helvetica,sans-Serif" font-size="10.00">&#45;wind/amr&#45;wind/src/wind</text>
<text text-anchor="middle" x="3073" y="-89.5" font-family="Helvetica,sans-Serif" font-size="10.00">_energy/ABLWallFunction.cpp</text>
</a>
</g>
</g>
<!-- Node16&#45;&gt;Node34 -->
<g id="edge44_Node000016_Node000034" class="edge">
<title>Node16&#45;&gt;Node34</title>
<g id="a_edge44_Node000016_Node000034"><a xlink:title=" ">
<path fill="none" stroke="#63b8ff" d="M769.67,-329.84C947.61,-301.1 1349.66,-268.23 1512,-253 2166.11,-191.63 2338.68,-246.87 2985,-129 2993.12,-127.52 3001.58,-125.61 3009.9,-123.5"/>
<polygon fill="#63b8ff" stroke="#63b8ff" points="768.86,-326.43 759.57,-331.51 770,-333.33 768.86,-326.43"/>
</a>
</g>
</g>
<!-- Node35 -->
<g id="Node000035" class="node">
<title>Node35</title>
<g id="a_Node000035"><a xlink:href="_a_b_l_stats_base_8_h.html" target="_top" xlink:title=" ">
<polygon fill="white" stroke="#666666" points="915.5,-294 778.5,-294 778.5,-253 915.5,-253 915.5,-294"/>
<text text-anchor="start" x="786.5" y="-282" font-family="Helvetica,sans-Serif" font-size="10.00">/home/runner/work/amr</text>
<text text-anchor="start" x="786.5" y="-271" font-family="Helvetica,sans-Serif" font-size="10.00">&#45;wind/amr&#45;wind/src/wind</text>
<text text-anchor="middle" x="847" y="-260" font-family="Helvetica,sans-Serif" font-size="10.00">_energy/ABLStatsBase.H</text>
</a>
</g>
</g>
<!-- Node16&#45;&gt;Node35 -->
<g id="edge41_Node000016_Node000035" class="edge">
<title>Node16&#45;&gt;Node35</title>
<g id="a_edge41_Node000016_Node000035"><a xlink:title=" ">
<path fill="none" stroke="#63b8ff" d="M736.36,-325.72C758.41,-315.51 783.86,-303.73 804.79,-294.04"/>
<polygon fill="#63b8ff" stroke="#63b8ff" points="734.74,-322.61 727.14,-329.99 737.69,-328.97 734.74,-322.61"/>
</a>
</g>
</g>
<!-- Node18&#45;&gt;Node7 -->
<g id="edge24_Node000018_Node000007" class="edge">
<title>Node18&#45;&gt;Node7</title>
<g id="a_edge24_Node000018_Node000007"><a xlink:title=" ">
<path fill="none" stroke="#63b8ff" d="M1317.05,-187.77C1103.59,-181.38 518.27,-161.36 328,-129 325.06,-128.5 322.07,-127.94 319.06,-127.32"/>
<polygon fill="#63b8ff" stroke="#63b8ff" points="1317.13,-191.28 1327.23,-188.07 1317.34,-184.28 1317.13,-191.28"/>
</a>
</g>
</g>
<!-- Node18&#45;&gt;Node8 -->
<g id="edge37_Node000018_Node000008" class="edge">
<title>Node18&#45;&gt;Node8</title>
<g id="a_edge37_Node000018_Node000008"><a xlink:title=" ">
<path fill="none" stroke="#63b8ff" d="M1317.04,-187.19C1125.96,-179.98 642.7,-159.27 484,-129 476.6,-127.59 468.92,-125.69 461.39,-123.57"/>
<polygon fill="#63b8ff" stroke="#63b8ff" points="1317.16,-190.69 1327.28,-187.57 1317.42,-183.7 1317.16,-190.69"/>
</a>
</g>
</g>
<!-- Node18&#45;&gt;Node11 -->
<g id="edge28_Node000018_Node000011" class="edge">
<title>Node18&#45;&gt;Node11</title>
<g id="a_edge28_Node000018_Node000011"><a xlink:title=" ">
<path fill="none" stroke="#63b8ff" d="M1317.33,-187.45C1185.24,-182.23 910.84,-167.41 682,-129 679.12,-128.52 676.19,-127.99 673.24,-127.43"/>
<polygon fill="#63b8ff" stroke="#63b8ff" points="1317.23,-190.95 1327.36,-187.84 1317.5,-183.95 1317.23,-190.95"/>
</a>
</g>
</g>
<!-- Node19 -->
<g id="Node000019" class="node">
<title>Node19</title>
<g id="a_Node000019"><a xlink:href="_c_f_d_sim_8cpp.html" target="_top" xlink:title=" ">
<polygon fill="white" stroke="#666666" points="864.5,-118 691.5,-118 691.5,-88 864.5,-88 864.5,-118"/>
<text text-anchor="start" x="699.5" y="-106" font-family="Helvetica,sans-Serif" font-size="10.00">/home/runner/work/amr</text>
<text text-anchor="middle" x="778" y="-95" font-family="Helvetica,sans-Serif" font-size="10.00">&#45;wind/amr&#45;wind/src/CFDSim.cpp</text>
</a>
</g>
</g>
<!-- Node18&#45;&gt;Node19 -->
<g id="edge21_Node000018_Node000019" class="edge">
<title>Node18&#45;&gt;Node19</title>
<g id="a_edge21_Node000018_Node000019"><a xlink:title=" ">
<path fill="none" stroke="#63b8ff" d="M1317.16,-184.21C1214.51,-175.89 1029.78,-158.24 874,-129 858.43,-126.08 841.65,-122.03 826.54,-118.04"/>
<polygon fill="#63b8ff" stroke="#63b8ff" points="1316.89,-187.7 1327.14,-185.01 1317.45,-180.72 1316.89,-187.7"/>
</a>
</g>
</g>
<!-- Node20 -->
<g id="Node000020" class="node">
<title>Node20</title>
<g id="a_Node000020"><a xlink:href="_a_b_l_forcing_8cpp.html" target="_top" xlink:title=" ">
<polygon fill="white" stroke="#666666" points="1039,-129 883,-129 883,-77 1039,-77 1039,-129"/>
<text text-anchor="start" x="891" y="-117" font-family="Helvetica,sans-Serif" font-size="10.00">/home/runner/work/amr</text>
<text text-anchor="start" x="891" y="-106" font-family="Helvetica,sans-Serif" font-size="10.00">&#45;wind/amr&#45;wind/src/equation</text>
<text text-anchor="start" x="891" y="-95" font-family="Helvetica,sans-Serif" font-size="10.00">_systems/icns/source_terms</text>
<text text-anchor="middle" x="961" y="-84" font-family="Helvetica,sans-Serif" font-size="10.00">/ABLForcing.cpp</text>
</a>
</g>
</g>
<!-- Node18&#45;&gt;Node20 -->
<g id="edge22_Node000018_Node000020" class="edge">
<title>Node18&#45;&gt;Node20</title>
<g id="a_edge22_Node000018_Node000020"><a xlink:title=" ">
<path fill="none" stroke="#63b8ff" d="M1317.04,-178.61C1246.19,-167.81 1139.57,-150.12 1048,-129 1045.09,-128.33 1042.13,-127.62 1039.15,-126.88"/>
<polygon fill="#63b8ff" stroke="#63b8ff" points="1316.81,-182.12 1327.22,-180.15 1317.86,-175.19 1316.81,-182.12"/>
</a>
</g>
</g>
<!-- Node21 -->
<g id="Node000021" class="node">
<title>Node21</title>
<g id="a_Node000021"><a xlink:href="_a_b_l_mean_boussinesq_8cpp.html" target="_top" xlink:title=" ">
<polygon fill="white" stroke="#666666" points="1213,-129 1057,-129 1057,-77 1213,-77 1213,-129"/>
<text text-anchor="start" x="1065" y="-117" font-family="Helvetica,sans-Serif" font-size="10.00">/home/runner/work/amr</text>
<text text-anchor="start" x="1065" y="-106" font-family="Helvetica,sans-Serif" font-size="10.00">&#45;wind/amr&#45;wind/src/equation</text>
<text text-anchor="start" x="1065" y="-95" font-family="Helvetica,sans-Serif" font-size="10.00">_systems/icns/source_terms</text>
<text text-anchor="middle" x="1135" y="-84" font-family="Helvetica,sans-Serif" font-size="10.00">/ABLMeanBoussinesq.cpp</text>
</a>
</g>
</g>
<!-- Node18&#45;&gt;Node21 -->
<g id="edge23_Node000018_Node000021" class="edge">
<title>Node18&#45;&gt;Node21</title>
<g id="a_edge23_Node000018_Node000021"><a xlink:title=" ">
<path fill="none" stroke="#63b8ff" d="M1326.96,-167.25C1291.39,-155.53 1247.92,-141.21 1211.35,-129.16"/>
<polygon fill="#63b8ff" stroke="#63b8ff" points="1326.18,-170.68 1336.78,-170.49 1328.37,-164.03 1326.18,-170.68"/>
</a>
</g>
</g>
<!-- Node22 -->
<g id="Node000022" class="node">
<title>Node22</title>
<g id="a_Node000022"><a xlink:href="_drag_forcing_8cpp.html" target="_top" xlink:title=" ">
<polygon fill="white" stroke="#666666" points="1387,-129 1231,-129 1231,-77 1387,-77 1387,-129"/>
<text text-anchor="start" x="1239" y="-117" font-family="Helvetica,sans-Serif" font-size="10.00">/home/runner/work/amr</text>
<text text-anchor="start" x="1239" y="-106" font-family="Helvetica,sans-Serif" font-size="10.00">&#45;wind/amr&#45;wind/src/equation</text>
<text text-anchor="start" x="1239" y="-95" font-family="Helvetica,sans-Serif" font-size="10.00">_systems/icns/source_terms</text>
<text text-anchor="middle" x="1309" y="-84" font-family="Helvetica,sans-Serif" font-size="10.00">/DragForcing.cpp</text>
</a>
</g>
</g>
<!-- Node18&#45;&gt;Node22 -->
<g id="edge25_Node000018_Node000022" class="edge">
<title>Node18&#45;&gt;Node22</title>
<g id="a_edge25_Node000018_Node000022"><a xlink:title=" ">
<path fill="none" stroke="#63b8ff" d="M1368.98,-163.29C1358.02,-152.45 1345.42,-140 1334.61,-129.32"/>
<polygon fill="#63b8ff" stroke="#63b8ff" points="1366.69,-165.94 1376.26,-170.49 1371.61,-160.97 1366.69,-165.94"/>
</a>
</g>
</g>
<!-- Node23 -->
<g id="Node000023" class="node">
<title>Node23</title>
<g id="a_Node000023"><a xlink:href="_forest_forcing_8cpp.html" target="_top" xlink:title=" ">
<polygon fill="white" stroke="#666666" points="1561,-129 1405,-129 1405,-77 1561,-77 1561,-129"/>
<text text-anchor="start" x="1413" y="-117" font-family="Helvetica,sans-Serif" font-size="10.00">/home/runner/work/amr</text>
<text text-anchor="start" x="1413" y="-106" font-family="Helvetica,sans-Serif" font-size="10.00">&#45;wind/amr&#45;wind/src/equation</text>
<text text-anchor="start" x="1413" y="-95" font-family="Helvetica,sans-Serif" font-size="10.00">_systems/icns/source_terms</text>
<text text-anchor="middle" x="1483" y="-84" font-family="Helvetica,sans-Serif" font-size="10.00">/ForestForcing.cpp</text>
</a>
</g>
</g>
<!-- Node18&#45;&gt;Node23 -->
<g id="edge26_Node000018_Node000023" class="edge">
<title>Node18&#45;&gt;Node23</title>
<g id="a_edge26_Node000018_Node000023"><a xlink:title=" ">
<path fill="none" stroke="#63b8ff" d="M1423.02,-163.29C1433.98,-152.45 1446.58,-140 1457.39,-129.32"/>
<polygon fill="#63b8ff" stroke="#63b8ff" points="1420.39,-160.97 1415.74,-170.49 1425.31,-165.94 1420.39,-160.97"/>
</a>
</g>
</g>
<!-- Node24 -->
<g id="Node000024" class="node">
<title>Node24</title>
<g id="a_Node000024"><a xlink:href="_hurricane_forcing_8cpp.html" target="_top" xlink:title=" ">
<polygon fill="white" stroke="#666666" points="1735,-129 1579,-129 1579,-77 1735,-77 1735,-129"/>
<text text-anchor="start" x="1587" y="-117" font-family="Helvetica,sans-Serif" font-size="10.00">/home/runner/work/amr</text>
<text text-anchor="start" x="1587" y="-106" font-family="Helvetica,sans-Serif" font-size="10.00">&#45;wind/amr&#45;wind/src/equation</text>
<text text-anchor="start" x="1587" y="-95" font-family="Helvetica,sans-Serif" font-size="10.00">_systems/icns/source_terms</text>
<text text-anchor="middle" x="1657" y="-84" font-family="Helvetica,sans-Serif" font-size="10.00">/HurricaneForcing.cpp</text>
</a>
</g>
</g>
<!-- Node18&#45;&gt;Node24 -->
<g id="edge27_Node000018_Node000024" class="edge">
<title>Node18&#45;&gt;Node24</title>
<g id="a_edge27_Node000018_Node000024"><a xlink:title=" ">
<path fill="none" stroke="#63b8ff" d="M1465.04,-167.25C1500.61,-155.53 1544.08,-141.21 1580.65,-129.16"/>
<polygon fill="#63b8ff" stroke="#63b8ff" points="1463.63,-164.03 1455.22,-170.49 1465.82,-170.68 1463.63,-164.03"/>
</a>
</g>
</g>
<!-- Node25 -->
<g id="Node000025" class="node">
<title>Node25</title>
<g id="a_Node000025"><a xlink:href="_hurricane_temp_forcing_8cpp.html" target="_top" xlink:title=" ">
<polygon fill="white" stroke="#666666" points="1935,-129 1753,-129 1753,-77 1935,-77 1935,-129"/>
<text text-anchor="start" x="1761" y="-117" font-family="Helvetica,sans-Serif" font-size="10.00">/home/runner/work/amr</text>
<text text-anchor="start" x="1761" y="-106" font-family="Helvetica,sans-Serif" font-size="10.00">&#45;wind/amr&#45;wind/src/equation</text>
<text text-anchor="start" x="1761" y="-95" font-family="Helvetica,sans-Serif" font-size="10.00">_systems/temperature/source</text>
<text text-anchor="middle" x="1844" y="-84" font-family="Helvetica,sans-Serif" font-size="10.00">_terms/HurricaneTempForcing.cpp</text>
</a>
</g>
</g>
<!-- Node18&#45;&gt;Node25 -->
<g id="edge29_Node000018_Node000025" class="edge">
<title>Node18&#45;&gt;Node25</title>
<g id="a_edge29_Node000018_Node000025"><a xlink:title=" ">
<path fill="none" stroke="#63b8ff" d="M1466.64,-167.91C1470.8,-166.86 1474.95,-165.88 1479,-165 1595.15,-139.78 1627.28,-151.45 1744,-129 1746.9,-128.44 1749.84,-127.85 1752.81,-127.24"/>
<polygon fill="#63b8ff" stroke="#63b8ff" points="1465.69,-164.54 1456.91,-170.47 1467.47,-171.31 1465.69,-164.54"/>
</a>
</g>
</g>
<!-- Node26 -->
<g id="Node000026" class="node">
<title>Node26</title>
<g id="a_Node000026"><a xlink:href="helics_8cpp.html" target="_top" xlink:title=" ">
<polygon fill="white" stroke="#666666" points="2115,-118 1953,-118 1953,-88 2115,-88 2115,-118"/>
<text text-anchor="start" x="1961" y="-106" font-family="Helvetica,sans-Serif" font-size="10.00">/home/runner/work/amr</text>
<text text-anchor="middle" x="2034" y="-95" font-family="Helvetica,sans-Serif" font-size="10.00">&#45;wind/amr&#45;wind/src/helics.cpp</text>
</a>
</g>
</g>
<!-- Node18&#45;&gt;Node26 -->
<g id="edge30_Node000018_Node000026" class="edge">
<title>Node18&#45;&gt;Node26</title>
<g id="a_edge30_Node000018_Node000026"><a xlink:title=" ">
<path fill="none" stroke="#63b8ff" d="M1465.44,-167.9C1470.01,-166.81 1474.55,-165.83 1479,-165 1682.75,-126.89 1739.85,-164.91 1944,-129 1959.17,-126.33 1975.48,-122.2 1989.99,-118.06"/>
<polygon fill="#63b8ff" stroke="#63b8ff" points="1464.3,-164.58 1455.46,-170.42 1466.02,-171.36 1464.3,-164.58"/>
</a>
</g>
</g>
<!-- Node27 -->
<g id="Node000027" class="node">
<title>Node27</title>
<g id="a_Node000027"><a xlink:href="incflo_8cpp.html" target="_top" xlink:title=" ">
<polygon fill="white" stroke="#666666" points="2293,-118 2133,-118 2133,-88 2293,-88 2293,-118"/>
<text text-anchor="start" x="2141" y="-106" font-family="Helvetica,sans-Serif" font-size="10.00">/home/runner/work/amr</text>
<text text-anchor="middle" x="2213" y="-95" font-family="Helvetica,sans-Serif" font-size="10.00">&#45;wind/amr&#45;wind/src/incflo.cpp</text>
</a>
</g>
</g>
<!-- Node18&#45;&gt;Node27 -->
<g id="edge31_Node000018_Node000027" class="edge">
<title>Node18&#45;&gt;Node27</title>
<g id="a_edge31_Node000018_Node000027"><a xlink:title=" ">
<path fill="none" stroke="#63b8ff" d="M1464.51,-168C1469.38,-166.85 1474.25,-165.84 1479,-165 1761.77,-115.25 1840.78,-176.1 2124,-129 2139.2,-126.47 2155.51,-122.32 2169.97,-118.13"/>
<polygon fill="#63b8ff" stroke="#63b8ff" points="1463.38,-164.67 1454.53,-170.5 1465.08,-171.46 1463.38,-164.67"/>
</a>
</g>
</g>
<!-- Node28 -->
<g id="Node000028" class="node">
<title>Node28</title>
<g id="a_Node000028"><a xlink:href="nodal__projection__ops_8_h.html" target="_top" xlink:title=" ">
<polygon fill="white" stroke="#666666" points="2473,-123.5 2311,-123.5 2311,-82.5 2473,-82.5 2473,-123.5"/>
<text text-anchor="start" x="2319" y="-111.5" font-family="Helvetica,sans-Serif" font-size="10.00">/home/runner/work/amr</text>
<text text-anchor="start" x="2319" y="-100.5" font-family="Helvetica,sans-Serif" font-size="10.00">&#45;wind/amr&#45;wind/src/projection</text>
<text text-anchor="middle" x="2392" y="-89.5" font-family="Helvetica,sans-Serif" font-size="10.00">/nodal_projection_ops.H</text>
</a>
</g>
</g>
<!-- Node18&#45;&gt;Node28 -->
<g id="edge32_Node000018_Node000028" class="edge">
<title>Node18&#45;&gt;Node28</title>
<g id="a_edge32_Node000018_Node000028"><a xlink:title=" ">
<path fill="none" stroke="#63b8ff" d="M1464.5,-167.93C1469.38,-166.8 1474.24,-165.81 1479,-165 1839.96,-103.73 1940.39,-186.37 2302,-129 2310.65,-127.63 2319.65,-125.72 2328.48,-123.57"/>
<polygon fill="#63b8ff" stroke="#63b8ff" points="1463.38,-164.6 1454.51,-170.41 1465.06,-171.4 1463.38,-164.6"/>
</a>
</g>
</g>
<!-- Node31 -->
<g id="Node000031" class="node">
<title>Node31</title>
<g id="a_Node000031"><a xlink:href="init_8cpp.html" target="_top" xlink:title=" ">
<polygon fill="white" stroke="#666666" points="2631,-123.5 2491,-123.5 2491,-82.5 2631,-82.5 2631,-123.5"/>
<text text-anchor="start" x="2499" y="-111.5" font-family="Helvetica,sans-Serif" font-size="10.00">/home/runner/work/amr</text>
<text text-anchor="start" x="2499" y="-100.5" font-family="Helvetica,sans-Serif" font-size="10.00">&#45;wind/amr&#45;wind/src/setup</text>
<text text-anchor="middle" x="2561" y="-89.5" font-family="Helvetica,sans-Serif" font-size="10.00">/init.cpp</text>
</a>
</g>
</g>
<!-- Node18&#45;&gt;Node31 -->
<g id="edge35_Node000018_Node000031" class="edge">
<title>Node18&#45;&gt;Node31</title>
<g id="a_edge35_Node000018_Node000031"><a xlink:title=" ">
<path fill="none" stroke="#63b8ff" d="M1463.83,-168.04C1468.93,-166.86 1474.02,-165.82 1479,-165 1919.06,-92.08 2042.45,-204.99 2482,-129 2489.8,-127.65 2497.89,-125.73 2505.79,-123.54"/>
<polygon fill="#63b8ff" stroke="#63b8ff" points="1462.91,-164.66 1454.05,-170.47 1464.6,-171.46 1462.91,-164.66"/>
</a>
</g>
</g>
<!-- Node32 -->
<g id="Node000032" class="node">
<title>Node32</title>
<g id="a_Node000032"><a xlink:href="_kosovic_8cpp.html" target="_top" xlink:title=" ">
<polygon fill="white" stroke="#666666" points="2814.5,-123.5 2649.5,-123.5 2649.5,-82.5 2814.5,-82.5 2814.5,-123.5"/>
<text text-anchor="start" x="2657.5" y="-111.5" font-family="Helvetica,sans-Serif" font-size="10.00">/home/runner/work/amr</text>
<text text-anchor="start" x="2657.5" y="-100.5" font-family="Helvetica,sans-Serif" font-size="10.00">&#45;wind/amr&#45;wind/src/turbulence</text>
<text text-anchor="middle" x="2732" y="-89.5" font-family="Helvetica,sans-Serif" font-size="10.00">/LES/Kosovic.cpp</text>
</a>
</g>
</g>
<!-- Node18&#45;&gt;Node32 -->
<g id="edge36_Node000018_Node000032" class="edge">
<title>Node18&#45;&gt;Node32</title>
<g id="a_edge36_Node000018_Node000032"><a xlink:title=" ">
<path fill="none" stroke="#63b8ff" d="M1463.83,-168.01C1468.92,-166.84 1474.02,-165.81 1479,-165 1988.51,-81.85 2129.41,-205.21 2640,-129 2649,-127.66 2658.38,-125.74 2667.57,-123.55"/>
<polygon fill="#63b8ff" stroke="#63b8ff" points="1462.91,-164.63 1454.05,-170.43 1464.59,-171.43 1462.91,-164.63"/>
</a>
</g>
</g>
<!-- Node33 -->
<g id="Node000033" class="node">
<title>Node33</title>
<g id="a_Node000033"><a xlink:href="_a_b_l_anelastic_8cpp.html" target="_top" xlink:title=" ">
<polygon fill="white" stroke="#666666" points="2975.5,-123.5 2832.5,-123.5 2832.5,-82.5 2975.5,-82.5 2975.5,-123.5"/>
<text text-anchor="start" x="2840.5" y="-111.5" font-family="Helvetica,sans-Serif" font-size="10.00">/home/runner/work/amr</text>
<text text-anchor="start" x="2840.5" y="-100.5" font-family="Helvetica,sans-Serif" font-size="10.00">&#45;wind/amr&#45;wind/src/wind</text>
<text text-anchor="middle" x="2904" y="-89.5" font-family="Helvetica,sans-Serif" font-size="10.00">_energy/ABLAnelastic.cpp</text>
</a>
</g>
</g>
<!-- Node18&#45;&gt;Node33 -->
<g id="edge38_Node000018_Node000033" class="edge">
<title>Node18&#45;&gt;Node33</title>
<g id="a_edge38_Node000018_Node000033"><a xlink:title=" ">
<path fill="none" stroke="#63b8ff" d="M1463.82,-167.99C1468.92,-166.82 1474.02,-165.8 1479,-165 2068.95,-69.99 2233.38,-226.01 2823,-129 2830.99,-127.69 2839.28,-125.78 2847.38,-123.6"/>
<polygon fill="#63b8ff" stroke="#63b8ff" points="1462.91,-164.61 1454.04,-170.4 1464.59,-171.41 1462.91,-164.61"/>
</a>
</g>
</g>
<!-- Node18&#45;&gt;Node34 -->
<g id="edge39_Node000018_Node000034" class="edge">
<title>Node18&#45;&gt;Node34</title>
<g id="a_edge39_Node000018_Node000034"><a xlink:title=" ">
<path fill="none" stroke="#63b8ff" d="M1463.54,-168.04C1468.73,-166.85 1473.93,-165.81 1479,-165 1809.58,-112.25 2654.01,-179.14 2985,-129 2993.64,-127.69 3002.62,-125.79 3011.41,-123.61"/>
<polygon fill="#63b8ff" stroke="#63b8ff" points="1462.45,-164.7 1453.58,-170.5 1464.13,-171.5 1462.45,-164.7"/>
</a>
</g>
</g>
<!-- Node29 -->
<g id="Node000029" class="node">
<title>Node29</title>
<g id="a_Node000029"><a xlink:href="_overset_ops_8cpp.html" target="_top" xlink:title=" ">
<polygon fill="white" stroke="#666666" points="2375,-41 2225,-41 2225,0 2375,0 2375,-41"/>
<text text-anchor="start" x="2233" y="-29" font-family="Helvetica,sans-Serif" font-size="10.00">/home/runner/work/amr</text>
<text text-anchor="start" x="2233" y="-18" font-family="Helvetica,sans-Serif" font-size="10.00">&#45;wind/amr&#45;wind/src/overset</text>
<text text-anchor="middle" x="2300" y="-7" font-family="Helvetica,sans-Serif" font-size="10.00">/OversetOps.cpp</text>
</a>
</g>
</g>
<!-- Node28&#45;&gt;Node29 -->
<g id="edge33_Node000028_Node000029" class="edge">
<title>Node28&#45;&gt;Node29</title>
<g id="a_edge33_Node000028_Node000029"><a xlink:title=" ">
<path fill="none" stroke="#63b8ff" d="M2361.59,-75.39C2348.83,-64.22 2334.25,-51.47 2322.48,-41.17"/>
<polygon fill="#63b8ff" stroke="#63b8ff" points="2359.43,-78.15 2369.26,-82.1 2364.04,-72.88 2359.43,-78.15"/>
</a>
</g>
</g>
<!-- Node30 -->
<g id="Node000030" class="node">
<title>Node30</title>
<g id="a_Node000030"><a xlink:href="incflo__apply__nodal__projection_8cpp.html" target="_top" xlink:title=" ">
<polygon fill="white" stroke="#666666" points="2577.5,-41 2392.5,-41 2392.5,0 2577.5,0 2577.5,-41"/>
<text text-anchor="start" x="2400.5" y="-29" font-family="Helvetica,sans-Serif" font-size="10.00">/home/runner/work/amr</text>
<text text-anchor="start" x="2400.5" y="-18" font-family="Helvetica,sans-Serif" font-size="10.00">&#45;wind/amr&#45;wind/src/projection</text>
<text text-anchor="middle" x="2485" y="-7" font-family="Helvetica,sans-Serif" font-size="10.00">/incflo_apply_nodal_projection.cpp</text>
</a>
</g>
</g>
<!-- Node28&#45;&gt;Node30 -->
<g id="edge34_Node000028_Node000030" class="edge">
<title>Node28&#45;&gt;Node30</title>
<g id="a_edge34_Node000028_Node000030"><a xlink:title=" ">
<path fill="none" stroke="#63b8ff" d="M2422.74,-75.39C2435.64,-64.22 2450.38,-51.47 2462.28,-41.17"/>
<polygon fill="#63b8ff" stroke="#63b8ff" points="2420.26,-72.91 2414.99,-82.1 2424.84,-78.2 2420.26,-72.91"/>
</a>
</g>
</g>
<!-- Node35&#45;&gt;Node15 -->
<g id="edge43_Node000035_Node000015" class="edge">
<title>Node35&#45;&gt;Node15</title>
<g id="a_edge43_Node000035_Node000015"><a xlink:title=" ">
<path fill="none" stroke="#63b8ff" d="M768.29,-253C643.91,-230.46 608.36,-243.57 489,-217 482.06,-215.46 474.86,-213.56 467.75,-211.51"/>
<polygon fill="#63b8ff" stroke="#63b8ff" points="767.72,-256.45 778.19,-254.83 769,-249.57 767.72,-256.45"/>
</a>
</g>
</g>
<!-- Node35&#45;&gt;Node18 -->
<g id="edge42_Node000035_Node000018" class="edge">
<title>Node35&#45;&gt;Node18</title>
<g id="a_edge42_Node000035_Node000018"><a xlink:title=" ">
<path fill="none" stroke="#63b8ff" d="M925.86,-260.94C1033.59,-245.14 1225.03,-217.07 1327.23,-202.08"/>
<polygon fill="#63b8ff" stroke="#63b8ff" points="925.08,-257.51 915.7,-262.43 926.1,-264.44 925.08,-257.51"/>
</a>
</g>
</g>
</g>
</svg>

<g id="navigator" transform="translate(0 0)" fill="#404254">
  <rect fill="#f2f5e9" fill-opacity="0.5" stroke="#606060" stroke-width=".5" x="0" y="0" width="60" height="60"/>
  <use id="zoomplus" xlink:href="#zoomPlus" x="17" y="9" onmousedown="handleZoom(evt,'in')"/>
  <use id="zoomminus" xlink:href="#zoomMin" x="42" y="9" onmousedown="handleZoom(evt,'out')"/>
  <use id="reset" xlink:href="#resetDef" x="30" y="36" onmousedown="handleReset()"/>
   <use id="arrowup" xlink:href="#arrowUp" x="0" y="0" onmousedown="handlePan(0,-1)"/>
  <use id="arrowright" xlink:href="#arrowRight" x="0" y="0" onmousedown="handlePan(1,0)"/>
  <use id="arrowdown" xlink:href="#arrowDown" x="0" y="0" onmousedown="handlePan(0,1)"/>
  <use id="arrowleft" xlink:href="#arrowLeft" x="0" y="0" onmousedown="handlePan(-1,0)"/>
</g>
<svg viewBox="0 0 15 15" width="100%" height="30px" preserveAspectRatio="xMaxYMin meet">
 <g id="arrow_out" transform="scale(0.3 0.3)">
  <a xlink:href="_field_plane_averaging_fine_8_h__dep__incl_org.svg" target="_base">
   <rect id="button" ry="5" rx="5" y="6" x="6" height="38" width="38"
        fill="#f2f5e9" fill-opacity="0.5" stroke="#606060" stroke-width="1.0"/>
   <path id="arrow"
     d="M 11.500037,31.436501 C 11.940474,20.09759 22.043105,11.32322 32.158766,21.979434 L 37.068811,17.246167 C 37.068811,17.246167 37.088388,32 37.088388,32 L 22.160133,31.978069 C 22.160133,31.978069 26.997745,27.140456 26.997745,27.140456 C 18.528582,18.264221 13.291696,25.230495 11.500037,31.436501 z"
     style="fill:#404040;"/>
  </a>
 </g>
</svg>

<style type='text/css'>
<![CDATA[
[data-mouse-over-selected='false'] { opacity: 0.7; }
[data-mouse-over-selected='true']  { opacity: 1.0; }
]]>
</style>
<script type="application/ecmascript"><![CDATA[
document.addEventListener('DOMContentLoaded', (event) => {
  highlightEdges();
  highlightAdjacentNodes();
});
]]></script>
</svg>
