<?xml version="1.0" encoding="UTF-8" standalone="no"?>
<!DOCTYPE svg PUBLIC "-//W3C//DTD SVG 1.1//EN"
 "http://www.w3.org/Graphics/SVG/1.1/DTD/svg11.dtd">
<!-- Generated by graphviz version 2.43.0 (0)
 -->
<!-- Title: /home/runner/work/amr&#45;wind/amr&#45;wind/src/utilities/sampling/LidarSampler.H Pages: 1 -->
<svg width="1603pt" height="357pt"
 viewBox="0.00 0.00 1602.50 357.00" xmlns="http://www.w3.org/2000/svg" xmlns:xlink="http://www.w3.org/1999/xlink">
<g id="graph0" class="graph" transform="scale(1 1) rotate(0) translate(4 353)">
<title>/home/runner/work/amr&#45;wind/amr&#45;wind/src/utilities/sampling/LidarSampler.H</title>
<!-- Node1 -->
<g id="Node000001" class="node">
<title>Node1</title>
<g id="a_Node000001"><a xlink:title=" ">
<polygon fill="#999999" stroke="#666666" points="1215,-349 1065,-349 1065,-308 1215,-308 1215,-349"/>
<text text-anchor="start" x="1073" y="-337" font-family="Helvetica,sans-Serif" font-size="10.00">/home/runner/work/amr</text>
<text text-anchor="start" x="1073" y="-326" font-family="Helvetica,sans-Serif" font-size="10.00">&#45;wind/amr&#45;wind/src/utilities</text>
<text text-anchor="middle" x="1140" y="-315" font-family="Helvetica,sans-Serif" font-size="10.00">/sampling/LidarSampler.H</text>
</a>
</g>
</g>
<!-- Node2 -->
<g id="Node000002" class="node">
<title>Node2</title>
<g id="a_Node000002"><a xlink:href="_line_sampler_8_h.html" target="_top" xlink:title=" ">
<polygon fill="white" stroke="#666666" points="1135.5,-272 1016.5,-272 1016.5,-242 1135.5,-242 1135.5,-272"/>
<text text-anchor="start" x="1024.5" y="-260" font-family="Helvetica,sans-Serif" font-size="10.00">src/utilities/sampling</text>
<text text-anchor="middle" x="1076" y="-249" font-family="Helvetica,sans-Serif" font-size="10.00">/LineSampler.H</text>
</a>
</g>
</g>
<!-- Node1&#45;&gt;Node2 -->
<g id="edge1_Node000001_Node000002" class="edge">
<title>Node1&#45;&gt;Node2</title>
<g id="a_edge1_Node000001_Node000002"><a xlink:title=" ">
<path fill="none" stroke="#63b8ff" d="M1121.83,-307.77C1113.71,-298.95 1104.13,-288.54 1095.82,-279.53"/>
<polygon fill="#63b8ff" stroke="#63b8ff" points="1098.28,-277.02 1088.93,-272.04 1093.13,-281.77 1098.28,-277.02"/>
</a>
</g>
</g>
<!-- Node20 -->
<g id="Node000020" class="node">
<title>Node20</title>
<g id="a_Node000020"><a xlink:href="vector__space_8_h.html" target="_top" xlink:title=" ">
<polygon fill="white" stroke="#666666" points="1317.5,-272 1214.5,-272 1214.5,-242 1317.5,-242 1317.5,-272"/>
<text text-anchor="start" x="1222.5" y="-260" font-family="Helvetica,sans-Serif" font-size="10.00">src/core/vs/vector</text>
<text text-anchor="middle" x="1266" y="-249" font-family="Helvetica,sans-Serif" font-size="10.00">_space.H</text>
</a>
</g>
</g>
<!-- Node1&#45;&gt;Node20 -->
<g id="edge22_Node000001_Node000020" class="edge">
<title>Node1&#45;&gt;Node20</title>
<g id="a_edge22_Node000001_Node000020"><a xlink:title=" ">
<path fill="none" stroke="#63b8ff" d="M1175.43,-307.96C1192.88,-298.33 1213.83,-286.78 1231.19,-277.2"/>
<polygon fill="#63b8ff" stroke="#63b8ff" points="1233.35,-280.01 1240.41,-272.11 1229.97,-273.88 1233.35,-280.01"/>
</a>
</g>
</g>
<!-- Node3 -->
<g id="Node000003" class="node">
<title>Node3</title>
<g id="a_Node000003"><a xlink:href="_sampler_base_8_h.html" target="_top" xlink:title=" ">
<polygon fill="white" stroke="#666666" points="903.5,-151 784.5,-151 784.5,-121 903.5,-121 903.5,-151"/>
<text text-anchor="start" x="792.5" y="-139" font-family="Helvetica,sans-Serif" font-size="10.00">src/utilities/sampling</text>
<text text-anchor="middle" x="844" y="-128" font-family="Helvetica,sans-Serif" font-size="10.00">/SamplerBase.H</text>
</a>
</g>
</g>
<!-- Node2&#45;&gt;Node3 -->
<g id="edge2_Node000002_Node000003" class="edge">
<title>Node2&#45;&gt;Node3</title>
<g id="a_edge2_Node000002_Node000003"><a xlink:title=" ">
<path fill="none" stroke="#63b8ff" d="M1048.48,-241.88C1006.7,-220.46 927.24,-179.7 880.63,-155.79"/>
<polygon fill="#63b8ff" stroke="#63b8ff" points="881.98,-152.55 871.49,-151.1 878.79,-158.78 881.98,-152.55"/>
</a>
</g>
</g>
<!-- Node4 -->
<g id="Node000004" class="node">
<title>Node4</title>
<g id="a_Node000004"><a xlink:title=" ">
<polygon fill="#e0e0e0" stroke="#999999" points="1085,-79.5 975,-79.5 975,-60.5 1085,-60.5 1085,-79.5"/>
<text text-anchor="middle" x="1030" y="-67.5" font-family="Helvetica,sans-Serif" font-size="10.00">AMReX_RealVect.H</text>
</a>
</g>
</g>
<!-- Node3&#45;&gt;Node4 -->
<g id="edge3_Node000003_Node000004" class="edge">
<title>Node3&#45;&gt;Node4</title>
<g id="a_edge3_Node000003_Node000004"><a xlink:title=" ">
<path fill="none" stroke="#63b8ff" d="M884.82,-120.95C918.01,-109.53 964.32,-93.6 995.64,-82.82"/>
<polygon fill="#63b8ff" stroke="#63b8ff" points="996.93,-86.08 1005.25,-79.52 994.65,-79.46 996.93,-86.08"/>
</a>
</g>
</g>
<!-- Node5 -->
<g id="Node000005" class="node">
<title>Node5</title>
<g id="a_Node000005"><a xlink:href="_factory_8_h.html" target="_top" xlink:title=" ">
<polygon fill="white" stroke="#666666" points="307,-79.5 205,-79.5 205,-60.5 307,-60.5 307,-79.5"/>
<text text-anchor="middle" x="256" y="-67.5" font-family="Helvetica,sans-Serif" font-size="10.00">src/core/Factory.H</text>
</a>
</g>
</g>
<!-- Node3&#45;&gt;Node5 -->
<g id="edge4_Node000003_Node000005" class="edge">
<title>Node3&#45;&gt;Node5</title>
<g id="a_edge4_Node000003_Node000005"><a xlink:title=" ">
<path fill="none" stroke="#63b8ff" d="M784.38,-128.51C672.27,-116.31 431.1,-90.06 317.53,-77.7"/>
<polygon fill="#63b8ff" stroke="#63b8ff" points="317.59,-74.18 307.27,-76.58 316.84,-81.14 317.59,-74.18"/>
</a>
</g>
</g>
<!-- Node11 -->
<g id="Node000011" class="node">
<title>Node11</title>
<g id="a_Node000011"><a xlink:href="nc__interface_8_h.html" target="_top" xlink:title=" ">
<polygon fill="white" stroke="#666666" points="685,-85 579,-85 579,-55 685,-55 685,-85"/>
<text text-anchor="start" x="587" y="-73" font-family="Helvetica,sans-Serif" font-size="10.00">src/utilities/ncutils</text>
<text text-anchor="middle" x="632" y="-62" font-family="Helvetica,sans-Serif" font-size="10.00">/nc_interface.H</text>
</a>
</g>
</g>
<!-- Node3&#45;&gt;Node11 -->
<g id="edge10_Node000003_Node000011" class="edge">
<title>Node3&#45;&gt;Node11</title>
<g id="a_edge10_Node000003_Node000011"><a xlink:title=" ">
<path fill="none" stroke="#63b8ff" d="M797.48,-120.95C765.3,-111.24 722.33,-98.27 688.23,-87.98"/>
<polygon fill="#63b8ff" stroke="#63b8ff" points="689,-84.55 678.42,-85.01 686.98,-91.25 689,-84.55"/>
</a>
</g>
</g>
<!-- Node16 -->
<g id="Node000016" class="node">
<title>Node16</title>
<g id="a_Node000016"><a xlink:title=" ">
<polygon fill="#e0e0e0" stroke="#999999" points="843,-19 751,-19 751,0 843,0 843,-19"/>
<text text-anchor="middle" x="797" y="-7" font-family="Helvetica,sans-Serif" font-size="10.00">AMReX_REAL.H</text>
</a>
</g>
</g>
<!-- Node3&#45;&gt;Node16 -->
<g id="edge21_Node000003_Node000016" class="edge">
<title>Node3&#45;&gt;Node16</title>
<g id="a_edge21_Node000003_Node000016"><a xlink:title=" ">
<path fill="none" stroke="#63b8ff" d="M834.62,-120.62C828.61,-110.89 821.02,-97.56 816,-85 808.67,-66.65 803.46,-44.6 800.37,-29.28"/>
<polygon fill="#63b8ff" stroke="#63b8ff" points="803.81,-28.62 798.5,-19.45 796.94,-29.93 803.81,-28.62"/>
</a>
</g>
</g>
<!-- Node17 -->
<g id="Node000017" class="node">
<title>Node17</title>
<g id="a_Node000017"><a xlink:href="constants_8_h.html" target="_top" xlink:title=" ">
<polygon fill="white" stroke="#666666" points="956.5,-79.5 825.5,-79.5 825.5,-60.5 956.5,-60.5 956.5,-79.5"/>
<text text-anchor="middle" x="891" y="-67.5" font-family="Helvetica,sans-Serif" font-size="10.00">src/utilities/constants.H</text>
</a>
</g>
</g>
<!-- Node3&#45;&gt;Node17 -->
<g id="edge17_Node000003_Node000017" class="edge">
<title>Node3&#45;&gt;Node17</title>
<g id="a_edge17_Node000003_Node000017"><a xlink:title=" ">
<path fill="none" stroke="#63b8ff" d="M854.43,-120.8C861.54,-111.11 871,-98.24 878.51,-88.01"/>
<polygon fill="#63b8ff" stroke="#63b8ff" points="881.41,-89.98 884.5,-79.84 875.76,-85.83 881.41,-89.98"/>
</a>
</g>
</g>
<!-- Node6 -->
<g id="Node000006" class="node">
<title>Node6</title>
<g id="a_Node000006"><a xlink:title=" ">
<polygon fill="#e0e0e0" stroke="#999999" points="324,-19 266,-19 266,0 324,0 324,-19"/>
<text text-anchor="middle" x="295" y="-7" font-family="Helvetica,sans-Serif" font-size="10.00">memory</text>
</a>
</g>
</g>
<!-- Node5&#45;&gt;Node6 -->
<g id="edge5_Node000005_Node000006" class="edge">
<title>Node5&#45;&gt;Node6</title>
<g id="a_edge5_Node000005_Node000006"><a xlink:title=" ">
<path fill="none" stroke="#63b8ff" d="M261.75,-60.37C267.46,-51.81 276.35,-38.47 283.51,-27.74"/>
<polygon fill="#63b8ff" stroke="#63b8ff" points="286.59,-29.43 289.22,-19.17 280.76,-25.55 286.59,-29.43"/>
</a>
</g>
</g>
<!-- Node7 -->
<g id="Node000007" class="node">
<title>Node7</title>
<g id="a_Node000007"><a xlink:title=" ">
<polygon fill="#e0e0e0" stroke="#999999" points="435.5,-19 342.5,-19 342.5,0 435.5,0 435.5,-19"/>
<text text-anchor="middle" x="389" y="-7" font-family="Helvetica,sans-Serif" font-size="10.00">unordered_map</text>
</a>
</g>
</g>
<!-- Node5&#45;&gt;Node7 -->
<g id="edge6_Node000005_Node000007" class="edge">
<title>Node5&#45;&gt;Node7</title>
<g id="a_edge6_Node000005_Node000007"><a xlink:title=" ">
<path fill="none" stroke="#63b8ff" d="M275.34,-60.49C297.7,-50.66 334.71,-34.38 360.4,-23.08"/>
<polygon fill="#63b8ff" stroke="#63b8ff" points="361.89,-26.25 369.64,-19.02 359.07,-19.84 361.89,-26.25"/>
</a>
</g>
</g>
<!-- Node8 -->
<g id="Node000008" class="node">
<title>Node8</title>
<g id="a_Node000008"><a xlink:title=" ">
<polygon fill="#e0e0e0" stroke="#999999" points="60,-19 0,-19 0,0 60,0 60,-19"/>
<text text-anchor="middle" x="30" y="-7" font-family="Helvetica,sans-Serif" font-size="10.00">iostream</text>
</a>
</g>
</g>
<!-- Node5&#45;&gt;Node8 -->
<g id="edge7_Node000005_Node000008" class="edge">
<title>Node5&#45;&gt;Node8</title>
<g id="a_edge7_Node000005_Node000008"><a xlink:title=" ">
<path fill="none" stroke="#63b8ff" d="M223.14,-60.49C182.48,-49.97 113.3,-32.06 69.71,-20.78"/>
<polygon fill="#63b8ff" stroke="#63b8ff" points="70.57,-17.39 60.01,-18.27 68.82,-24.16 70.57,-17.39"/>
</a>
</g>
</g>
<!-- Node9 -->
<g id="Node000009" class="node">
<title>Node9</title>
<g id="a_Node000009"><a xlink:title=" ">
<polygon fill="#e0e0e0" stroke="#999999" points="168,-19 78,-19 78,0 168,0 168,-19"/>
<text text-anchor="middle" x="123" y="-7" font-family="Helvetica,sans-Serif" font-size="10.00">AMReX_Print.H</text>
</a>
</g>
</g>
<!-- Node5&#45;&gt;Node9 -->
<g id="edge8_Node000005_Node000009" class="edge">
<title>Node5&#45;&gt;Node9</title>
<g id="a_edge8_Node000005_Node000009"><a xlink:title=" ">
<path fill="none" stroke="#63b8ff" d="M236.66,-60.49C214.3,-50.66 177.29,-34.38 151.6,-23.08"/>
<polygon fill="#63b8ff" stroke="#63b8ff" points="152.93,-19.84 142.36,-19.02 150.11,-26.25 152.93,-19.84"/>
</a>
</g>
</g>
<!-- Node10 -->
<g id="Node000010" class="node">
<title>Node10</title>
<g id="a_Node000010"><a xlink:title=" ">
<polygon fill="#e0e0e0" stroke="#999999" points="248,-19 186,-19 186,0 248,0 248,-19"/>
<text text-anchor="middle" x="217" y="-7" font-family="Helvetica,sans-Serif" font-size="10.00">AMReX.H</text>
</a>
</g>
</g>
<!-- Node5&#45;&gt;Node10 -->
<g id="edge9_Node000005_Node000010" class="edge">
<title>Node5&#45;&gt;Node10</title>
<g id="a_edge9_Node000005_Node000010"><a xlink:title=" ">
<path fill="none" stroke="#63b8ff" d="M250.25,-60.37C244.54,-51.81 235.65,-38.47 228.49,-27.74"/>
<polygon fill="#63b8ff" stroke="#63b8ff" points="231.24,-25.55 222.78,-19.17 225.41,-29.43 231.24,-25.55"/>
</a>
</g>
</g>
<!-- Node11&#45;&gt;Node7 -->
<g id="edge12_Node000011_Node000007" class="edge">
<title>Node11&#45;&gt;Node7</title>
<g id="a_edge12_Node000011_Node000007"><a xlink:title=" ">
<path fill="none" stroke="#63b8ff" d="M578.97,-56.23C535.75,-45.83 475.37,-31.29 434.37,-21.42"/>
<polygon fill="#63b8ff" stroke="#63b8ff" points="435.18,-18.02 424.64,-19.08 433.54,-24.82 435.18,-18.02"/>
</a>
</g>
</g>
<!-- Node12 -->
<g id="Node000012" class="node">
<title>Node12</title>
<g id="a_Node000012"><a xlink:title=" ">
<polygon fill="#e0e0e0" stroke="#999999" points="733,-19 689,-19 689,0 733,0 733,-19"/>
<text text-anchor="middle" x="711" y="-7" font-family="Helvetica,sans-Serif" font-size="10.00">string</text>
</a>
</g>
</g>
<!-- Node11&#45;&gt;Node12 -->
<g id="edge11_Node000011_Node000012" class="edge">
<title>Node11&#45;&gt;Node12</title>
<g id="a_edge11_Node000011_Node000012"><a xlink:title=" ">
<path fill="none" stroke="#63b8ff" d="M651.12,-54.84C663.18,-45.91 678.71,-34.41 690.94,-25.35"/>
<polygon fill="#63b8ff" stroke="#63b8ff" points="693.21,-28.03 699.16,-19.27 689.04,-22.4 693.21,-28.03"/>
</a>
</g>
</g>
<!-- Node13 -->
<g id="Node000013" class="node">
<title>Node13</title>
<g id="a_Node000013"><a xlink:title=" ">
<polygon fill="#e0e0e0" stroke="#999999" points="500.5,-19 453.5,-19 453.5,0 500.5,0 500.5,-19"/>
<text text-anchor="middle" x="477" y="-7" font-family="Helvetica,sans-Serif" font-size="10.00">vector</text>
</a>
</g>
</g>
<!-- Node11&#45;&gt;Node13 -->
<g id="edge13_Node000011_Node000013" class="edge">
<title>Node11&#45;&gt;Node13</title>
<g id="a_edge13_Node000011_Node000013"><a xlink:title=" ">
<path fill="none" stroke="#63b8ff" d="M594.87,-54.99C568.78,-45.14 534.22,-32.1 509.27,-22.68"/>
<polygon fill="#63b8ff" stroke="#63b8ff" points="510.48,-19.4 499.89,-19.14 508.01,-25.94 510.48,-19.4"/>
</a>
</g>
</g>
<!-- Node14 -->
<g id="Node000014" class="node">
<title>Node14</title>
<g id="a_Node000014"><a xlink:title=" ">
<polygon fill="#e0e0e0" stroke="#999999" points="575,-19 519,-19 519,0 575,0 575,-19"/>
<text text-anchor="middle" x="547" y="-7" font-family="Helvetica,sans-Serif" font-size="10.00">netcdf.h</text>
</a>
</g>
</g>
<!-- Node11&#45;&gt;Node14 -->
<g id="edge14_Node000011_Node000014" class="edge">
<title>Node11&#45;&gt;Node14</title>
<g id="a_edge14_Node000011_Node000014"><a xlink:title=" ">
<path fill="none" stroke="#63b8ff" d="M611.42,-54.84C598.33,-45.83 581.41,-34.18 568.2,-25.09"/>
<polygon fill="#63b8ff" stroke="#63b8ff" points="569.96,-22.05 559.74,-19.27 565.99,-27.82 569.96,-22.05"/>
</a>
</g>
</g>
<!-- Node15 -->
<g id="Node000015" class="node">
<title>Node15</title>
<g id="a_Node000015"><a xlink:title=" ">
<polygon fill="#e0e0e0" stroke="#999999" points="670.5,-19 593.5,-19 593.5,0 670.5,0 670.5,-19"/>
<text text-anchor="middle" x="632" y="-7" font-family="Helvetica,sans-Serif" font-size="10.00">netcdf_par.h</text>
</a>
</g>
</g>
<!-- Node11&#45;&gt;Node15 -->
<g id="edge15_Node000011_Node000015" class="edge">
<title>Node11&#45;&gt;Node15</title>
<g id="a_edge15_Node000011_Node000015"><a xlink:title=" ">
<path fill="none" stroke="#63b8ff" d="M632,-54.84C632,-47.21 632,-37.7 632,-29.45"/>
<polygon fill="#63b8ff" stroke="#63b8ff" points="635.5,-29.27 632,-19.27 628.5,-29.27 635.5,-29.27"/>
</a>
</g>
</g>
<!-- Node11&#45;&gt;Node16 -->
<g id="edge16_Node000011_Node000016" class="edge">
<title>Node11&#45;&gt;Node16</title>
<g id="a_edge16_Node000011_Node000016"><a xlink:title=" ">
<path fill="none" stroke="#63b8ff" d="M671.52,-54.99C699.42,-45.1 736.41,-31.98 763,-22.56"/>
<polygon fill="#63b8ff" stroke="#63b8ff" points="764.38,-25.78 772.63,-19.14 762.04,-19.18 764.38,-25.78"/>
</a>
</g>
</g>
<!-- Node17&#45;&gt;Node16 -->
<g id="edge18_Node000017_Node000016" class="edge">
<title>Node17&#45;&gt;Node16</title>
<g id="a_edge18_Node000017_Node000016"><a xlink:title=" ">
<path fill="none" stroke="#63b8ff" d="M877.13,-60.37C862,-50.95 837.54,-35.73 819.62,-24.58"/>
<polygon fill="#63b8ff" stroke="#63b8ff" points="821.27,-21.48 810.93,-19.17 817.57,-27.42 821.27,-21.48"/>
</a>
</g>
</g>
<!-- Node18 -->
<g id="Node000018" class="node">
<title>Node18</title>
<g id="a_Node000018"><a xlink:title=" ">
<polygon fill="#e0e0e0" stroke="#999999" points="1105,-19 1013,-19 1013,0 1105,0 1105,-19"/>
<text text-anchor="middle" x="1059" y="-7" font-family="Helvetica,sans-Serif" font-size="10.00">AMReX_Math.H</text>
</a>
</g>
</g>
<!-- Node17&#45;&gt;Node18 -->
<g id="edge19_Node000017_Node000018" class="edge">
<title>Node17&#45;&gt;Node18</title>
<g id="a_edge19_Node000017_Node000018"><a xlink:title=" ">
<path fill="none" stroke="#63b8ff" d="M915.43,-60.49C944.29,-50.44 992.5,-33.66 1025,-22.34"/>
<polygon fill="#63b8ff" stroke="#63b8ff" points="1026.25,-25.61 1034.54,-19.02 1023.95,-19 1026.25,-25.61"/>
</a>
</g>
</g>
<!-- Node19 -->
<g id="Node000019" class="node">
<title>Node19</title>
<g id="a_Node000019"><a xlink:title=" ">
<polygon fill="#e0e0e0" stroke="#999999" points="995,-19 861,-19 861,0 995,0 995,-19"/>
<text text-anchor="middle" x="928" y="-7" font-family="Helvetica,sans-Serif" font-size="10.00">AMReX_GpuQualifiers.H</text>
</a>
</g>
</g>
<!-- Node17&#45;&gt;Node19 -->
<g id="edge20_Node000017_Node000019" class="edge">
<title>Node17&#45;&gt;Node19</title>
<g id="a_edge20_Node000017_Node000019"><a xlink:title=" ">
<path fill="none" stroke="#63b8ff" d="M896.46,-60.37C901.87,-51.81 910.31,-38.47 917.1,-27.74"/>
<polygon fill="#63b8ff" stroke="#63b8ff" points="920.13,-29.49 922.52,-19.17 914.21,-25.75 920.13,-29.49"/>
</a>
</g>
</g>
<!-- Node21 -->
<g id="Node000021" class="node">
<title>Node21</title>
<g id="a_Node000021"><a xlink:href="vector_8_h.html" target="_top" xlink:title=" ">
<polygon fill="white" stroke="#666666" points="1455.5,-145.5 1342.5,-145.5 1342.5,-126.5 1455.5,-126.5 1455.5,-145.5"/>
<text text-anchor="middle" x="1399" y="-133.5" font-family="Helvetica,sans-Serif" font-size="10.00">src/core/vs/vector.H</text>
</a>
</g>
</g>
<!-- Node20&#45;&gt;Node21 -->
<g id="edge23_Node000020_Node000021" class="edge">
<title>Node20&#45;&gt;Node21</title>
<g id="a_edge23_Node000020_Node000021"><a xlink:title=" ">
<path fill="none" stroke="#63b8ff" d="M1286.26,-241.88C1299.64,-232.25 1317.36,-218.95 1332,-206 1351.03,-189.17 1371.1,-167.97 1384.26,-153.54"/>
<polygon fill="#63b8ff" stroke="#63b8ff" points="1387.04,-155.68 1391.15,-145.92 1381.85,-150.99 1387.04,-155.68"/>
</a>
</g>
</g>
<!-- Node28 -->
<g id="Node000028" class="node">
<title>Node28</title>
<g id="a_Node000028"><a xlink:href="tensor_8_h.html" target="_top" xlink:title=" ">
<polygon fill="white" stroke="#666666" points="1322.5,-206 1209.5,-206 1209.5,-187 1322.5,-187 1322.5,-206"/>
<text text-anchor="middle" x="1266" y="-194" font-family="Helvetica,sans-Serif" font-size="10.00">src/core/vs/tensor.H</text>
</a>
</g>
</g>
<!-- Node20&#45;&gt;Node28 -->
<g id="edge31_Node000020_Node000028" class="edge">
<title>Node20&#45;&gt;Node28</title>
<g id="a_edge31_Node000020_Node000028"><a xlink:title=" ">
<path fill="none" stroke="#63b8ff" d="M1266,-241.84C1266,-234.21 1266,-224.7 1266,-216.45"/>
<polygon fill="#63b8ff" stroke="#63b8ff" points="1269.5,-216.27 1266,-206.27 1262.5,-216.27 1269.5,-216.27"/>
</a>
</g>
</g>
<!-- Node22 -->
<g id="Node000022" class="node">
<title>Node22</title>
<g id="a_Node000022"><a xlink:title=" ">
<polygon fill="#e0e0e0" stroke="#999999" points="1210.5,-19 1123.5,-19 1123.5,0 1210.5,0 1210.5,-19"/>
<text text-anchor="middle" x="1167" y="-7" font-family="Helvetica,sans-Serif" font-size="10.00">AMReX_Gpu.H</text>
</a>
</g>
</g>
<!-- Node21&#45;&gt;Node22 -->
<g id="edge24_Node000021_Node000022" class="edge">
<title>Node21&#45;&gt;Node22</title>
<g id="a_edge24_Node000021_Node000022"><a xlink:title=" ">
<path fill="none" stroke="#63b8ff" d="M1360.15,-126.41C1299.57,-112.95 1189.14,-88.08 1186,-85 1171.29,-70.57 1167.41,-46.45 1166.65,-29.58"/>
<polygon fill="#63b8ff" stroke="#63b8ff" points="1170.15,-29.22 1166.53,-19.26 1163.15,-29.3 1170.15,-29.22"/>
</a>
</g>
</g>
<!-- Node23 -->
<g id="Node000023" class="node">
<title>Node23</title>
<g id="a_Node000023"><a xlink:href="vstraits_8_h.html" target="_top" xlink:title=" ">
<polygon fill="white" stroke="#666666" points="1594.5,-79.5 1475.5,-79.5 1475.5,-60.5 1594.5,-60.5 1594.5,-79.5"/>
<text text-anchor="middle" x="1535" y="-67.5" font-family="Helvetica,sans-Serif" font-size="10.00">src/core/vs/vstraits.H</text>
</a>
</g>
</g>
<!-- Node21&#45;&gt;Node23 -->
<g id="edge25_Node000021_Node000023" class="edge">
<title>Node21&#45;&gt;Node23</title>
<g id="a_edge25_Node000021_Node000023"><a xlink:title=" ">
<path fill="none" stroke="#63b8ff" d="M1417.34,-126.37C1440.46,-115.49 1480.41,-96.69 1507.27,-84.05"/>
<polygon fill="#63b8ff" stroke="#63b8ff" points="1508.96,-87.12 1516.51,-79.7 1505.98,-80.79 1508.96,-87.12"/>
</a>
</g>
</g>
<!-- Node25 -->
<g id="Node000025" class="node">
<title>Node25</title>
<g id="a_Node000025"><a xlink:href="vector_i_8_h.html" target="_top" xlink:title=" ">
<polygon fill="white" stroke="#666666" points="1457,-79.5 1341,-79.5 1341,-60.5 1457,-60.5 1457,-79.5"/>
<text text-anchor="middle" x="1399" y="-67.5" font-family="Helvetica,sans-Serif" font-size="10.00">src/core/vs/vectorI.H</text>
</a>
</g>
</g>
<!-- Node21&#45;&gt;Node25 -->
<g id="edge27_Node000021_Node000025" class="edge">
<title>Node21&#45;&gt;Node25</title>
<g id="a_edge27_Node000021_Node000025"><a xlink:title=" ">
<path fill="none" stroke="#63b8ff" d="M1394.21,-126.37C1392.22,-117.07 1391.75,-101.98 1392.78,-89.9"/>
<polygon fill="#63b8ff" stroke="#63b8ff" points="1396.26,-90.29 1394.15,-79.91 1389.32,-89.34 1396.26,-90.29"/>
</a>
</g>
</g>
<!-- Node24 -->
<g id="Node000024" class="node">
<title>Node24</title>
<g id="a_Node000024"><a xlink:title=" ">
<polygon fill="#e0e0e0" stroke="#999999" points="1557,-19 1513,-19 1513,0 1557,0 1557,-19"/>
<text text-anchor="middle" x="1535" y="-7" font-family="Helvetica,sans-Serif" font-size="10.00">limits</text>
</a>
</g>
</g>
<!-- Node23&#45;&gt;Node24 -->
<g id="edge26_Node000023_Node000024" class="edge">
<title>Node23&#45;&gt;Node24</title>
<g id="a_edge26_Node000023_Node000024"><a xlink:title=" ">
<path fill="none" stroke="#63b8ff" d="M1535,-60.37C1535,-52.25 1535,-39.81 1535,-29.39"/>
<polygon fill="#63b8ff" stroke="#63b8ff" points="1538.5,-29.17 1535,-19.17 1531.5,-29.17 1538.5,-29.17"/>
</a>
</g>
</g>
<!-- Node25&#45;&gt;Node21 -->
<g id="edge30_Node000025_Node000021" class="edge">
<title>Node25&#45;&gt;Node21</title>
<g id="a_edge30_Node000025_Node000021"><a xlink:title=" ">
<path fill="none" stroke="#63b8ff" d="M1403.85,-79.91C1405.8,-89.32 1406.25,-104.43 1405.19,-116.45"/>
<polygon fill="#63b8ff" stroke="#63b8ff" points="1401.72,-115.98 1403.79,-126.37 1408.65,-116.96 1401.72,-115.98"/>
</a>
</g>
</g>
<!-- Node26 -->
<g id="Node000026" class="node">
<title>Node26</title>
<g id="a_Node000026"><a xlink:title=" ">
<polygon fill="#e0e0e0" stroke="#999999" points="1427.5,-19 1370.5,-19 1370.5,0 1427.5,0 1427.5,-19"/>
<text text-anchor="middle" x="1399" y="-7" font-family="Helvetica,sans-Serif" font-size="10.00">ostream</text>
</a>
</g>
</g>
<!-- Node25&#45;&gt;Node26 -->
<g id="edge28_Node000025_Node000026" class="edge">
<title>Node25&#45;&gt;Node26</title>
<g id="a_edge28_Node000025_Node000026"><a xlink:title=" ">
<path fill="none" stroke="#63b8ff" d="M1399,-60.37C1399,-52.25 1399,-39.81 1399,-29.39"/>
<polygon fill="#63b8ff" stroke="#63b8ff" points="1402.5,-29.17 1399,-19.17 1395.5,-29.17 1402.5,-29.17"/>
</a>
</g>
</g>
<!-- Node27 -->
<g id="Node000027" class="node">
<title>Node27</title>
<g id="a_Node000027"><a xlink:title=" ">
<polygon fill="#e0e0e0" stroke="#999999" points="1352.5,-19 1305.5,-19 1305.5,0 1352.5,0 1352.5,-19"/>
<text text-anchor="middle" x="1329" y="-7" font-family="Helvetica,sans-Serif" font-size="10.00">cmath</text>
</a>
</g>
</g>
<!-- Node25&#45;&gt;Node27 -->
<g id="edge29_Node000025_Node000027" class="edge">
<title>Node25&#45;&gt;Node27</title>
<g id="a_edge29_Node000025_Node000027"><a xlink:title=" ">
<path fill="none" stroke="#63b8ff" d="M1388.67,-60.37C1377.81,-51.3 1360.51,-36.84 1347.33,-25.82"/>
<polygon fill="#63b8ff" stroke="#63b8ff" points="1349.29,-22.89 1339.37,-19.17 1344.8,-28.27 1349.29,-22.89"/>
</a>
</g>
</g>
<!-- Node28&#45;&gt;Node21 -->
<g id="edge34_Node000028_Node000021" class="edge">
<title>Node28&#45;&gt;Node21</title>
<g id="a_edge34_Node000028_Node000021"><a xlink:title=" ">
<path fill="none" stroke="#63b8ff" d="M1285.34,-186.99C1307.7,-177.16 1344.71,-160.88 1370.4,-149.58"/>
<polygon fill="#63b8ff" stroke="#63b8ff" points="1371.89,-152.75 1379.64,-145.52 1369.07,-146.34 1371.89,-152.75"/>
</a>
</g>
</g>
<!-- Node28&#45;&gt;Node22 -->
<g id="edge32_Node000028_Node000022" class="edge">
<title>Node28&#45;&gt;Node22</title>
<g id="a_edge32_Node000028_Node000022"><a xlink:title=" ">
<path fill="none" stroke="#63b8ff" d="M1247.84,-186.89C1233.14,-179.17 1212.69,-166.67 1199,-151 1177.55,-126.45 1174.3,-116.77 1167,-85 1162.76,-66.52 1163.37,-44.77 1164.68,-29.56"/>
<polygon fill="#63b8ff" stroke="#63b8ff" points="1168.18,-29.67 1165.74,-19.36 1161.22,-28.94 1168.18,-29.67"/>
</a>
</g>
</g>
<!-- Node28&#45;&gt;Node23 -->
<g id="edge33_Node000028_Node000023" class="edge">
<title>Node28&#45;&gt;Node23</title>
<g id="a_edge33_Node000028_Node000023"><a xlink:title=" ">
<path fill="none" stroke="#63b8ff" d="M1322.65,-192.25C1364.48,-187.71 1421.47,-176.85 1465,-151 1491.21,-135.43 1512.75,-106.64 1524.72,-88.18"/>
<polygon fill="#63b8ff" stroke="#63b8ff" points="1527.76,-89.92 1530.09,-79.59 1521.82,-86.21 1527.76,-89.92"/>
</a>
</g>
</g>
<!-- Node29 -->
<g id="Node000029" class="node">
<title>Node29</title>
<g id="a_Node000029"><a xlink:href="tensor_i_8_h.html" target="_top" xlink:title=" ">
<polygon fill="white" stroke="#666666" points="1324,-145.5 1208,-145.5 1208,-126.5 1324,-126.5 1324,-145.5"/>
<text text-anchor="middle" x="1266" y="-133.5" font-family="Helvetica,sans-Serif" font-size="10.00">src/core/vs/tensorI.H</text>
</a>
</g>
</g>
<!-- Node28&#45;&gt;Node29 -->
<g id="edge35_Node000028_Node000029" class="edge">
<title>Node28&#45;&gt;Node29</title>
<g id="a_edge35_Node000028_Node000029"><a xlink:title=" ">
<path fill="none" stroke="#63b8ff" d="M1261.04,-186.87C1259.29,-178.75 1258.82,-166.31 1259.64,-155.89"/>
<polygon fill="#63b8ff" stroke="#63b8ff" points="1263.15,-156.05 1261.04,-145.67 1256.22,-155.1 1263.15,-156.05"/>
</a>
</g>
</g>
<!-- Node29&#45;&gt;Node27 -->
<g id="edge36_Node000029_Node000027" class="edge">
<title>Node29&#45;&gt;Node27</title>
<g id="a_edge36_Node000029_Node000027"><a xlink:title=" ">
<path fill="none" stroke="#63b8ff" d="M1271.15,-126.25C1276.92,-116.35 1286.45,-99.69 1294,-85 1303.77,-66 1314.06,-43.78 1320.94,-28.59"/>
<polygon fill="#63b8ff" stroke="#63b8ff" points="1324.2,-29.87 1325.1,-19.31 1317.81,-27 1324.2,-29.87"/>
</a>
</g>
</g>
<!-- Node29&#45;&gt;Node28 -->
<g id="edge37_Node000029_Node000028" class="edge">
<title>Node29&#45;&gt;Node28</title>
<g id="a_edge37_Node000029_Node000028"><a xlink:title=" ">
<path fill="none" stroke="#63b8ff" d="M1270.96,-145.67C1272.71,-153.8 1273.18,-166.24 1272.35,-176.66"/>
<polygon fill="#63b8ff" stroke="#63b8ff" points="1268.85,-176.49 1270.96,-186.87 1275.78,-177.44 1268.85,-176.49"/>
</a>
</g>
</g>
<!-- Node30 -->
<g id="Node000030" class="node">
<title>Node30</title>
<g id="a_Node000030"><a xlink:href="trig__ops_8_h.html" target="_top" xlink:title=" ">
<polygon fill="white" stroke="#666666" points="1285,-85 1195,-85 1195,-55 1285,-55 1285,-85"/>
<text text-anchor="start" x="1203" y="-73" font-family="Helvetica,sans-Serif" font-size="10.00">src/utilities/trig</text>
<text text-anchor="middle" x="1240" y="-62" font-family="Helvetica,sans-Serif" font-size="10.00">_ops.H</text>
</a>
</g>
</g>
<!-- Node29&#45;&gt;Node30 -->
<g id="edge38_Node000029_Node000030" class="edge">
<title>Node29&#45;&gt;Node30</title>
<g id="a_edge38_Node000029_Node000030"><a xlink:title=" ">
<path fill="none" stroke="#63b8ff" d="M1262.49,-126.37C1259.22,-118.32 1254.2,-105.94 1249.72,-94.93"/>
<polygon fill="#63b8ff" stroke="#63b8ff" points="1252.84,-93.31 1245.83,-85.36 1246.36,-95.94 1252.84,-93.31"/>
</a>
</g>
</g>
<!-- Node30&#45;&gt;Node16 -->
<g id="edge41_Node000030_Node000016" class="edge">
<title>Node30&#45;&gt;Node16</title>
<g id="a_edge41_Node000030_Node000016"><a xlink:title=" ">
<path fill="none" stroke="#63b8ff" d="M1194.85,-63.56C1124.28,-54.96 983.3,-37.47 853.33,-19.16"/>
<polygon fill="#63b8ff" stroke="#63b8ff" points="853.59,-15.66 843.2,-17.73 852.61,-22.59 853.59,-15.66"/>
</a>
</g>
</g>
<!-- Node30&#45;&gt;Node22 -->
<g id="edge42_Node000030_Node000022" class="edge">
<title>Node30&#45;&gt;Node22</title>
<g id="a_edge42_Node000030_Node000022"><a xlink:title=" ">
<path fill="none" stroke="#63b8ff" d="M1222.33,-54.84C1211.3,-46 1197.11,-34.63 1185.87,-25.62"/>
<polygon fill="#63b8ff" stroke="#63b8ff" points="1187.93,-22.79 1177.94,-19.27 1183.55,-28.25 1187.93,-22.79"/>
</a>
</g>
</g>
<!-- Node30&#45;&gt;Node27 -->
<g id="edge39_Node000030_Node000027" class="edge">
<title>Node30&#45;&gt;Node27</title>
<g id="a_edge39_Node000030_Node000027"><a xlink:title=" ">
<path fill="none" stroke="#63b8ff" d="M1261.54,-54.84C1275.47,-45.68 1293.53,-33.82 1307.45,-24.66"/>
<polygon fill="#63b8ff" stroke="#63b8ff" points="1309.49,-27.51 1315.92,-19.09 1305.65,-21.66 1309.49,-27.51"/>
</a>
</g>
</g>
<!-- Node31 -->
<g id="Node000031" class="node">
<title>Node31</title>
<g id="a_Node000031"><a xlink:title=" ">
<polygon fill="#e0e0e0" stroke="#999999" points="1287.5,-19 1228.5,-19 1228.5,0 1287.5,0 1287.5,-19"/>
<text text-anchor="middle" x="1258" y="-7" font-family="Helvetica,sans-Serif" font-size="10.00">numbers</text>
</a>
</g>
</g>
<!-- Node30&#45;&gt;Node31 -->
<g id="edge40_Node000030_Node000031" class="edge">
<title>Node30&#45;&gt;Node31</title>
<g id="a_edge40_Node000030_Node000031"><a xlink:title=" ">
<path fill="none" stroke="#63b8ff" d="M1244.36,-54.84C1246.76,-47.04 1249.76,-37.27 1252.34,-28.89"/>
<polygon fill="#63b8ff" stroke="#63b8ff" points="1255.71,-29.85 1255.3,-19.27 1249.02,-27.79 1255.71,-29.85"/>
</a>
</g>
</g>
</g>
</svg>
