<?xml version="1.0" encoding="UTF-8" standalone="no"?>
<!DOCTYPE svg PUBLIC "-//W3C//DTD SVG 1.1//EN"
 "http://www.w3.org/Graphics/SVG/1.1/DTD/svg11.dtd">
<!-- Generated by graphviz version 2.43.0 (0)
 -->
<!-- Title: /home/runner/work/amr&#45;wind/amr&#45;wind/src/utilities/PostProcessing.H Pages: 1 -->
<!--zoomable 280 -->

<svg id="main" version="1.1" xmlns="http://www.w3.org/2000/svg" xmlns:xlink="http://www.w3.org/1999/xlink" xml:space="preserve" onload="init(evt)">

<style type="text/css"><![CDATA[
.node, .edge {opacity: 0.7;}
.node.selected, .edge.selected {opacity: 1;}
.edge:hover path { stroke: red; }
.edge:hover polygon { stroke: red; fill: red; }
]]></style>

<defs>
  <circle id="rim" cx="0" cy="0" r="7"/>
  <circle id="rim2" cx="0" cy="0" r="3.5"/>
  <g id="zoomPlus">
    <use xlink:href="#rim" fill="#404040"><set attributeName="fill" to="#808080" begin="zoomplus.mouseover" end="zoomplus.mouseout"/></use>
    <path d="M-4,0h8M0,-4v8" fill="none" stroke="white" stroke-width="1.5" pointer-events="none"/>
  </g>
  <g id="zoomMin">
    <use xlink:href="#rim" fill="#404040"><set attributeName="fill" to="#808080" begin="zoomminus.mouseover" end="zoomminus.mouseout"/></use>
    <path d="M-4,0h8" fill="none" stroke="white" stroke-width="1.5" pointer-events="none"/>
  </g>
  <g id="arrowUp" transform="translate(30 24)">
    <use xlink:href="#rim"/>
    <path pointer-events="none" fill="none" stroke="white" stroke-width="1.5" d="M0,-3.0v7 M-2.5,-0.5L0,-3.0L2.5,-0.5"/>
  </g>
  <g id="arrowRight" transform="rotate(90) translate(36 -43)">
    <use xlink:href="#rim"/>
    <path pointer-events="none" fill="none" stroke="white" stroke-width="1.5" d="M0,-3.0v7 M-2.5,-0.5L0,-3.0L2.5,-0.5"/>
  </g>
  <g id="arrowDown" transform="rotate(180) translate(-30 -48)">
    <use xlink:href="#rim"/>
    <path pointer-events="none" fill="none" stroke="white" stroke-width="1.5" d="M0,-3.0v7 M-2.5,-0.5L0,-3.0L2.5,-0.5"/>
  </g>
  <g id="arrowLeft" transform="rotate(270) translate(-36 17)">
    <use xlink:href="#rim"/>
    <path pointer-events="none" fill="none" stroke="white" stroke-width="1.5" d="M0,-3.0v7 M-2.5,-0.5L0,-3.0L2.5,-0.5"/>
  </g>
  <g id="resetDef">
    <use xlink:href="#rim2" fill="#404040"><set attributeName="fill" to="#808080" begin="reset.mouseover" end="reset.mouseout"/></use>
  </g>
</defs>
<script type="application/ecmascript">
var viewWidth = 2067;
var viewHeight = 280;
var sectionId = 'dynsection-1';
</script>
<script type="application/ecmascript" xlink:href="svg.min.js"/>
<svg id="graph" class="graph">
<g id="viewport">
<title>/home/runner/work/amr&#45;wind/amr&#45;wind/src/utilities/PostProcessing.H</title>
<!-- Node1 -->
<g id="Node000001" class="node">
<title>Node1</title>
<g id="a_Node000001"><a xlink:title=" ">
<polygon fill="#999999" stroke="#666666" points="1057.5,-272 907.5,-272 907.5,-231 1057.5,-231 1057.5,-272"/>
<text text-anchor="start" x="915.5" y="-260" font-family="Helvetica,sans-Serif" font-size="10.00">/home/runner/work/amr</text>
<text text-anchor="start" x="915.5" y="-249" font-family="Helvetica,sans-Serif" font-size="10.00">&#45;wind/amr&#45;wind/src/utilities</text>
<text text-anchor="middle" x="982.5" y="-238" font-family="Helvetica,sans-Serif" font-size="10.00">/PostProcessing.H</text>
</a>
</g>
</g>
<!-- Node2 -->
<g id="Node000002" class="node">
<title>Node2</title>
<g id="a_Node000002"><a xlink:href="_c_f_d_sim_8cpp.html" target="_top" xlink:title=" ">
<polygon fill="white" stroke="#666666" points="173,-189.5 0,-189.5 0,-159.5 173,-159.5 173,-189.5"/>
<text text-anchor="start" x="8" y="-177.5" font-family="Helvetica,sans-Serif" font-size="10.00">/home/runner/work/amr</text>
<text text-anchor="middle" x="86.5" y="-166.5" font-family="Helvetica,sans-Serif" font-size="10.00">&#45;wind/amr&#45;wind/src/CFDSim.cpp</text>
</a>
</g>
</g>
<!-- Node1&#45;&gt;Node2 -->
<g id="edge1_Node000001_Node000002" class="edge">
<title>Node1&#45;&gt;Node2</title>
<g id="a_edge1_Node000001_Node000002"><a xlink:title=" ">
<path fill="none" stroke="#63b8ff" d="M897.17,-248.25C750.49,-243.57 441.34,-230.11 182.5,-195 171.8,-193.55 160.5,-191.62 149.56,-189.53"/>
<polygon fill="#63b8ff" stroke="#63b8ff" points="897.34,-251.76 907.44,-248.57 897.56,-244.76 897.34,-251.76"/>
</a>
</g>
</g>
<!-- Node3 -->
<g id="Node000003" class="node">
<title>Node3</title>
<g id="a_Node000003"><a xlink:href="incflo_8cpp.html" target="_top" xlink:title=" ">
<polygon fill="white" stroke="#666666" points="351.5,-189.5 191.5,-189.5 191.5,-159.5 351.5,-159.5 351.5,-189.5"/>
<text text-anchor="start" x="199.5" y="-177.5" font-family="Helvetica,sans-Serif" font-size="10.00">/home/runner/work/amr</text>
<text text-anchor="middle" x="271.5" y="-166.5" font-family="Helvetica,sans-Serif" font-size="10.00">&#45;wind/amr&#45;wind/src/incflo.cpp</text>
</a>
</g>
</g>
<!-- Node1&#45;&gt;Node3 -->
<g id="edge2_Node000001_Node000003" class="edge">
<title>Node1&#45;&gt;Node3</title>
<g id="a_edge2_Node000001_Node000003"><a xlink:title=" ">
<path fill="none" stroke="#63b8ff" d="M897.21,-246.32C776.98,-239.65 551.05,-224.26 360.5,-195 350.81,-193.51 340.59,-191.6 330.67,-189.56"/>
<polygon fill="#63b8ff" stroke="#63b8ff" points="897.27,-249.83 907.45,-246.88 897.66,-242.84 897.27,-249.83"/>
</a>
</g>
</g>
<!-- Node4 -->
<g id="Node000004" class="node">
<title>Node4</title>
<g id="a_Node000004"><a xlink:href="incflo__advance_8cpp.html" target="_top" xlink:title=" ">
<polygon fill="white" stroke="#666666" points="509.5,-195 369.5,-195 369.5,-154 509.5,-154 509.5,-195"/>
<text text-anchor="start" x="377.5" y="-183" font-family="Helvetica,sans-Serif" font-size="10.00">/home/runner/work/amr</text>
<text text-anchor="start" x="377.5" y="-172" font-family="Helvetica,sans-Serif" font-size="10.00">&#45;wind/amr&#45;wind/src/incflo</text>
<text text-anchor="middle" x="439.5" y="-161" font-family="Helvetica,sans-Serif" font-size="10.00">_advance.cpp</text>
</a>
</g>
</g>
<!-- Node1&#45;&gt;Node4 -->
<g id="edge3_Node000001_Node000004" class="edge">
<title>Node1&#45;&gt;Node4</title>
<g id="a_edge3_Node000001_Node000004"><a xlink:title=" ">
<path fill="none" stroke="#63b8ff" d="M897.37,-243.48C803.95,-235.05 649.79,-218.96 518.5,-195 515.58,-194.47 512.61,-193.89 509.61,-193.28"/>
<polygon fill="#63b8ff" stroke="#63b8ff" points="897.07,-246.97 907.34,-244.37 897.69,-240 897.07,-246.97"/>
</a>
</g>
</g>
<!-- Node5 -->
<g id="Node000005" class="node">
<title>Node5</title>
<g id="a_Node000005"><a xlink:href="_post_processing_8cpp.html" target="_top" xlink:title=" ">
<polygon fill="white" stroke="#666666" points="507.5,-118 357.5,-118 357.5,-77 507.5,-77 507.5,-118"/>
<text text-anchor="start" x="365.5" y="-106" font-family="Helvetica,sans-Serif" font-size="10.00">/home/runner/work/amr</text>
<text text-anchor="start" x="365.5" y="-95" font-family="Helvetica,sans-Serif" font-size="10.00">&#45;wind/amr&#45;wind/src/utilities</text>
<text text-anchor="middle" x="432.5" y="-84" font-family="Helvetica,sans-Serif" font-size="10.00">/PostProcessing.cpp</text>
</a>
</g>
</g>
<!-- Node1&#45;&gt;Node5 -->
<g id="edge4_Node000001_Node000005" class="edge">
<title>Node1&#45;&gt;Node5</title>
<g id="a_edge4_Node000001_Node000005"><a xlink:title=" ">
<path fill="none" stroke="#63b8ff" d="M897.37,-245.21C844.72,-238.89 777.33,-225.08 724.5,-195 702.91,-182.71 708.11,-166.26 686.5,-154 619.33,-115.89 591.9,-134.73 516.5,-118 513.58,-117.35 510.6,-116.68 507.59,-116.01"/>
<polygon fill="#63b8ff" stroke="#63b8ff" points="897.03,-248.7 907.36,-246.35 897.81,-241.74 897.03,-248.7"/>
</a>
</g>
</g>
<!-- Node6 -->
<g id="Node000006" class="node">
<title>Node6</title>
<g id="a_Node000006"><a xlink:href="ascent_8_h.html" target="_top" xlink:title=" ">
<polygon fill="white" stroke="#666666" points="677.5,-195 527.5,-195 527.5,-154 677.5,-154 677.5,-195"/>
<text text-anchor="start" x="535.5" y="-183" font-family="Helvetica,sans-Serif" font-size="10.00">/home/runner/work/amr</text>
<text text-anchor="start" x="535.5" y="-172" font-family="Helvetica,sans-Serif" font-size="10.00">&#45;wind/amr&#45;wind/src/utilities</text>
<text text-anchor="middle" x="602.5" y="-161" font-family="Helvetica,sans-Serif" font-size="10.00">/ascent/ascent.H</text>
</a>
</g>
</g>
<!-- Node1&#45;&gt;Node6 -->
<g id="edge5_Node000001_Node000006" class="edge">
<title>Node1&#45;&gt;Node6</title>
<g id="a_edge5_Node000001_Node000006"><a xlink:title=" ">
<path fill="none" stroke="#63b8ff" d="M897.46,-234.91C839.37,-224.11 760.68,-209.17 691.5,-195 687.01,-194.08 682.39,-193.12 677.73,-192.13"/>
<polygon fill="#63b8ff" stroke="#63b8ff" points="896.85,-238.36 907.33,-236.74 898.13,-231.48 896.85,-238.36"/>
</a>
</g>
</g>
<!-- Node8 -->
<g id="Node000008" class="node">
<title>Node8</title>
<g id="a_Node000008"><a xlink:href="_time_averaging_8_h.html" target="_top" xlink:title=" ">
<polygon fill="white" stroke="#666666" points="889,-195 734,-195 734,-154 889,-154 889,-195"/>
<text text-anchor="start" x="742" y="-183" font-family="Helvetica,sans-Serif" font-size="10.00">/home/runner/work/amr</text>
<text text-anchor="start" x="742" y="-172" font-family="Helvetica,sans-Serif" font-size="10.00">&#45;wind/amr&#45;wind/src/utilities</text>
<text text-anchor="middle" x="811.5" y="-161" font-family="Helvetica,sans-Serif" font-size="10.00">/averaging/TimeAveraging.H</text>
</a>
</g>
</g>
<!-- Node1&#45;&gt;Node8 -->
<g id="edge7_Node000001_Node000008" class="edge">
<title>Node1&#45;&gt;Node8</title>
<g id="a_edge7_Node000001_Node000008"><a xlink:title=" ">
<path fill="none" stroke="#63b8ff" d="M928.6,-226.86C905.25,-216.62 878.25,-204.77 856.06,-195.04"/>
<polygon fill="#63b8ff" stroke="#63b8ff" points="927.45,-230.18 938.02,-230.99 930.27,-223.77 927.45,-230.18"/>
</a>
</g>
</g>
<!-- Node14 -->
<g id="Node000014" class="node">
<title>Node14</title>
<g id="a_Node000014"><a xlink:href="_enstrophy_8_h.html" target="_top" xlink:title=" ">
<polygon fill="white" stroke="#666666" points="1057.5,-195 907.5,-195 907.5,-154 1057.5,-154 1057.5,-195"/>
<text text-anchor="start" x="915.5" y="-183" font-family="Helvetica,sans-Serif" font-size="10.00">/home/runner/work/amr</text>
<text text-anchor="start" x="915.5" y="-172" font-family="Helvetica,sans-Serif" font-size="10.00">&#45;wind/amr&#45;wind/src/utilities</text>
<text text-anchor="middle" x="982.5" y="-161" font-family="Helvetica,sans-Serif" font-size="10.00">/sampling/Enstrophy.H</text>
</a>
</g>
</g>
<!-- Node1&#45;&gt;Node14 -->
<g id="edge15_Node000001_Node000014" class="edge">
<title>Node1&#45;&gt;Node14</title>
<g id="a_edge15_Node000001_Node000014"><a xlink:title=" ">
<path fill="none" stroke="#63b8ff" d="M982.5,-220.69C982.5,-212.08 982.5,-202.9 982.5,-195.07"/>
<polygon fill="#63b8ff" stroke="#63b8ff" points="979,-220.79 982.5,-230.79 986,-220.79 979,-220.79"/>
</a>
</g>
</g>
<!-- Node16 -->
<g id="Node000016" class="node">
<title>Node16</title>
<g id="a_Node000016"><a xlink:href="_field_norms_8_h.html" target="_top" xlink:title=" ">
<polygon fill="white" stroke="#666666" points="1225.5,-195 1075.5,-195 1075.5,-154 1225.5,-154 1225.5,-195"/>
<text text-anchor="start" x="1083.5" y="-183" font-family="Helvetica,sans-Serif" font-size="10.00">/home/runner/work/amr</text>
<text text-anchor="start" x="1083.5" y="-172" font-family="Helvetica,sans-Serif" font-size="10.00">&#45;wind/amr&#45;wind/src/utilities</text>
<text text-anchor="middle" x="1150.5" y="-161" font-family="Helvetica,sans-Serif" font-size="10.00">/sampling/FieldNorms.H</text>
</a>
</g>
</g>
<!-- Node1&#45;&gt;Node16 -->
<g id="edge17_Node000001_Node000016" class="edge">
<title>Node1&#45;&gt;Node16</title>
<g id="a_edge17_Node000001_Node000016"><a xlink:title=" ">
<path fill="none" stroke="#63b8ff" d="M1035.46,-226.86C1058.39,-216.62 1084.93,-204.77 1106.73,-195.04"/>
<polygon fill="#63b8ff" stroke="#63b8ff" points="1033.91,-223.72 1026.2,-230.99 1036.76,-230.11 1033.91,-223.72"/>
</a>
</g>
</g>
<!-- Node18 -->
<g id="Node000018" class="node">
<title>Node18</title>
<g id="a_Node000018"><a xlink:href="_kinetic_energy_8_h.html" target="_top" xlink:title=" ">
<polygon fill="white" stroke="#666666" points="1394.5,-195 1244.5,-195 1244.5,-154 1394.5,-154 1394.5,-195"/>
<text text-anchor="start" x="1252.5" y="-183" font-family="Helvetica,sans-Serif" font-size="10.00">/home/runner/work/amr</text>
<text text-anchor="start" x="1252.5" y="-172" font-family="Helvetica,sans-Serif" font-size="10.00">&#45;wind/amr&#45;wind/src/utilities</text>
<text text-anchor="middle" x="1319.5" y="-161" font-family="Helvetica,sans-Serif" font-size="10.00">/sampling/KineticEnergy.H</text>
</a>
</g>
</g>
<!-- Node1&#45;&gt;Node18 -->
<g id="edge19_Node000001_Node000018" class="edge">
<title>Node1&#45;&gt;Node18</title>
<g id="a_edge19_Node000001_Node000018"><a xlink:title=" ">
<path fill="none" stroke="#63b8ff" d="M1067.42,-231.99C1116.31,-221.29 1178.89,-207.5 1234.5,-195 1237.75,-194.27 1241.07,-193.52 1244.42,-192.76"/>
<polygon fill="#63b8ff" stroke="#63b8ff" points="1066.54,-228.6 1057.52,-234.16 1068.04,-235.44 1066.54,-228.6"/>
</a>
</g>
</g>
<!-- Node20 -->
<g id="Node000020" class="node">
<title>Node20</title>
<g id="a_Node000020"><a xlink:href="_sampling_8_h.html" target="_top" xlink:title=" ">
<polygon fill="white" stroke="#666666" points="1563.5,-195 1413.5,-195 1413.5,-154 1563.5,-154 1563.5,-195"/>
<text text-anchor="start" x="1421.5" y="-183" font-family="Helvetica,sans-Serif" font-size="10.00">/home/runner/work/amr</text>
<text text-anchor="start" x="1421.5" y="-172" font-family="Helvetica,sans-Serif" font-size="10.00">&#45;wind/amr&#45;wind/src/utilities</text>
<text text-anchor="middle" x="1488.5" y="-161" font-family="Helvetica,sans-Serif" font-size="10.00">/sampling/Sampling.H</text>
</a>
</g>
</g>
<!-- Node1&#45;&gt;Node20 -->
<g id="edge21_Node000001_Node000020" class="edge">
<title>Node1&#45;&gt;Node20</title>
<g id="a_edge21_Node000001_Node000020"><a xlink:title=" ">
<path fill="none" stroke="#63b8ff" d="M1067.89,-241.64C1153.21,-232.22 1287.94,-215.82 1403.5,-195 1406.78,-194.41 1410.12,-193.78 1413.49,-193.11"/>
<polygon fill="#63b8ff" stroke="#63b8ff" points="1067.3,-238.18 1057.74,-242.75 1068.06,-245.14 1067.3,-238.18"/>
</a>
</g>
</g>
<!-- Node22 -->
<g id="Node000022" class="node">
<title>Node22</title>
<g id="a_Node000022"><a xlink:href="_wave_energy_8_h.html" target="_top" xlink:title=" ">
<polygon fill="white" stroke="#666666" points="1732.5,-195 1582.5,-195 1582.5,-154 1732.5,-154 1732.5,-195"/>
<text text-anchor="start" x="1590.5" y="-183" font-family="Helvetica,sans-Serif" font-size="10.00">/home/runner/work/amr</text>
<text text-anchor="start" x="1590.5" y="-172" font-family="Helvetica,sans-Serif" font-size="10.00">&#45;wind/amr&#45;wind/src/utilities</text>
<text text-anchor="middle" x="1657.5" y="-161" font-family="Helvetica,sans-Serif" font-size="10.00">/sampling/WaveEnergy.H</text>
</a>
</g>
</g>
<!-- Node1&#45;&gt;Node22 -->
<g id="edge23_Node000001_Node000022" class="edge">
<title>Node1&#45;&gt;Node22</title>
<g id="a_edge23_Node000001_Node000022"><a xlink:title=" ">
<path fill="none" stroke="#63b8ff" d="M1068.04,-246C1183.21,-239.13 1394.28,-223.7 1572.5,-195 1575.64,-194.49 1578.84,-193.94 1582.06,-193.35"/>
<polygon fill="#63b8ff" stroke="#63b8ff" points="1067.65,-242.51 1057.88,-246.6 1068.06,-249.5 1067.65,-242.51"/>
</a>
</g>
</g>
<!-- Node24 -->
<g id="Node000024" class="node">
<title>Node24</title>
<g id="a_Node000024"><a xlink:href="_subvolume_8_h.html" target="_top" xlink:title=" ">
<polygon fill="white" stroke="#666666" points="1901.5,-195 1751.5,-195 1751.5,-154 1901.5,-154 1901.5,-195"/>
<text text-anchor="start" x="1759.5" y="-183" font-family="Helvetica,sans-Serif" font-size="10.00">/home/runner/work/amr</text>
<text text-anchor="start" x="1759.5" y="-172" font-family="Helvetica,sans-Serif" font-size="10.00">&#45;wind/amr&#45;wind/src/utilities</text>
<text text-anchor="middle" x="1826.5" y="-161" font-family="Helvetica,sans-Serif" font-size="10.00">/subvolume/Subvolume.H</text>
</a>
</g>
</g>
<!-- Node1&#45;&gt;Node24 -->
<g id="edge25_Node000001_Node000024" class="edge">
<title>Node1&#45;&gt;Node24</title>
<g id="a_edge25_Node000001_Node000024"><a xlink:title=" ">
<path fill="none" stroke="#63b8ff" d="M1067.82,-248.5C1208.78,-244.24 1498.84,-231.49 1741.5,-195 1744.64,-194.53 1747.84,-194 1751.07,-193.43"/>
<polygon fill="#63b8ff" stroke="#63b8ff" points="1067.42,-245.01 1057.52,-248.8 1067.62,-252.01 1067.42,-245.01"/>
</a>
</g>
</g>
<!-- Node26 -->
<g id="Node000026" class="node">
<title>Node26</title>
<g id="a_Node000026"><a xlink:href="_a_b_l_stats_8_h.html" target="_top" xlink:title=" ">
<polygon fill="white" stroke="#666666" points="2059,-195 1922,-195 1922,-154 2059,-154 2059,-195"/>
<text text-anchor="start" x="1930" y="-183" font-family="Helvetica,sans-Serif" font-size="10.00">/home/runner/work/amr</text>
<text text-anchor="start" x="1930" y="-172" font-family="Helvetica,sans-Serif" font-size="10.00">&#45;wind/amr&#45;wind/src/wind</text>
<text text-anchor="middle" x="1990.5" y="-161" font-family="Helvetica,sans-Serif" font-size="10.00">_energy/ABLStats.H</text>
</a>
</g>
</g>
<!-- Node1&#45;&gt;Node26 -->
<g id="edge27_Node000001_Node000026" class="edge">
<title>Node1&#45;&gt;Node26</title>
<g id="a_edge27_Node000001_Node000026"><a xlink:title=" ">
<path fill="none" stroke="#63b8ff" d="M1067.58,-250.49C1231.59,-249.36 1602.53,-241.36 1910.5,-195 1914.18,-194.45 1917.93,-193.8 1921.71,-193.1"/>
<polygon fill="#63b8ff" stroke="#63b8ff" points="1067.53,-246.99 1057.55,-250.56 1067.57,-253.99 1067.53,-246.99"/>
</a>
</g>
</g>
<!-- Node7 -->
<g id="Node000007" class="node">
<title>Node7</title>
<g id="a_Node000007"><a xlink:href="ascent_8cpp.html" target="_top" xlink:title=" ">
<polygon fill="white" stroke="#666666" points="339.5,-118 189.5,-118 189.5,-77 339.5,-77 339.5,-118"/>
<text text-anchor="start" x="197.5" y="-106" font-family="Helvetica,sans-Serif" font-size="10.00">/home/runner/work/amr</text>
<text text-anchor="start" x="197.5" y="-95" font-family="Helvetica,sans-Serif" font-size="10.00">&#45;wind/amr&#45;wind/src/utilities</text>
<text text-anchor="middle" x="264.5" y="-84" font-family="Helvetica,sans-Serif" font-size="10.00">/ascent/ascent.cpp</text>
</a>
</g>
</g>
<!-- Node6&#45;&gt;Node7 -->
<g id="edge6_Node000006_Node000007" class="edge">
<title>Node6&#45;&gt;Node7</title>
<g id="a_edge6_Node000006_Node000007"><a xlink:title=" ">
<path fill="none" stroke="#63b8ff" d="M517.36,-153.77C441.43,-137.04 420.8,-134.05 348.5,-118 345.58,-117.35 342.6,-116.68 339.59,-116.01"/>
<polygon fill="#63b8ff" stroke="#63b8ff" points="516.89,-157.25 527.41,-155.99 518.4,-150.41 516.89,-157.25"/>
</a>
</g>
</g>
<!-- Node8&#45;&gt;Node5 -->
<g id="edge8_Node000008_Node000005" class="edge">
<title>Node8&#45;&gt;Node5</title>
<g id="a_edge8_Node000008_Node000005"><a xlink:title=" ">
<path fill="none" stroke="#63b8ff" d="M723.89,-154.86C722.42,-154.57 720.95,-154.28 719.5,-154 629.56,-136.5 606.27,-136.37 516.5,-118 513.57,-117.4 510.58,-116.77 507.56,-116.13"/>
<polygon fill="#63b8ff" stroke="#63b8ff" points="723.25,-158.3 733.74,-156.83 724.62,-151.44 723.25,-158.3"/>
</a>
</g>
</g>
<!-- Node9 -->
<g id="Node000009" class="node">
<title>Node9</title>
<g id="a_Node000009"><a xlink:href="_re_averaging_8_h.html" target="_top" xlink:title=" ">
<polygon fill="white" stroke="#666666" points="675.5,-118 525.5,-118 525.5,-77 675.5,-77 675.5,-118"/>
<text text-anchor="start" x="533.5" y="-106" font-family="Helvetica,sans-Serif" font-size="10.00">/home/runner/work/amr</text>
<text text-anchor="start" x="533.5" y="-95" font-family="Helvetica,sans-Serif" font-size="10.00">&#45;wind/amr&#45;wind/src/utilities</text>
<text text-anchor="middle" x="600.5" y="-84" font-family="Helvetica,sans-Serif" font-size="10.00">/averaging/ReAveraging.H</text>
</a>
</g>
</g>
<!-- Node8&#45;&gt;Node9 -->
<g id="edge9_Node000008_Node000009" class="edge">
<title>Node8&#45;&gt;Node9</title>
<g id="a_edge9_Node000008_Node000009"><a xlink:title=" ">
<path fill="none" stroke="#63b8ff" d="M746.9,-150.54C717.66,-140.15 683.47,-127.99 655.48,-118.04"/>
<polygon fill="#63b8ff" stroke="#63b8ff" points="746.02,-153.94 756.61,-153.99 748.36,-147.34 746.02,-153.94"/>
</a>
</g>
</g>
<!-- Node11 -->
<g id="Node000011" class="node">
<title>Node11</title>
<g id="a_Node000011"><a xlink:href="_time_averaging_8cpp.html" target="_top" xlink:title=" ">
<polygon fill="white" stroke="#666666" points="747,-41 582,-41 582,0 747,0 747,-41"/>
<text text-anchor="start" x="590" y="-29" font-family="Helvetica,sans-Serif" font-size="10.00">/home/runner/work/amr</text>
<text text-anchor="start" x="590" y="-18" font-family="Helvetica,sans-Serif" font-size="10.00">&#45;wind/amr&#45;wind/src/utilities</text>
<text text-anchor="middle" x="664.5" y="-7" font-family="Helvetica,sans-Serif" font-size="10.00">/averaging/TimeAveraging.cpp</text>
</a>
</g>
</g>
<!-- Node8&#45;&gt;Node11 -->
<g id="edge14_Node000008_Node000011" class="edge">
<title>Node8&#45;&gt;Node11</title>
<g id="a_edge14_Node000008_Node000011"><a xlink:title=" ">
<path fill="none" stroke="#63b8ff" d="M762.37,-148.56C748.48,-140.06 734.02,-129.71 722.5,-118 700.02,-95.15 682.54,-61.97 672.88,-41.08"/>
<polygon fill="#63b8ff" stroke="#63b8ff" points="760.99,-151.81 771.38,-153.87 764.54,-145.78 760.99,-151.81"/>
</a>
</g>
</g>
<!-- Node12 -->
<g id="Node000012" class="node">
<title>Node12</title>
<g id="a_Node000012"><a xlink:href="_reynolds_stress_8_h.html" target="_top" xlink:title=" ">
<polygon fill="white" stroke="#666666" points="889,-118 732,-118 732,-77 889,-77 889,-118"/>
<text text-anchor="start" x="740" y="-106" font-family="Helvetica,sans-Serif" font-size="10.00">/home/runner/work/amr</text>
<text text-anchor="start" x="740" y="-95" font-family="Helvetica,sans-Serif" font-size="10.00">&#45;wind/amr&#45;wind/src/utilities</text>
<text text-anchor="middle" x="810.5" y="-84" font-family="Helvetica,sans-Serif" font-size="10.00">/averaging/ReynoldsStress.H</text>
</a>
</g>
</g>
<!-- Node8&#45;&gt;Node12 -->
<g id="edge12_Node000008_Node000012" class="edge">
<title>Node8&#45;&gt;Node12</title>
<g id="a_edge12_Node000008_Node000012"><a xlink:title=" ">
<path fill="none" stroke="#63b8ff" d="M811.1,-143.69C810.99,-135.08 810.87,-125.9 810.76,-118.07"/>
<polygon fill="#63b8ff" stroke="#63b8ff" points="807.6,-143.84 811.24,-153.79 814.6,-143.75 807.6,-143.84"/>
</a>
</g>
</g>
<!-- Node10 -->
<g id="Node000010" class="node">
<title>Node10</title>
<g id="a_Node000010"><a xlink:href="_re_averaging_8cpp.html" target="_top" xlink:title=" ">
<polygon fill="white" stroke="#666666" points="564,-41 411,-41 411,0 564,0 564,-41"/>
<text text-anchor="start" x="419" y="-29" font-family="Helvetica,sans-Serif" font-size="10.00">/home/runner/work/amr</text>
<text text-anchor="start" x="419" y="-18" font-family="Helvetica,sans-Serif" font-size="10.00">&#45;wind/amr&#45;wind/src/utilities</text>
<text text-anchor="middle" x="487.5" y="-7" font-family="Helvetica,sans-Serif" font-size="10.00">/averaging/ReAveraging.cpp</text>
</a>
</g>
</g>
<!-- Node9&#45;&gt;Node10 -->
<g id="edge10_Node000009_Node000010" class="edge">
<title>Node9&#45;&gt;Node10</title>
<g id="a_edge10_Node000009_Node000010"><a xlink:title=" ">
<path fill="none" stroke="#63b8ff" d="M562.64,-71.37C547.81,-61.53 531.06,-50.41 517.14,-41.17"/>
<polygon fill="#63b8ff" stroke="#63b8ff" points="560.84,-74.38 571.11,-76.99 564.71,-68.54 560.84,-74.38"/>
</a>
</g>
</g>
<!-- Node9&#45;&gt;Node11 -->
<g id="edge11_Node000009_Node000011" class="edge">
<title>Node9&#45;&gt;Node11</title>
<g id="a_edge11_Node000009_Node000011"><a xlink:title=" ">
<path fill="none" stroke="#63b8ff" d="M624.01,-68.95C631.9,-59.7 640.54,-49.58 647.8,-41.07"/>
<polygon fill="#63b8ff" stroke="#63b8ff" points="621.14,-66.92 617.32,-76.79 626.47,-71.46 621.14,-66.92"/>
</a>
</g>
</g>
<!-- Node13 -->
<g id="Node000013" class="node">
<title>Node13</title>
<g id="a_Node000013"><a xlink:href="_reynolds_stress_8cpp.html" target="_top" xlink:title=" ">
<polygon fill="white" stroke="#666666" points="932,-41 765,-41 765,0 932,0 932,-41"/>
<text text-anchor="start" x="773" y="-29" font-family="Helvetica,sans-Serif" font-size="10.00">/home/runner/work/amr</text>
<text text-anchor="start" x="773" y="-18" font-family="Helvetica,sans-Serif" font-size="10.00">&#45;wind/amr&#45;wind/src/utilities</text>
<text text-anchor="middle" x="848.5" y="-7" font-family="Helvetica,sans-Serif" font-size="10.00">/averaging/ReynoldsStress.cpp</text>
</a>
</g>
</g>
<!-- Node12&#45;&gt;Node13 -->
<g id="edge13_Node000012_Node000013" class="edge">
<title>Node12&#45;&gt;Node13</title>
<g id="a_edge13_Node000012_Node000013"><a xlink:title=" ">
<path fill="none" stroke="#63b8ff" d="M825.03,-67.83C829.56,-58.89 834.45,-49.24 838.58,-41.07"/>
<polygon fill="#63b8ff" stroke="#63b8ff" points="821.88,-66.29 820.48,-76.79 828.13,-69.46 821.88,-66.29"/>
</a>
</g>
</g>
<!-- Node15 -->
<g id="Node000015" class="node">
<title>Node15</title>
<g id="a_Node000015"><a xlink:href="_enstrophy_8cpp.html" target="_top" xlink:title=" ">
<polygon fill="white" stroke="#666666" points="1057.5,-118 907.5,-118 907.5,-77 1057.5,-77 1057.5,-118"/>
<text text-anchor="start" x="915.5" y="-106" font-family="Helvetica,sans-Serif" font-size="10.00">/home/runner/work/amr</text>
<text text-anchor="start" x="915.5" y="-95" font-family="Helvetica,sans-Serif" font-size="10.00">&#45;wind/amr&#45;wind/src/utilities</text>
<text text-anchor="middle" x="982.5" y="-84" font-family="Helvetica,sans-Serif" font-size="10.00">/sampling/Enstrophy.cpp</text>
</a>
</g>
</g>
<!-- Node14&#45;&gt;Node15 -->
<g id="edge16_Node000014_Node000015" class="edge">
<title>Node14&#45;&gt;Node15</title>
<g id="a_edge16_Node000014_Node000015"><a xlink:title=" ">
<path fill="none" stroke="#63b8ff" d="M982.5,-143.69C982.5,-135.08 982.5,-125.9 982.5,-118.07"/>
<polygon fill="#63b8ff" stroke="#63b8ff" points="979,-143.79 982.5,-153.79 986,-143.79 979,-143.79"/>
</a>
</g>
</g>
<!-- Node17 -->
<g id="Node000017" class="node">
<title>Node17</title>
<g id="a_Node000017"><a xlink:href="_field_norms_8cpp.html" target="_top" xlink:title=" ">
<polygon fill="white" stroke="#666666" points="1225.5,-118 1075.5,-118 1075.5,-77 1225.5,-77 1225.5,-118"/>
<text text-anchor="start" x="1083.5" y="-106" font-family="Helvetica,sans-Serif" font-size="10.00">/home/runner/work/amr</text>
<text text-anchor="start" x="1083.5" y="-95" font-family="Helvetica,sans-Serif" font-size="10.00">&#45;wind/amr&#45;wind/src/utilities</text>
<text text-anchor="middle" x="1150.5" y="-84" font-family="Helvetica,sans-Serif" font-size="10.00">/sampling/FieldNorms.cpp</text>
</a>
</g>
</g>
<!-- Node16&#45;&gt;Node17 -->
<g id="edge18_Node000016_Node000017" class="edge">
<title>Node16&#45;&gt;Node17</title>
<g id="a_edge18_Node000016_Node000017"><a xlink:title=" ">
<path fill="none" stroke="#63b8ff" d="M1150.5,-143.69C1150.5,-135.08 1150.5,-125.9 1150.5,-118.07"/>
<polygon fill="#63b8ff" stroke="#63b8ff" points="1147,-143.79 1150.5,-153.79 1154,-143.79 1147,-143.79"/>
</a>
</g>
</g>
<!-- Node19 -->
<g id="Node000019" class="node">
<title>Node19</title>
<g id="a_Node000019"><a xlink:href="_kinetic_energy_8cpp.html" target="_top" xlink:title=" ">
<polygon fill="white" stroke="#666666" points="1397.5,-118 1243.5,-118 1243.5,-77 1397.5,-77 1397.5,-118"/>
<text text-anchor="start" x="1251.5" y="-106" font-family="Helvetica,sans-Serif" font-size="10.00">/home/runner/work/amr</text>
<text text-anchor="start" x="1251.5" y="-95" font-family="Helvetica,sans-Serif" font-size="10.00">&#45;wind/amr&#45;wind/src/utilities</text>
<text text-anchor="middle" x="1320.5" y="-84" font-family="Helvetica,sans-Serif" font-size="10.00">/sampling/KineticEnergy.cpp</text>
</a>
</g>
</g>
<!-- Node18&#45;&gt;Node19 -->
<g id="edge20_Node000018_Node000019" class="edge">
<title>Node18&#45;&gt;Node19</title>
<g id="a_edge20_Node000018_Node000019"><a xlink:title=" ">
<path fill="none" stroke="#63b8ff" d="M1319.9,-143.69C1320.01,-135.08 1320.13,-125.9 1320.24,-118.07"/>
<polygon fill="#63b8ff" stroke="#63b8ff" points="1316.4,-143.75 1319.76,-153.79 1323.4,-143.84 1316.4,-143.75"/>
</a>
</g>
</g>
<!-- Node21 -->
<g id="Node000021" class="node">
<title>Node21</title>
<g id="a_Node000021"><a xlink:href="_sampling_8cpp.html" target="_top" xlink:title=" ">
<polygon fill="white" stroke="#666666" points="1565.5,-118 1415.5,-118 1415.5,-77 1565.5,-77 1565.5,-118"/>
<text text-anchor="start" x="1423.5" y="-106" font-family="Helvetica,sans-Serif" font-size="10.00">/home/runner/work/amr</text>
<text text-anchor="start" x="1423.5" y="-95" font-family="Helvetica,sans-Serif" font-size="10.00">&#45;wind/amr&#45;wind/src/utilities</text>
<text text-anchor="middle" x="1490.5" y="-84" font-family="Helvetica,sans-Serif" font-size="10.00">/sampling/Sampling.cpp</text>
</a>
</g>
</g>
<!-- Node20&#45;&gt;Node21 -->
<g id="edge22_Node000020_Node000021" class="edge">
<title>Node20&#45;&gt;Node21</title>
<g id="a_edge22_Node000020_Node000021"><a xlink:title=" ">
<path fill="none" stroke="#63b8ff" d="M1489.29,-143.69C1489.52,-135.08 1489.77,-125.9 1489.98,-118.07"/>
<polygon fill="#63b8ff" stroke="#63b8ff" points="1485.79,-143.7 1489.03,-153.79 1492.79,-143.89 1485.79,-143.7"/>
</a>
</g>
</g>
<!-- Node23 -->
<g id="Node000023" class="node">
<title>Node23</title>
<g id="a_Node000023"><a xlink:href="_wave_energy_8cpp.html" target="_top" xlink:title=" ">
<polygon fill="white" stroke="#666666" points="1733.5,-118 1583.5,-118 1583.5,-77 1733.5,-77 1733.5,-118"/>
<text text-anchor="start" x="1591.5" y="-106" font-family="Helvetica,sans-Serif" font-size="10.00">/home/runner/work/amr</text>
<text text-anchor="start" x="1591.5" y="-95" font-family="Helvetica,sans-Serif" font-size="10.00">&#45;wind/amr&#45;wind/src/utilities</text>
<text text-anchor="middle" x="1658.5" y="-84" font-family="Helvetica,sans-Serif" font-size="10.00">/sampling/WaveEnergy.cpp</text>
</a>
</g>
</g>
<!-- Node22&#45;&gt;Node23 -->
<g id="edge24_Node000022_Node000023" class="edge">
<title>Node22&#45;&gt;Node23</title>
<g id="a_edge24_Node000022_Node000023"><a xlink:title=" ">
<path fill="none" stroke="#63b8ff" d="M1657.9,-143.69C1658.01,-135.08 1658.13,-125.9 1658.24,-118.07"/>
<polygon fill="#63b8ff" stroke="#63b8ff" points="1654.4,-143.75 1657.76,-153.79 1661.4,-143.84 1654.4,-143.75"/>
</a>
</g>
</g>
<!-- Node25 -->
<g id="Node000025" class="node">
<title>Node25</title>
<g id="a_Node000025"><a xlink:href="_subvolume_8cpp.html" target="_top" xlink:title=" ">
<polygon fill="white" stroke="#666666" points="1903.5,-118 1751.5,-118 1751.5,-77 1903.5,-77 1903.5,-118"/>
<text text-anchor="start" x="1759.5" y="-106" font-family="Helvetica,sans-Serif" font-size="10.00">/home/runner/work/amr</text>
<text text-anchor="start" x="1759.5" y="-95" font-family="Helvetica,sans-Serif" font-size="10.00">&#45;wind/amr&#45;wind/src/utilities</text>
<text text-anchor="middle" x="1827.5" y="-84" font-family="Helvetica,sans-Serif" font-size="10.00">/subvolume/Subvolume.cpp</text>
</a>
</g>
</g>
<!-- Node24&#45;&gt;Node25 -->
<g id="edge26_Node000024_Node000025" class="edge">
<title>Node24&#45;&gt;Node25</title>
<g id="a_edge26_Node000024_Node000025"><a xlink:title=" ">
<path fill="none" stroke="#63b8ff" d="M1826.9,-143.69C1827.01,-135.08 1827.13,-125.9 1827.24,-118.07"/>
<polygon fill="#63b8ff" stroke="#63b8ff" points="1823.4,-143.75 1826.76,-153.79 1830.4,-143.84 1823.4,-143.75"/>
</a>
</g>
</g>
<!-- Node27 -->
<g id="Node000027" class="node">
<title>Node27</title>
<g id="a_Node000027"><a xlink:href="_a_b_l_stats_8cpp.html" target="_top" xlink:title=" ">
<polygon fill="white" stroke="#666666" points="2059,-118 1922,-118 1922,-77 2059,-77 2059,-118"/>
<text text-anchor="start" x="1930" y="-106" font-family="Helvetica,sans-Serif" font-size="10.00">/home/runner/work/amr</text>
<text text-anchor="start" x="1930" y="-95" font-family="Helvetica,sans-Serif" font-size="10.00">&#45;wind/amr&#45;wind/src/wind</text>
<text text-anchor="middle" x="1990.5" y="-84" font-family="Helvetica,sans-Serif" font-size="10.00">_energy/ABLStats.cpp</text>
</a>
</g>
</g>
<!-- Node26&#45;&gt;Node27 -->
<g id="edge28_Node000026_Node000027" class="edge">
<title>Node26&#45;&gt;Node27</title>
<g id="a_edge28_Node000026_Node000027"><a xlink:title=" ">
<path fill="none" stroke="#63b8ff" d="M1990.5,-143.69C1990.5,-135.08 1990.5,-125.9 1990.5,-118.07"/>
<polygon fill="#63b8ff" stroke="#63b8ff" points="1987,-143.79 1990.5,-153.79 1994,-143.79 1987,-143.79"/>
</a>
</g>
</g>
</g>
</svg>

<g id="navigator" transform="translate(0 0)" fill="#404254">
  <rect fill="#f2f5e9" fill-opacity="0.5" stroke="#606060" stroke-width=".5" x="0" y="0" width="60" height="60"/>
  <use id="zoomplus" xlink:href="#zoomPlus" x="17" y="9" onmousedown="handleZoom(evt,'in')"/>
  <use id="zoomminus" xlink:href="#zoomMin" x="42" y="9" onmousedown="handleZoom(evt,'out')"/>
  <use id="reset" xlink:href="#resetDef" x="30" y="36" onmousedown="handleReset()"/>
   <use id="arrowup" xlink:href="#arrowUp" x="0" y="0" onmousedown="handlePan(0,-1)"/>
  <use id="arrowright" xlink:href="#arrowRight" x="0" y="0" onmousedown="handlePan(1,0)"/>
  <use id="arrowdown" xlink:href="#arrowDown" x="0" y="0" onmousedown="handlePan(0,1)"/>
  <use id="arrowleft" xlink:href="#arrowLeft" x="0" y="0" onmousedown="handlePan(-1,0)"/>
</g>
<svg viewBox="0 0 15 15" width="100%" height="30px" preserveAspectRatio="xMaxYMin meet">
 <g id="arrow_out" transform="scale(0.3 0.3)">
  <a xlink:href="_post_processing_8_h__dep__incl_org.svg" target="_base">
   <rect id="button" ry="5" rx="5" y="6" x="6" height="38" width="38"
        fill="#f2f5e9" fill-opacity="0.5" stroke="#606060" stroke-width="1.0"/>
   <path id="arrow"
     d="M 11.500037,31.436501 C 11.940474,20.09759 22.043105,11.32322 32.158766,21.979434 L 37.068811,17.246167 C 37.068811,17.246167 37.088388,32 37.088388,32 L 22.160133,31.978069 C 22.160133,31.978069 26.997745,27.140456 26.997745,27.140456 C 18.528582,18.264221 13.291696,25.230495 11.500037,31.436501 z"
     style="fill:#404040;"/>
  </a>
 </g>
</svg>

<style type='text/css'>
<![CDATA[
[data-mouse-over-selected='false'] { opacity: 0.7; }
[data-mouse-over-selected='true']  { opacity: 1.0; }
]]>
</style>
<script type="application/ecmascript"><![CDATA[
document.addEventListener('DOMContentLoaded', (event) => {
  highlightEdges();
  highlightAdjacentNodes();
});
]]></script>
</svg>
