<?xml version="1.0" encoding="UTF-8" standalone="no"?>
<!DOCTYPE svg PUBLIC "-//W3C//DTD SVG 1.1//EN"
 "http://www.w3.org/Graphics/SVG/1.1/DTD/svg11.dtd">
<!-- Generated by graphviz version 2.43.0 (0)
 -->
<!-- Title: /home/runner/work/amr&#45;wind/amr&#45;wind/src/utilities/sampling/RadarSampler.H Pages: 1 -->
<!--zoomable 423 -->

<svg id="main" version="1.1" xmlns="http://www.w3.org/2000/svg" xmlns:xlink="http://www.w3.org/1999/xlink" xml:space="preserve" onload="init(evt)">

<style type="text/css"><![CDATA[
.node, .edge {opacity: 0.7;}
.node.selected, .edge.selected {opacity: 1;}
.edge:hover path { stroke: red; }
.edge:hover polygon { stroke: red; fill: red; }
]]></style>

<defs>
  <circle id="rim" cx="0" cy="0" r="7"/>
  <circle id="rim2" cx="0" cy="0" r="3.5"/>
  <g id="zoomPlus">
    <use xlink:href="#rim" fill="#404040"><set attributeName="fill" to="#808080" begin="zoomplus.mouseover" end="zoomplus.mouseout"/></use>
    <path d="M-4,0h8M0,-4v8" fill="none" stroke="white" stroke-width="1.5" pointer-events="none"/>
  </g>
  <g id="zoomMin">
    <use xlink:href="#rim" fill="#404040"><set attributeName="fill" to="#808080" begin="zoomminus.mouseover" end="zoomminus.mouseout"/></use>
    <path d="M-4,0h8" fill="none" stroke="white" stroke-width="1.5" pointer-events="none"/>
  </g>
  <g id="arrowUp" transform="translate(30 24)">
    <use xlink:href="#rim"/>
    <path pointer-events="none" fill="none" stroke="white" stroke-width="1.5" d="M0,-3.0v7 M-2.5,-0.5L0,-3.0L2.5,-0.5"/>
  </g>
  <g id="arrowRight" transform="rotate(90) translate(36 -43)">
    <use xlink:href="#rim"/>
    <path pointer-events="none" fill="none" stroke="white" stroke-width="1.5" d="M0,-3.0v7 M-2.5,-0.5L0,-3.0L2.5,-0.5"/>
  </g>
  <g id="arrowDown" transform="rotate(180) translate(-30 -48)">
    <use xlink:href="#rim"/>
    <path pointer-events="none" fill="none" stroke="white" stroke-width="1.5" d="M0,-3.0v7 M-2.5,-0.5L0,-3.0L2.5,-0.5"/>
  </g>
  <g id="arrowLeft" transform="rotate(270) translate(-36 17)">
    <use xlink:href="#rim"/>
    <path pointer-events="none" fill="none" stroke="white" stroke-width="1.5" d="M0,-3.0v7 M-2.5,-0.5L0,-3.0L2.5,-0.5"/>
  </g>
  <g id="resetDef">
    <use xlink:href="#rim2" fill="#404040"><set attributeName="fill" to="#808080" begin="reset.mouseover" end="reset.mouseout"/></use>
  </g>
</defs>
<script type="application/ecmascript">
var viewWidth = 1799;
var viewHeight = 423;
var sectionId = 'dynsection-0';
</script>
<script type="application/ecmascript" xlink:href="svg.min.js"/>
<svg id="graph" class="graph">
<g id="viewport">
<title>/home/runner/work/amr&#45;wind/amr&#45;wind/src/utilities/sampling/RadarSampler.H</title>
<!-- Node1 -->
<g id="Node000001" class="node">
<title>Node1</title>
<g id="a_Node000001"><a xlink:title=" ">
<polygon fill="#999999" stroke="#666666" points="1024,-415 874,-415 874,-374 1024,-374 1024,-415"/>
<text text-anchor="start" x="882" y="-403" font-family="Helvetica,sans-Serif" font-size="10.00">/home/runner/work/amr</text>
<text text-anchor="start" x="882" y="-392" font-family="Helvetica,sans-Serif" font-size="10.00">&#45;wind/amr&#45;wind/src/utilities</text>
<text text-anchor="middle" x="949" y="-381" font-family="Helvetica,sans-Serif" font-size="10.00">/sampling/RadarSampler.H</text>
</a>
</g>
</g>
<!-- Node2 -->
<g id="Node000002" class="node">
<title>Node2</title>
<g id="a_Node000002"><a xlink:title=" ">
<polygon fill="#e0e0e0" stroke="#999999" points="1003,-266.5 953,-266.5 953,-247.5 1003,-247.5 1003,-266.5"/>
<text text-anchor="middle" x="978" y="-254.5" font-family="Helvetica,sans-Serif" font-size="10.00">cstdint</text>
</a>
</g>
</g>
<!-- Node1&#45;&gt;Node2 -->
<g id="edge1_Node000001_Node000002" class="edge">
<title>Node1&#45;&gt;Node2</title>
<g id="a_edge1_Node000001_Node000002"><a xlink:title=" ">
<path fill="none" stroke="#63b8ff" d="M960.02,-373.85C965.25,-363.51 971,-350.43 974,-338 978.93,-317.55 979.43,-293.33 979.01,-276.94"/>
<polygon fill="#63b8ff" stroke="#63b8ff" points="982.5,-276.41 978.6,-266.56 975.5,-276.69 982.5,-276.41"/>
</a>
</g>
</g>
<!-- Node3 -->
<g id="Node000003" class="node">
<title>Node3</title>
<g id="a_Node000003"><a xlink:href="_sampler_base_8_h.html" target="_top" xlink:title=" ">
<polygon fill="white" stroke="#666666" points="882.5,-272 763.5,-272 763.5,-242 882.5,-242 882.5,-272"/>
<text text-anchor="start" x="771.5" y="-260" font-family="Helvetica,sans-Serif" font-size="10.00">src/utilities/sampling</text>
<text text-anchor="middle" x="823" y="-249" font-family="Helvetica,sans-Serif" font-size="10.00">/SamplerBase.H</text>
</a>
</g>
</g>
<!-- Node1&#45;&gt;Node3 -->
<g id="edge2_Node000001_Node000003" class="edge">
<title>Node1&#45;&gt;Node3</title>
<g id="a_edge2_Node000001_Node000003"><a xlink:title=" ">
<path fill="none" stroke="#63b8ff" d="M884.42,-373.9C866.59,-365.53 848.89,-353.9 837,-338 825.16,-322.16 822.09,-299.66 821.74,-282.55"/>
<polygon fill="#63b8ff" stroke="#63b8ff" points="825.24,-282.25 821.83,-272.22 818.24,-282.18 825.24,-282.25"/>
</a>
</g>
</g>
<!-- Node16 -->
<g id="Node000016" class="node">
<title>Node16</title>
<g id="a_Node000016"><a xlink:title=" ">
<polygon fill="#e0e0e0" stroke="#999999" points="1173,-19 1081,-19 1081,0 1173,0 1173,-19"/>
<text text-anchor="middle" x="1127" y="-7" font-family="Helvetica,sans-Serif" font-size="10.00">AMReX_REAL.H</text>
</a>
</g>
</g>
<!-- Node1&#45;&gt;Node16 -->
<g id="edge54_Node000001_Node000016" class="edge">
<title>Node1&#45;&gt;Node16</title>
<g id="a_edge54_Node000001_Node000016"><a xlink:title=" ">
<path fill="none" stroke="#63b8ff" d="M873.74,-390.65C649.28,-381.16 0,-346.1 0,-258 0,-258 0,-258 0,-129.5 0,-20.63 842.55,-11.06 1070.64,-10.47"/>
<polygon fill="#63b8ff" stroke="#63b8ff" points="1070.73,-13.97 1080.72,-10.44 1070.71,-6.97 1070.73,-13.97"/>
</a>
</g>
</g>
<!-- Node20 -->
<g id="Node000020" class="node">
<title>Node20</title>
<g id="a_Node000020"><a xlink:href="_sampling_utils_8_h.html" target="_top" xlink:title=" ">
<polygon fill="white" stroke="#666666" points="1206.5,-338 1087.5,-338 1087.5,-308 1206.5,-308 1206.5,-338"/>
<text text-anchor="start" x="1095.5" y="-326" font-family="Helvetica,sans-Serif" font-size="10.00">src/utilities/sampling</text>
<text text-anchor="middle" x="1147" y="-315" font-family="Helvetica,sans-Serif" font-size="10.00">/SamplingUtils.H</text>
</a>
</g>
</g>
<!-- Node1&#45;&gt;Node20 -->
<g id="edge22_Node000001_Node000020" class="edge">
<title>Node1&#45;&gt;Node20</title>
<g id="a_edge22_Node000001_Node000020"><a xlink:title=" ">
<path fill="none" stroke="#63b8ff" d="M1004.68,-373.96C1033.84,-363.72 1069.25,-351.29 1097.45,-341.39"/>
<polygon fill="#63b8ff" stroke="#63b8ff" points="1098.83,-344.62 1107.1,-338 1096.51,-338.01 1098.83,-344.62"/>
</a>
</g>
</g>
<!-- Node21 -->
<g id="Node000021" class="node">
<title>Node21</title>
<g id="a_Node000021"><a xlink:href="vector__space_8_h.html" target="_top" xlink:title=" ">
<polygon fill="white" stroke="#666666" points="1408.5,-272 1305.5,-272 1305.5,-242 1408.5,-242 1408.5,-272"/>
<text text-anchor="start" x="1313.5" y="-260" font-family="Helvetica,sans-Serif" font-size="10.00">src/core/vs/vector</text>
<text text-anchor="middle" x="1357" y="-249" font-family="Helvetica,sans-Serif" font-size="10.00">_space.H</text>
</a>
</g>
</g>
<!-- Node1&#45;&gt;Node21 -->
<g id="edge53_Node000001_Node000021" class="edge">
<title>Node1&#45;&gt;Node21</title>
<g id="a_edge53_Node000001_Node000021"><a xlink:title=" ">
<path fill="none" stroke="#63b8ff" d="M1024.13,-384.26C1078.62,-376.04 1153.42,-361.59 1216,-338 1257.35,-322.41 1301.02,-295.85 1328.6,-277.64"/>
<polygon fill="#63b8ff" stroke="#63b8ff" points="1330.6,-280.52 1336.97,-272.05 1326.71,-274.7 1330.6,-280.52"/>
</a>
</g>
</g>
<!-- Node35 -->
<g id="Node000035" class="node">
<title>Node35</title>
<g id="a_Node000035"><a xlink:href="_line_sampler_8_h.html" target="_top" xlink:title=" ">
<polygon fill="white" stroke="#666666" points="964.5,-338 845.5,-338 845.5,-308 964.5,-308 964.5,-338"/>
<text text-anchor="start" x="853.5" y="-326" font-family="Helvetica,sans-Serif" font-size="10.00">src/utilities/sampling</text>
<text text-anchor="middle" x="905" y="-315" font-family="Helvetica,sans-Serif" font-size="10.00">/LineSampler.H</text>
</a>
</g>
</g>
<!-- Node1&#45;&gt;Node35 -->
<g id="edge51_Node000001_Node000035" class="edge">
<title>Node1&#45;&gt;Node35</title>
<g id="a_edge51_Node000001_Node000035"><a xlink:title=" ">
<path fill="none" stroke="#63b8ff" d="M936.51,-373.77C931.15,-365.31 924.87,-355.38 919.32,-346.63"/>
<polygon fill="#63b8ff" stroke="#63b8ff" points="922.19,-344.62 913.89,-338.04 916.28,-348.36 922.19,-344.62"/>
</a>
</g>
</g>
<!-- Node4 -->
<g id="Node000004" class="node">
<title>Node4</title>
<g id="a_Node000004"><a xlink:title=" ">
<polygon fill="#e0e0e0" stroke="#999999" points="1017,-200.5 907,-200.5 907,-181.5 1017,-181.5 1017,-200.5"/>
<text text-anchor="middle" x="962" y="-188.5" font-family="Helvetica,sans-Serif" font-size="10.00">AMReX_RealVect.H</text>
</a>
</g>
</g>
<!-- Node3&#45;&gt;Node4 -->
<g id="edge3_Node000003_Node000004" class="edge">
<title>Node3&#45;&gt;Node4</title>
<g id="a_edge3_Node000003_Node000004"><a xlink:title=" ">
<path fill="none" stroke="#63b8ff" d="M853.5,-241.95C877.56,-230.88 910.83,-215.56 934.16,-204.82"/>
<polygon fill="#63b8ff" stroke="#63b8ff" points="935.88,-207.88 943.5,-200.52 932.95,-201.52 935.88,-207.88"/>
</a>
</g>
</g>
<!-- Node5 -->
<g id="Node000005" class="node">
<title>Node5</title>
<g id="a_Node000005"><a xlink:href="_factory_8_h.html" target="_top" xlink:title=" ">
<polygon fill="white" stroke="#666666" points="335,-200.5 233,-200.5 233,-181.5 335,-181.5 335,-200.5"/>
<text text-anchor="middle" x="284" y="-188.5" font-family="Helvetica,sans-Serif" font-size="10.00">src/core/Factory.H</text>
</a>
</g>
</g>
<!-- Node3&#45;&gt;Node5 -->
<g id="edge4_Node000003_Node000005" class="edge">
<title>Node3&#45;&gt;Node5</title>
<g id="a_edge4_Node000003_Node000005"><a xlink:title=" ">
<path fill="none" stroke="#63b8ff" d="M763.26,-248.91C660.07,-236.65 449.52,-211.65 345.28,-199.28"/>
<polygon fill="#63b8ff" stroke="#63b8ff" points="345.57,-195.79 335.23,-198.08 344.75,-202.74 345.57,-195.79"/>
</a>
</g>
</g>
<!-- Node11 -->
<g id="Node000011" class="node">
<title>Node11</title>
<g id="a_Node000011"><a xlink:href="nc__interface_8_h.html" target="_top" xlink:title=" ">
<polygon fill="white" stroke="#666666" points="728,-206 622,-206 622,-176 728,-176 728,-206"/>
<text text-anchor="start" x="630" y="-194" font-family="Helvetica,sans-Serif" font-size="10.00">src/utilities/ncutils</text>
<text text-anchor="middle" x="675" y="-183" font-family="Helvetica,sans-Serif" font-size="10.00">/nc_interface.H</text>
</a>
</g>
</g>
<!-- Node3&#45;&gt;Node11 -->
<g id="edge10_Node000003_Node000011" class="edge">
<title>Node3&#45;&gt;Node11</title>
<g id="a_edge10_Node000003_Node000011"><a xlink:title=" ">
<path fill="none" stroke="#63b8ff" d="M790.52,-241.95C768.83,-232.58 740.11,-220.16 716.73,-210.05"/>
<polygon fill="#63b8ff" stroke="#63b8ff" points="717.97,-206.77 707.4,-206.01 715.19,-213.19 717.97,-206.77"/>
</a>
</g>
</g>
<!-- Node3&#45;&gt;Node16 -->
<g id="edge21_Node000003_Node000016" class="edge">
<title>Node3&#45;&gt;Node16</title>
<g id="a_edge21_Node000003_Node000016"><a xlink:title=" ">
<path fill="none" stroke="#63b8ff" d="M882.62,-252.21C952.04,-244.12 1062.92,-218.84 1108,-140 1128.14,-104.77 1129.43,-55.68 1128.36,-29.2"/>
<polygon fill="#63b8ff" stroke="#63b8ff" points="1131.85,-28.84 1127.79,-19.06 1124.86,-29.24 1131.85,-28.84"/>
</a>
</g>
</g>
<!-- Node17 -->
<g id="Node000017" class="node">
<title>Node17</title>
<g id="a_Node000017"><a xlink:href="constants_8_h.html" target="_top" xlink:title=" ">
<polygon fill="white" stroke="#666666" points="888.5,-200.5 757.5,-200.5 757.5,-181.5 888.5,-181.5 888.5,-200.5"/>
<text text-anchor="middle" x="823" y="-188.5" font-family="Helvetica,sans-Serif" font-size="10.00">src/utilities/constants.H</text>
</a>
</g>
</g>
<!-- Node3&#45;&gt;Node17 -->
<g id="edge17_Node000003_Node000017" class="edge">
<title>Node3&#45;&gt;Node17</title>
<g id="a_edge17_Node000003_Node000017"><a xlink:title=" ">
<path fill="none" stroke="#63b8ff" d="M823,-241.8C823,-232.7 823,-220.79 823,-210.9"/>
<polygon fill="#63b8ff" stroke="#63b8ff" points="826.5,-210.84 823,-200.84 819.5,-210.84 826.5,-210.84"/>
</a>
</g>
</g>
<!-- Node6 -->
<g id="Node000006" class="node">
<title>Node6</title>
<g id="a_Node000006"><a xlink:title=" ">
<polygon fill="#e0e0e0" stroke="#999999" points="352,-140 294,-140 294,-121 352,-121 352,-140"/>
<text text-anchor="middle" x="323" y="-128" font-family="Helvetica,sans-Serif" font-size="10.00">memory</text>
</a>
</g>
</g>
<!-- Node5&#45;&gt;Node6 -->
<g id="edge5_Node000005_Node000006" class="edge">
<title>Node5&#45;&gt;Node6</title>
<g id="a_edge5_Node000005_Node000006"><a xlink:title=" ">
<path fill="none" stroke="#63b8ff" d="M289.75,-181.37C295.46,-172.81 304.35,-159.47 311.51,-148.74"/>
<polygon fill="#63b8ff" stroke="#63b8ff" points="314.59,-150.43 317.22,-140.17 308.76,-146.55 314.59,-150.43"/>
</a>
</g>
</g>
<!-- Node7 -->
<g id="Node000007" class="node">
<title>Node7</title>
<g id="a_Node000007"><a xlink:title=" ">
<polygon fill="#e0e0e0" stroke="#999999" points="463.5,-140 370.5,-140 370.5,-121 463.5,-121 463.5,-140"/>
<text text-anchor="middle" x="417" y="-128" font-family="Helvetica,sans-Serif" font-size="10.00">unordered_map</text>
</a>
</g>
</g>
<!-- Node5&#45;&gt;Node7 -->
<g id="edge6_Node000005_Node000007" class="edge">
<title>Node5&#45;&gt;Node7</title>
<g id="a_edge6_Node000005_Node000007"><a xlink:title=" ">
<path fill="none" stroke="#63b8ff" d="M303.34,-181.49C325.7,-171.66 362.71,-155.38 388.4,-144.08"/>
<polygon fill="#63b8ff" stroke="#63b8ff" points="389.89,-147.25 397.64,-140.02 387.07,-140.84 389.89,-147.25"/>
</a>
</g>
</g>
<!-- Node8 -->
<g id="Node000008" class="node">
<title>Node8</title>
<g id="a_Node000008"><a xlink:title=" ">
<polygon fill="#e0e0e0" stroke="#999999" points="88,-140 28,-140 28,-121 88,-121 88,-140"/>
<text text-anchor="middle" x="58" y="-128" font-family="Helvetica,sans-Serif" font-size="10.00">iostream</text>
</a>
</g>
</g>
<!-- Node5&#45;&gt;Node8 -->
<g id="edge7_Node000005_Node000008" class="edge">
<title>Node5&#45;&gt;Node8</title>
<g id="a_edge7_Node000005_Node000008"><a xlink:title=" ">
<path fill="none" stroke="#63b8ff" d="M251.14,-181.49C210.48,-170.97 141.3,-153.06 97.71,-141.78"/>
<polygon fill="#63b8ff" stroke="#63b8ff" points="98.57,-138.39 88.01,-139.27 96.82,-145.16 98.57,-138.39"/>
</a>
</g>
</g>
<!-- Node9 -->
<g id="Node000009" class="node">
<title>Node9</title>
<g id="a_Node000009"><a xlink:title=" ">
<polygon fill="#e0e0e0" stroke="#999999" points="196,-140 106,-140 106,-121 196,-121 196,-140"/>
<text text-anchor="middle" x="151" y="-128" font-family="Helvetica,sans-Serif" font-size="10.00">AMReX_Print.H</text>
</a>
</g>
</g>
<!-- Node5&#45;&gt;Node9 -->
<g id="edge8_Node000005_Node000009" class="edge">
<title>Node5&#45;&gt;Node9</title>
<g id="a_edge8_Node000005_Node000009"><a xlink:title=" ">
<path fill="none" stroke="#63b8ff" d="M264.66,-181.49C242.3,-171.66 205.29,-155.38 179.6,-144.08"/>
<polygon fill="#63b8ff" stroke="#63b8ff" points="180.93,-140.84 170.36,-140.02 178.11,-147.25 180.93,-140.84"/>
</a>
</g>
</g>
<!-- Node10 -->
<g id="Node000010" class="node">
<title>Node10</title>
<g id="a_Node000010"><a xlink:title=" ">
<polygon fill="#e0e0e0" stroke="#999999" points="276,-140 214,-140 214,-121 276,-121 276,-140"/>
<text text-anchor="middle" x="245" y="-128" font-family="Helvetica,sans-Serif" font-size="10.00">AMReX.H</text>
</a>
</g>
</g>
<!-- Node5&#45;&gt;Node10 -->
<g id="edge9_Node000005_Node000010" class="edge">
<title>Node5&#45;&gt;Node10</title>
<g id="a_edge9_Node000005_Node000010"><a xlink:title=" ">
<path fill="none" stroke="#63b8ff" d="M278.25,-181.37C272.54,-172.81 263.65,-159.47 256.49,-148.74"/>
<polygon fill="#63b8ff" stroke="#63b8ff" points="259.24,-146.55 250.78,-140.17 253.41,-150.43 259.24,-146.55"/>
</a>
</g>
</g>
<!-- Node11&#45;&gt;Node7 -->
<g id="edge12_Node000011_Node000007" class="edge">
<title>Node11&#45;&gt;Node7</title>
<g id="a_edge12_Node000011_Node000007"><a xlink:title=" ">
<path fill="none" stroke="#63b8ff" d="M621.86,-177.95C575.6,-167.46 509.16,-152.4 464.61,-142.3"/>
<polygon fill="#63b8ff" stroke="#63b8ff" points="465.15,-138.83 454.62,-140.03 463.6,-145.66 465.15,-138.83"/>
</a>
</g>
</g>
<!-- Node12 -->
<g id="Node000012" class="node">
<title>Node12</title>
<g id="a_Node000012"><a xlink:title=" ">
<polygon fill="#e0e0e0" stroke="#999999" points="837,-140 793,-140 793,-121 837,-121 837,-140"/>
<text text-anchor="middle" x="815" y="-128" font-family="Helvetica,sans-Serif" font-size="10.00">string</text>
</a>
</g>
</g>
<!-- Node11&#45;&gt;Node12 -->
<g id="edge11_Node000011_Node000012" class="edge">
<title>Node11&#45;&gt;Node12</title>
<g id="a_edge11_Node000011_Node000012"><a xlink:title=" ">
<path fill="none" stroke="#63b8ff" d="M708.53,-175.99C731.79,-166.27 762.49,-153.44 784.95,-144.06"/>
<polygon fill="#63b8ff" stroke="#63b8ff" points="786.45,-147.22 794.32,-140.14 783.75,-140.77 786.45,-147.22"/>
</a>
</g>
</g>
<!-- Node13 -->
<g id="Node000013" class="node">
<title>Node13</title>
<g id="a_Node000013"><a xlink:title=" ">
<polygon fill="#e0e0e0" stroke="#999999" points="698.5,-140 651.5,-140 651.5,-121 698.5,-121 698.5,-140"/>
<text text-anchor="middle" x="675" y="-128" font-family="Helvetica,sans-Serif" font-size="10.00">vector</text>
</a>
</g>
</g>
<!-- Node11&#45;&gt;Node13 -->
<g id="edge13_Node000011_Node000013" class="edge">
<title>Node11&#45;&gt;Node13</title>
<g id="a_edge13_Node000011_Node000013"><a xlink:title=" ">
<path fill="none" stroke="#63b8ff" d="M675,-175.84C675,-168.21 675,-158.7 675,-150.45"/>
<polygon fill="#63b8ff" stroke="#63b8ff" points="678.5,-150.27 675,-140.27 671.5,-150.27 678.5,-150.27"/>
</a>
</g>
</g>
<!-- Node14 -->
<g id="Node000014" class="node">
<title>Node14</title>
<g id="a_Node000014"><a xlink:title=" ">
<polygon fill="#e0e0e0" stroke="#999999" points="538,-140 482,-140 482,-121 538,-121 538,-140"/>
<text text-anchor="middle" x="510" y="-128" font-family="Helvetica,sans-Serif" font-size="10.00">netcdf.h</text>
</a>
</g>
</g>
<!-- Node11&#45;&gt;Node14 -->
<g id="edge14_Node000011_Node000014" class="edge">
<title>Node11&#45;&gt;Node14</title>
<g id="a_edge14_Node000011_Node000014"><a xlink:title=" ">
<path fill="none" stroke="#63b8ff" d="M635.48,-175.99C607.58,-166.1 570.59,-152.98 544,-143.56"/>
<polygon fill="#63b8ff" stroke="#63b8ff" points="544.96,-140.18 534.37,-140.14 542.62,-146.78 544.96,-140.18"/>
</a>
</g>
</g>
<!-- Node15 -->
<g id="Node000015" class="node">
<title>Node15</title>
<g id="a_Node000015"><a xlink:title=" ">
<polygon fill="#e0e0e0" stroke="#999999" points="633.5,-140 556.5,-140 556.5,-121 633.5,-121 633.5,-140"/>
<text text-anchor="middle" x="595" y="-128" font-family="Helvetica,sans-Serif" font-size="10.00">netcdf_par.h</text>
</a>
</g>
</g>
<!-- Node11&#45;&gt;Node15 -->
<g id="edge15_Node000011_Node000015" class="edge">
<title>Node11&#45;&gt;Node15</title>
<g id="a_edge15_Node000011_Node000015"><a xlink:title=" ">
<path fill="none" stroke="#63b8ff" d="M655.63,-175.84C643.43,-166.91 627.69,-155.41 615.31,-146.35"/>
<polygon fill="#63b8ff" stroke="#63b8ff" points="617.13,-143.34 606.99,-140.27 612.99,-148.99 617.13,-143.34"/>
</a>
</g>
</g>
<!-- Node11&#45;&gt;Node16 -->
<g id="edge16_Node000011_Node000016" class="edge">
<title>Node11&#45;&gt;Node16</title>
<g id="a_edge16_Node000011_Node000016"><a xlink:title=" ">
<path fill="none" stroke="#63b8ff" d="M685.18,-175.59C706.16,-147.12 757.31,-83.93 817,-55 860.66,-33.84 994.13,-20.55 1070.96,-14.45"/>
<polygon fill="#63b8ff" stroke="#63b8ff" points="1071.25,-17.94 1080.95,-13.67 1070.71,-10.96 1071.25,-17.94"/>
</a>
</g>
</g>
<!-- Node17&#45;&gt;Node16 -->
<g id="edge18_Node000017_Node000016" class="edge">
<title>Node17&#45;&gt;Node16</title>
<g id="a_edge18_Node000017_Node000016"><a xlink:title=" ">
<path fill="none" stroke="#63b8ff" d="M811.68,-181.33C795.47,-167.87 769.17,-141.35 784,-121 850.01,-30.38 991.68,-12.48 1070.74,-9.9"/>
<polygon fill="#63b8ff" stroke="#63b8ff" points="1071.09,-13.39 1081,-9.64 1070.91,-6.4 1071.09,-13.39"/>
</a>
</g>
</g>
<!-- Node18 -->
<g id="Node000018" class="node">
<title>Node18</title>
<g id="a_Node000018"><a xlink:title=" ">
<polygon fill="#e0e0e0" stroke="#999999" points="1099,-140 1007,-140 1007,-121 1099,-121 1099,-140"/>
<text text-anchor="middle" x="1053" y="-128" font-family="Helvetica,sans-Serif" font-size="10.00">AMReX_Math.H</text>
</a>
</g>
</g>
<!-- Node17&#45;&gt;Node18 -->
<g id="edge19_Node000017_Node000018" class="edge">
<title>Node17&#45;&gt;Node18</title>
<g id="a_edge19_Node000017_Node000018"><a xlink:title=" ">
<path fill="none" stroke="#63b8ff" d="M856.44,-181.49C896.9,-171.2 965.1,-153.86 1009.58,-142.54"/>
<polygon fill="#63b8ff" stroke="#63b8ff" points="1010.69,-145.87 1019.52,-140.02 1008.96,-139.09 1010.69,-145.87"/>
</a>
</g>
</g>
<!-- Node19 -->
<g id="Node000019" class="node">
<title>Node19</title>
<g id="a_Node000019"><a xlink:title=" ">
<polygon fill="#e0e0e0" stroke="#999999" points="989,-140 855,-140 855,-121 989,-121 989,-140"/>
<text text-anchor="middle" x="922" y="-128" font-family="Helvetica,sans-Serif" font-size="10.00">AMReX_GpuQualifiers.H</text>
</a>
</g>
</g>
<!-- Node17&#45;&gt;Node19 -->
<g id="edge20_Node000017_Node000019" class="edge">
<title>Node17&#45;&gt;Node19</title>
<g id="a_edge20_Node000017_Node000019"><a xlink:title=" ">
<path fill="none" stroke="#63b8ff" d="M837.61,-181.37C853.69,-171.86 879.78,-156.45 898.7,-145.27"/>
<polygon fill="#63b8ff" stroke="#63b8ff" points="900.5,-148.27 907.33,-140.17 896.94,-142.24 900.5,-148.27"/>
</a>
</g>
</g>
<!-- Node20&#45;&gt;Node2 -->
<g id="edge24_Node000020_Node000002" class="edge">
<title>Node20&#45;&gt;Node2</title>
<g id="a_edge24_Node000020_Node000002"><a xlink:title=" ">
<path fill="none" stroke="#63b8ff" d="M1107.87,-307.93C1080.84,-298.11 1044.12,-284.56 1012,-272 1010.63,-271.46 1009.22,-270.91 1007.8,-270.34"/>
<polygon fill="#63b8ff" stroke="#63b8ff" points="1009.03,-267.06 998.45,-266.56 1006.41,-273.55 1009.03,-267.06"/>
</a>
</g>
</g>
<!-- Node20&#45;&gt;Node12 -->
<g id="edge23_Node000020_Node000012" class="edge">
<title>Node20&#45;&gt;Node12</title>
<g id="a_edge23_Node000020_Node000012"><a xlink:title=" ">
<path fill="none" stroke="#63b8ff" d="M1146.76,-307.99C1145.83,-290.94 1142.08,-261.94 1128,-242 1096.85,-197.89 1076.03,-196.32 1026,-176 953.37,-146.5 927.42,-157.81 847.34,-140.12"/>
<polygon fill="#63b8ff" stroke="#63b8ff" points="847.83,-136.64 837.3,-137.82 846.27,-143.47 847.83,-136.64"/>
</a>
</g>
</g>
<!-- Node20&#45;&gt;Node16 -->
<g id="edge50_Node000020_Node000016" class="edge">
<title>Node20&#45;&gt;Node16</title>
<g id="a_edge50_Node000020_Node000016"><a xlink:title=" ">
<path fill="none" stroke="#63b8ff" d="M1147.44,-307.84C1147.88,-291.85 1148.43,-265.05 1148,-242 1146.44,-158.85 1155.16,-136.95 1141,-55 1139.48,-46.22 1136.68,-36.77 1133.99,-28.85"/>
<polygon fill="#63b8ff" stroke="#63b8ff" points="1137.19,-27.41 1130.5,-19.19 1130.61,-29.79 1137.19,-27.41"/>
</a>
</g>
</g>
<!-- Node20&#45;&gt;Node21 -->
<g id="edge25_Node000020_Node000021" class="edge">
<title>Node20&#45;&gt;Node21</title>
<g id="a_edge25_Node000020_Node000021"><a xlink:title=" ">
<path fill="none" stroke="#63b8ff" d="M1193.09,-307.95C1224.95,-298.24 1267.53,-285.27 1301.3,-274.98"/>
<polygon fill="#63b8ff" stroke="#63b8ff" points="1302.48,-278.28 1311.02,-272.01 1300.44,-271.58 1302.48,-278.28"/>
</a>
</g>
</g>
<!-- Node33 -->
<g id="Node000033" class="node">
<title>Node33</title>
<g id="a_Node000033"><a xlink:href="tensor__ops_8_h.html" target="_top" xlink:title=" ">
<polygon fill="white" stroke="#666666" points="1297,-85 1193,-85 1193,-55 1297,-55 1297,-85"/>
<text text-anchor="start" x="1201" y="-73" font-family="Helvetica,sans-Serif" font-size="10.00">src/utilities/tensor</text>
<text text-anchor="middle" x="1245" y="-62" font-family="Helvetica,sans-Serif" font-size="10.00">_ops.H</text>
</a>
</g>
</g>
<!-- Node20&#45;&gt;Node33 -->
<g id="edge46_Node000020_Node000033" class="edge">
<title>Node20&#45;&gt;Node33</title>
<g id="a_edge46_Node000020_Node000033"><a xlink:title=" ">
<path fill="none" stroke="#63b8ff" d="M1166.56,-307.88C1177.7,-298.84 1190.98,-286.17 1199,-272 1231.72,-214.19 1241.17,-134.59 1243.9,-95.15"/>
<polygon fill="#63b8ff" stroke="#63b8ff" points="1247.39,-95.34 1244.5,-85.15 1240.41,-94.92 1247.39,-95.34"/>
</a>
</g>
</g>
<!-- Node34 -->
<g id="Node000034" class="node">
<title>Node34</title>
<g id="a_Node000034"><a xlink:title=" ">
<polygon fill="#e0e0e0" stroke="#999999" points="1119,-266.5 1021,-266.5 1021,-247.5 1119,-247.5 1119,-266.5"/>
<text text-anchor="middle" x="1070" y="-254.5" font-family="Helvetica,sans-Serif" font-size="10.00">AMReX_Vector.H</text>
</a>
</g>
</g>
<!-- Node20&#45;&gt;Node34 -->
<g id="edge49_Node000020_Node000034" class="edge">
<title>Node20&#45;&gt;Node34</title>
<g id="a_edge49_Node000020_Node000034"><a xlink:title=" ">
<path fill="none" stroke="#63b8ff" d="M1129.91,-307.8C1117.67,-297.62 1101.2,-283.93 1088.62,-273.48"/>
<polygon fill="#63b8ff" stroke="#63b8ff" points="1090.57,-270.54 1080.64,-266.84 1086.09,-275.93 1090.57,-270.54"/>
</a>
</g>
</g>
<!-- Node22 -->
<g id="Node000022" class="node">
<title>Node22</title>
<g id="a_Node000022"><a xlink:href="vector_8_h.html" target="_top" xlink:title=" ">
<polygon fill="white" stroke="#666666" points="1693.5,-140 1580.5,-140 1580.5,-121 1693.5,-121 1693.5,-140"/>
<text text-anchor="middle" x="1637" y="-128" font-family="Helvetica,sans-Serif" font-size="10.00">src/core/vs/vector.H</text>
</a>
</g>
</g>
<!-- Node21&#45;&gt;Node22 -->
<g id="edge26_Node000021_Node000022" class="edge">
<title>Node21&#45;&gt;Node22</title>
<g id="a_edge26_Node000021_Node000022"><a xlink:title=" ">
<path fill="none" stroke="#63b8ff" d="M1407.26,-241.98C1436.85,-233.06 1474.68,-220.47 1507,-206 1546.96,-188.1 1590.58,-161.53 1615.76,-145.43"/>
<polygon fill="#63b8ff" stroke="#63b8ff" points="1617.66,-148.37 1624.17,-140.01 1613.87,-142.49 1617.66,-148.37"/>
</a>
</g>
</g>
<!-- Node29 -->
<g id="Node000029" class="node">
<title>Node29</title>
<g id="a_Node000029"><a xlink:href="tensor_8_h.html" target="_top" xlink:title=" ">
<polygon fill="white" stroke="#666666" points="1497.5,-200.5 1384.5,-200.5 1384.5,-181.5 1497.5,-181.5 1497.5,-200.5"/>
<text text-anchor="middle" x="1441" y="-188.5" font-family="Helvetica,sans-Serif" font-size="10.00">src/core/vs/tensor.H</text>
</a>
</g>
</g>
<!-- Node21&#45;&gt;Node29 -->
<g id="edge34_Node000021_Node000029" class="edge">
<title>Node21&#45;&gt;Node29</title>
<g id="a_edge34_Node000021_Node000029"><a xlink:title=" ">
<path fill="none" stroke="#63b8ff" d="M1375.64,-241.8C1389.12,-231.53 1407.31,-217.67 1421.08,-207.18"/>
<polygon fill="#63b8ff" stroke="#63b8ff" points="1423.56,-209.69 1429.39,-200.84 1419.32,-204.12 1423.56,-209.69"/>
</a>
</g>
</g>
<!-- Node23 -->
<g id="Node000023" class="node">
<title>Node23</title>
<g id="a_Node000023"><a xlink:title=" ">
<polygon fill="#e0e0e0" stroke="#999999" points="1360.5,-19 1273.5,-19 1273.5,0 1360.5,0 1360.5,-19"/>
<text text-anchor="middle" x="1317" y="-7" font-family="Helvetica,sans-Serif" font-size="10.00">AMReX_Gpu.H</text>
</a>
</g>
</g>
<!-- Node22&#45;&gt;Node23 -->
<g id="edge27_Node000022_Node000023" class="edge">
<title>Node22&#45;&gt;Node23</title>
<g id="a_edge27_Node000022_Node000023"><a xlink:title=" ">
<path fill="none" stroke="#63b8ff" d="M1638.97,-120.72C1641.9,-105.15 1645.34,-72.66 1628,-55 1589.35,-15.63 1442,-26.4 1370.62,-18.83"/>
<polygon fill="#63b8ff" stroke="#63b8ff" points="1371.02,-15.36 1360.66,-17.57 1370.14,-22.3 1371.02,-15.36"/>
</a>
</g>
</g>
<!-- Node24 -->
<g id="Node000024" class="node">
<title>Node24</title>
<g id="a_Node000024"><a xlink:href="vstraits_8_h.html" target="_top" xlink:title=" ">
<polygon fill="white" stroke="#666666" points="1618.5,-79.5 1499.5,-79.5 1499.5,-60.5 1618.5,-60.5 1618.5,-79.5"/>
<text text-anchor="middle" x="1559" y="-67.5" font-family="Helvetica,sans-Serif" font-size="10.00">src/core/vs/vstraits.H</text>
</a>
</g>
</g>
<!-- Node22&#45;&gt;Node24 -->
<g id="edge28_Node000022_Node000024" class="edge">
<title>Node22&#45;&gt;Node24</title>
<g id="a_edge28_Node000022_Node000024"><a xlink:title=" ">
<path fill="none" stroke="#63b8ff" d="M1625.49,-120.87C1613.16,-111.62 1593.38,-96.78 1578.59,-85.69"/>
<polygon fill="#63b8ff" stroke="#63b8ff" points="1580.66,-82.87 1570.56,-79.67 1576.46,-88.47 1580.66,-82.87"/>
</a>
</g>
</g>
<!-- Node26 -->
<g id="Node000026" class="node">
<title>Node26</title>
<g id="a_Node000026"><a xlink:href="vector_i_8_h.html" target="_top" xlink:title=" ">
<polygon fill="white" stroke="#666666" points="1791,-79.5 1675,-79.5 1675,-60.5 1791,-60.5 1791,-79.5"/>
<text text-anchor="middle" x="1733" y="-67.5" font-family="Helvetica,sans-Serif" font-size="10.00">src/core/vs/vectorI.H</text>
</a>
</g>
</g>
<!-- Node22&#45;&gt;Node26 -->
<g id="edge30_Node000022_Node000026" class="edge">
<title>Node22&#45;&gt;Node26</title>
<g id="a_edge30_Node000022_Node000026"><a xlink:title=" ">
<path fill="none" stroke="#63b8ff" d="M1646.21,-120.87C1659.82,-111.32 1684.99,-95.81 1704.85,-84.62"/>
<polygon fill="#63b8ff" stroke="#63b8ff" points="1706.75,-87.56 1713.81,-79.67 1703.37,-81.44 1706.75,-87.56"/>
</a>
</g>
</g>
<!-- Node25 -->
<g id="Node000025" class="node">
<title>Node25</title>
<g id="a_Node000025"><a xlink:title=" ">
<polygon fill="#e0e0e0" stroke="#999999" points="1581,-19 1537,-19 1537,0 1581,0 1581,-19"/>
<text text-anchor="middle" x="1559" y="-7" font-family="Helvetica,sans-Serif" font-size="10.00">limits</text>
</a>
</g>
</g>
<!-- Node24&#45;&gt;Node25 -->
<g id="edge29_Node000024_Node000025" class="edge">
<title>Node24&#45;&gt;Node25</title>
<g id="a_edge29_Node000024_Node000025"><a xlink:title=" ">
<path fill="none" stroke="#63b8ff" d="M1559,-60.37C1559,-52.25 1559,-39.81 1559,-29.39"/>
<polygon fill="#63b8ff" stroke="#63b8ff" points="1562.5,-29.17 1559,-19.17 1555.5,-29.17 1562.5,-29.17"/>
</a>
</g>
</g>
<!-- Node26&#45;&gt;Node22 -->
<g id="edge33_Node000026_Node000022" class="edge">
<title>Node26&#45;&gt;Node22</title>
<g id="a_edge33_Node000026_Node000022"><a xlink:title=" ">
<path fill="none" stroke="#63b8ff" d="M1723.74,-79.67C1710.11,-89.23 1684.93,-104.74 1665.08,-115.92"/>
<polygon fill="#63b8ff" stroke="#63b8ff" points="1663.19,-112.97 1656.12,-120.87 1666.57,-119.1 1663.19,-112.97"/>
</a>
</g>
</g>
<!-- Node27 -->
<g id="Node000027" class="node">
<title>Node27</title>
<g id="a_Node000027"><a xlink:title=" ">
<polygon fill="#e0e0e0" stroke="#999999" points="1761.5,-19 1704.5,-19 1704.5,0 1761.5,0 1761.5,-19"/>
<text text-anchor="middle" x="1733" y="-7" font-family="Helvetica,sans-Serif" font-size="10.00">ostream</text>
</a>
</g>
</g>
<!-- Node26&#45;&gt;Node27 -->
<g id="edge31_Node000026_Node000027" class="edge">
<title>Node26&#45;&gt;Node27</title>
<g id="a_edge31_Node000026_Node000027"><a xlink:title=" ">
<path fill="none" stroke="#63b8ff" d="M1733,-60.37C1733,-52.25 1733,-39.81 1733,-29.39"/>
<polygon fill="#63b8ff" stroke="#63b8ff" points="1736.5,-29.17 1733,-19.17 1729.5,-29.17 1736.5,-29.17"/>
</a>
</g>
</g>
<!-- Node28 -->
<g id="Node000028" class="node">
<title>Node28</title>
<g id="a_Node000028"><a xlink:title=" ">
<polygon fill="#e0e0e0" stroke="#999999" points="1502.5,-19 1455.5,-19 1455.5,0 1502.5,0 1502.5,-19"/>
<text text-anchor="middle" x="1479" y="-7" font-family="Helvetica,sans-Serif" font-size="10.00">cmath</text>
</a>
</g>
</g>
<!-- Node26&#45;&gt;Node28 -->
<g id="edge32_Node000026_Node000028" class="edge">
<title>Node26&#45;&gt;Node28</title>
<g id="a_edge32_Node000026_Node000028"><a xlink:title=" ">
<path fill="none" stroke="#63b8ff" d="M1696.07,-60.49C1646.72,-49.13 1559.98,-29.15 1512.46,-18.21"/>
<polygon fill="#63b8ff" stroke="#63b8ff" points="1513.19,-14.78 1502.66,-15.95 1511.62,-21.61 1513.19,-14.78"/>
</a>
</g>
</g>
<!-- Node29&#45;&gt;Node22 -->
<g id="edge37_Node000029_Node000022" class="edge">
<title>Node29&#45;&gt;Node22</title>
<g id="a_edge37_Node000029_Node000022"><a xlink:title=" ">
<path fill="none" stroke="#63b8ff" d="M1469.5,-181.49C1503.61,-171.31 1560.87,-154.22 1598.79,-142.9"/>
<polygon fill="#63b8ff" stroke="#63b8ff" points="1599.88,-146.23 1608.47,-140.02 1597.88,-139.52 1599.88,-146.23"/>
</a>
</g>
</g>
<!-- Node29&#45;&gt;Node23 -->
<g id="edge35_Node000029_Node000023" class="edge">
<title>Node29&#45;&gt;Node23</title>
<g id="a_edge35_Node000029_Node000023"><a xlink:title=" ">
<path fill="none" stroke="#63b8ff" d="M1425.94,-181.41C1411.3,-172.5 1389.12,-157.43 1374,-140 1344.99,-106.55 1328.57,-56.01 1321.4,-29.02"/>
<polygon fill="#63b8ff" stroke="#63b8ff" points="1324.71,-27.86 1318.88,-19.02 1317.93,-29.57 1324.71,-27.86"/>
</a>
</g>
</g>
<!-- Node29&#45;&gt;Node24 -->
<g id="edge36_Node000029_Node000024" class="edge">
<title>Node29&#45;&gt;Node24</title>
<g id="a_edge36_Node000029_Node000024"><a xlink:title=" ">
<path fill="none" stroke="#63b8ff" d="M1454.76,-181.47C1468.99,-172.26 1491.41,-156.66 1508,-140 1523.86,-124.06 1538.75,-102.93 1548.3,-88.27"/>
<polygon fill="#63b8ff" stroke="#63b8ff" points="1551.34,-90.01 1553.76,-79.69 1545.43,-86.25 1551.34,-90.01"/>
</a>
</g>
</g>
<!-- Node30 -->
<g id="Node000030" class="node">
<title>Node30</title>
<g id="a_Node000030"><a xlink:href="tensor_i_8_h.html" target="_top" xlink:title=" ">
<polygon fill="white" stroke="#666666" points="1499,-140 1383,-140 1383,-121 1499,-121 1499,-140"/>
<text text-anchor="middle" x="1441" y="-128" font-family="Helvetica,sans-Serif" font-size="10.00">src/core/vs/tensorI.H</text>
</a>
</g>
</g>
<!-- Node29&#45;&gt;Node30 -->
<g id="edge38_Node000029_Node000030" class="edge">
<title>Node29&#45;&gt;Node30</title>
<g id="a_edge38_Node000029_Node000030"><a xlink:title=" ">
<path fill="none" stroke="#63b8ff" d="M1436.04,-181.37C1434.29,-173.25 1433.82,-160.81 1434.64,-150.39"/>
<polygon fill="#63b8ff" stroke="#63b8ff" points="1438.15,-150.55 1436.04,-140.17 1431.22,-149.6 1438.15,-150.55"/>
</a>
</g>
</g>
<!-- Node30&#45;&gt;Node28 -->
<g id="edge39_Node000030_Node000028" class="edge">
<title>Node30&#45;&gt;Node28</title>
<g id="a_edge39_Node000030_Node000028"><a xlink:title=" ">
<path fill="none" stroke="#63b8ff" d="M1443.73,-120.94C1449.84,-101.82 1464.7,-55.27 1473.05,-29.12"/>
<polygon fill="#63b8ff" stroke="#63b8ff" points="1476.48,-29.89 1476.19,-19.3 1469.81,-27.76 1476.48,-29.89"/>
</a>
</g>
</g>
<!-- Node30&#45;&gt;Node29 -->
<g id="edge40_Node000030_Node000029" class="edge">
<title>Node30&#45;&gt;Node29</title>
<g id="a_edge40_Node000030_Node000029"><a xlink:title=" ">
<path fill="none" stroke="#63b8ff" d="M1445.96,-140.17C1447.71,-148.3 1448.18,-160.74 1447.35,-171.16"/>
<polygon fill="#63b8ff" stroke="#63b8ff" points="1443.85,-170.99 1445.96,-181.37 1450.78,-171.94 1443.85,-170.99"/>
</a>
</g>
</g>
<!-- Node31 -->
<g id="Node000031" class="node">
<title>Node31</title>
<g id="a_Node000031"><a xlink:href="trig__ops_8_h.html" target="_top" xlink:title=" ">
<polygon fill="white" stroke="#666666" points="1443,-85 1353,-85 1353,-55 1443,-55 1443,-85"/>
<text text-anchor="start" x="1361" y="-73" font-family="Helvetica,sans-Serif" font-size="10.00">src/utilities/trig</text>
<text text-anchor="middle" x="1398" y="-62" font-family="Helvetica,sans-Serif" font-size="10.00">_ops.H</text>
</a>
</g>
</g>
<!-- Node30&#45;&gt;Node31 -->
<g id="edge41_Node000030_Node000031" class="edge">
<title>Node30&#45;&gt;Node31</title>
<g id="a_edge41_Node000030_Node000031"><a xlink:title=" ">
<path fill="none" stroke="#63b8ff" d="M1434.66,-120.87C1429.31,-113.59 1421.41,-102.85 1414.32,-93.2"/>
<polygon fill="#63b8ff" stroke="#63b8ff" points="1417.12,-91.1 1408.37,-85.11 1411.48,-95.25 1417.12,-91.1"/>
</a>
</g>
</g>
<!-- Node31&#45;&gt;Node16 -->
<g id="edge44_Node000031_Node000016" class="edge">
<title>Node31&#45;&gt;Node16</title>
<g id="a_edge44_Node000031_Node000016"><a xlink:title=" ">
<path fill="none" stroke="#63b8ff" d="M1352.95,-59.27C1304.23,-48.76 1226.8,-32.04 1176.43,-21.17"/>
<polygon fill="#63b8ff" stroke="#63b8ff" points="1176.94,-17.7 1166.43,-19.01 1175.47,-24.54 1176.94,-17.7"/>
</a>
</g>
</g>
<!-- Node31&#45;&gt;Node23 -->
<g id="edge45_Node000031_Node000023" class="edge">
<title>Node31&#45;&gt;Node23</title>
<g id="a_edge45_Node000031_Node000023"><a xlink:title=" ">
<path fill="none" stroke="#63b8ff" d="M1378.39,-54.84C1366.03,-45.91 1350.1,-34.41 1337.57,-25.35"/>
<polygon fill="#63b8ff" stroke="#63b8ff" points="1339.29,-22.28 1329.14,-19.27 1335.2,-27.96 1339.29,-22.28"/>
</a>
</g>
</g>
<!-- Node31&#45;&gt;Node28 -->
<g id="edge42_Node000031_Node000028" class="edge">
<title>Node31&#45;&gt;Node28</title>
<g id="a_edge42_Node000031_Node000028"><a xlink:title=" ">
<path fill="none" stroke="#63b8ff" d="M1417.61,-54.84C1429.97,-45.91 1445.9,-34.41 1458.43,-25.35"/>
<polygon fill="#63b8ff" stroke="#63b8ff" points="1460.8,-27.96 1466.86,-19.27 1456.71,-22.28 1460.8,-27.96"/>
</a>
</g>
</g>
<!-- Node32 -->
<g id="Node000032" class="node">
<title>Node32</title>
<g id="a_Node000032"><a xlink:title=" ">
<polygon fill="#e0e0e0" stroke="#999999" points="1437.5,-19 1378.5,-19 1378.5,0 1437.5,0 1437.5,-19"/>
<text text-anchor="middle" x="1408" y="-7" font-family="Helvetica,sans-Serif" font-size="10.00">numbers</text>
</a>
</g>
</g>
<!-- Node31&#45;&gt;Node32 -->
<g id="edge43_Node000031_Node000032" class="edge">
<title>Node31&#45;&gt;Node32</title>
<g id="a_edge43_Node000031_Node000032"><a xlink:title=" ">
<path fill="none" stroke="#63b8ff" d="M1400.42,-54.84C1401.74,-47.13 1403.39,-37.49 1404.81,-29.17"/>
<polygon fill="#63b8ff" stroke="#63b8ff" points="1408.27,-29.71 1406.5,-19.27 1401.37,-28.53 1408.27,-29.71"/>
</a>
</g>
</g>
<!-- Node33&#45;&gt;Node16 -->
<g id="edge48_Node000033_Node000016" class="edge">
<title>Node33&#45;&gt;Node16</title>
<g id="a_edge48_Node000033_Node000016"><a xlink:title=" ">
<path fill="none" stroke="#63b8ff" d="M1216.74,-54.99C1197.58,-45.49 1172.42,-33.02 1153.61,-23.69"/>
<polygon fill="#63b8ff" stroke="#63b8ff" points="1154.94,-20.45 1144.43,-19.14 1151.83,-26.72 1154.94,-20.45"/>
</a>
</g>
</g>
<!-- Node33&#45;&gt;Node23 -->
<g id="edge47_Node000033_Node000023" class="edge">
<title>Node33&#45;&gt;Node23</title>
<g id="a_edge47_Node000033_Node000023"><a xlink:title=" ">
<path fill="none" stroke="#63b8ff" d="M1262.43,-54.84C1273.31,-46 1287.3,-34.63 1298.39,-25.62"/>
<polygon fill="#63b8ff" stroke="#63b8ff" points="1300.66,-28.29 1306.21,-19.27 1296.24,-22.86 1300.66,-28.29"/>
</a>
</g>
</g>
<!-- Node35&#45;&gt;Node3 -->
<g id="edge52_Node000035_Node000003" class="edge">
<title>Node35&#45;&gt;Node3</title>
<g id="a_edge52_Node000035_Node000003"><a xlink:title=" ">
<path fill="none" stroke="#63b8ff" d="M886.8,-307.8C875.76,-299.18 861.49,-288.04 849.24,-278.48"/>
<polygon fill="#63b8ff" stroke="#63b8ff" points="851.18,-275.56 841.15,-272.16 846.88,-281.08 851.18,-275.56"/>
</a>
</g>
</g>
</g>
</svg>

<g id="navigator" transform="translate(0 0)" fill="#404254">
  <rect fill="#f2f5e9" fill-opacity="0.5" stroke="#606060" stroke-width=".5" x="0" y="0" width="60" height="60"/>
  <use id="zoomplus" xlink:href="#zoomPlus" x="17" y="9" onmousedown="handleZoom(evt,'in')"/>
  <use id="zoomminus" xlink:href="#zoomMin" x="42" y="9" onmousedown="handleZoom(evt,'out')"/>
  <use id="reset" xlink:href="#resetDef" x="30" y="36" onmousedown="handleReset()"/>
   <use id="arrowup" xlink:href="#arrowUp" x="0" y="0" onmousedown="handlePan(0,-1)"/>
  <use id="arrowright" xlink:href="#arrowRight" x="0" y="0" onmousedown="handlePan(1,0)"/>
  <use id="arrowdown" xlink:href="#arrowDown" x="0" y="0" onmousedown="handlePan(0,1)"/>
  <use id="arrowleft" xlink:href="#arrowLeft" x="0" y="0" onmousedown="handlePan(-1,0)"/>
</g>
<svg viewBox="0 0 15 15" width="100%" height="30px" preserveAspectRatio="xMaxYMin meet">
 <g id="arrow_out" transform="scale(0.3 0.3)">
  <a xlink:href="_radar_sampler_8_h__incl_org.svg" target="_base">
   <rect id="button" ry="5" rx="5" y="6" x="6" height="38" width="38"
        fill="#f2f5e9" fill-opacity="0.5" stroke="#606060" stroke-width="1.0"/>
   <path id="arrow"
     d="M 11.500037,31.436501 C 11.940474,20.09759 22.043105,11.32322 32.158766,21.979434 L 37.068811,17.246167 C 37.068811,17.246167 37.088388,32 37.088388,32 L 22.160133,31.978069 C 22.160133,31.978069 26.997745,27.140456 26.997745,27.140456 C 18.528582,18.264221 13.291696,25.230495 11.500037,31.436501 z"
     style="fill:#404040;"/>
  </a>
 </g>
</svg>

<style type='text/css'>
<![CDATA[
[data-mouse-over-selected='false'] { opacity: 0.7; }
[data-mouse-over-selected='true']  { opacity: 1.0; }
]]>
</style>
<script type="application/ecmascript"><![CDATA[
document.addEventListener('DOMContentLoaded', (event) => {
  highlightEdges();
  highlightAdjacentNodes();
});
]]></script>
</svg>
