<?xml version="1.0" encoding="UTF-8" standalone="no"?>
<!DOCTYPE svg PUBLIC "-//W3C//DTD SVG 1.1//EN"
 "http://www.w3.org/Graphics/SVG/1.1/DTD/svg11.dtd">
<!-- Generated by graphviz version 2.43.0 (0)
 -->
<!-- Title: /home/runner/work/amr&#45;wind/amr&#45;wind/src/wind_energy/actuator/motion/RigidBodyMotion.H Pages: 1 -->
<svg width="660pt" height="500pt"
 viewBox="0.00 0.00 660.00 500.00" xmlns="http://www.w3.org/2000/svg" xmlns:xlink="http://www.w3.org/1999/xlink">
<g id="graph0" class="graph" transform="scale(1 1) rotate(0) translate(4 496)">
<title>/home/runner/work/amr&#45;wind/amr&#45;wind/src/wind_energy/actuator/motion/RigidBodyMotion.H</title>
<!-- Node1 -->
<g id="Node000001" class="node">
<title>Node1</title>
<g id="a_Node000001"><a xlink:title=" ">
<polygon fill="#999999" stroke="#666666" points="356,-492 219,-492 219,-440 356,-440 356,-492"/>
<text text-anchor="start" x="227" y="-480" font-family="Helvetica,sans-Serif" font-size="10.00">/home/runner/work/amr</text>
<text text-anchor="start" x="227" y="-469" font-family="Helvetica,sans-Serif" font-size="10.00">&#45;wind/amr&#45;wind/src/wind</text>
<text text-anchor="start" x="227" y="-458" font-family="Helvetica,sans-Serif" font-size="10.00">_energy/actuator/motion</text>
<text text-anchor="middle" x="287.5" y="-447" font-family="Helvetica,sans-Serif" font-size="10.00">/RigidBodyMotion.H</text>
</a>
</g>
</g>
<!-- Node2 -->
<g id="Node000002" class="node">
<title>Node2</title>
<g id="a_Node000002"><a xlink:href="_drone_8_h.html" target="_top" xlink:title=" ">
<polygon fill="white" stroke="#666666" points="185,-228 48,-228 48,-176 185,-176 185,-228"/>
<text text-anchor="start" x="56" y="-216" font-family="Helvetica,sans-Serif" font-size="10.00">/home/runner/work/amr</text>
<text text-anchor="start" x="56" y="-205" font-family="Helvetica,sans-Serif" font-size="10.00">&#45;wind/amr&#45;wind/src/wind</text>
<text text-anchor="start" x="56" y="-194" font-family="Helvetica,sans-Serif" font-size="10.00">_energy/actuator/drone</text>
<text text-anchor="middle" x="116.5" y="-183" font-family="Helvetica,sans-Serif" font-size="10.00">/Drone.H</text>
</a>
</g>
</g>
<!-- Node1&#45;&gt;Node2 -->
<g id="edge1_Node000001_Node000002" class="edge">
<title>Node1&#45;&gt;Node2</title>
<g id="a_edge1_Node000001_Node000002"><a xlink:title=" ">
<path fill="none" stroke="#63b8ff" d="M241.11,-433.64C229.98,-424.84 218.67,-414.72 209.5,-404 163.14,-349.8 135.13,-268.61 123.23,-228"/>
<polygon fill="#63b8ff" stroke="#63b8ff" points="239.09,-436.5 249.15,-439.8 243.35,-430.94 239.09,-436.5"/>
</a>
</g>
</g>
<!-- Node6 -->
<g id="Node000006" class="node">
<title>Node6</title>
<g id="a_Node000006"><a xlink:href="_rigid_body_motion_8cpp.html" target="_top" xlink:title=" ">
<polygon fill="white" stroke="#666666" points="652,-228 515,-228 515,-176 652,-176 652,-228"/>
<text text-anchor="start" x="523" y="-216" font-family="Helvetica,sans-Serif" font-size="10.00">/home/runner/work/amr</text>
<text text-anchor="start" x="523" y="-205" font-family="Helvetica,sans-Serif" font-size="10.00">&#45;wind/amr&#45;wind/src/wind</text>
<text text-anchor="start" x="523" y="-194" font-family="Helvetica,sans-Serif" font-size="10.00">_energy/actuator/motion</text>
<text text-anchor="middle" x="583.5" y="-183" font-family="Helvetica,sans-Serif" font-size="10.00">/RigidBodyMotion.cpp</text>
</a>
</g>
</g>
<!-- Node1&#45;&gt;Node6 -->
<g id="edge6_Node000001_Node000006" class="edge">
<title>Node1&#45;&gt;Node6</title>
<g id="a_edge6_Node000001_Node000006"><a xlink:title=" ">
<path fill="none" stroke="#63b8ff" d="M328.16,-433.69C340.02,-424.31 352.9,-413.89 364.5,-404 436.15,-342.88 516.94,-266.75 557.43,-228.08"/>
<polygon fill="#63b8ff" stroke="#63b8ff" points="325.84,-431.06 320.14,-439.99 330.17,-436.56 325.84,-431.06"/>
</a>
</g>
</g>
<!-- Node7 -->
<g id="Node000007" class="node">
<title>Node7</title>
<g id="a_Node000007"><a xlink:href="_actuator_sector_8_h.html" target="_top" xlink:title=" ">
<polygon fill="white" stroke="#666666" points="356,-404 219,-404 219,-352 356,-352 356,-404"/>
<text text-anchor="start" x="227" y="-392" font-family="Helvetica,sans-Serif" font-size="10.00">/home/runner/work/amr</text>
<text text-anchor="start" x="227" y="-381" font-family="Helvetica,sans-Serif" font-size="10.00">&#45;wind/amr&#45;wind/src/wind</text>
<text text-anchor="start" x="227" y="-370" font-family="Helvetica,sans-Serif" font-size="10.00">_energy/actuator/sector</text>
<text text-anchor="middle" x="287.5" y="-359" font-family="Helvetica,sans-Serif" font-size="10.00">/ActuatorSector.H</text>
</a>
</g>
</g>
<!-- Node1&#45;&gt;Node7 -->
<g id="edge7_Node000001_Node000007" class="edge">
<title>Node1&#45;&gt;Node7</title>
<g id="a_edge7_Node000001_Node000007"><a xlink:title=" ">
<path fill="none" stroke="#63b8ff" d="M287.5,-429.56C287.5,-421.04 287.5,-412.1 287.5,-404.16"/>
<polygon fill="#63b8ff" stroke="#63b8ff" points="284,-429.66 287.5,-439.66 291,-429.66 284,-429.66"/>
</a>
</g>
</g>
<!-- Node3 -->
<g id="Node000003" class="node">
<title>Node3</title>
<g id="a_Node000003"><a xlink:href="_drone_8cpp.html" target="_top" xlink:title=" ">
<polygon fill="white" stroke="#666666" points="137,-52 0,-52 0,0 137,0 137,-52"/>
<text text-anchor="start" x="8" y="-40" font-family="Helvetica,sans-Serif" font-size="10.00">/home/runner/work/amr</text>
<text text-anchor="start" x="8" y="-29" font-family="Helvetica,sans-Serif" font-size="10.00">&#45;wind/amr&#45;wind/src/wind</text>
<text text-anchor="start" x="8" y="-18" font-family="Helvetica,sans-Serif" font-size="10.00">_energy/actuator/drone</text>
<text text-anchor="middle" x="68.5" y="-7" font-family="Helvetica,sans-Serif" font-size="10.00">/Drone.cpp</text>
</a>
</g>
</g>
<!-- Node2&#45;&gt;Node3 -->
<g id="edge2_Node000002_Node000003" class="edge">
<title>Node2&#45;&gt;Node3</title>
<g id="a_edge2_Node000002_Node000003"><a xlink:title=" ">
<path fill="none" stroke="#63b8ff" d="M98.1,-166.58C94.13,-158.07 90.29,-148.86 87.5,-140 78.24,-110.59 73.22,-75.37 70.71,-52.15"/>
<polygon fill="#63b8ff" stroke="#63b8ff" points="95.07,-168.35 102.59,-175.82 101.37,-165.29 95.07,-168.35"/>
</a>
</g>
</g>
<!-- Node4 -->
<g id="Node000004" class="node">
<title>Node4</title>
<g id="a_Node000004"><a xlink:href="drone__ops_8_h.html" target="_top" xlink:title=" ">
<polygon fill="white" stroke="#666666" points="234,-140 97,-140 97,-88 234,-88 234,-140"/>
<text text-anchor="start" x="105" y="-128" font-family="Helvetica,sans-Serif" font-size="10.00">/home/runner/work/amr</text>
<text text-anchor="start" x="105" y="-117" font-family="Helvetica,sans-Serif" font-size="10.00">&#45;wind/amr&#45;wind/src/wind</text>
<text text-anchor="start" x="105" y="-106" font-family="Helvetica,sans-Serif" font-size="10.00">_energy/actuator/drone</text>
<text text-anchor="middle" x="165.5" y="-95" font-family="Helvetica,sans-Serif" font-size="10.00">/drone_ops.H</text>
</a>
</g>
</g>
<!-- Node2&#45;&gt;Node4 -->
<g id="edge3_Node000002_Node000004" class="edge">
<title>Node2&#45;&gt;Node4</title>
<g id="a_edge3_Node000002_Node000004"><a xlink:title=" ">
<path fill="none" stroke="#63b8ff" d="M135.89,-166.96C140.99,-158.02 146.39,-148.54 151.17,-140.16"/>
<polygon fill="#63b8ff" stroke="#63b8ff" points="132.85,-165.24 130.94,-175.66 138.93,-168.71 132.85,-165.24"/>
</a>
</g>
</g>
<!-- Node4&#45;&gt;Node3 -->
<g id="edge4_Node000004_Node000003" class="edge">
<title>Node4&#45;&gt;Node3</title>
<g id="a_edge4_Node000004_Node000003"><a xlink:title=" ">
<path fill="none" stroke="#63b8ff" d="M129.56,-81.13C118.82,-71.62 107.21,-61.32 97.02,-52.29"/>
<polygon fill="#63b8ff" stroke="#63b8ff" points="127.38,-83.88 137.18,-87.89 132.02,-78.64 127.38,-83.88"/>
</a>
</g>
</g>
<!-- Node5 -->
<g id="Node000005" class="node">
<title>Node5</title>
<g id="a_Node000005"><a xlink:href="drone__ops_8cpp.html" target="_top" xlink:title=" ">
<polygon fill="white" stroke="#666666" points="292,-52 155,-52 155,0 292,0 292,-52"/>
<text text-anchor="start" x="163" y="-40" font-family="Helvetica,sans-Serif" font-size="10.00">/home/runner/work/amr</text>
<text text-anchor="start" x="163" y="-29" font-family="Helvetica,sans-Serif" font-size="10.00">&#45;wind/amr&#45;wind/src/wind</text>
<text text-anchor="start" x="163" y="-18" font-family="Helvetica,sans-Serif" font-size="10.00">_energy/actuator/drone</text>
<text text-anchor="middle" x="223.5" y="-7" font-family="Helvetica,sans-Serif" font-size="10.00">/drone_ops.cpp</text>
</a>
</g>
</g>
<!-- Node4&#45;&gt;Node5 -->
<g id="edge5_Node000004_Node000005" class="edge">
<title>Node4&#45;&gt;Node5</title>
<g id="a_edge5_Node000004_Node000005"><a xlink:title=" ">
<path fill="none" stroke="#63b8ff" d="M188.27,-79.24C194.35,-70.22 200.82,-60.63 206.53,-52.16"/>
<polygon fill="#63b8ff" stroke="#63b8ff" points="185.28,-77.41 182.59,-87.66 191.08,-81.33 185.28,-77.41"/>
</a>
</g>
</g>
<!-- Node7&#45;&gt;Node2 -->
<g id="edge8_Node000007_Node000002" class="edge">
<title>Node7&#45;&gt;Node2</title>
<g id="a_edge8_Node000007_Node000002"><a xlink:title=" ">
<path fill="none" stroke="#63b8ff" d="M244.05,-345.72C232.39,-336.62 220.1,-326.34 209.5,-316 180.94,-288.15 152.44,-251.96 134.66,-228.13"/>
<polygon fill="#63b8ff" stroke="#63b8ff" points="241.92,-348.5 251.98,-351.82 246.18,-342.95 241.92,-348.5"/>
</a>
</g>
</g>
<!-- Node8 -->
<g id="Node000008" class="node">
<title>Node8</title>
<g id="a_Node000008"><a xlink:href="_actuator_sector_8cpp.html" target="_top" xlink:title=" ">
<polygon fill="white" stroke="#666666" points="497,-228 360,-228 360,-176 497,-176 497,-228"/>
<text text-anchor="start" x="368" y="-216" font-family="Helvetica,sans-Serif" font-size="10.00">/home/runner/work/amr</text>
<text text-anchor="start" x="368" y="-205" font-family="Helvetica,sans-Serif" font-size="10.00">&#45;wind/amr&#45;wind/src/wind</text>
<text text-anchor="start" x="368" y="-194" font-family="Helvetica,sans-Serif" font-size="10.00">_energy/actuator/sector</text>
<text text-anchor="middle" x="428.5" y="-183" font-family="Helvetica,sans-Serif" font-size="10.00">/ActuatorSector.cpp</text>
</a>
</g>
</g>
<!-- Node7&#45;&gt;Node8 -->
<g id="edge9_Node000007_Node000008" class="edge">
<title>Node7&#45;&gt;Node8</title>
<g id="a_edge9_Node000007_Node000008"><a xlink:title=" ">
<path fill="none" stroke="#63b8ff" d="M332.9,-345.77C344,-336.92 355.31,-326.74 364.5,-316 387.67,-288.94 406.62,-252.24 417.73,-228.1"/>
<polygon fill="#63b8ff" stroke="#63b8ff" points="330.65,-343.09 324.89,-351.98 334.94,-348.62 330.65,-343.09"/>
</a>
</g>
</g>
<!-- Node9 -->
<g id="Node000009" class="node">
<title>Node9</title>
<g id="a_Node000009"><a xlink:href="actuator__sector__ops_8_h.html" target="_top" xlink:title=" ">
<polygon fill="white" stroke="#666666" points="356,-316 219,-316 219,-264 356,-264 356,-316"/>
<text text-anchor="start" x="227" y="-304" font-family="Helvetica,sans-Serif" font-size="10.00">/home/runner/work/amr</text>
<text text-anchor="start" x="227" y="-293" font-family="Helvetica,sans-Serif" font-size="10.00">&#45;wind/amr&#45;wind/src/wind</text>
<text text-anchor="start" x="227" y="-282" font-family="Helvetica,sans-Serif" font-size="10.00">_energy/actuator/sector</text>
<text text-anchor="middle" x="287.5" y="-271" font-family="Helvetica,sans-Serif" font-size="10.00">/actuator_sector_ops.H</text>
</a>
</g>
</g>
<!-- Node7&#45;&gt;Node9 -->
<g id="edge10_Node000007_Node000009" class="edge">
<title>Node7&#45;&gt;Node9</title>
<g id="a_edge10_Node000007_Node000009"><a xlink:title=" ">
<path fill="none" stroke="#63b8ff" d="M287.5,-341.56C287.5,-333.04 287.5,-324.1 287.5,-316.16"/>
<polygon fill="#63b8ff" stroke="#63b8ff" points="284,-341.66 287.5,-351.66 291,-341.66 284,-341.66"/>
</a>
</g>
</g>
<!-- Node9&#45;&gt;Node2 -->
<g id="edge11_Node000009_Node000002" class="edge">
<title>Node9&#45;&gt;Node2</title>
<g id="a_edge11_Node000009_Node000002"><a xlink:title=" ">
<path fill="none" stroke="#63b8ff" d="M228.47,-259.31C208.28,-249.16 185.89,-237.9 166.48,-228.14"/>
<polygon fill="#63b8ff" stroke="#63b8ff" points="227.07,-262.53 237.58,-263.89 230.22,-256.27 227.07,-262.53"/>
</a>
</g>
</g>
<!-- Node9&#45;&gt;Node6 -->
<g id="edge12_Node000009_Node000006" class="edge">
<title>Node9&#45;&gt;Node6</title>
<g id="a_edge12_Node000009_Node000006"><a xlink:title=" ">
<path fill="none" stroke="#63b8ff" d="M366.2,-267.74C407.74,-256.33 459.5,-241.8 505.5,-228 508.5,-227.1 511.55,-226.17 514.64,-225.22"/>
<polygon fill="#63b8ff" stroke="#63b8ff" points="365.14,-264.4 356.42,-270.42 366.99,-271.15 365.14,-264.4"/>
</a>
</g>
</g>
<!-- Node9&#45;&gt;Node8 -->
<g id="edge13_Node000009_Node000008" class="edge">
<title>Node9&#45;&gt;Node8</title>
<g id="a_edge13_Node000009_Node000008"><a xlink:title=" ">
<path fill="none" stroke="#63b8ff" d="M337.49,-258.51C353.71,-248.62 371.51,-237.76 387.04,-228.29"/>
<polygon fill="#63b8ff" stroke="#63b8ff" points="335.38,-255.7 328.66,-263.89 339.02,-261.67 335.38,-255.7"/>
</a>
</g>
</g>
<!-- Node10 -->
<g id="Node000010" class="node">
<title>Node10</title>
<g id="a_Node000010"><a xlink:href="actuator__sector__ops_8cpp.html" target="_top" xlink:title=" ">
<polygon fill="white" stroke="#666666" points="341.5,-228 203.5,-228 203.5,-176 341.5,-176 341.5,-228"/>
<text text-anchor="start" x="211.5" y="-216" font-family="Helvetica,sans-Serif" font-size="10.00">/home/runner/work/amr</text>
<text text-anchor="start" x="211.5" y="-205" font-family="Helvetica,sans-Serif" font-size="10.00">&#45;wind/amr&#45;wind/src/wind</text>
<text text-anchor="start" x="211.5" y="-194" font-family="Helvetica,sans-Serif" font-size="10.00">_energy/actuator/sector</text>
<text text-anchor="middle" x="272.5" y="-183" font-family="Helvetica,sans-Serif" font-size="10.00">/actuator_sector_ops.cpp</text>
</a>
</g>
</g>
<!-- Node9&#45;&gt;Node10 -->
<g id="edge14_Node000009_Node000010" class="edge">
<title>Node9&#45;&gt;Node10</title>
<g id="a_edge14_Node000009_Node000010"><a xlink:title=" ">
<path fill="none" stroke="#63b8ff" d="M281.32,-253.56C279.83,-245.04 278.27,-236.1 276.89,-228.16"/>
<polygon fill="#63b8ff" stroke="#63b8ff" points="277.91,-254.41 283.08,-263.66 284.81,-253.21 277.91,-254.41"/>
</a>
</g>
</g>
</g>
</svg>
