<?xml version="1.0" encoding="UTF-8" standalone="no"?>
<!DOCTYPE svg PUBLIC "-//W3C//DTD SVG 1.1//EN"
 "http://www.w3.org/Graphics/SVG/1.1/DTD/svg11.dtd">
<!-- Generated by graphviz version 2.43.0 (0)
 -->
<!-- Title: /home/runner/work/amr&#45;wind/amr&#45;wind/src/wind_energy/actuator/disk/UniformCt.H Pages: 1 -->
<!--zoomable 478 -->

<svg id="main" version="1.1" xmlns="http://www.w3.org/2000/svg" xmlns:xlink="http://www.w3.org/1999/xlink" xml:space="preserve" onload="init(evt)">

<style type="text/css"><![CDATA[
.node, .edge {opacity: 0.7;}
.node.selected, .edge.selected {opacity: 1;}
.edge:hover path { stroke: red; }
.edge:hover polygon { stroke: red; fill: red; }
]]></style>

<defs>
  <circle id="rim" cx="0" cy="0" r="7"/>
  <circle id="rim2" cx="0" cy="0" r="3.5"/>
  <g id="zoomPlus">
    <use xlink:href="#rim" fill="#404040"><set attributeName="fill" to="#808080" begin="zoomplus.mouseover" end="zoomplus.mouseout"/></use>
    <path d="M-4,0h8M0,-4v8" fill="none" stroke="white" stroke-width="1.5" pointer-events="none"/>
  </g>
  <g id="zoomMin">
    <use xlink:href="#rim" fill="#404040"><set attributeName="fill" to="#808080" begin="zoomminus.mouseover" end="zoomminus.mouseout"/></use>
    <path d="M-4,0h8" fill="none" stroke="white" stroke-width="1.5" pointer-events="none"/>
  </g>
  <g id="arrowUp" transform="translate(30 24)">
    <use xlink:href="#rim"/>
    <path pointer-events="none" fill="none" stroke="white" stroke-width="1.5" d="M0,-3.0v7 M-2.5,-0.5L0,-3.0L2.5,-0.5"/>
  </g>
  <g id="arrowRight" transform="rotate(90) translate(36 -43)">
    <use xlink:href="#rim"/>
    <path pointer-events="none" fill="none" stroke="white" stroke-width="1.5" d="M0,-3.0v7 M-2.5,-0.5L0,-3.0L2.5,-0.5"/>
  </g>
  <g id="arrowDown" transform="rotate(180) translate(-30 -48)">
    <use xlink:href="#rim"/>
    <path pointer-events="none" fill="none" stroke="white" stroke-width="1.5" d="M0,-3.0v7 M-2.5,-0.5L0,-3.0L2.5,-0.5"/>
  </g>
  <g id="arrowLeft" transform="rotate(270) translate(-36 17)">
    <use xlink:href="#rim"/>
    <path pointer-events="none" fill="none" stroke="white" stroke-width="1.5" d="M0,-3.0v7 M-2.5,-0.5L0,-3.0L2.5,-0.5"/>
  </g>
  <g id="resetDef">
    <use xlink:href="#rim2" fill="#404040"><set attributeName="fill" to="#808080" begin="reset.mouseover" end="reset.mouseout"/></use>
  </g>
</defs>
<script type="application/ecmascript">
var viewWidth = 1310;
var viewHeight = 478;
var sectionId = 'dynsection-1';
</script>
<script type="application/ecmascript" xlink:href="svg.min.js"/>
<svg id="graph" class="graph">
<g id="viewport">
<title>/home/runner/work/amr&#45;wind/amr&#45;wind/src/wind_energy/actuator/disk/UniformCt.H</title>
<!-- Node1 -->
<g id="Node000001" class="node">
<title>Node1</title>
<g id="a_Node000001"><a xlink:title=" ">
<polygon fill="#999999" stroke="#666666" points="1285,-470 1099,-470 1099,-429 1285,-429 1285,-470"/>
<text text-anchor="start" x="1107" y="-458" font-family="Helvetica,sans-Serif" font-size="10.00">/home/runner/work/amr</text>
<text text-anchor="start" x="1107" y="-447" font-family="Helvetica,sans-Serif" font-size="10.00">&#45;wind/amr&#45;wind/src/wind</text>
<text text-anchor="middle" x="1192" y="-436" font-family="Helvetica,sans-Serif" font-size="10.00">_energy/actuator/disk/UniformCt.H</text>
</a>
</g>
</g>
<!-- Node2 -->
<g id="Node000002" class="node">
<title>Node2</title>
<g id="a_Node000002"><a xlink:href="_actuator_disk_8cpp.html" target="_top" xlink:title=" ">
<polygon fill="white" stroke="#666666" points="1275.5,-140 1108.5,-140 1108.5,-88 1275.5,-88 1275.5,-140"/>
<text text-anchor="start" x="1116.5" y="-128" font-family="Helvetica,sans-Serif" font-size="10.00">/home/runner/work/amr</text>
<text text-anchor="start" x="1116.5" y="-117" font-family="Helvetica,sans-Serif" font-size="10.00">&#45;wind/amr&#45;wind/src/wind</text>
<text text-anchor="start" x="1116.5" y="-106" font-family="Helvetica,sans-Serif" font-size="10.00">_energy/actuator/disk/Actuator</text>
<text text-anchor="middle" x="1192" y="-95" font-family="Helvetica,sans-Serif" font-size="10.00">Disk.cpp</text>
</a>
</g>
</g>
<!-- Node1&#45;&gt;Node2 -->
<g id="edge1_Node000001_Node000002" class="edge">
<title>Node1&#45;&gt;Node2</title>
<g id="a_edge1_Node000001_Node000002"><a xlink:title=" ">
<path fill="none" stroke="#63b8ff" d="M1252.18,-423.82C1264.49,-415.86 1275.86,-405.72 1283,-393 1313.46,-338.74 1300.88,-312.6 1283,-253 1269.8,-209.02 1237.56,-166.11 1215.23,-140.11"/>
<polygon fill="#63b8ff" stroke="#63b8ff" points="1250.33,-420.85 1243.54,-428.98 1253.92,-426.86 1250.33,-420.85"/>
</a>
</g>
</g>
<!-- Node3 -->
<g id="Node000003" class="node">
<title>Node3</title>
<g id="a_Node000003"><a xlink:href="disk__spreading_8_h.html" target="_top" xlink:title=" ">
<polygon fill="white" stroke="#666666" points="1092,-393 946,-393 946,-341 1092,-341 1092,-393"/>
<text text-anchor="start" x="954" y="-381" font-family="Helvetica,sans-Serif" font-size="10.00">/home/runner/work/amr</text>
<text text-anchor="start" x="954" y="-370" font-family="Helvetica,sans-Serif" font-size="10.00">&#45;wind/amr&#45;wind/src/wind</text>
<text text-anchor="start" x="954" y="-359" font-family="Helvetica,sans-Serif" font-size="10.00">_energy/actuator/disk/disk</text>
<text text-anchor="middle" x="1019" y="-348" font-family="Helvetica,sans-Serif" font-size="10.00">_spreading.H</text>
</a>
</g>
</g>
<!-- Node1&#45;&gt;Node3 -->
<g id="edge2_Node000001_Node000003" class="edge">
<title>Node1&#45;&gt;Node3</title>
<g id="a_edge2_Node000001_Node000003"><a xlink:title=" ">
<path fill="none" stroke="#63b8ff" d="M1140.48,-424.53C1119.2,-414.63 1094.53,-403.14 1073,-393.13"/>
<polygon fill="#63b8ff" stroke="#63b8ff" points="1139.14,-427.76 1149.68,-428.81 1142.09,-421.42 1139.14,-427.76"/>
</a>
</g>
</g>
<!-- Node14 -->
<g id="Node000014" class="node">
<title>Node14</title>
<g id="a_Node000014"><a xlink:href="uniform__ct__ops_8_h.html" target="_top" xlink:title=" ">
<polygon fill="white" stroke="#666666" points="1274,-393 1110,-393 1110,-341 1274,-341 1274,-393"/>
<text text-anchor="start" x="1118" y="-381" font-family="Helvetica,sans-Serif" font-size="10.00">/home/runner/work/amr</text>
<text text-anchor="start" x="1118" y="-370" font-family="Helvetica,sans-Serif" font-size="10.00">&#45;wind/amr&#45;wind/src/wind</text>
<text text-anchor="start" x="1118" y="-359" font-family="Helvetica,sans-Serif" font-size="10.00">_energy/actuator/disk/uniform</text>
<text text-anchor="middle" x="1192" y="-348" font-family="Helvetica,sans-Serif" font-size="10.00">_ct_ops.H</text>
</a>
</g>
</g>
<!-- Node1&#45;&gt;Node14 -->
<g id="edge15_Node000001_Node000014" class="edge">
<title>Node1&#45;&gt;Node14</title>
<g id="a_edge15_Node000001_Node000014"><a xlink:title=" ">
<path fill="none" stroke="#63b8ff" d="M1192,-418.49C1192,-410.15 1192,-401.19 1192,-393.16"/>
<polygon fill="#63b8ff" stroke="#63b8ff" points="1188.5,-418.6 1192,-428.6 1195.5,-418.6 1188.5,-418.6"/>
</a>
</g>
</g>
<!-- Node3&#45;&gt;Node2 -->
<g id="edge14_Node000003_Node000002" class="edge">
<title>Node3&#45;&gt;Node2</title>
<g id="a_edge14_Node000003_Node000002"><a xlink:title=" ">
<path fill="none" stroke="#63b8ff" d="M1030.99,-331.26C1046.04,-291 1074.73,-224.04 1114,-176 1124.99,-162.56 1139.45,-150.23 1152.93,-140.22"/>
<polygon fill="#63b8ff" stroke="#63b8ff" points="1027.62,-330.3 1027.46,-340.89 1034.19,-332.71 1027.62,-330.3"/>
</a>
</g>
</g>
<!-- Node4 -->
<g id="Node000004" class="node">
<title>Node4</title>
<g id="a_Node000004"><a xlink:href="_act_src_disk_op_8_h.html" target="_top" xlink:title=" ">
<polygon fill="white" stroke="#666666" points="998,-299.5 796,-299.5 796,-258.5 998,-258.5 998,-299.5"/>
<text text-anchor="start" x="804" y="-287.5" font-family="Helvetica,sans-Serif" font-size="10.00">/home/runner/work/amr</text>
<text text-anchor="start" x="804" y="-276.5" font-family="Helvetica,sans-Serif" font-size="10.00">&#45;wind/amr&#45;wind/src/wind</text>
<text text-anchor="middle" x="897" y="-265.5" font-family="Helvetica,sans-Serif" font-size="10.00">_energy/actuator/disk/ActSrcDiskOp.H</text>
</a>
</g>
</g>
<!-- Node3&#45;&gt;Node4 -->
<g id="edge3_Node000003_Node000004" class="edge">
<title>Node3&#45;&gt;Node4</title>
<g id="a_edge3_Node000003_Node000004"><a xlink:title=" ">
<path fill="none" stroke="#63b8ff" d="M974.83,-334.86C958.09,-323.06 939.51,-309.97 924.71,-299.53"/>
<polygon fill="#63b8ff" stroke="#63b8ff" points="973.19,-337.99 983.38,-340.89 977.23,-332.27 973.19,-337.99"/>
</a>
</g>
</g>
<!-- Node5 -->
<g id="Node000005" class="node">
<title>Node5</title>
<g id="a_Node000005"><a xlink:href="_actuator_model_8_h.html" target="_top" xlink:title=" ">
<polygon fill="white" stroke="#666666" points="872,-217 688,-217 688,-176 872,-176 872,-217"/>
<text text-anchor="start" x="696" y="-205" font-family="Helvetica,sans-Serif" font-size="10.00">/home/runner/work/amr</text>
<text text-anchor="start" x="696" y="-194" font-family="Helvetica,sans-Serif" font-size="10.00">&#45;wind/amr&#45;wind/src/wind</text>
<text text-anchor="middle" x="780" y="-183" font-family="Helvetica,sans-Serif" font-size="10.00">_energy/actuator/ActuatorModel.H</text>
</a>
</g>
</g>
<!-- Node4&#45;&gt;Node5 -->
<g id="edge4_Node000004_Node000005" class="edge">
<title>Node4&#45;&gt;Node5</title>
<g id="a_edge4_Node000004_Node000005"><a xlink:title=" ">
<path fill="none" stroke="#63b8ff" d="M859.99,-252.54C843.43,-241.14 824.19,-227.9 808.73,-217.27"/>
<polygon fill="#63b8ff" stroke="#63b8ff" points="858.16,-255.52 868.38,-258.31 862.12,-249.76 858.16,-255.52"/>
</a>
</g>
</g>
<!-- Node5&#45;&gt;Node2 -->
<g id="edge9_Node000005_Node000002" class="edge">
<title>Node5&#45;&gt;Node2</title>
<g id="a_edge9_Node000005_Node000002"><a xlink:title=" ">
<path fill="none" stroke="#63b8ff" d="M882.13,-180.14C944.96,-170.1 1026.97,-155.91 1099,-140 1102.1,-139.31 1105.26,-138.59 1108.44,-137.85"/>
<polygon fill="#63b8ff" stroke="#63b8ff" points="881.54,-176.69 872.22,-181.72 882.64,-183.6 881.54,-176.69"/>
</a>
</g>
</g>
<!-- Node6 -->
<g id="Node000006" class="node">
<title>Node6</title>
<g id="a_Node000006"><a xlink:href="_actuator_8_h.html" target="_top" xlink:title=" ">
<polygon fill="white" stroke="#666666" points="332.5,-134.5 179.5,-134.5 179.5,-93.5 332.5,-93.5 332.5,-134.5"/>
<text text-anchor="start" x="187.5" y="-122.5" font-family="Helvetica,sans-Serif" font-size="10.00">/home/runner/work/amr</text>
<text text-anchor="start" x="187.5" y="-111.5" font-family="Helvetica,sans-Serif" font-size="10.00">&#45;wind/amr&#45;wind/src/wind</text>
<text text-anchor="middle" x="256" y="-100.5" font-family="Helvetica,sans-Serif" font-size="10.00">_energy/actuator/Actuator.H</text>
</a>
</g>
</g>
<!-- Node5&#45;&gt;Node6 -->
<g id="edge5_Node000005_Node000006" class="edge">
<title>Node5&#45;&gt;Node6</title>
<g id="a_edge5_Node000005_Node000006"><a xlink:title=" ">
<path fill="none" stroke="#63b8ff" d="M677.49,-187.23C588.03,-178.89 455.04,-163.82 341,-140 333.62,-138.46 325.95,-136.59 318.38,-134.58"/>
<polygon fill="#63b8ff" stroke="#63b8ff" points="677.36,-190.73 687.64,-188.16 678,-183.76 677.36,-190.73"/>
</a>
</g>
</g>
<!-- Node10 -->
<g id="Node000010" class="node">
<title>Node10</title>
<g id="a_Node000010"><a xlink:href="_turbine_fast_8cpp.html" target="_top" xlink:title=" ">
<polygon fill="white" stroke="#666666" points="487.5,-140 350.5,-140 350.5,-88 487.5,-88 487.5,-140"/>
<text text-anchor="start" x="358.5" y="-128" font-family="Helvetica,sans-Serif" font-size="10.00">/home/runner/work/amr</text>
<text text-anchor="start" x="358.5" y="-117" font-family="Helvetica,sans-Serif" font-size="10.00">&#45;wind/amr&#45;wind/src/wind</text>
<text text-anchor="start" x="358.5" y="-106" font-family="Helvetica,sans-Serif" font-size="10.00">_energy/actuator/turbine</text>
<text text-anchor="middle" x="419" y="-95" font-family="Helvetica,sans-Serif" font-size="10.00">/fast/TurbineFast.cpp</text>
</a>
</g>
</g>
<!-- Node5&#45;&gt;Node10 -->
<g id="edge10_Node000005_Node000010" class="edge">
<title>Node5&#45;&gt;Node10</title>
<g id="a_edge10_Node000005_Node000010"><a xlink:title=" ">
<path fill="none" stroke="#63b8ff" d="M677.93,-178.64C623.56,-168.88 555.75,-155.48 496,-140 493.28,-139.3 490.51,-138.55 487.73,-137.77"/>
<polygon fill="#63b8ff" stroke="#63b8ff" points="677.46,-182.11 687.92,-180.42 678.69,-175.22 677.46,-182.11"/>
</a>
</g>
</g>
<!-- Node11 -->
<g id="Node000011" class="node">
<title>Node11</title>
<g id="a_Node000011"><a xlink:href="_turbine_kynema_8cpp.html" target="_top" xlink:title=" ">
<polygon fill="white" stroke="#666666" points="662.5,-140 505.5,-140 505.5,-88 662.5,-88 662.5,-140"/>
<text text-anchor="start" x="513.5" y="-128" font-family="Helvetica,sans-Serif" font-size="10.00">/home/runner/work/amr</text>
<text text-anchor="start" x="513.5" y="-117" font-family="Helvetica,sans-Serif" font-size="10.00">&#45;wind/amr&#45;wind/src/wind</text>
<text text-anchor="start" x="513.5" y="-106" font-family="Helvetica,sans-Serif" font-size="10.00">_energy/actuator/turbine</text>
<text text-anchor="middle" x="584" y="-95" font-family="Helvetica,sans-Serif" font-size="10.00">/kynema/TurbineKynema.cpp</text>
</a>
</g>
</g>
<!-- Node5&#45;&gt;Node11 -->
<g id="edge11_Node000005_Node000011" class="edge">
<title>Node5&#45;&gt;Node11</title>
<g id="a_edge11_Node000005_Node000011"><a xlink:title=" ">
<path fill="none" stroke="#63b8ff" d="M722.81,-172.01C698.37,-161.97 669.8,-150.24 644.96,-140.04"/>
<polygon fill="#63b8ff" stroke="#63b8ff" points="721.72,-175.35 732.3,-175.91 724.38,-168.87 721.72,-175.35"/>
</a>
</g>
</g>
<!-- Node12 -->
<g id="Node000012" class="node">
<title>Node12</title>
<g id="a_Node000012"><a xlink:href="_fixed_wing_8cpp.html" target="_top" xlink:title=" ">
<polygon fill="white" stroke="#666666" points="879.5,-134.5 680.5,-134.5 680.5,-93.5 879.5,-93.5 879.5,-134.5"/>
<text text-anchor="start" x="688.5" y="-122.5" font-family="Helvetica,sans-Serif" font-size="10.00">/home/runner/work/amr</text>
<text text-anchor="start" x="688.5" y="-111.5" font-family="Helvetica,sans-Serif" font-size="10.00">&#45;wind/amr&#45;wind/src/wind</text>
<text text-anchor="middle" x="780" y="-100.5" font-family="Helvetica,sans-Serif" font-size="10.00">_energy/actuator/wing/FixedWing.cpp</text>
</a>
</g>
</g>
<!-- Node5&#45;&gt;Node12 -->
<g id="edge12_Node000005_Node000012" class="edge">
<title>Node5&#45;&gt;Node12</title>
<g id="a_edge12_Node000005_Node000012"><a xlink:title=" ">
<path fill="none" stroke="#63b8ff" d="M780,-165.37C780,-155.1 780,-143.9 780,-134.67"/>
<polygon fill="#63b8ff" stroke="#63b8ff" points="776.5,-165.6 780,-175.6 783.5,-165.6 776.5,-165.6"/>
</a>
</g>
</g>
<!-- Node13 -->
<g id="Node000013" class="node">
<title>Node13</title>
<g id="a_Node000013"><a xlink:href="_flat_plate_8cpp.html" target="_top" xlink:title=" ">
<polygon fill="white" stroke="#666666" points="1090,-134.5 898,-134.5 898,-93.5 1090,-93.5 1090,-134.5"/>
<text text-anchor="start" x="906" y="-122.5" font-family="Helvetica,sans-Serif" font-size="10.00">/home/runner/work/amr</text>
<text text-anchor="start" x="906" y="-111.5" font-family="Helvetica,sans-Serif" font-size="10.00">&#45;wind/amr&#45;wind/src/wind</text>
<text text-anchor="middle" x="994" y="-100.5" font-family="Helvetica,sans-Serif" font-size="10.00">_energy/actuator/wing/FlatPlate.cpp</text>
</a>
</g>
</g>
<!-- Node5&#45;&gt;Node13 -->
<g id="edge13_Node000005_Node000013" class="edge">
<title>Node5&#45;&gt;Node13</title>
<g id="a_edge13_Node000005_Node000013"><a xlink:title=" ">
<path fill="none" stroke="#63b8ff" d="M841.71,-172.29C873.5,-160.33 911.81,-145.92 942.06,-134.54"/>
<polygon fill="#63b8ff" stroke="#63b8ff" points="840.2,-169.11 832.08,-175.91 842.67,-175.67 840.2,-169.11"/>
</a>
</g>
</g>
<!-- Node7 -->
<g id="Node000007" class="node">
<title>Node7</title>
<g id="a_Node000007"><a xlink:href="_actuator_forcing_8cpp.html" target="_top" xlink:title=" ">
<polygon fill="white" stroke="#666666" points="156,-52 0,-52 0,0 156,0 156,-52"/>
<text text-anchor="start" x="8" y="-40" font-family="Helvetica,sans-Serif" font-size="10.00">/home/runner/work/amr</text>
<text text-anchor="start" x="8" y="-29" font-family="Helvetica,sans-Serif" font-size="10.00">&#45;wind/amr&#45;wind/src/equation</text>
<text text-anchor="start" x="8" y="-18" font-family="Helvetica,sans-Serif" font-size="10.00">_systems/icns/source_terms</text>
<text text-anchor="middle" x="78" y="-7" font-family="Helvetica,sans-Serif" font-size="10.00">/ActuatorForcing.cpp</text>
</a>
</g>
</g>
<!-- Node6&#45;&gt;Node7 -->
<g id="edge6_Node000006_Node000007" class="edge">
<title>Node6&#45;&gt;Node7</title>
<g id="a_edge6_Node000006_Node000007"><a xlink:title=" ">
<path fill="none" stroke="#63b8ff" d="M206.41,-89.04C182.64,-77.55 154.16,-63.8 130.07,-52.16"/>
<polygon fill="#63b8ff" stroke="#63b8ff" points="205.08,-92.29 215.61,-93.49 208.13,-85.98 205.08,-92.29"/>
</a>
</g>
</g>
<!-- Node8 -->
<g id="Node000008" class="node">
<title>Node8</title>
<g id="a_Node000008"><a xlink:href="_actuator_8cpp.html" target="_top" xlink:title=" ">
<polygon fill="white" stroke="#666666" points="337.5,-46.5 174.5,-46.5 174.5,-5.5 337.5,-5.5 337.5,-46.5"/>
<text text-anchor="start" x="182.5" y="-34.5" font-family="Helvetica,sans-Serif" font-size="10.00">/home/runner/work/amr</text>
<text text-anchor="start" x="182.5" y="-23.5" font-family="Helvetica,sans-Serif" font-size="10.00">&#45;wind/amr&#45;wind/src/wind</text>
<text text-anchor="middle" x="256" y="-12.5" font-family="Helvetica,sans-Serif" font-size="10.00">_energy/actuator/Actuator.cpp</text>
</a>
</g>
</g>
<!-- Node6&#45;&gt;Node8 -->
<g id="edge7_Node000006_Node000008" class="edge">
<title>Node6&#45;&gt;Node8</title>
<g id="a_edge7_Node000006_Node000008"><a xlink:title=" ">
<path fill="none" stroke="#63b8ff" d="M256,-83.36C256,-71.26 256,-57.58 256,-46.74"/>
<polygon fill="#63b8ff" stroke="#63b8ff" points="252.5,-83.49 256,-93.49 259.5,-83.49 252.5,-83.49"/>
</a>
</g>
</g>
<!-- Node9 -->
<g id="Node000009" class="node">
<title>Node9</title>
<g id="a_Node000009"><a xlink:href="_actuator_container_8cpp.html" target="_top" xlink:title=" ">
<polygon fill="white" stroke="#666666" points="566,-46.5 356,-46.5 356,-5.5 566,-5.5 566,-46.5"/>
<text text-anchor="start" x="364" y="-34.5" font-family="Helvetica,sans-Serif" font-size="10.00">/home/runner/work/amr</text>
<text text-anchor="start" x="364" y="-23.5" font-family="Helvetica,sans-Serif" font-size="10.00">&#45;wind/amr&#45;wind/src/wind</text>
<text text-anchor="middle" x="461" y="-12.5" font-family="Helvetica,sans-Serif" font-size="10.00">_energy/actuator/ActuatorContainer.cpp</text>
</a>
</g>
</g>
<!-- Node6&#45;&gt;Node9 -->
<g id="edge8_Node000006_Node000009" class="edge">
<title>Node6&#45;&gt;Node9</title>
<g id="a_edge8_Node000006_Node000009"><a xlink:title=" ">
<path fill="none" stroke="#63b8ff" d="M311.79,-89.6C343.92,-76.12 383.85,-59.37 414.31,-46.59"/>
<polygon fill="#63b8ff" stroke="#63b8ff" points="310.39,-86.39 302.52,-93.49 313.09,-92.84 310.39,-86.39"/>
</a>
</g>
</g>
<!-- Node14&#45;&gt;Node2 -->
<g id="edge16_Node000014_Node000002" class="edge">
<title>Node14&#45;&gt;Node2</title>
<g id="a_edge16_Node000014_Node000002"><a xlink:title=" ">
<path fill="none" stroke="#63b8ff" d="M1127.67,-334.83C1116.95,-326.67 1107.28,-316.77 1101,-305 1090.12,-284.61 1094.36,-275.14 1101,-253 1114.2,-209.02 1146.44,-166.11 1168.77,-140.11"/>
<polygon fill="#63b8ff" stroke="#63b8ff" points="1125.86,-337.84 1136.05,-340.75 1129.9,-332.12 1125.86,-337.84"/>
</a>
</g>
</g>
<!-- Node15 -->
<g id="Node000015" class="node">
<title>Node15</title>
<g id="a_Node000015"><a xlink:href="uniform__ct__ops_8cpp.html" target="_top" xlink:title=" ">
<polygon fill="white" stroke="#666666" points="1274,-305 1110,-305 1110,-253 1274,-253 1274,-305"/>
<text text-anchor="start" x="1118" y="-293" font-family="Helvetica,sans-Serif" font-size="10.00">/home/runner/work/amr</text>
<text text-anchor="start" x="1118" y="-282" font-family="Helvetica,sans-Serif" font-size="10.00">&#45;wind/amr&#45;wind/src/wind</text>
<text text-anchor="start" x="1118" y="-271" font-family="Helvetica,sans-Serif" font-size="10.00">_energy/actuator/disk/uniform</text>
<text text-anchor="middle" x="1192" y="-260" font-family="Helvetica,sans-Serif" font-size="10.00">_ct_ops.cpp</text>
</a>
</g>
</g>
<!-- Node14&#45;&gt;Node15 -->
<g id="edge17_Node000014_Node000015" class="edge">
<title>Node14&#45;&gt;Node15</title>
<g id="a_edge17_Node000014_Node000015"><a xlink:title=" ">
<path fill="none" stroke="#63b8ff" d="M1192,-330.56C1192,-322.04 1192,-313.1 1192,-305.16"/>
<polygon fill="#63b8ff" stroke="#63b8ff" points="1188.5,-330.66 1192,-340.66 1195.5,-330.66 1188.5,-330.66"/>
</a>
</g>
</g>
</g>
</svg>

<g id="navigator" transform="translate(0 0)" fill="#404254">
  <rect fill="#f2f5e9" fill-opacity="0.5" stroke="#606060" stroke-width=".5" x="0" y="0" width="60" height="60"/>
  <use id="zoomplus" xlink:href="#zoomPlus" x="17" y="9" onmousedown="handleZoom(evt,'in')"/>
  <use id="zoomminus" xlink:href="#zoomMin" x="42" y="9" onmousedown="handleZoom(evt,'out')"/>
  <use id="reset" xlink:href="#resetDef" x="30" y="36" onmousedown="handleReset()"/>
   <use id="arrowup" xlink:href="#arrowUp" x="0" y="0" onmousedown="handlePan(0,-1)"/>
  <use id="arrowright" xlink:href="#arrowRight" x="0" y="0" onmousedown="handlePan(1,0)"/>
  <use id="arrowdown" xlink:href="#arrowDown" x="0" y="0" onmousedown="handlePan(0,1)"/>
  <use id="arrowleft" xlink:href="#arrowLeft" x="0" y="0" onmousedown="handlePan(-1,0)"/>
</g>
<svg viewBox="0 0 15 15" width="100%" height="30px" preserveAspectRatio="xMaxYMin meet">
 <g id="arrow_out" transform="scale(0.3 0.3)">
  <a xlink:href="_uniform_ct_8_h__dep__incl_org.svg" target="_base">
   <rect id="button" ry="5" rx="5" y="6" x="6" height="38" width="38"
        fill="#f2f5e9" fill-opacity="0.5" stroke="#606060" stroke-width="1.0"/>
   <path id="arrow"
     d="M 11.500037,31.436501 C 11.940474,20.09759 22.043105,11.32322 32.158766,21.979434 L 37.068811,17.246167 C 37.068811,17.246167 37.088388,32 37.088388,32 L 22.160133,31.978069 C 22.160133,31.978069 26.997745,27.140456 26.997745,27.140456 C 18.528582,18.264221 13.291696,25.230495 11.500037,31.436501 z"
     style="fill:#404040;"/>
  </a>
 </g>
</svg>

<style type='text/css'>
<![CDATA[
[data-mouse-over-selected='false'] { opacity: 0.7; }
[data-mouse-over-selected='true']  { opacity: 1.0; }
]]>
</style>
<script type="application/ecmascript"><![CDATA[
document.addEventListener('DOMContentLoaded', (event) => {
  highlightEdges();
  highlightAdjacentNodes();
});
]]></script>
</svg>
