<?xml version="1.0" encoding="UTF-8" standalone="no"?>
<!DOCTYPE svg PUBLIC "-//W3C//DTD SVG 1.1//EN"
 "http://www.w3.org/Graphics/SVG/1.1/DTD/svg11.dtd">
<!-- Generated by graphviz version 2.43.0 (0)
 -->
<!-- Title: kynema_sgf::pde::icns::BoussinesqBuoyancy Pages: 1 -->
<!--zoomable 271 -->

<svg id="main" version="1.1" xmlns="http://www.w3.org/2000/svg" xmlns:xlink="http://www.w3.org/1999/xlink" xml:space="preserve" onload="init(evt)">

<style type="text/css"><![CDATA[
.node, .edge {opacity: 0.7;}
.node.selected, .edge.selected {opacity: 1;}
.edge:hover path { stroke: red; }
.edge:hover polygon { stroke: red; fill: red; }
]]></style>

<defs>
  <circle id="rim" cx="0" cy="0" r="7"/>
  <circle id="rim2" cx="0" cy="0" r="3.5"/>
  <g id="zoomPlus">
    <use xlink:href="#rim" fill="#404040"><set attributeName="fill" to="#808080" begin="zoomplus.mouseover" end="zoomplus.mouseout"/></use>
    <path d="M-4,0h8M0,-4v8" fill="none" stroke="white" stroke-width="1.5" pointer-events="none"/>
  </g>
  <g id="zoomMin">
    <use xlink:href="#rim" fill="#404040"><set attributeName="fill" to="#808080" begin="zoomminus.mouseover" end="zoomminus.mouseout"/></use>
    <path d="M-4,0h8" fill="none" stroke="white" stroke-width="1.5" pointer-events="none"/>
  </g>
  <g id="arrowUp" transform="translate(30 24)">
    <use xlink:href="#rim"/>
    <path pointer-events="none" fill="none" stroke="white" stroke-width="1.5" d="M0,-3.0v7 M-2.5,-0.5L0,-3.0L2.5,-0.5"/>
  </g>
  <g id="arrowRight" transform="rotate(90) translate(36 -43)">
    <use xlink:href="#rim"/>
    <path pointer-events="none" fill="none" stroke="white" stroke-width="1.5" d="M0,-3.0v7 M-2.5,-0.5L0,-3.0L2.5,-0.5"/>
  </g>
  <g id="arrowDown" transform="rotate(180) translate(-30 -48)">
    <use xlink:href="#rim"/>
    <path pointer-events="none" fill="none" stroke="white" stroke-width="1.5" d="M0,-3.0v7 M-2.5,-0.5L0,-3.0L2.5,-0.5"/>
  </g>
  <g id="arrowLeft" transform="rotate(270) translate(-36 17)">
    <use xlink:href="#rim"/>
    <path pointer-events="none" fill="none" stroke="white" stroke-width="1.5" d="M0,-3.0v7 M-2.5,-0.5L0,-3.0L2.5,-0.5"/>
  </g>
  <g id="resetDef">
    <use xlink:href="#rim2" fill="#404040"><set attributeName="fill" to="#808080" begin="reset.mouseover" end="reset.mouseout"/></use>
  </g>
</defs>
<script type="application/ecmascript">
var viewWidth = 1648;
var viewHeight = 271;
var sectionId = 'dynsection-1';
</script>
<script type="application/ecmascript" xlink:href="svg.min.js"/>
<svg id="graph" class="graph">
<g id="viewport">
<title>kynema_sgf::pde::icns::BoussinesqBuoyancy</title>
<!-- Node1 -->
<g id="Node000001" class="node">
<title>Node1</title>
<g id="a_Node000001"><a xlink:title=" ">
<polygon fill="#999999" stroke="#666666" points="1640,-121 1514,-121 1514,-91 1640,-91 1640,-121"/>
<text text-anchor="start" x="1522" y="-109" font-family="Helvetica,sans-Serif" font-size="10.00">kynema_sgf::pde::icns</text>
<text text-anchor="middle" x="1577" y="-98" font-family="Helvetica,sans-Serif" font-size="10.00">::BoussinesqBuoyancy</text>
</a>
</g>
</g>
<!-- Node2 -->
<g id="Node000002" class="node">
<title>Node2</title>
<g id="a_Node000002"><a xlink:title=" ">
<polygon fill="white" stroke="#666666" points="1396,-174.5 1247,-174.5 1247,-133.5 1396,-133.5 1396,-174.5"/>
<text text-anchor="start" x="1255" y="-162.5" font-family="Helvetica,sans-Serif" font-size="10.00">kynema_sgf::Factory</text>
<text text-anchor="start" x="1255" y="-151.5" font-family="Helvetica,sans-Serif" font-size="10.00">&lt; MomentumSource, const</text>
<text text-anchor="middle" x="1321.5" y="-140.5" font-family="Helvetica,sans-Serif" font-size="10.00"> CFDSim &amp; &gt;::Register</text>
</a>
</g>
</g>
<!-- Node2&#45;&gt;Node1 -->
<g id="edge1_Node000001_Node000002" class="edge">
<title>Node2&#45;&gt;Node1</title>
<g id="a_edge1_Node000001_Node000002"><a xlink:title=" ">
<path fill="none" stroke="#63b8ff" d="M1406.21,-142.74C1434.8,-138.43 1466.9,-133.07 1496,-127 1504.29,-125.27 1513.01,-123.22 1521.52,-121.1"/>
<polygon fill="#63b8ff" stroke="#63b8ff" points="1405.62,-139.29 1396.25,-144.22 1406.65,-146.21 1405.62,-139.29"/>
</a>
</g>
</g>
<!-- Node3 -->
<g id="Node000003" class="node">
<title>Node3</title>
<g id="a_Node000003"><a xlink:href="classkynema__sgf_1_1_field.html" target="_top" xlink:title=" ">
<polygon fill="white" stroke="#666666" points="1373.5,-115.5 1269.5,-115.5 1269.5,-96.5 1373.5,-96.5 1373.5,-115.5"/>
<text text-anchor="middle" x="1321.5" y="-103.5" font-family="Helvetica,sans-Serif" font-size="10.00">kynema_sgf::Field</text>
</a>
</g>
</g>
<!-- Node3&#45;&gt;Node1 -->
<g id="edge2_Node000001_Node000003" class="edge">
<title>Node3&#45;&gt;Node1</title>
<g id="a_edge2_Node000001_Node000003"><a xlink:title=" ">
<path fill="none" stroke="#9a32cd" stroke-dasharray="5,2" d="M1384.04,-106C1423.33,-106 1474.1,-106 1513.57,-106"/>
<polygon fill="#9a32cd" stroke="#9a32cd" points="1383.8,-102.5 1373.8,-106 1383.8,-109.5 1383.8,-102.5"/>
</a>
</g>
<text text-anchor="start" x="1417" y="-111.5" font-family="Helvetica,sans-Serif" font-size="10.00" fill="grey">m_temperature</text>
</g>
<!-- Node4 -->
<g id="Node000004" class="node">
<title>Node4</title>
<g id="a_Node000004"><a xlink:href="classkynema__sgf_1_1_field_repo.html" target="_top" xlink:title=" ">
<polygon fill="white" stroke="#666666" points="1162.5,-90.5 1033.5,-90.5 1033.5,-71.5 1162.5,-71.5 1162.5,-90.5"/>
<text text-anchor="middle" x="1098" y="-78.5" font-family="Helvetica,sans-Serif" font-size="10.00">kynema_sgf::FieldRepo</text>
</a>
</g>
</g>
<!-- Node4&#45;&gt;Node3 -->
<g id="edge3_Node000003_Node000004" class="edge">
<title>Node4&#45;&gt;Node3</title>
<g id="a_edge3_Node000003_Node000004"><a xlink:title=" ">
<path fill="none" stroke="#9a32cd" stroke-dasharray="5,2" d="M1172.61,-87.96C1191.03,-89.82 1210.75,-91.89 1229,-94 1242.05,-95.51 1256.13,-97.28 1269.24,-98.99"/>
<polygon fill="#9a32cd" stroke="#9a32cd" points="1172.82,-84.47 1162.52,-86.96 1172.12,-91.43 1172.82,-84.47"/>
</a>
</g>
<text text-anchor="start" x="1189.5" y="-99.5" font-family="Helvetica,sans-Serif" font-size="10.00" fill="grey">m_repo</text>
</g>
<!-- Node5 -->
<g id="Node000005" class="node">
<title>Node5</title>
<g id="a_Node000005"><a xlink:title=" ">
<polygon fill="white" stroke="#666666" points="866.5,-85 744.5,-85 744.5,-55 866.5,-55 866.5,-85"/>
<text text-anchor="start" x="752.5" y="-73" font-family="Helvetica,sans-Serif" font-size="10.00">std::unordered_map</text>
<text text-anchor="middle" x="805.5" y="-62" font-family="Helvetica,sans-Serif" font-size="10.00">&lt; std::string, size_t &gt;</text>
</a>
</g>
</g>
<!-- Node5&#45;&gt;Node4 -->
<g id="edge4_Node000004_Node000005" class="edge">
<title>Node5&#45;&gt;Node4</title>
<g id="a_edge4_Node000004_Node000005"><a xlink:title=" ">
<path fill="none" stroke="#9a32cd" stroke-dasharray="5,2" d="M876.66,-68.45C915.91,-68.06 965.71,-68.35 1010,-71 1017.59,-71.45 1025.53,-72.11 1033.4,-72.88"/>
<polygon fill="#9a32cd" stroke="#9a32cd" points="876.62,-64.95 866.66,-68.57 876.7,-71.95 876.62,-64.95"/>
</a>
</g>
<text text-anchor="start" x="911.5" y="-92" font-family="Helvetica,sans-Serif" font-size="10.00" fill="grey">m_fid_map</text>
<text text-anchor="start" x="911.5" y="-77" font-family="Helvetica,sans-Serif" font-size="10.00" fill="grey">m_int_fid_map</text>
</g>
<!-- Node6 -->
<g id="Node000006" class="node">
<title>Node6</title>
<g id="a_Node000006"><a xlink:title=" ">
<polygon fill="white" stroke="#666666" points="524.5,-129.5 459.5,-129.5 459.5,-110.5 524.5,-110.5 524.5,-129.5"/>
<text text-anchor="middle" x="492" y="-117.5" font-family="Helvetica,sans-Serif" font-size="10.00">std::string</text>
</a>
</g>
</g>
<!-- Node6&#45;&gt;Node3 -->
<g id="edge10_Node000003_Node000006" class="edge">
<title>Node6&#45;&gt;Node3</title>
<g id="a_edge10_Node000003_Node000006"><a xlink:title=" ">
<path fill="none" stroke="#9a32cd" stroke-dasharray="5,2" d="M534.79,-120.11C647.11,-120.27 964.85,-119.83 1229,-111 1242.04,-110.56 1256.11,-109.89 1269.22,-109.19"/>
<polygon fill="#9a32cd" stroke="#9a32cd" points="534.58,-116.61 524.57,-120.09 534.57,-123.61 534.58,-116.61"/>
</a>
</g>
<text text-anchor="start" x="926.5" y="-124.5" font-family="Helvetica,sans-Serif" font-size="10.00" fill="grey">m_name</text>
</g>
<!-- Node6&#45;&gt;Node5 -->
<g id="edge5_Node000005_Node000006" class="edge">
<title>Node6&#45;&gt;Node5</title>
<g id="a_edge5_Node000005_Node000006"><a xlink:title=" ">
<path fill="none" stroke="#9a32cd" stroke-dasharray="5,2" d="M533.51,-107.68C550.78,-102.81 571.24,-97.54 590,-94 641.55,-84.26 700.87,-78 744.04,-74.32"/>
<polygon fill="#9a32cd" stroke="#9a32cd" points="532.39,-104.36 523.74,-110.49 534.32,-111.09 532.39,-104.36"/>
</a>
</g>
<text text-anchor="start" x="647" y="-99.5" font-family="Helvetica,sans-Serif" font-size="10.00" fill="grey">keys</text>
</g>
<!-- Node12 -->
<g id="Node000012" class="node">
<title>Node12</title>
<g id="a_Node000012"><a xlink:href="structkynema__sgf_1_1_field_info.html" target="_top" xlink:title=" ">
<polygon fill="white" stroke="#666666" points="867,-192.5 744,-192.5 744,-173.5 867,-173.5 867,-192.5"/>
<text text-anchor="middle" x="805.5" y="-180.5" font-family="Helvetica,sans-Serif" font-size="10.00">kynema_sgf::FieldInfo</text>
</a>
</g>
</g>
<!-- Node6&#45;&gt;Node12 -->
<g id="edge13_Node000012_Node000006" class="edge">
<title>Node6&#45;&gt;Node12</title>
<g id="a_edge13_Node000012_Node000006"><a xlink:title=" ">
<path fill="none" stroke="#9a32cd" stroke-dasharray="5,2" d="M534.73,-128C581.39,-137 659.18,-152.17 726,-166 737.33,-168.35 749.57,-170.96 760.93,-173.42"/>
<polygon fill="#9a32cd" stroke="#9a32cd" points="535.18,-124.52 524.69,-126.07 533.85,-131.39 535.18,-124.52"/>
</a>
</g>
<text text-anchor="start" x="625" y="-171.5" font-family="Helvetica,sans-Serif" font-size="10.00" fill="grey">m_basename</text>
</g>
<!-- Node7 -->
<g id="Node000007" class="node">
<title>Node7</title>
<g id="a_Node000007"><a xlink:title=" ">
<polygon fill="white" stroke="#666666" points="209.5,-133 105.5,-133 105.5,-103 209.5,-103 209.5,-133"/>
<text text-anchor="start" x="113.5" y="-121" font-family="Helvetica,sans-Serif" font-size="10.00">std::basic_string&lt;</text>
<text text-anchor="middle" x="157.5" y="-110" font-family="Helvetica,sans-Serif" font-size="10.00"> Char &gt;</text>
</a>
</g>
</g>
<!-- Node7&#45;&gt;Node6 -->
<g id="edge6_Node000006_Node000007" class="edge">
<title>Node7&#45;&gt;Node6</title>
<g id="a_edge6_Node000006_Node000007"><a xlink:title=" ">
<path fill="none" stroke="#63b8ff" d="M219.85,-118.37C290.64,-118.79 404.34,-119.48 459.27,-119.81"/>
<polygon fill="#63b8ff" stroke="#63b8ff" points="219.75,-114.87 209.72,-118.31 219.7,-121.87 219.75,-114.87"/>
</a>
</g>
</g>
<!-- Node8 -->
<g id="Node000008" class="node">
<title>Node8</title>
<g id="a_Node000008"><a xlink:title=" ">
<polygon fill="white" stroke="#666666" points="549,-68 435,-68 435,-38 549,-38 549,-68"/>
<text text-anchor="start" x="443" y="-56" font-family="Helvetica,sans-Serif" font-size="10.00">std::unordered_map</text>
<text text-anchor="middle" x="492" y="-45" font-family="Helvetica,sans-Serif" font-size="10.00">&lt; K, T &gt;</text>
</a>
</g>
</g>
<!-- Node8&#45;&gt;Node5 -->
<g id="edge7_Node000005_Node000008" class="edge">
<title>Node8&#45;&gt;Node5</title>
<g id="a_edge7_Node000005_Node000008"><a xlink:title=" ">
<path fill="none" stroke="orange" stroke-dasharray="5,2" d="M559.19,-49.83C605.93,-48.44 669.96,-48.23 726,-54 731.95,-54.61 738.11,-55.47 744.26,-56.48"/>
<polygon fill="orange" stroke="orange" points="559.07,-46.33 549.19,-50.16 559.3,-53.33 559.07,-46.33"/>
</a>
</g>
<text text-anchor="start" x="605" y="-59.5" font-family="Helvetica,sans-Serif" font-size="10.00" fill="grey">&lt; std::string, size_t &gt;</text>
</g>
<!-- Node9 -->
<g id="Node000009" class="node">
<title>Node9</title>
<g id="a_Node000009"><a xlink:title=" ">
<polygon fill="white" stroke="#666666" points="172,-31.5 143,-31.5 143,-12.5 172,-12.5 172,-31.5"/>
<text text-anchor="middle" x="157.5" y="-19.5" font-family="Helvetica,sans-Serif" font-size="10.00">K</text>
</a>
</g>
</g>
<!-- Node9&#45;&gt;Node8 -->
<g id="edge8_Node000008_Node000009" class="edge">
<title>Node9&#45;&gt;Node8</title>
<g id="a_edge8_Node000008_Node000009"><a xlink:title=" ">
<path fill="none" stroke="#9a32cd" stroke-dasharray="5,2" d="M182.26,-22.73C224.83,-24.21 316.84,-28.2 394,-37 407.31,-38.52 421.58,-40.61 434.97,-42.78"/>
<polygon fill="#9a32cd" stroke="#9a32cd" points="182.19,-19.22 172.08,-22.39 181.96,-26.22 182.19,-19.22"/>
</a>
</g>
<text text-anchor="start" x="310" y="-42.5" font-family="Helvetica,sans-Serif" font-size="10.00" fill="grey">keys</text>
</g>
<!-- Node10 -->
<g id="Node000010" class="node">
<title>Node10</title>
<g id="a_Node000010"><a xlink:title=" ">
<polygon fill="white" stroke="#666666" points="29,-218.5 0,-218.5 0,-199.5 29,-199.5 29,-218.5"/>
<text text-anchor="middle" x="14.5" y="-206.5" font-family="Helvetica,sans-Serif" font-size="10.00">T</text>
</a>
</g>
</g>
<!-- Node10&#45;&gt;Node8 -->
<g id="edge9_Node000008_Node000010" class="edge">
<title>Node10&#45;&gt;Node8</title>
<g id="a_edge9_Node000008_Node000010"><a xlink:title=" ">
<path fill="none" stroke="#9a32cd" stroke-dasharray="5,2" d="M19.55,-189.02C26.83,-158.89 45.24,-102.63 85,-77 99.45,-67.69 326.88,-58.65 434.88,-54.86"/>
<polygon fill="#9a32cd" stroke="#9a32cd" points="16.05,-188.65 17.29,-199.17 22.88,-190.17 16.05,-188.65"/>
</a>
</g>
<text text-anchor="start" x="134.5" y="-82.5" font-family="Helvetica,sans-Serif" font-size="10.00" fill="grey">elements</text>
</g>
<!-- Node15 -->
<g id="Node000015" class="node">
<title>Node15</title>
<g id="a_Node000015"><a xlink:title=" ">
<polygon fill="white" stroke="#666666" points="216.5,-218.5 98.5,-218.5 98.5,-199.5 216.5,-199.5 216.5,-218.5"/>
<text text-anchor="middle" x="157.5" y="-206.5" font-family="Helvetica,sans-Serif" font-size="10.00">std::unique_ptr&lt; T &gt;</text>
</a>
</g>
</g>
<!-- Node10&#45;&gt;Node15 -->
<g id="edge17_Node000015_Node000010" class="edge">
<title>Node10&#45;&gt;Node15</title>
<g id="a_edge17_Node000015_Node000010"><a xlink:title=" ">
<path fill="none" stroke="#9a32cd" stroke-dasharray="5,2" d="M39.2,-209C55.44,-209 77.72,-209 98.5,-209"/>
<polygon fill="#9a32cd" stroke="#9a32cd" points="39.02,-205.5 29.02,-209 39.02,-212.5 39.02,-205.5"/>
</a>
</g>
<text text-anchor="start" x="50" y="-214.5" font-family="Helvetica,sans-Serif" font-size="10.00" fill="grey">ptr</text>
</g>
<!-- Node16 -->
<g id="Node000016" class="node">
<title>Node16</title>
<g id="a_Node000016"><a xlink:title=" ">
<polygon fill="white" stroke="#666666" points="380,-262.5 262,-262.5 262,-243.5 380,-243.5 380,-262.5"/>
<text text-anchor="middle" x="321" y="-250.5" font-family="Helvetica,sans-Serif" font-size="10.00">std::shared_ptr&lt; T &gt;</text>
</a>
</g>
</g>
<!-- Node10&#45;&gt;Node16 -->
<g id="edge19_Node000016_Node000010" class="edge">
<title>Node10&#45;&gt;Node16</title>
<g id="a_edge19_Node000016_Node000010"><a xlink:title=" ">
<path fill="none" stroke="#9a32cd" stroke-dasharray="5,2" d="M36.23,-224.07C39.69,-226.02 43.35,-227.76 47,-229 118.2,-253.12 205.5,-256.61 261.91,-255.75"/>
<polygon fill="#9a32cd" stroke="#9a32cd" points="37.99,-221.04 27.67,-218.66 34.25,-226.96 37.99,-221.04"/>
</a>
</g>
<text text-anchor="start" x="50" y="-238.5" font-family="Helvetica,sans-Serif" font-size="10.00" fill="grey">ptr</text>
</g>
<!-- Node11 -->
<g id="Node000011" class="node">
<title>Node11</title>
<g id="a_Node000011"><a xlink:title=" ">
<polygon fill="white" stroke="#666666" points="1168,-198 1028,-198 1028,-168 1168,-168 1168,-198"/>
<text text-anchor="start" x="1036" y="-186" font-family="Helvetica,sans-Serif" font-size="10.00">std::shared_ptr&lt; kynema</text>
<text text-anchor="middle" x="1098" y="-175" font-family="Helvetica,sans-Serif" font-size="10.00">_sgf::FieldInfo &gt;</text>
</a>
</g>
</g>
<!-- Node11&#45;&gt;Node3 -->
<g id="edge11_Node000003_Node000011" class="edge">
<title>Node11&#45;&gt;Node3</title>
<g id="a_edge11_Node000003_Node000011"><a xlink:title=" ">
<path fill="none" stroke="#9a32cd" stroke-dasharray="5,2" d="M1166.68,-164.84C1187.3,-158.06 1209.62,-149.43 1229,-139 1237.92,-134.2 1237.91,-129.47 1247,-125 1254.81,-121.16 1263.47,-118.04 1272.04,-115.52"/>
<polygon fill="#9a32cd" stroke="#9a32cd" points="1165.5,-161.54 1157.04,-167.91 1167.63,-168.21 1165.5,-161.54"/>
</a>
</g>
<text text-anchor="start" x="1190.5" y="-162.5" font-family="Helvetica,sans-Serif" font-size="10.00" fill="grey">m_info</text>
</g>
<!-- Node12&#45;&gt;Node11 -->
<g id="edge12_Node000011_Node000012" class="edge">
<title>Node12&#45;&gt;Node11</title>
<g id="a_edge12_Node000011_Node000012"><a xlink:title=" ">
<path fill="none" stroke="#9a32cd" stroke-dasharray="5,2" d="M877.19,-183C923,-183 982.37,-183 1027.87,-183"/>
<polygon fill="#9a32cd" stroke="#9a32cd" points="877.04,-179.5 867.04,-183 877.04,-186.5 877.04,-179.5"/>
</a>
</g>
<text text-anchor="start" x="940.5" y="-188.5" font-family="Helvetica,sans-Serif" font-size="10.00" fill="grey">ptr</text>
</g>
<!-- Node13 -->
<g id="Node000013" class="node">
<title>Node13</title>
<g id="a_Node000013"><a xlink:title=" ">
<polygon fill="white" stroke="#666666" points="572,-213 412,-213 412,-183 572,-183 572,-213"/>
<text text-anchor="start" x="420" y="-201" font-family="Helvetica,sans-Serif" font-size="10.00">std::unique_ptr&lt; kynema</text>
<text text-anchor="middle" x="492" y="-190" font-family="Helvetica,sans-Serif" font-size="10.00">_sgf::FieldFillPatchOpsBase &gt;</text>
</a>
</g>
</g>
<!-- Node13&#45;&gt;Node12 -->
<g id="edge14_Node000012_Node000013" class="edge">
<title>Node13&#45;&gt;Node12</title>
<g id="a_edge14_Node000012_Node000013"><a xlink:title=" ">
<path fill="none" stroke="#9a32cd" stroke-dasharray="5,2" d="M582.19,-193.71C633.95,-191.21 697.79,-188.14 743.76,-185.92"/>
<polygon fill="#9a32cd" stroke="#9a32cd" points="581.83,-190.22 572.01,-194.2 582.16,-197.21 581.83,-190.22"/>
</a>
</g>
<text text-anchor="start" x="622" y="-198.5" font-family="Helvetica,sans-Serif" font-size="10.00" fill="grey">m_fillpatch_op</text>
</g>
<!-- Node14 -->
<g id="Node000014" class="node">
<title>Node14</title>
<g id="a_Node000014"><a xlink:href="classkynema__sgf_1_1_field_fill_patch_ops_base.html" target="_top" xlink:title=" ">
<polygon fill="white" stroke="#666666" points="230,-181 85,-181 85,-151 230,-151 230,-181"/>
<text text-anchor="start" x="93" y="-169" font-family="Helvetica,sans-Serif" font-size="10.00">kynema_sgf::FieldFillPatch</text>
<text text-anchor="middle" x="157.5" y="-158" font-family="Helvetica,sans-Serif" font-size="10.00">OpsBase</text>
</a>
</g>
</g>
<!-- Node14&#45;&gt;Node13 -->
<g id="edge15_Node000013_Node000014" class="edge">
<title>Node14&#45;&gt;Node13</title>
<g id="a_edge15_Node000013_Node000014"><a xlink:title=" ">
<path fill="none" stroke="#9a32cd" stroke-dasharray="5,2" d="M240.24,-166.48C285.68,-167.58 343.16,-170.36 394,-177 405.36,-178.48 417.37,-180.62 428.91,-182.96"/>
<polygon fill="#9a32cd" stroke="#9a32cd" points="240.21,-162.98 230.14,-166.26 240.06,-169.98 240.21,-162.98"/>
</a>
</g>
<text text-anchor="start" x="314" y="-182.5" font-family="Helvetica,sans-Serif" font-size="10.00" fill="grey">ptr</text>
</g>
<!-- Node15&#45;&gt;Node13 -->
<g id="edge16_Node000013_Node000015" class="edge">
<title>Node15&#45;&gt;Node13</title>
<g id="a_edge16_Node000013_Node000015"><a xlink:title=" ">
<path fill="none" stroke="orange" stroke-dasharray="5,2" d="M227.05,-204.08C234.12,-203.67 241.21,-203.3 248,-203 302.7,-200.61 364.37,-199.35 411.9,-198.7"/>
<polygon fill="orange" stroke="orange" points="226.5,-200.61 216.73,-204.7 226.93,-207.59 226.5,-200.61"/>
</a>
</g>
<text text-anchor="start" x="251" y="-224" font-family="Helvetica,sans-Serif" font-size="10.00" fill="grey">&lt; kynema_sgf::FieldFillPatch</text>
<text text-anchor="start" x="251" y="-209" font-family="Helvetica,sans-Serif" font-size="10.00" fill="grey">  OpsBase &gt;</text>
</g>
<!-- Node16&#45;&gt;Node11 -->
<g id="edge18_Node000011_Node000016" class="edge">
<title>Node16&#45;&gt;Node11</title>
<g id="a_edge18_Node000011_Node000016"><a xlink:title=" ">
<path fill="none" stroke="orange" stroke-dasharray="5,2" d="M390.48,-251.87C514.66,-249 784.99,-238.92 1010,-204 1019.98,-202.45 1030.5,-200.33 1040.64,-198.04"/>
<polygon fill="orange" stroke="orange" points="390.27,-248.38 380.35,-252.1 390.43,-255.38 390.27,-248.38"/>
</a>
</g>
<text text-anchor="start" x="593" y="-248.5" font-family="Helvetica,sans-Serif" font-size="10.00" fill="grey">&lt; kynema_sgf::FieldInfo &gt;</text>
</g>
<!-- Node17 -->
<g id="Node000017" class="node">
<title>Node17</title>
<g id="a_Node000017"><a xlink:href="classkynema__sgf_1_1transport_1_1_transport_model.html" target="_top" xlink:title=" ">
<polygon fill="white" stroke="#666666" points="1384,-73 1259,-73 1259,-43 1384,-43 1384,-73"/>
<text text-anchor="start" x="1267" y="-61" font-family="Helvetica,sans-Serif" font-size="10.00">kynema_sgf::transport</text>
<text text-anchor="middle" x="1321.5" y="-50" font-family="Helvetica,sans-Serif" font-size="10.00">::TransportModel</text>
</a>
</g>
</g>
<!-- Node17&#45;&gt;Node1 -->
<g id="edge20_Node000001_Node000017" class="edge">
<title>Node17&#45;&gt;Node1</title>
<g id="a_edge20_Node000001_Node000017"><a xlink:title=" ">
<path fill="none" stroke="#9a32cd" stroke-dasharray="5,2" d="M1394.18,-67.47C1425.56,-72.05 1462.74,-78.07 1496,-85 1504.29,-86.73 1513.01,-88.78 1521.52,-90.9"/>
<polygon fill="#9a32cd" stroke="#9a32cd" points="1394.6,-64 1384.2,-66.04 1393.6,-70.93 1394.6,-64"/>
</a>
</g>
<text text-anchor="start" x="1425" y="-90.5" font-family="Helvetica,sans-Serif" font-size="10.00" fill="grey">m_transport</text>
</g>
<!-- Node18 -->
<g id="Node000018" class="node">
<title>Node18</title>
<g id="a_Node000018"><a xlink:href="structkynema__sgf_1_1_factory.html" target="_top" xlink:title=" ">
<polygon fill="white" stroke="#666666" points="1165.5,-41.5 1030.5,-41.5 1030.5,-0.5 1165.5,-0.5 1165.5,-41.5"/>
<text text-anchor="start" x="1038.5" y="-29.5" font-family="Helvetica,sans-Serif" font-size="10.00">kynema_sgf::Factory</text>
<text text-anchor="start" x="1038.5" y="-18.5" font-family="Helvetica,sans-Serif" font-size="10.00">&lt; TransportModel, const</text>
<text text-anchor="middle" x="1098" y="-7.5" font-family="Helvetica,sans-Serif" font-size="10.00"> CFDSim &amp; &gt;</text>
</a>
</g>
</g>
<!-- Node18&#45;&gt;Node17 -->
<g id="edge21_Node000017_Node000018" class="edge">
<title>Node18&#45;&gt;Node17</title>
<g id="a_edge21_Node000017_Node000018"><a xlink:title=" ">
<path fill="none" stroke="#63b8ff" d="M1175.98,-33.86C1203.06,-38.38 1233.13,-43.41 1258.8,-47.69"/>
<polygon fill="#63b8ff" stroke="#63b8ff" points="1176.2,-30.35 1165.76,-32.15 1175.04,-37.25 1176.2,-30.35"/>
</a>
</g>
</g>
<!-- Node19 -->
<g id="Node000019" class="node">
<title>Node19</title>
<g id="a_Node000019"><a xlink:href="structkynema__sgf_1_1_factory.html" target="_top" xlink:title=" ">
<polygon fill="white" stroke="#666666" points="863.5,-30 747.5,-30 747.5,0 863.5,0 863.5,-30"/>
<text text-anchor="start" x="755.5" y="-18" font-family="Helvetica,sans-Serif" font-size="10.00">kynema_sgf::Factory</text>
<text text-anchor="middle" x="805.5" y="-7" font-family="Helvetica,sans-Serif" font-size="10.00">&lt; Base, Args &gt;</text>
</a>
</g>
</g>
<!-- Node19&#45;&gt;Node18 -->
<g id="edge22_Node000018_Node000019" class="edge">
<title>Node19&#45;&gt;Node18</title>
<g id="a_edge22_Node000018_Node000019"><a xlink:title=" ">
<path fill="none" stroke="orange" stroke-dasharray="5,2" d="M873.62,-14.45C913.3,-14.34 964.52,-14.58 1010,-16 1016.5,-16.2 1023.27,-16.48 1030.04,-16.8"/>
<polygon fill="orange" stroke="orange" points="873.52,-10.95 863.53,-14.48 873.54,-17.95 873.52,-10.95"/>
</a>
</g>
<text text-anchor="start" x="888.5" y="-37" font-family="Helvetica,sans-Serif" font-size="10.00" fill="grey">&lt; TransportModel, const</text>
<text text-anchor="start" x="888.5" y="-22" font-family="Helvetica,sans-Serif" font-size="10.00" fill="grey">   CFDSim &amp; &gt;</text>
</g>
</g>
</svg>

<g id="navigator" transform="translate(0 0)" fill="#404254">
  <rect fill="#f2f5e9" fill-opacity="0.5" stroke="#606060" stroke-width=".5" x="0" y="0" width="60" height="60"/>
  <use id="zoomplus" xlink:href="#zoomPlus" x="17" y="9" onmousedown="handleZoom(evt,'in')"/>
  <use id="zoomminus" xlink:href="#zoomMin" x="42" y="9" onmousedown="handleZoom(evt,'out')"/>
  <use id="reset" xlink:href="#resetDef" x="30" y="36" onmousedown="handleReset()"/>
   <use id="arrowup" xlink:href="#arrowUp" x="0" y="0" onmousedown="handlePan(0,-1)"/>
  <use id="arrowright" xlink:href="#arrowRight" x="0" y="0" onmousedown="handlePan(1,0)"/>
  <use id="arrowdown" xlink:href="#arrowDown" x="0" y="0" onmousedown="handlePan(0,1)"/>
  <use id="arrowleft" xlink:href="#arrowLeft" x="0" y="0" onmousedown="handlePan(-1,0)"/>
</g>
<svg viewBox="0 0 15 15" width="100%" height="30px" preserveAspectRatio="xMaxYMin meet">
 <g id="arrow_out" transform="scale(0.3 0.3)">
  <a xlink:href="classkynema__sgf_1_1pde_1_1icns_1_1_boussinesq_buoyancy__coll__graph_org.svg" target="_base">
   <rect id="button" ry="5" rx="5" y="6" x="6" height="38" width="38"
        fill="#f2f5e9" fill-opacity="0.5" stroke="#606060" stroke-width="1.0"/>
   <path id="arrow"
     d="M 11.500037,31.436501 C 11.940474,20.09759 22.043105,11.32322 32.158766,21.979434 L 37.068811,17.246167 C 37.068811,17.246167 37.088388,32 37.088388,32 L 22.160133,31.978069 C 22.160133,31.978069 26.997745,27.140456 26.997745,27.140456 C 18.528582,18.264221 13.291696,25.230495 11.500037,31.436501 z"
     style="fill:#404040;"/>
  </a>
 </g>
</svg>

<style type='text/css'>
<![CDATA[
[data-mouse-over-selected='false'] { opacity: 0.7; }
[data-mouse-over-selected='true']  { opacity: 1.0; }
]]>
</style>
<script type="application/ecmascript"><![CDATA[
document.addEventListener('DOMContentLoaded', (event) => {
  highlightEdges();
  highlightAdjacentNodes();
});
]]></script>
</svg>
