<?xml version="1.0" encoding="UTF-8" standalone="no"?>
<!DOCTYPE svg PUBLIC "-//W3C//DTD SVG 1.1//EN"
 "http://www.w3.org/Graphics/SVG/1.1/DTD/svg11.dtd">
<!-- Generated by graphviz version 2.43.0 (0)
 -->
<!-- Title: kynema_sgf::pde::icns::ABLMeanBoussinesq Pages: 1 -->
<svg width="833pt" height="103pt"
 viewBox="0.00 0.00 833.00 103.00" xmlns="http://www.w3.org/2000/svg" xmlns:xlink="http://www.w3.org/1999/xlink">
<g id="graph0" class="graph" transform="scale(1 1) rotate(0) translate(4 99)">
<title>kynema_sgf::pde::icns::ABLMeanBoussinesq</title>
<!-- Node1 -->
<g id="Node000001" class="node">
<title>Node1</title>
<g id="a_Node000001"><a xlink:title=" ">
<polygon fill="#999999" stroke="#666666" points="825,-62.5 700,-62.5 700,-32.5 825,-32.5 825,-62.5"/>
<text text-anchor="start" x="708" y="-50.5" font-family="Helvetica,sans-Serif" font-size="10.00">kynema_sgf::pde::icns</text>
<text text-anchor="middle" x="762.5" y="-39.5" font-family="Helvetica,sans-Serif" font-size="10.00">::ABLMeanBoussinesq</text>
</a>
</g>
</g>
<!-- Node2 -->
<g id="Node000002" class="node">
<title>Node2</title>
<g id="a_Node000002"><a xlink:title=" ">
<polygon fill="white" stroke="#666666" points="598,-95 449,-95 449,-54 598,-54 598,-95"/>
<text text-anchor="start" x="457" y="-83" font-family="Helvetica,sans-Serif" font-size="10.00">kynema_sgf::Factory</text>
<text text-anchor="start" x="457" y="-72" font-family="Helvetica,sans-Serif" font-size="10.00">&lt; MomentumSource, const</text>
<text text-anchor="middle" x="523.5" y="-61" font-family="Helvetica,sans-Serif" font-size="10.00"> CFDSim &amp; &gt;::Register</text>
</a>
</g>
</g>
<!-- Node2&#45;&gt;Node1 -->
<g id="edge1_Node000001_Node000002" class="edge">
<title>Node2&#45;&gt;Node1</title>
<g id="a_edge1_Node000001_Node000002"><a xlink:title=" ">
<path fill="none" stroke="#63b8ff" d="M608.28,-64.96C638.43,-61.52 671.88,-57.71 699.81,-54.53"/>
<polygon fill="#63b8ff" stroke="#63b8ff" points="607.73,-61.5 598.19,-66.11 608.52,-68.45 607.73,-61.5"/>
</a>
</g>
</g>
<!-- Node3 -->
<g id="Node000003" class="node">
<title>Node3</title>
<g id="a_Node000003"><a xlink:href="classkynema__sgf_1_1transport_1_1_transport_model.html" target="_top" xlink:title=" ">
<polygon fill="white" stroke="#666666" points="586,-35.5 461,-35.5 461,-5.5 586,-5.5 586,-35.5"/>
<text text-anchor="start" x="469" y="-23.5" font-family="Helvetica,sans-Serif" font-size="10.00">kynema_sgf::transport</text>
<text text-anchor="middle" x="523.5" y="-12.5" font-family="Helvetica,sans-Serif" font-size="10.00">::TransportModel</text>
</a>
</g>
</g>
<!-- Node3&#45;&gt;Node1 -->
<g id="edge2_Node000001_Node000003" class="edge">
<title>Node3&#45;&gt;Node1</title>
<g id="a_edge2_Node000001_Node000003"><a xlink:title=" ">
<path fill="none" stroke="#9a32cd" stroke-dasharray="5,2" d="M596.4,-26.51C623.29,-28.98 654.08,-32.07 682,-35.5 687.82,-36.22 693.87,-37.02 699.92,-37.86"/>
<polygon fill="#9a32cd" stroke="#9a32cd" points="596.57,-23.01 586.3,-25.6 595.94,-29.98 596.57,-23.01"/>
</a>
</g>
<text text-anchor="start" x="619" y="-41" font-family="Helvetica,sans-Serif" font-size="10.00" fill="grey">m_transport</text>
</g>
<!-- Node4 -->
<g id="Node000004" class="node">
<title>Node4</title>
<g id="a_Node000004"><a xlink:href="structkynema__sgf_1_1_factory.html" target="_top" xlink:title=" ">
<polygon fill="white" stroke="#666666" points="412,-41 277,-41 277,0 412,0 412,-41"/>
<text text-anchor="start" x="285" y="-29" font-family="Helvetica,sans-Serif" font-size="10.00">kynema_sgf::Factory</text>
<text text-anchor="start" x="285" y="-18" font-family="Helvetica,sans-Serif" font-size="10.00">&lt; TransportModel, const</text>
<text text-anchor="middle" x="344.5" y="-7" font-family="Helvetica,sans-Serif" font-size="10.00"> CFDSim &amp; &gt;</text>
</a>
</g>
</g>
<!-- Node4&#45;&gt;Node3 -->
<g id="edge3_Node000003_Node000004" class="edge">
<title>Node4&#45;&gt;Node3</title>
<g id="a_edge3_Node000003_Node000004"><a xlink:title=" ">
<path fill="none" stroke="#63b8ff" d="M422.39,-20.5C435.25,-20.5 448.44,-20.5 460.86,-20.5"/>
<polygon fill="#63b8ff" stroke="#63b8ff" points="422.16,-17 412.16,-20.5 422.16,-24 422.16,-17"/>
</a>
</g>
</g>
<!-- Node5 -->
<g id="Node000005" class="node">
<title>Node5</title>
<g id="a_Node000005"><a xlink:href="structkynema__sgf_1_1_factory.html" target="_top" xlink:title=" ">
<polygon fill="white" stroke="#666666" points="116,-35.5 0,-35.5 0,-5.5 116,-5.5 116,-35.5"/>
<text text-anchor="start" x="8" y="-23.5" font-family="Helvetica,sans-Serif" font-size="10.00">kynema_sgf::Factory</text>
<text text-anchor="middle" x="58" y="-12.5" font-family="Helvetica,sans-Serif" font-size="10.00">&lt; Base, Args &gt;</text>
</a>
</g>
</g>
<!-- Node5&#45;&gt;Node4 -->
<g id="edge4_Node000004_Node000005" class="edge">
<title>Node5&#45;&gt;Node4</title>
<g id="a_edge4_Node000004_Node000005"><a xlink:title=" ">
<path fill="none" stroke="orange" stroke-dasharray="5,2" d="M126.29,-20.5C171.76,-20.5 231.54,-20.5 276.87,-20.5"/>
<polygon fill="orange" stroke="orange" points="126.23,-17 116.23,-20.5 126.23,-24 126.23,-17"/>
</a>
</g>
<text text-anchor="start" x="137.5" y="-41.5" font-family="Helvetica,sans-Serif" font-size="10.00" fill="grey">&lt; TransportModel, const</text>
<text text-anchor="start" x="137.5" y="-26.5" font-family="Helvetica,sans-Serif" font-size="10.00" fill="grey">   CFDSim &amp; &gt;</text>
</g>
</g>
</svg>
