<?xml version="1.0" encoding="UTF-8" standalone="no"?>
<!DOCTYPE svg PUBLIC "-//W3C//DTD SVG 1.1//EN"
 "http://www.w3.org/Graphics/SVG/1.1/DTD/svg11.dtd">
<!-- Generated by graphviz version 2.43.0 (0)
 -->
<!-- Title: kynema_sgf::VelPlaneAveragingFine Pages: 1 -->
<svg width="241pt" height="454pt"
 viewBox="0.00 0.00 241.00 454.00" xmlns="http://www.w3.org/2000/svg" xmlns:xlink="http://www.w3.org/1999/xlink">
<g id="graph0" class="graph" transform="scale(1 1) rotate(0) translate(4 450)">
<title>kynema_sgf::VelPlaneAveragingFine</title>
<!-- Node1 -->
<g id="Node000001" class="node">
<title>Node1</title>
<g id="a_Node000001"><a xlink:title=" ">
<polygon fill="#999999" stroke="#666666" points="192,-19 0,-19 0,0 192,0 192,-19"/>
<text text-anchor="middle" x="96" y="-7" font-family="Helvetica,sans-Serif" font-size="10.00">kynema_sgf::VelPlaneAveragingFine</text>
</a>
</g>
</g>
<!-- Node2 -->
<g id="Node000002" class="node">
<title>Node2</title>
<g id="a_Node000002"><a xlink:href="classkynema__sgf_1_1_f_plane_averaging_fine.html" target="_top" xlink:title=" ">
<polygon fill="white" stroke="#666666" points="164,-75 28,-75 28,-56 164,-56 164,-75"/>
<text text-anchor="middle" x="96" y="-63" font-family="Helvetica,sans-Serif" font-size="10.00">FieldPlaneAveragingFine</text>
</a>
</g>
</g>
<!-- Node2&#45;&gt;Node1 -->
<g id="edge1_Node000001_Node000002" class="edge">
<title>Node2&#45;&gt;Node1</title>
<g id="a_edge1_Node000001_Node000002"><a xlink:title=" ">
<path fill="none" stroke="#63b8ff" d="M96,-45.3C96,-36.41 96,-26.28 96,-19.25"/>
<polygon fill="#63b8ff" stroke="#63b8ff" points="92.5,-45.58 96,-55.58 99.5,-45.58 92.5,-45.58"/>
</a>
</g>
</g>
<!-- Node3 -->
<g id="Node000003" class="node">
<title>Node3</title>
<g id="a_Node000003"><a xlink:href="classkynema__sgf_1_1_f_plane_averaging_fine.html" target="_top" xlink:title=" ">
<polygon fill="white" stroke="#666666" points="177.5,-158 14.5,-158 14.5,-128 177.5,-128 177.5,-158"/>
<text text-anchor="start" x="22.5" y="-146" font-family="Helvetica,sans-Serif" font-size="10.00">kynema_sgf::FPlaneAveraging</text>
<text text-anchor="middle" x="96" y="-135" font-family="Helvetica,sans-Serif" font-size="10.00">Fine&lt; FType &gt;</text>
</a>
</g>
</g>
<!-- Node3&#45;&gt;Node2 -->
<g id="edge2_Node000002_Node000003" class="edge">
<title>Node3&#45;&gt;Node2</title>
<g id="a_edge2_Node000002_Node000003"><a xlink:title=" ">
<path fill="none" stroke="orange" stroke-dasharray="5,2" d="M96,-117.4C96,-102.81 96,-85.22 96,-75.01"/>
<polygon fill="orange" stroke="orange" points="92.5,-117.8 96,-127.8 99.5,-117.8 92.5,-117.8"/>
</a>
</g>
<text text-anchor="start" x="99" y="-98.5" font-family="Helvetica,sans-Serif" font-size="10.00" fill="grey">&lt; Field &gt;</text>
</g>
<!-- Node4 -->
<g id="Node000004" class="node">
<title>Node4</title>
<g id="a_Node000004"><a xlink:href="classkynema__sgf_1_1_sim_time.html" target="_top" xlink:title=" ">
<polygon fill="white" stroke="#666666" points="158.5,-230 33.5,-230 33.5,-211 158.5,-211 158.5,-230"/>
<text text-anchor="middle" x="96" y="-218" font-family="Helvetica,sans-Serif" font-size="10.00">kynema_sgf::SimTime</text>
</a>
</g>
</g>
<!-- Node4&#45;&gt;Node3 -->
<g id="edge3_Node000003_Node000004" class="edge">
<title>Node4&#45;&gt;Node3</title>
<g id="a_edge3_Node000003_Node000004"><a xlink:title=" ">
<path fill="none" stroke="#9a32cd" stroke-dasharray="5,2" d="M96,-200.57C96,-187.43 96,-170.18 96,-158.21"/>
<polygon fill="#9a32cd" stroke="#9a32cd" points="92.5,-200.84 96,-210.84 99.5,-200.84 92.5,-200.84"/>
</a>
</g>
<text text-anchor="start" x="99" y="-181.5" font-family="Helvetica,sans-Serif" font-size="10.00" fill="grey">m_time</text>
</g>
<!-- Node5 -->
<g id="Node000005" class="node">
<title>Node5</title>
<g id="a_Node000005"><a xlink:title=" ">
<polygon fill="white" stroke="#666666" points="152,-302 40,-302 40,-283 152,-283 152,-302"/>
<text text-anchor="middle" x="96" y="-290" font-family="Helvetica,sans-Serif" font-size="10.00">std::vector&lt; bool &gt;</text>
</a>
</g>
</g>
<!-- Node5&#45;&gt;Node4 -->
<g id="edge4_Node000004_Node000005" class="edge">
<title>Node5&#45;&gt;Node4</title>
<g id="a_edge4_Node000004_Node000005"><a xlink:title=" ">
<path fill="none" stroke="#9a32cd" stroke-dasharray="5,2" d="M96,-272.58C96,-258.76 96,-240.68 96,-230.15"/>
<polygon fill="#9a32cd" stroke="#9a32cd" points="92.5,-272.92 96,-282.92 99.5,-272.92 92.5,-272.92"/>
</a>
</g>
<text text-anchor="start" x="99.5" y="-253.5" font-family="Helvetica,sans-Serif" font-size="10.00" fill="grey">m_postprocess_enforce_dt</text>
</g>
<!-- Node6 -->
<g id="Node000006" class="node">
<title>Node6</title>
<g id="a_Node000006"><a xlink:title=" ">
<polygon fill="white" stroke="#666666" points="144.5,-374 47.5,-374 47.5,-355 144.5,-355 144.5,-374"/>
<text text-anchor="middle" x="96" y="-362" font-family="Helvetica,sans-Serif" font-size="10.00">std::vector&lt; T &gt;</text>
</a>
</g>
</g>
<!-- Node6&#45;&gt;Node5 -->
<g id="edge5_Node000005_Node000006" class="edge">
<title>Node6&#45;&gt;Node5</title>
<g id="a_edge5_Node000005_Node000006"><a xlink:title=" ">
<path fill="none" stroke="orange" stroke-dasharray="5,2" d="M96,-344.58C96,-330.76 96,-312.68 96,-302.15"/>
<polygon fill="orange" stroke="orange" points="92.5,-344.92 96,-354.92 99.5,-344.92 92.5,-344.92"/>
</a>
</g>
<text text-anchor="start" x="99" y="-325.5" font-family="Helvetica,sans-Serif" font-size="10.00" fill="grey">&lt; bool &gt;</text>
</g>
<!-- Node7 -->
<g id="Node000007" class="node">
<title>Node7</title>
<g id="a_Node000007"><a xlink:title=" ">
<polygon fill="white" stroke="#666666" points="110.5,-446 81.5,-446 81.5,-427 110.5,-427 110.5,-446"/>
<text text-anchor="middle" x="96" y="-434" font-family="Helvetica,sans-Serif" font-size="10.00">T</text>
</a>
</g>
</g>
<!-- Node7&#45;&gt;Node6 -->
<g id="edge6_Node000006_Node000007" class="edge">
<title>Node7&#45;&gt;Node6</title>
<g id="a_edge6_Node000006_Node000007"><a xlink:title=" ">
<path fill="none" stroke="#9a32cd" stroke-dasharray="5,2" d="M96,-416.58C96,-402.76 96,-384.68 96,-374.15"/>
<polygon fill="#9a32cd" stroke="#9a32cd" points="92.5,-416.92 96,-426.92 99.5,-416.92 92.5,-416.92"/>
</a>
</g>
<text text-anchor="start" x="99" y="-397.5" font-family="Helvetica,sans-Serif" font-size="10.00" fill="grey">elements</text>
</g>
</g>
</svg>
