<?xml version="1.0" encoding="UTF-8" standalone="no"?>
<!DOCTYPE svg PUBLIC "-//W3C//DTD SVG 1.1//EN"
 "http://www.w3.org/Graphics/SVG/1.1/DTD/svg11.dtd">
<!-- Generated by graphviz version 2.43.0 (0)
 -->
<!-- Title: kynema_sgf::FPlaneAveragingFine&lt; FType &gt; Pages: 1 -->
<svg width="687pt" height="86pt"
 viewBox="0.00 0.00 687.00 86.00" xmlns="http://www.w3.org/2000/svg" xmlns:xlink="http://www.w3.org/1999/xlink">
<g id="graph0" class="graph" transform="scale(1 1) rotate(0) translate(4 82)">
<title>kynema_sgf::FPlaneAveragingFine&lt; FType &gt;</title>
<!-- Node1 -->
<g id="Node000001" class="node">
<title>Node1</title>
<g id="a_Node000001"><a xlink:title=" ">
<polygon fill="#999999" stroke="#666666" points="163,-50 0,-50 0,-20 163,-20 163,-50"/>
<text text-anchor="start" x="8" y="-38" font-family="Helvetica,sans-Serif" font-size="10.00">kynema_sgf::FPlaneAveraging</text>
<text text-anchor="middle" x="81.5" y="-27" font-family="Helvetica,sans-Serif" font-size="10.00">Fine&lt; FType &gt;</text>
</a>
</g>
</g>
<!-- Node2 -->
<g id="Node000002" class="node">
<title>Node2</title>
<g id="a_Node000002"><a xlink:href="classkynema__sgf_1_1_f_plane_averaging_fine.html" target="_top" xlink:title=" ">
<polygon fill="white" stroke="#666666" points="450,-78 287,-78 287,-48 450,-48 450,-78"/>
<text text-anchor="start" x="295" y="-66" font-family="Helvetica,sans-Serif" font-size="10.00">kynema_sgf::FPlaneAveraging</text>
<text text-anchor="middle" x="368.5" y="-55" font-family="Helvetica,sans-Serif" font-size="10.00">Fine&lt; Field &gt;</text>
</a>
</g>
</g>
<!-- Node1&#45;&gt;Node2 -->
<g id="edge1_Node000001_Node000002" class="edge">
<title>Node1&#45;&gt;Node2</title>
<g id="a_edge1_Node000001_Node000002"><a xlink:title=" ">
<path fill="none" stroke="orange" stroke-dasharray="5,2" d="M173.16,-43.91C209.6,-47.49 251.29,-51.58 286.68,-55.06"/>
<polygon fill="orange" stroke="orange" points="173.32,-40.41 163.03,-42.91 172.64,-47.37 173.32,-40.41"/>
</a>
</g>
<text text-anchor="start" x="202" y="-59.5" font-family="Helvetica,sans-Serif" font-size="10.00" fill="grey">&lt; Field &gt;</text>
</g>
<!-- Node4 -->
<g id="Node000004" class="node">
<title>Node4</title>
<g id="a_Node000004"><a xlink:href="classkynema__sgf_1_1_f_plane_averaging_fine.html" target="_top" xlink:title=" ">
<polygon fill="white" stroke="#666666" points="450,-30 287,-30 287,0 450,0 450,-30"/>
<text text-anchor="start" x="295" y="-18" font-family="Helvetica,sans-Serif" font-size="10.00">kynema_sgf::FPlaneAveraging</text>
<text text-anchor="middle" x="368.5" y="-7" font-family="Helvetica,sans-Serif" font-size="10.00">Fine&lt; ScratchField &gt;</text>
</a>
</g>
</g>
<!-- Node1&#45;&gt;Node4 -->
<g id="edge3_Node000001_Node000004" class="edge">
<title>Node1&#45;&gt;Node4</title>
<g id="a_edge3_Node000001_Node000004"><a xlink:title=" ">
<path fill="none" stroke="orange" stroke-dasharray="5,2" d="M173.22,-20.75C175.84,-20.48 178.44,-20.23 181,-20 215.52,-16.92 253.77,-15.54 286.59,-14.98"/>
<polygon fill="orange" stroke="orange" points="172.58,-17.3 163.03,-21.9 173.36,-24.26 172.58,-17.3"/>
</a>
</g>
<text text-anchor="start" x="184" y="-25.5" font-family="Helvetica,sans-Serif" font-size="10.00" fill="grey">&lt; ScratchField &gt;</text>
</g>
<!-- Node3 -->
<g id="Node000003" class="node">
<title>Node3</title>
<g id="a_Node000003"><a xlink:href="classkynema__sgf_1_1_vel_plane_averaging_fine.html" target="_top" xlink:title=" ">
<polygon fill="white" stroke="#666666" points="679,-72.5 487,-72.5 487,-53.5 679,-53.5 679,-72.5"/>
<text text-anchor="middle" x="583" y="-60.5" font-family="Helvetica,sans-Serif" font-size="10.00">kynema_sgf::VelPlaneAveragingFine</text>
</a>
</g>
</g>
<!-- Node2&#45;&gt;Node3 -->
<g id="edge2_Node000002_Node000003" class="edge">
<title>Node2&#45;&gt;Node3</title>
<g id="a_edge2_Node000002_Node000003"><a xlink:title=" ">
<path fill="none" stroke="#63b8ff" d="M460.34,-63C469.1,-63 478,-63 486.79,-63"/>
<polygon fill="#63b8ff" stroke="#63b8ff" points="460.14,-59.5 450.14,-63 460.14,-66.5 460.14,-59.5"/>
</a>
</g>
</g>
</g>
</svg>
