<?xml version="1.0" encoding="UTF-8" standalone="no"?>
<!DOCTYPE svg PUBLIC "-//W3C//DTD SVG 1.1//EN"
 "http://www.w3.org/Graphics/SVG/1.1/DTD/svg11.dtd">
<!-- Generated by graphviz version 2.43.0 (0)
 -->
<!-- Title: /home/runner/work/amr&#45;wind/amr&#45;wind/src/physics Pages: 1 -->
<!--zoomable 196 -->

<svg id="main" version="1.1" xmlns="http://www.w3.org/2000/svg" xmlns:xlink="http://www.w3.org/1999/xlink" xml:space="preserve" onload="init(evt)">

<style type="text/css"><![CDATA[
.node, .edge {opacity: 0.7;}
.node.selected, .edge.selected {opacity: 1;}
.edge:hover path { stroke: red; }
.edge:hover polygon { stroke: red; fill: red; }
]]></style>

<defs>
  <circle id="rim" cx="0" cy="0" r="7"/>
  <circle id="rim2" cx="0" cy="0" r="3.5"/>
  <g id="zoomPlus">
    <use xlink:href="#rim" fill="#404040"><set attributeName="fill" to="#808080" begin="zoomplus.mouseover" end="zoomplus.mouseout"/></use>
    <path d="M-4,0h8M0,-4v8" fill="none" stroke="white" stroke-width="1.5" pointer-events="none"/>
  </g>
  <g id="zoomMin">
    <use xlink:href="#rim" fill="#404040"><set attributeName="fill" to="#808080" begin="zoomminus.mouseover" end="zoomminus.mouseout"/></use>
    <path d="M-4,0h8" fill="none" stroke="white" stroke-width="1.5" pointer-events="none"/>
  </g>
  <g id="arrowUp" transform="translate(30 24)">
    <use xlink:href="#rim"/>
    <path pointer-events="none" fill="none" stroke="white" stroke-width="1.5" d="M0,-3.0v7 M-2.5,-0.5L0,-3.0L2.5,-0.5"/>
  </g>
  <g id="arrowRight" transform="rotate(90) translate(36 -43)">
    <use xlink:href="#rim"/>
    <path pointer-events="none" fill="none" stroke="white" stroke-width="1.5" d="M0,-3.0v7 M-2.5,-0.5L0,-3.0L2.5,-0.5"/>
  </g>
  <g id="arrowDown" transform="rotate(180) translate(-30 -48)">
    <use xlink:href="#rim"/>
    <path pointer-events="none" fill="none" stroke="white" stroke-width="1.5" d="M0,-3.0v7 M-2.5,-0.5L0,-3.0L2.5,-0.5"/>
  </g>
  <g id="arrowLeft" transform="rotate(270) translate(-36 17)">
    <use xlink:href="#rim"/>
    <path pointer-events="none" fill="none" stroke="white" stroke-width="1.5" d="M0,-3.0v7 M-2.5,-0.5L0,-3.0L2.5,-0.5"/>
  </g>
  <g id="resetDef">
    <use xlink:href="#rim2" fill="#404040"><set attributeName="fill" to="#808080" begin="reset.mouseover" end="reset.mouseout"/></use>
  </g>
</defs>
<script type="application/ecmascript">
var viewWidth = 661;
var viewHeight = 196;
var sectionId = 'dynsection-0';
</script>
<script type="application/ecmascript" xlink:href="svg.min.js"/>
<svg id="graph" class="graph">
<g id="viewport">
<title>/home/runner/work/amr&#45;wind/amr&#45;wind/src/physics</title>
<g id="clust1" class="cluster">
<title>clusterdir_7cd58fa63947f04333d3c0c0c3c8075c</title>
<g id="a_clust1"><a xlink:href="dir_7cd58fa63947f04333d3c0c0c3c8075c.html" target="_top" xlink:title="src">
<polygon fill="#edf0f7" stroke="#7f7f7f" stroke-dasharray="5,2" points="8,-8 8,-180 645,-180 645,-8 8,-8"/>
<text text-anchor="middle" x="326.5" y="-168" font-family="Helvetica,sans-Serif" font-size="10.00">src</text>
</a>
</g>
</g>
<g id="clust2" class="cluster">
<title>clusterdir_b521126e83e9734b3038055a2b69c792</title>
<g id="a_clust2"><a xlink:href="dir_b521126e83e9734b3038055a2b69c792.html" target="_top">
<polygon fill="#edf0f7" stroke="#404040" stroke-width="2" points="419,-63 419,-153 637,-153 637,-63 419,-63"/>
</a>
</g>
</g>
<!-- dir_050dbe99472bbfb94a8f3df6a82eaf7d -->
<g id="node1" class="node">
<title>dir_050dbe99472bbfb94a8f3df6a82eaf7d</title>
<g id="a_node1"><a xlink:href="dir_050dbe99472bbfb94a8f3df6a82eaf7d.html" target="_top" xlink:title="boundary_conditions">
<polygon fill="#a2b4d6" stroke="red" points="154,-90 36,-90 36,-71 154,-71 154,-90"/>
<text text-anchor="middle" x="95" y="-78" font-family="Helvetica,sans-Serif" font-size="10.00">boundary_conditions</text>
</a>
</g>
</g>
<!-- dir_133c6df21499008847e7f9c02efce123 -->
<g id="node2" class="node">
<title>dir_133c6df21499008847e7f9c02efce123</title>
<g id="a_node2"><a xlink:href="dir_133c6df21499008847e7f9c02efce123.html" target="_top" xlink:title="wind_energy">
<polygon fill="#a2b4d6" stroke="red" points="270.5,-90 191.5,-90 191.5,-71 270.5,-71 270.5,-90"/>
<text text-anchor="middle" x="231" y="-78" font-family="Helvetica,sans-Serif" font-size="10.00">wind_energy</text>
</a>
</g>
</g>
<!-- dir_18250308c8df082f4464cca4ccfddc92 -->
<g id="node3" class="node">
<title>dir_18250308c8df082f4464cca4ccfddc92</title>
<g id="a_node3"><a xlink:href="dir_18250308c8df082f4464cca4ccfddc92.html" target="_top" xlink:title="fvm">
<polygon fill="#a2b4d6" stroke="#404040" points="411,-90 375,-90 375,-71 411,-71 411,-90"/>
<text text-anchor="middle" x="393" y="-78" font-family="Helvetica,sans-Serif" font-size="10.00">fvm</text>
</a>
</g>
</g>
<!-- dir_823dfa78fa9f51e69a964e62ab31541e -->
<g id="node4" class="node">
<title>dir_823dfa78fa9f51e69a964e62ab31541e</title>
<g id="a_node4"><a xlink:href="dir_823dfa78fa9f51e69a964e62ab31541e.html" target="_top" xlink:title="turbulence">
<polygon fill="#a2b4d6" stroke="red" points="357,-90 289,-90 289,-71 357,-71 357,-90"/>
<text text-anchor="middle" x="323" y="-78" font-family="Helvetica,sans-Serif" font-size="10.00">turbulence</text>
</a>
</g>
</g>
<!-- dir_8bc3620d22f348c3a20da4350a7fbe1e -->
<g id="node5" class="node">
<title>dir_8bc3620d22f348c3a20da4350a7fbe1e</title>
<g id="a_node5"><a xlink:href="dir_8bc3620d22f348c3a20da4350a7fbe1e.html" target="_top" xlink:title="core">
<polygon fill="#a2b4d6" stroke="red" points="510,-35 472,-35 472,-16 510,-16 510,-35"/>
<text text-anchor="middle" x="491" y="-23" font-family="Helvetica,sans-Serif" font-size="10.00">core</text>
</a>
</g>
</g>
<!-- dir_b6cb907ee7f28da0ed55bdc53992fe8b -->
<g id="node6" class="node">
<title>dir_b6cb907ee7f28da0ed55bdc53992fe8b</title>
<g id="a_node6"><a xlink:href="dir_b6cb907ee7f28da0ed55bdc53992fe8b.html" target="_top" xlink:title="utilities">
<polygon fill="#a2b4d6" stroke="red" points="453.5,-35 400.5,-35 400.5,-16 453.5,-16 453.5,-35"/>
<text text-anchor="middle" x="427" y="-23" font-family="Helvetica,sans-Serif" font-size="10.00">utilities</text>
</a>
</g>
</g>
<!-- dir_c224d730a748b8f4130570ffc2b8c5b9 -->
<g id="node7" class="node">
<title>dir_c224d730a748b8f4130570ffc2b8c5b9</title>
<g id="a_node7"><a xlink:href="dir_c224d730a748b8f4130570ffc2b8c5b9.html" target="_top" xlink:title="equation_systems">
<polygon fill="#a2b4d6" stroke="red" points="634,-35 528,-35 528,-16 634,-16 634,-35"/>
<text text-anchor="middle" x="581" y="-23" font-family="Helvetica,sans-Serif" font-size="10.00">equation_systems</text>
</a>
</g>
</g>
<!-- dir_b521126e83e9734b3038055a2b69c792 -->
<g id="node8" class="node">
<title>dir_b521126e83e9734b3038055a2b69c792</title>
<text text-anchor="middle" x="454" y="-133" font-family="Helvetica,sans-Serif" font-size="10.00">physics</text>
</g>
<!-- dir_b521126e83e9734b3038055a2b69c792&#45;&gt;dir_050dbe99472bbfb94a8f3df6a82eaf7d -->
<g id="edge1" class="edge">
<title>dir_b521126e83e9734b3038055a2b69c792&#45;&gt;dir_050dbe99472bbfb94a8f3df6a82eaf7d</title>
<g id="a_edge1"><a xlink:href="dir_000032_000006.html" target="_top">
<path fill="none" stroke="#63b8ff" d="M427.31,-130.56C371.83,-122.37 242.59,-103.29 162.62,-91.48"/>
<polygon fill="#63b8ff" stroke="#63b8ff" points="163.04,-88.01 152.64,-90.01 162.02,-94.93 163.04,-88.01"/>
</a>
</g>
<g id="a_edge1&#45;headlabel"><a xlink:href="dir_000032_000006.html" target="_top" xlink:title="1">
<text text-anchor="middle" x="167.01" y="-83.22" font-family="Helvetica,sans-Serif" font-size="10.00" fill="#63b8ff">1</text>
</a>
</g>
</g>
<!-- dir_b521126e83e9734b3038055a2b69c792&#45;&gt;dir_133c6df21499008847e7f9c02efce123 -->
<g id="edge2" class="edge">
<title>dir_b521126e83e9734b3038055a2b69c792&#45;&gt;dir_133c6df21499008847e7f9c02efce123</title>
<g id="a_edge2"><a xlink:href="dir_000032_000057.html" target="_top">
<path fill="none" stroke="#63b8ff" d="M427.1,-128.11C389.84,-119.25 321.99,-103.13 276.7,-92.36"/>
<polygon fill="#63b8ff" stroke="#63b8ff" points="277.37,-88.92 266.83,-90.02 275.75,-95.73 277.37,-88.92"/>
</a>
</g>
<g id="a_edge2&#45;headlabel"><a xlink:href="dir_000032_000057.html" target="_top" xlink:title="1">
<text text-anchor="middle" x="281.53" y="-84.49" font-family="Helvetica,sans-Serif" font-size="10.00" fill="#63b8ff">1</text>
</a>
</g>
</g>
<!-- dir_b521126e83e9734b3038055a2b69c792&#45;&gt;dir_823dfa78fa9f51e69a964e62ab31541e -->
<g id="edge4" class="edge">
<title>dir_b521126e83e9734b3038055a2b69c792&#45;&gt;dir_823dfa78fa9f51e69a964e62ab31541e</title>
<g id="a_edge4"><a xlink:href="dir_000032_000050.html" target="_top">
<path fill="none" stroke="#63b8ff" d="M432.95,-125.98C411.59,-117.34 378.3,-103.87 353.94,-94.02"/>
<polygon fill="#63b8ff" stroke="#63b8ff" points="355.01,-90.68 344.43,-90.17 352.39,-97.17 355.01,-90.68"/>
</a>
</g>
<g id="a_edge4&#45;headlabel"><a xlink:href="dir_000032_000050.html" target="_top" xlink:title="2">
<text text-anchor="middle" x="359.41" y="-86.89" font-family="Helvetica,sans-Serif" font-size="10.00" fill="#63b8ff">2</text>
</a>
</g>
</g>
<!-- dir_b521126e83e9734b3038055a2b69c792&#45;&gt;dir_8bc3620d22f348c3a20da4350a7fbe1e -->
<g id="edge5" class="edge">
<title>dir_b521126e83e9734b3038055a2b69c792&#45;&gt;dir_8bc3620d22f348c3a20da4350a7fbe1e</title>
<g id="a_edge5"><a xlink:href="dir_000032_000008.html" target="_top">
<path fill="none" stroke="#63b8ff" d="M427.07,-134.29C364.88,-133.19 214.17,-126.71 183,-90 175.23,-80.85 174.95,-71.9 183,-63 223.07,-18.72 386.07,-44.66 461.77,-34.53"/>
<polygon fill="#63b8ff" stroke="#63b8ff" points="462.56,-37.95 471.85,-32.85 461.41,-31.04 462.56,-37.95"/>
</a>
</g>
<g id="a_edge5&#45;headlabel"><a xlink:href="dir_000032_000008.html" target="_top" xlink:title="92">
<text text-anchor="middle" x="459.48" y="-38.84" font-family="Helvetica,sans-Serif" font-size="10.00" fill="#63b8ff">92</text>
</a>
</g>
</g>
<!-- dir_b521126e83e9734b3038055a2b69c792&#45;&gt;dir_b6cb907ee7f28da0ed55bdc53992fe8b -->
<g id="edge6" class="edge">
<title>dir_b521126e83e9734b3038055a2b69c792&#45;&gt;dir_b6cb907ee7f28da0ed55bdc53992fe8b</title>
<g id="a_edge6"><a xlink:href="dir_000032_000052.html" target="_top">
<path fill="none" stroke="#63b8ff" d="M427.34,-133.75C338.09,-130.97 53.88,-119.83 27,-90 18.97,-81.09 18.91,-71.86 27,-63 51.22,-36.47 295.61,-29 390.04,-27.1"/>
<polygon fill="#63b8ff" stroke="#63b8ff" points="390.33,-30.59 400.26,-26.9 390.2,-23.59 390.33,-30.59"/>
</a>
</g>
<g id="a_edge6&#45;headlabel"><a xlink:href="dir_000032_000052.html" target="_top" xlink:title="34">
<text text-anchor="middle" x="386.79" y="-31" font-family="Helvetica,sans-Serif" font-size="10.00" fill="#63b8ff">34</text>
</a>
</g>
</g>
<!-- dir_46833a891e7c67f61b2cc16c982452d3 -->
<g id="node11" class="node">
<title>dir_46833a891e7c67f61b2cc16c982452d3</title>
<g id="a_node11"><a xlink:href="dir_46833a891e7c67f61b2cc16c982452d3.html" target="_top" xlink:title="udfs">
<polygon fill="#a2b4d6" stroke="#404040" points="555,-90 517,-90 517,-71 555,-71 555,-90"/>
<text text-anchor="middle" x="536" y="-78" font-family="Helvetica,sans-Serif" font-size="10.00">udfs</text>
</a>
</g>
</g>
<!-- dir_b521126e83e9734b3038055a2b69c792&#45;&gt;dir_46833a891e7c67f61b2cc16c982452d3 -->
<g id="edge3" class="edge">
<title>dir_b521126e83e9734b3038055a2b69c792&#45;&gt;dir_46833a891e7c67f61b2cc16c982452d3</title>
<g id="a_edge3"><a xlink:href="dir_000032_000051.html" target="_top">
<path fill="none" stroke="#63b8ff" d="M467.17,-125.98C479.77,-117.84 499,-105.41 513.94,-95.76"/>
<polygon fill="#63b8ff" stroke="#63b8ff" points="516.09,-98.54 522.59,-90.17 512.29,-92.66 516.09,-98.54"/>
</a>
</g>
<g id="a_edge3&#45;headlabel"><a xlink:href="dir_000032_000051.html" target="_top" xlink:title="2">
<text text-anchor="middle" x="514.61" y="-100.37" font-family="Helvetica,sans-Serif" font-size="10.00" fill="#63b8ff">2</text>
</a>
</g>
</g>
<!-- dir_0b1f0c838b168ce1530d3a8538ae7096 -->
<g id="node9" class="node">
<title>dir_0b1f0c838b168ce1530d3a8538ae7096</title>
<g id="a_node9"><a xlink:href="dir_0b1f0c838b168ce1530d3a8538ae7096.html" target="_top" xlink:title="mms">
<polygon fill="#a2b4d6" stroke="#404040" points="628.5,-145 587.5,-145 587.5,-126 628.5,-126 628.5,-145"/>
<text text-anchor="middle" x="608" y="-133" font-family="Helvetica,sans-Serif" font-size="10.00">mms</text>
</a>
</g>
</g>
<!-- dir_0b1f0c838b168ce1530d3a8538ae7096&#45;&gt;dir_8bc3620d22f348c3a20da4350a7fbe1e -->
<g id="edge7" class="edge">
<title>dir_0b1f0c838b168ce1530d3a8538ae7096&#45;&gt;dir_8bc3620d22f348c3a20da4350a7fbe1e</title>
<g id="a_edge7"><a xlink:href="dir_000026_000008.html" target="_top">
<path fill="none" stroke="#63b8ff" d="M587.1,-127.6C561.08,-118.61 518.74,-102.57 508,-90 497.46,-77.66 493.39,-59.44 491.84,-45.68"/>
<polygon fill="#63b8ff" stroke="#63b8ff" points="495.31,-45.1 491.06,-35.39 488.33,-45.63 495.31,-45.1"/>
</a>
</g>
<g id="a_edge7&#45;headlabel"><a xlink:href="dir_000026_000008.html" target="_top" xlink:title="3">
<text text-anchor="middle" x="498.41" y="-45.96" font-family="Helvetica,sans-Serif" font-size="10.00" fill="#63b8ff">3</text>
</a>
</g>
</g>
<!-- dir_0b1f0c838b168ce1530d3a8538ae7096&#45;&gt;dir_c224d730a748b8f4130570ffc2b8c5b9 -->
<g id="edge8" class="edge">
<title>dir_0b1f0c838b168ce1530d3a8538ae7096&#45;&gt;dir_c224d730a748b8f4130570ffc2b8c5b9</title>
<g id="a_edge8"><a xlink:href="dir_000026_000015.html" target="_top">
<path fill="none" stroke="#63b8ff" d="M605.79,-125.66C601.4,-108.09 591.49,-68.45 585.61,-44.95"/>
<polygon fill="#63b8ff" stroke="#63b8ff" points="588.99,-44.01 583.16,-35.16 582.19,-45.71 588.99,-44.01"/>
</a>
</g>
<g id="a_edge8&#45;headlabel"><a xlink:href="dir_000026_000015.html" target="_top" xlink:title="1">
<text text-anchor="middle" x="592.61" y="-44.31" font-family="Helvetica,sans-Serif" font-size="10.00" fill="#63b8ff">1</text>
</a>
</g>
</g>
<!-- dir_d556efe51622eb6963696508e9d4fb10 -->
<g id="node10" class="node">
<title>dir_d556efe51622eb6963696508e9d4fb10</title>
<g id="a_node10"><a xlink:href="dir_d556efe51622eb6963696508e9d4fb10.html" target="_top" xlink:title="multiphase">
<polygon fill="#a2b4d6" stroke="#404040" points="569.5,-145 498.5,-145 498.5,-126 569.5,-126 569.5,-145"/>
<text text-anchor="middle" x="534" y="-133" font-family="Helvetica,sans-Serif" font-size="10.00">multiphase</text>
</a>
</g>
</g>
<!-- dir_d556efe51622eb6963696508e9d4fb10&#45;&gt;dir_18250308c8df082f4464cca4ccfddc92 -->
<g id="edge9" class="edge">
<title>dir_d556efe51622eb6963696508e9d4fb10&#45;&gt;dir_18250308c8df082f4464cca4ccfddc92</title>
<g id="a_edge9"><a xlink:href="dir_000027_000019.html" target="_top">
<path fill="none" stroke="#63b8ff" d="M510.71,-125.88C488.77,-117.73 454.71,-105.04 420.79,-92.19"/>
<polygon fill="#63b8ff" stroke="#63b8ff" points="421.83,-88.84 411.24,-88.57 419.35,-95.39 421.83,-88.84"/>
</a>
</g>
<g id="a_edge9&#45;headlabel"><a xlink:href="dir_000027_000019.html" target="_top" xlink:title="5">
<text text-anchor="middle" x="426.2" y="-84.96" font-family="Helvetica,sans-Serif" font-size="10.00" fill="#63b8ff">5</text>
</a>
</g>
</g>
<!-- dir_d556efe51622eb6963696508e9d4fb10&#45;&gt;dir_8bc3620d22f348c3a20da4350a7fbe1e -->
<g id="edge10" class="edge">
<title>dir_d556efe51622eb6963696508e9d4fb10&#45;&gt;dir_8bc3620d22f348c3a20da4350a7fbe1e</title>
<g id="a_edge10"><a xlink:href="dir_000027_000008.html" target="_top">
<path fill="none" stroke="#63b8ff" d="M522.19,-125.75C512.36,-117.7 499.04,-104.78 493,-90 487.19,-75.79 487.11,-58.25 488.24,-45.21"/>
<polygon fill="#63b8ff" stroke="#63b8ff" points="491.74,-45.45 489.44,-35.11 484.79,-44.63 491.74,-45.45"/>
</a>
</g>
<g id="a_edge10&#45;headlabel"><a xlink:href="dir_000027_000008.html" target="_top" xlink:title="29">
<text text-anchor="middle" x="494.14" y="-46.85" font-family="Helvetica,sans-Serif" font-size="10.00" fill="#63b8ff">29</text>
</a>
</g>
</g>
<!-- dir_d556efe51622eb6963696508e9d4fb10&#45;&gt;dir_b6cb907ee7f28da0ed55bdc53992fe8b -->
<g id="edge11" class="edge">
<title>dir_d556efe51622eb6963696508e9d4fb10&#45;&gt;dir_b6cb907ee7f28da0ed55bdc53992fe8b</title>
<g id="a_edge11"><a xlink:href="dir_000027_000052.html" target="_top">
<path fill="none" stroke="#63b8ff" d="M523.09,-125.69C512.5,-116.98 496.16,-103.09 483,-90 467.61,-74.69 451.35,-55.92 440.33,-42.77"/>
<polygon fill="#63b8ff" stroke="#63b8ff" points="442.99,-40.5 433.92,-35.03 437.61,-44.96 442.99,-40.5"/>
</a>
</g>
<g id="a_edge11&#45;headlabel"><a xlink:href="dir_000027_000052.html" target="_top" xlink:title="7">
<text text-anchor="middle" x="447.47" y="-38.95" font-family="Helvetica,sans-Serif" font-size="10.00" fill="#63b8ff">7</text>
</a>
</g>
</g>
<!-- dir_d556efe51622eb6963696508e9d4fb10&#45;&gt;dir_c224d730a748b8f4130570ffc2b8c5b9 -->
<g id="edge12" class="edge">
<title>dir_d556efe51622eb6963696508e9d4fb10&#45;&gt;dir_c224d730a748b8f4130570ffc2b8c5b9</title>
<g id="a_edge12"><a xlink:href="dir_000027_000015.html" target="_top">
<path fill="none" stroke="#63b8ff" d="M541.14,-125.82C547.9,-117.21 557.9,-103.4 564,-90 570.59,-75.54 575.04,-58.03 577.73,-45.06"/>
<polygon fill="#63b8ff" stroke="#63b8ff" points="581.2,-45.5 579.65,-35.02 574.33,-44.19 581.2,-45.5"/>
</a>
</g>
<g id="a_edge12&#45;headlabel"><a xlink:href="dir_000027_000015.html" target="_top" xlink:title="2">
<text text-anchor="middle" x="583.32" y="-47.07" font-family="Helvetica,sans-Serif" font-size="10.00" fill="#63b8ff">2</text>
</a>
</g>
</g>
<!-- dir_46833a891e7c67f61b2cc16c982452d3&#45;&gt;dir_8bc3620d22f348c3a20da4350a7fbe1e -->
<g id="edge13" class="edge">
<title>dir_46833a891e7c67f61b2cc16c982452d3&#45;&gt;dir_8bc3620d22f348c3a20da4350a7fbe1e</title>
<g id="a_edge13"><a xlink:href="dir_000051_000008.html" target="_top">
<path fill="none" stroke="#63b8ff" d="M528.57,-70.75C522.15,-63.18 512.69,-52.05 504.88,-42.84"/>
<polygon fill="#63b8ff" stroke="#63b8ff" points="507.43,-40.45 498.29,-35.09 502.1,-44.98 507.43,-40.45"/>
</a>
</g>
<g id="a_edge13&#45;headlabel"><a xlink:href="dir_000051_000008.html" target="_top" xlink:title="23">
<text text-anchor="middle" x="511.92" y="-38.85" font-family="Helvetica,sans-Serif" font-size="10.00" fill="#63b8ff">23</text>
</a>
</g>
</g>
<!-- dir_46833a891e7c67f61b2cc16c982452d3&#45;&gt;dir_b6cb907ee7f28da0ed55bdc53992fe8b -->
<g id="edge14" class="edge">
<title>dir_46833a891e7c67f61b2cc16c982452d3&#45;&gt;dir_b6cb907ee7f28da0ed55bdc53992fe8b</title>
<g id="a_edge14"><a xlink:href="dir_000051_000052.html" target="_top">
<path fill="none" stroke="#63b8ff" d="M525.1,-70.93C521.38,-68.21 517.11,-65.31 513,-63 496.37,-53.66 476.87,-45.2 460.65,-38.78"/>
<polygon fill="#63b8ff" stroke="#63b8ff" points="461.62,-35.4 451.03,-35.06 459.09,-41.93 461.62,-35.4"/>
</a>
</g>
<g id="a_edge14&#45;headlabel"><a xlink:href="dir_000051_000052.html" target="_top" xlink:title="1">
<text text-anchor="middle" x="465.99" y="-31.55" font-family="Helvetica,sans-Serif" font-size="10.00" fill="#63b8ff">1</text>
</a>
</g>
</g>
<!-- dir_46833a891e7c67f61b2cc16c982452d3&#45;&gt;dir_c224d730a748b8f4130570ffc2b8c5b9 -->
<g id="edge15" class="edge">
<title>dir_46833a891e7c67f61b2cc16c982452d3&#45;&gt;dir_c224d730a748b8f4130570ffc2b8c5b9</title>
<g id="a_edge15"><a xlink:href="dir_000051_000015.html" target="_top">
<path fill="none" stroke="#63b8ff" d="M543.43,-70.75C549.85,-63.18 559.31,-52.05 567.12,-42.84"/>
<polygon fill="#63b8ff" stroke="#63b8ff" points="569.9,-44.98 573.71,-35.09 564.57,-40.45 569.9,-44.98"/>
</a>
</g>
<g id="a_edge15&#45;headlabel"><a xlink:href="dir_000051_000015.html" target="_top" xlink:title="6">
<text text-anchor="middle" x="569.74" y="-47.06" font-family="Helvetica,sans-Serif" font-size="10.00" fill="#63b8ff">6</text>
</a>
</g>
</g>
</g>
</svg>

<g id="navigator" transform="translate(0 0)" fill="#404254">
  <rect fill="#f2f5e9" fill-opacity="0.5" stroke="#606060" stroke-width=".5" x="0" y="0" width="60" height="60"/>
  <use id="zoomplus" xlink:href="#zoomPlus" x="17" y="9" onmousedown="handleZoom(evt,'in')"/>
  <use id="zoomminus" xlink:href="#zoomMin" x="42" y="9" onmousedown="handleZoom(evt,'out')"/>
  <use id="reset" xlink:href="#resetDef" x="30" y="36" onmousedown="handleReset()"/>
   <use id="arrowup" xlink:href="#arrowUp" x="0" y="0" onmousedown="handlePan(0,-1)"/>
  <use id="arrowright" xlink:href="#arrowRight" x="0" y="0" onmousedown="handlePan(1,0)"/>
  <use id="arrowdown" xlink:href="#arrowDown" x="0" y="0" onmousedown="handlePan(0,1)"/>
  <use id="arrowleft" xlink:href="#arrowLeft" x="0" y="0" onmousedown="handlePan(-1,0)"/>
</g>
<svg viewBox="0 0 15 15" width="100%" height="30px" preserveAspectRatio="xMaxYMin meet">
 <g id="arrow_out" transform="scale(0.3 0.3)">
  <a xlink:href="dir_b521126e83e9734b3038055a2b69c792_dep_org.svg" target="_base">
   <rect id="button" ry="5" rx="5" y="6" x="6" height="38" width="38"
        fill="#f2f5e9" fill-opacity="0.5" stroke="#606060" stroke-width="1.0"/>
   <path id="arrow"
     d="M 11.500037,31.436501 C 11.940474,20.09759 22.043105,11.32322 32.158766,21.979434 L 37.068811,17.246167 C 37.068811,17.246167 37.088388,32 37.088388,32 L 22.160133,31.978069 C 22.160133,31.978069 26.997745,27.140456 26.997745,27.140456 C 18.528582,18.264221 13.291696,25.230495 11.500037,31.436501 z"
     style="fill:#404040;"/>
  </a>
 </g>
</svg>

<style type='text/css'>
<![CDATA[
[data-mouse-over-selected='false'] { opacity: 0.7; }
[data-mouse-over-selected='true']  { opacity: 1.0; }
]]>
</style>
<script type="application/ecmascript"><![CDATA[
document.addEventListener('DOMContentLoaded', (event) => {
  highlightEdges();
  highlightAdjacentNodes();
});
]]></script>
</svg>
