<?xml version="1.0" encoding="UTF-8" standalone="no"?>
<!DOCTYPE svg PUBLIC "-//W3C//DTD SVG 1.1//EN"
 "http://www.w3.org/Graphics/SVG/1.1/DTD/svg11.dtd">
<!-- Generated by graphviz version 2.43.0 (0)
 -->
<!-- Title: /home/runner/work/amr&#45;wind/amr&#45;wind/src/utilities Pages: 1 -->
<svg width="718pt" height="196pt"
 viewBox="0.00 0.00 718.00 196.00" xmlns="http://www.w3.org/2000/svg" xmlns:xlink="http://www.w3.org/1999/xlink">
<g id="graph0" class="graph" transform="scale(1 1) rotate(0) translate(4 192)">
<title>/home/runner/work/amr&#45;wind/amr&#45;wind/src/utilities</title>
<g id="clust1" class="cluster">
<title>clusterdir_7cd58fa63947f04333d3c0c0c3c8075c</title>
<g id="a_clust1"><a xlink:href="dir_7cd58fa63947f04333d3c0c0c3c8075c.html" target="_top" xlink:title="src">
<polygon fill="#edf0f7" stroke="#7f7f7f" stroke-dasharray="5,2" points="8,-8 8,-180 702,-180 702,-8 8,-8"/>
<text text-anchor="middle" x="355" y="-168" font-family="Helvetica,sans-Serif" font-size="10.00">src</text>
</a>
</g>
</g>
<g id="clust2" class="cluster">
<title>clusterdir_b6cb907ee7f28da0ed55bdc53992fe8b</title>
<g id="a_clust2"><a xlink:href="dir_b6cb907ee7f28da0ed55bdc53992fe8b.html" target="_top">
<polygon fill="#edf0f7" stroke="#404040" stroke-width="2" points="16,-63 16,-153 394,-153 394,-63 16,-63"/>
</a>
</g>
</g>
<!-- dir_18250308c8df082f4464cca4ccfddc92 -->
<g id="node1" class="node">
<title>dir_18250308c8df082f4464cca4ccfddc92</title>
<g id="a_node1"><a xlink:href="dir_18250308c8df082f4464cca4ccfddc92.html" target="_top" xlink:title="fvm">
<polygon fill="#a2b4d6" stroke="#404040" points="438,-90 402,-90 402,-71 438,-71 438,-90"/>
<text text-anchor="middle" x="420" y="-78" font-family="Helvetica,sans-Serif" font-size="10.00">fvm</text>
</a>
</g>
</g>
<!-- dir_8bc3620d22f348c3a20da4350a7fbe1e -->
<g id="node2" class="node">
<title>dir_8bc3620d22f348c3a20da4350a7fbe1e</title>
<g id="a_node2"><a xlink:href="dir_8bc3620d22f348c3a20da4350a7fbe1e.html" target="_top" xlink:title="core">
<polygon fill="#a2b4d6" stroke="red" points="476,-35 438,-35 438,-16 476,-16 476,-35"/>
<text text-anchor="middle" x="457" y="-23" font-family="Helvetica,sans-Serif" font-size="10.00">core</text>
</a>
</g>
</g>
<!-- dir_b521126e83e9734b3038055a2b69c792 -->
<g id="node3" class="node">
<title>dir_b521126e83e9734b3038055a2b69c792</title>
<g id="a_node3"><a xlink:href="dir_b521126e83e9734b3038055a2b69c792.html" target="_top" xlink:title="physics">
<polygon fill="#a2b4d6" stroke="red" points="529.5,-90 476.5,-90 476.5,-71 529.5,-71 529.5,-90"/>
<text text-anchor="middle" x="503" y="-78" font-family="Helvetica,sans-Serif" font-size="10.00">physics</text>
</a>
</g>
</g>
<!-- dir_c224d730a748b8f4130570ffc2b8c5b9 -->
<g id="node4" class="node">
<title>dir_c224d730a748b8f4130570ffc2b8c5b9</title>
<g id="a_node4"><a xlink:href="dir_c224d730a748b8f4130570ffc2b8c5b9.html" target="_top" xlink:title="equation_systems">
<polygon fill="#a2b4d6" stroke="red" points="654,-90 548,-90 548,-71 654,-71 654,-90"/>
<text text-anchor="middle" x="601" y="-78" font-family="Helvetica,sans-Serif" font-size="10.00">equation_systems</text>
</a>
</g>
</g>
<!-- dir_b6cb907ee7f28da0ed55bdc53992fe8b -->
<g id="node5" class="node">
<title>dir_b6cb907ee7f28da0ed55bdc53992fe8b</title>
<text text-anchor="middle" x="51" y="-133" font-family="Helvetica,sans-Serif" font-size="10.00">utilities</text>
</g>
<!-- dir_b6cb907ee7f28da0ed55bdc53992fe8b&#45;&gt;dir_18250308c8df082f4464cca4ccfddc92 -->
<g id="edge2" class="edge">
<title>dir_b6cb907ee7f28da0ed55bdc53992fe8b&#45;&gt;dir_18250308c8df082f4464cca4ccfddc92</title>
<g id="a_edge2"><a xlink:href="dir_000052_000019.html" target="_top">
<path fill="none" stroke="#63b8ff" d="M77.66,-127.84C80.8,-127.16 83.96,-126.53 87,-126 220.71,-102.56 260.95,-122.32 391.87,-91.34"/>
<polygon fill="#63b8ff" stroke="#63b8ff" points="392.97,-94.67 401.87,-88.91 391.32,-87.87 392.97,-94.67"/>
</a>
</g>
<g id="a_edge2&#45;headlabel"><a xlink:href="dir_000052_000019.html" target="_top" xlink:title="2">
<text text-anchor="middle" x="390.15" y="-95.78" font-family="Helvetica,sans-Serif" font-size="10.00" fill="#63b8ff">2</text>
</a>
</g>
</g>
<!-- dir_b6cb907ee7f28da0ed55bdc53992fe8b&#45;&gt;dir_8bc3620d22f348c3a20da4350a7fbe1e -->
<g id="edge4" class="edge">
<title>dir_b6cb907ee7f28da0ed55bdc53992fe8b&#45;&gt;dir_8bc3620d22f348c3a20da4350a7fbe1e</title>
<g id="a_edge4"><a xlink:href="dir_000052_000008.html" target="_top">
<path fill="none" stroke="#63b8ff" d="M77.64,-127.41C150.43,-108.05 352.26,-54.36 427.88,-34.25"/>
<polygon fill="#63b8ff" stroke="#63b8ff" points="428.93,-37.59 437.69,-31.64 427.13,-30.82 428.93,-37.59"/>
</a>
</g>
<g id="a_edge4&#45;headlabel"><a xlink:href="dir_000052_000008.html" target="_top" xlink:title="29">
<text text-anchor="middle" x="426.18" y="-38.76" font-family="Helvetica,sans-Serif" font-size="10.00" fill="#63b8ff">29</text>
</a>
</g>
</g>
<!-- dir_115007e8363abab6c17534864f6f6bad -->
<g id="node7" class="node">
<title>dir_115007e8363abab6c17534864f6f6bad</title>
<g id="a_node7"><a xlink:href="dir_115007e8363abab6c17534864f6f6bad.html" target="_top" xlink:title="averaging">
<polygon fill="#a2b4d6" stroke="#404040" points="89.5,-90 24.5,-90 24.5,-71 89.5,-71 89.5,-90"/>
<text text-anchor="middle" x="57" y="-78" font-family="Helvetica,sans-Serif" font-size="10.00">averaging</text>
</a>
</g>
</g>
<!-- dir_b6cb907ee7f28da0ed55bdc53992fe8b&#45;&gt;dir_115007e8363abab6c17534864f6f6bad -->
<g id="edge1" class="edge">
<title>dir_b6cb907ee7f28da0ed55bdc53992fe8b&#45;&gt;dir_115007e8363abab6c17534864f6f6bad</title>
<g id="a_edge1"><a xlink:href="dir_000052_000004.html" target="_top">
<path fill="none" stroke="#63b8ff" d="M51.99,-125.75C52.78,-118.8 53.9,-108.85 54.89,-100.13"/>
<polygon fill="#63b8ff" stroke="#63b8ff" points="58.38,-100.42 56.03,-90.09 51.42,-99.63 58.38,-100.42"/>
</a>
</g>
<g id="a_edge1&#45;headlabel"><a xlink:href="dir_000052_000004.html" target="_top" xlink:title="1">
<text text-anchor="middle" x="60.8" y="-101.81" font-family="Helvetica,sans-Serif" font-size="10.00" fill="#63b8ff">1</text>
</a>
</g>
</g>
<!-- dir_84e3f86ffba59b806c31ff30c109cced -->
<g id="node8" class="node">
<title>dir_84e3f86ffba59b806c31ff30c109cced</title>
<g id="a_node8"><a xlink:href="dir_84e3f86ffba59b806c31ff30c109cced.html" target="_top" xlink:title="ncutils">
<polygon fill="#a2b4d6" stroke="#404040" points="156.5,-90 107.5,-90 107.5,-71 156.5,-71 156.5,-90"/>
<text text-anchor="middle" x="132" y="-78" font-family="Helvetica,sans-Serif" font-size="10.00">ncutils</text>
</a>
</g>
</g>
<!-- dir_b6cb907ee7f28da0ed55bdc53992fe8b&#45;&gt;dir_84e3f86ffba59b806c31ff30c109cced -->
<g id="edge3" class="edge">
<title>dir_b6cb907ee7f28da0ed55bdc53992fe8b&#45;&gt;dir_84e3f86ffba59b806c31ff30c109cced</title>
<g id="a_edge3"><a xlink:href="dir_000052_000028.html" target="_top">
<path fill="none" stroke="#63b8ff" d="M64.01,-125.98C76.46,-117.84 95.46,-105.41 110.21,-95.76"/>
<polygon fill="#63b8ff" stroke="#63b8ff" points="112.3,-98.57 118.75,-90.17 108.46,-92.72 112.3,-98.57"/>
</a>
</g>
<g id="a_edge3&#45;headlabel"><a xlink:href="dir_000052_000028.html" target="_top" xlink:title="7">
<text text-anchor="middle" x="110.84" y="-100.42" font-family="Helvetica,sans-Serif" font-size="10.00" fill="#63b8ff">7</text>
</a>
</g>
</g>
<!-- dir_0915159ab028fc3941b4b6453315564b -->
<g id="node6" class="node">
<title>dir_0915159ab028fc3941b4b6453315564b</title>
<g id="a_node6"><a xlink:href="dir_0915159ab028fc3941b4b6453315564b.html" target="_top" xlink:title="ascent">
<polygon fill="#a2b4d6" stroke="#404040" points="314.5,-145 265.5,-145 265.5,-126 314.5,-126 314.5,-145"/>
<text text-anchor="middle" x="290" y="-133" font-family="Helvetica,sans-Serif" font-size="10.00">ascent</text>
</a>
</g>
</g>
<!-- dir_115007e8363abab6c17534864f6f6bad&#45;&gt;dir_8bc3620d22f348c3a20da4350a7fbe1e -->
<g id="edge5" class="edge">
<title>dir_115007e8363abab6c17534864f6f6bad&#45;&gt;dir_8bc3620d22f348c3a20da4350a7fbe1e</title>
<g id="a_edge5"><a xlink:href="dir_000004_000008.html" target="_top">
<path fill="none" stroke="#63b8ff" d="M75.46,-70.99C82.67,-68 91.08,-64.92 99,-63 218.42,-34.03 365.67,-28.03 427.49,-26.81"/>
<polygon fill="#63b8ff" stroke="#63b8ff" points="427.73,-30.3 437.67,-26.63 427.61,-23.3 427.73,-30.3"/>
</a>
</g>
<g id="a_edge5&#45;headlabel"><a xlink:href="dir_000004_000008.html" target="_top" xlink:title="5">
<text text-anchor="middle" x="424.19" y="-30.7" font-family="Helvetica,sans-Serif" font-size="10.00" fill="#63b8ff">5</text>
</a>
</g>
</g>
<!-- dir_e7b3b84e4fb3ce7667ecbb4a279b7cc9 -->
<g id="node9" class="node">
<title>dir_e7b3b84e4fb3ce7667ecbb4a279b7cc9</title>
<g id="a_node9"><a xlink:href="dir_e7b3b84e4fb3ce7667ecbb4a279b7cc9.html" target="_top" xlink:title="sampling">
<polygon fill="#a2b4d6" stroke="#404040" points="158,-145 96,-145 96,-126 158,-126 158,-145"/>
<text text-anchor="middle" x="127" y="-133" font-family="Helvetica,sans-Serif" font-size="10.00">sampling</text>
</a>
</g>
</g>
<!-- dir_e7b3b84e4fb3ce7667ecbb4a279b7cc9&#45;&gt;dir_18250308c8df082f4464cca4ccfddc92 -->
<g id="edge6" class="edge">
<title>dir_e7b3b84e4fb3ce7667ecbb4a279b7cc9&#45;&gt;dir_18250308c8df082f4464cca4ccfddc92</title>
<g id="a_edge6"><a xlink:href="dir_000036_000019.html" target="_top">
<path fill="none" stroke="#63b8ff" d="M158.31,-127.84C161.58,-127.2 164.85,-126.57 168,-126 266.52,-108.09 296.17,-116.23 392.05,-91.44"/>
<polygon fill="#63b8ff" stroke="#63b8ff" points="393.08,-94.79 401.85,-88.86 391.29,-88.02 393.08,-94.79"/>
</a>
</g>
<g id="a_edge6&#45;headlabel"><a xlink:href="dir_000036_000019.html" target="_top" xlink:title="1">
<text text-anchor="middle" x="390.33" y="-95.95" font-family="Helvetica,sans-Serif" font-size="10.00" fill="#63b8ff">1</text>
</a>
</g>
</g>
<!-- dir_e7b3b84e4fb3ce7667ecbb4a279b7cc9&#45;&gt;dir_8bc3620d22f348c3a20da4350a7fbe1e -->
<g id="edge8" class="edge">
<title>dir_e7b3b84e4fb3ce7667ecbb4a279b7cc9&#45;&gt;dir_8bc3620d22f348c3a20da4350a7fbe1e</title>
<g id="a_edge8"><a xlink:href="dir_000036_000008.html" target="_top">
<path fill="none" stroke="#63b8ff" d="M158.29,-127.76C161.56,-127.13 164.85,-126.53 168,-126 229.65,-115.65 402.18,-133.58 447,-90 458.62,-78.7 460.27,-59.8 459.53,-45.54"/>
<polygon fill="#63b8ff" stroke="#63b8ff" points="462.99,-44.97 458.57,-35.35 456.02,-45.63 462.99,-44.97"/>
</a>
</g>
<g id="a_edge8&#45;headlabel"><a xlink:href="dir_000036_000008.html" target="_top" xlink:title="6">
<text text-anchor="middle" x="466.16" y="-45.78" font-family="Helvetica,sans-Serif" font-size="10.00" fill="#63b8ff">6</text>
</a>
</g>
</g>
<!-- dir_e7b3b84e4fb3ce7667ecbb4a279b7cc9&#45;&gt;dir_b521126e83e9734b3038055a2b69c792 -->
<g id="edge9" class="edge">
<title>dir_e7b3b84e4fb3ce7667ecbb4a279b7cc9&#45;&gt;dir_b521126e83e9734b3038055a2b69c792</title>
<g id="a_edge9"><a xlink:href="dir_000036_000032.html" target="_top">
<path fill="none" stroke="#63b8ff" d="M158.29,-127.74C161.56,-127.11 164.84,-126.52 168,-126 297.89,-104.62 332.11,-111.38 462,-90 463.29,-89.79 464.6,-89.56 465.93,-89.33"/>
<polygon fill="#63b8ff" stroke="#63b8ff" points="466.98,-92.69 476.15,-87.4 465.68,-85.81 466.98,-92.69"/>
</a>
</g>
<g id="a_edge9&#45;headlabel"><a xlink:href="dir_000036_000032.html" target="_top" xlink:title="1">
<text text-anchor="middle" x="463.97" y="-93.65" font-family="Helvetica,sans-Serif" font-size="10.00" fill="#63b8ff">1</text>
</a>
</g>
</g>
<!-- dir_e7b3b84e4fb3ce7667ecbb4a279b7cc9&#45;&gt;dir_c224d730a748b8f4130570ffc2b8c5b9 -->
<g id="edge10" class="edge">
<title>dir_e7b3b84e4fb3ce7667ecbb4a279b7cc9&#45;&gt;dir_c224d730a748b8f4130570ffc2b8c5b9</title>
<g id="a_edge10"><a xlink:href="dir_000036_000015.html" target="_top">
<path fill="none" stroke="#63b8ff" d="M158.28,-127.65C161.55,-127.05 164.84,-126.48 168,-126 328.59,-101.63 372.75,-108.95 537.9,-90.08"/>
<polygon fill="#63b8ff" stroke="#63b8ff" points="538.39,-93.54 547.92,-88.92 537.58,-86.59 538.39,-93.54"/>
</a>
</g>
<g id="a_edge10&#45;headlabel"><a xlink:href="dir_000036_000015.html" target="_top" xlink:title="1">
<text text-anchor="middle" x="535.14" y="-94.28" font-family="Helvetica,sans-Serif" font-size="10.00" fill="#63b8ff">1</text>
</a>
</g>
</g>
<!-- dir_e7b3b84e4fb3ce7667ecbb4a279b7cc9&#45;&gt;dir_84e3f86ffba59b806c31ff30c109cced -->
<g id="edge7" class="edge">
<title>dir_e7b3b84e4fb3ce7667ecbb4a279b7cc9&#45;&gt;dir_84e3f86ffba59b806c31ff30c109cced</title>
<g id="a_edge7"><a xlink:href="dir_000036_000028.html" target="_top">
<path fill="none" stroke="#63b8ff" d="M127.83,-125.75C128.48,-118.8 129.42,-108.85 130.24,-100.13"/>
<polygon fill="#63b8ff" stroke="#63b8ff" points="133.73,-100.37 131.19,-90.09 126.77,-99.72 133.73,-100.37"/>
</a>
</g>
<g id="a_edge7&#45;headlabel"><a xlink:href="dir_000036_000028.html" target="_top" xlink:title="6">
<text text-anchor="middle" x="136.22" y="-101.72" font-family="Helvetica,sans-Serif" font-size="10.00" fill="#63b8ff">6</text>
</a>
</g>
</g>
<!-- dir_dd1534f51adb4e9a9db317f946a5007f -->
<g id="node10" class="node">
<title>dir_dd1534f51adb4e9a9db317f946a5007f</title>
<g id="a_node10"><a xlink:href="dir_dd1534f51adb4e9a9db317f946a5007f.html" target="_top" xlink:title="subvolume">
<polygon fill="#a2b4d6" stroke="#404040" points="247.5,-145 176.5,-145 176.5,-126 247.5,-126 247.5,-145"/>
<text text-anchor="middle" x="212" y="-133" font-family="Helvetica,sans-Serif" font-size="10.00">subvolume</text>
</a>
</g>
</g>
<!-- dir_dd1534f51adb4e9a9db317f946a5007f&#45;&gt;dir_8bc3620d22f348c3a20da4350a7fbe1e -->
<g id="edge11" class="edge">
<title>dir_dd1534f51adb4e9a9db317f946a5007f&#45;&gt;dir_8bc3620d22f348c3a20da4350a7fbe1e</title>
<g id="a_edge11"><a xlink:href="dir_000044_000008.html" target="_top">
<path fill="none" stroke="#63b8ff" d="M247.81,-127.41C250.91,-126.89 254.01,-126.41 257,-126 301.86,-119.79 632.42,-123.41 663,-90 714.33,-33.92 554.5,-26.86 486.29,-26.33"/>
<polygon fill="#63b8ff" stroke="#63b8ff" points="486.19,-22.83 476.18,-26.3 486.17,-29.83 486.19,-22.83"/>
</a>
</g>
<g id="a_edge11&#45;headlabel"><a xlink:href="dir_000044_000008.html" target="_top" xlink:title="1">
<text text-anchor="middle" x="489.8" y="-17.5" font-family="Helvetica,sans-Serif" font-size="10.00" fill="#63b8ff">1</text>
</a>
</g>
</g>
<!-- dir_81e97c0022a3deac19951a8cf985536f -->
<g id="node11" class="node">
<title>dir_81e97c0022a3deac19951a8cf985536f</title>
<g id="a_node11"><a xlink:href="dir_81e97c0022a3deac19951a8cf985536f.html" target="_top" xlink:title="tagging">
<polygon fill="#a2b4d6" stroke="#404040" points="385.5,-145 332.5,-145 332.5,-126 385.5,-126 385.5,-145"/>
<text text-anchor="middle" x="359" y="-133" font-family="Helvetica,sans-Serif" font-size="10.00">tagging</text>
</a>
</g>
</g>
<!-- dir_81e97c0022a3deac19951a8cf985536f&#45;&gt;dir_8bc3620d22f348c3a20da4350a7fbe1e -->
<g id="edge12" class="edge">
<title>dir_81e97c0022a3deac19951a8cf985536f&#45;&gt;dir_8bc3620d22f348c3a20da4350a7fbe1e</title>
<g id="a_edge12"><a xlink:href="dir_000045_000008.html" target="_top">
<path fill="none" stroke="#63b8ff" d="M385.66,-135.03C455.33,-135.8 640.05,-133.61 678,-90 731.72,-28.27 557.73,-24.68 486.24,-25.71"/>
<polygon fill="#63b8ff" stroke="#63b8ff" points="486.02,-22.21 476.08,-25.89 486.15,-29.21 486.02,-22.21"/>
</a>
</g>
<g id="a_edge12&#45;headlabel"><a xlink:href="dir_000045_000008.html" target="_top" xlink:title="3">
<text text-anchor="middle" x="489.56" y="-16.8" font-family="Helvetica,sans-Serif" font-size="10.00" fill="#63b8ff">3</text>
</a>
</g>
</g>
</g>
</svg>
