<?xml version="1.0" encoding="UTF-8" standalone="no"?>
<!DOCTYPE svg PUBLIC "-//W3C//DTD SVG 1.1//EN"
 "http://www.w3.org/Graphics/SVG/1.1/DTD/svg11.dtd">
<!-- Generated by graphviz version 2.43.0 (0)
 -->
<!-- Title: /home/runner/work/amr&#45;wind/amr&#45;wind/src/fvm/gradient.H Pages: 1 -->
<svg width="3170pt" height="313pt"
 viewBox="0.00 0.00 3169.50 313.00" xmlns="http://www.w3.org/2000/svg" xmlns:xlink="http://www.w3.org/1999/xlink">
<g id="graph0" class="graph" transform="scale(1 1) rotate(0) translate(4 309)">
<title>/home/runner/work/amr&#45;wind/amr&#45;wind/src/fvm/gradient.H</title>
<!-- Node1 -->
<g id="Node000001" class="node">
<title>Node1</title>
<g id="a_Node000001"><a xlink:title=" ">
<polygon fill="#999999" stroke="#666666" points="1774.5,-305 1641.5,-305 1641.5,-264 1774.5,-264 1774.5,-305"/>
<text text-anchor="start" x="1649.5" y="-293" font-family="Helvetica,sans-Serif" font-size="10.00">/home/runner/work/amr</text>
<text text-anchor="start" x="1649.5" y="-282" font-family="Helvetica,sans-Serif" font-size="10.00">&#45;wind/amr&#45;wind/src/fvm</text>
<text text-anchor="middle" x="1708" y="-271" font-family="Helvetica,sans-Serif" font-size="10.00">/gradient.H</text>
</a>
</g>
</g>
<!-- Node2 -->
<g id="Node000002" class="node">
<title>Node2</title>
<g id="a_Node000002"><a xlink:href="fvm_8_h.html" target="_top" xlink:title=" ">
<polygon fill="white" stroke="#666666" points="331,-217 165,-217 165,-187 331,-187 331,-217"/>
<text text-anchor="start" x="173" y="-205" font-family="Helvetica,sans-Serif" font-size="10.00">/home/runner/work/amr</text>
<text text-anchor="middle" x="248" y="-194" font-family="Helvetica,sans-Serif" font-size="10.00">&#45;wind/amr&#45;wind/src/fvm/fvm.H</text>
</a>
</g>
</g>
<!-- Node1&#45;&gt;Node2 -->
<g id="edge1_Node000001_Node000002" class="edge">
<title>Node1&#45;&gt;Node2</title>
<g id="a_edge1_Node000001_Node000002"><a xlink:title=" ">
<path fill="none" stroke="#63b8ff" d="M1631.03,-281.81C1385.46,-276.17 622.42,-256.73 377,-228 355.14,-225.44 331.42,-221.26 310.37,-217.04"/>
<polygon fill="#63b8ff" stroke="#63b8ff" points="1631.21,-285.31 1641.29,-282.04 1631.37,-278.31 1631.21,-285.31"/>
</a>
</g>
</g>
<!-- Node4 -->
<g id="Node000004" class="node">
<title>Node4</title>
<g id="a_Node000004"><a xlink:href="bluff__body__ops_8_h.html" target="_top" xlink:title=" ">
<polygon fill="white" stroke="#666666" points="724.5,-228 561.5,-228 561.5,-176 724.5,-176 724.5,-228"/>
<text text-anchor="start" x="569.5" y="-216" font-family="Helvetica,sans-Serif" font-size="10.00">/home/runner/work/amr</text>
<text text-anchor="start" x="569.5" y="-205" font-family="Helvetica,sans-Serif" font-size="10.00">&#45;wind/amr&#45;wind/src/immersed</text>
<text text-anchor="start" x="569.5" y="-194" font-family="Helvetica,sans-Serif" font-size="10.00">_boundary/bluff_body/bluff</text>
<text text-anchor="middle" x="643" y="-183" font-family="Helvetica,sans-Serif" font-size="10.00">_body_ops.H</text>
</a>
</g>
</g>
<!-- Node1&#45;&gt;Node4 -->
<g id="edge3_Node000001_Node000004" class="edge">
<title>Node1&#45;&gt;Node4</title>
<g id="a_edge3_Node000001_Node000004"><a xlink:title=" ">
<path fill="none" stroke="#63b8ff" d="M1631.23,-277.7C1436.48,-262.98 924.49,-224.28 724.6,-209.17"/>
<polygon fill="#63b8ff" stroke="#63b8ff" points="1631.14,-281.2 1641.38,-278.46 1631.67,-274.22 1631.14,-281.2"/>
</a>
</g>
</g>
<!-- Node5 -->
<g id="Node000005" class="node">
<title>Node5</title>
<g id="a_Node000005"><a xlink:href="bluff__body__ops_8cpp.html" target="_top" xlink:title=" ">
<polygon fill="white" stroke="#666666" points="331.5,-140 168.5,-140 168.5,-88 331.5,-88 331.5,-140"/>
<text text-anchor="start" x="176.5" y="-128" font-family="Helvetica,sans-Serif" font-size="10.00">/home/runner/work/amr</text>
<text text-anchor="start" x="176.5" y="-117" font-family="Helvetica,sans-Serif" font-size="10.00">&#45;wind/amr&#45;wind/src/immersed</text>
<text text-anchor="start" x="176.5" y="-106" font-family="Helvetica,sans-Serif" font-size="10.00">_boundary/bluff_body/bluff</text>
<text text-anchor="middle" x="250" y="-95" font-family="Helvetica,sans-Serif" font-size="10.00">_body_ops.cpp</text>
</a>
</g>
</g>
<!-- Node1&#45;&gt;Node5 -->
<g id="edge11_Node000001_Node000005" class="edge">
<title>Node1&#45;&gt;Node5</title>
<g id="a_edge11_Node000001_Node000005"><a xlink:title=" ">
<path fill="none" stroke="#63b8ff" d="M1631.16,-282.91C1407.43,-280.68 759.16,-270.64 552,-228 460.84,-209.24 360.72,-167.19 301.72,-140.01"/>
<polygon fill="#63b8ff" stroke="#63b8ff" points="1631.46,-286.41 1641.49,-283.01 1631.53,-279.41 1631.46,-286.41"/>
</a>
</g>
</g>
<!-- Node12 -->
<g id="Node000012" class="node">
<title>Node12</title>
<g id="a_Node000012"><a xlink:href="relaxation__zones__ops_8_h.html" target="_top" xlink:title=" ">
<polygon fill="white" stroke="#666666" points="1163.5,-228 1020.5,-228 1020.5,-176 1163.5,-176 1163.5,-228"/>
<text text-anchor="start" x="1028.5" y="-216" font-family="Helvetica,sans-Serif" font-size="10.00">/home/runner/work/amr</text>
<text text-anchor="start" x="1028.5" y="-205" font-family="Helvetica,sans-Serif" font-size="10.00">&#45;wind/amr&#45;wind/src/ocean</text>
<text text-anchor="start" x="1028.5" y="-194" font-family="Helvetica,sans-Serif" font-size="10.00">_waves/relaxation_zones</text>
<text text-anchor="middle" x="1092" y="-183" font-family="Helvetica,sans-Serif" font-size="10.00">/relaxation_zones_ops.H</text>
</a>
</g>
</g>
<!-- Node1&#45;&gt;Node12 -->
<g id="edge12_Node000001_Node000012" class="edge">
<title>Node1&#45;&gt;Node12</title>
<g id="a_edge12_Node000001_Node000012"><a xlink:title=" ">
<path fill="none" stroke="#63b8ff" d="M1631.33,-280.27C1526.81,-274.8 1334.15,-260.9 1173,-228 1169.97,-227.38 1166.9,-226.7 1163.8,-225.96"/>
<polygon fill="#63b8ff" stroke="#63b8ff" points="1631.31,-283.77 1641.48,-280.79 1631.67,-276.78 1631.31,-283.77"/>
</a>
</g>
</g>
<!-- Node15 -->
<g id="Node000015" class="node">
<title>Node15</title>
<g id="a_Node000015"><a xlink:href="relaxation__zones__ops_8cpp.html" target="_top" xlink:title=" ">
<polygon fill="white" stroke="#666666" points="1115,-140 969,-140 969,-88 1115,-88 1115,-140"/>
<text text-anchor="start" x="977" y="-128" font-family="Helvetica,sans-Serif" font-size="10.00">/home/runner/work/amr</text>
<text text-anchor="start" x="977" y="-117" font-family="Helvetica,sans-Serif" font-size="10.00">&#45;wind/amr&#45;wind/src/ocean</text>
<text text-anchor="start" x="977" y="-106" font-family="Helvetica,sans-Serif" font-size="10.00">_waves/relaxation_zones</text>
<text text-anchor="middle" x="1042" y="-95" font-family="Helvetica,sans-Serif" font-size="10.00">/relaxation_zones_ops.cpp</text>
</a>
</g>
</g>
<!-- Node1&#45;&gt;Node15 -->
<g id="edge20_Node000001_Node000015" class="edge">
<title>Node1&#45;&gt;Node15</title>
<g id="a_edge20_Node000001_Node000015"><a xlink:title=" ">
<path fill="none" stroke="#63b8ff" d="M1631.34,-283.12C1458.94,-281.48 1052.41,-272.84 1011,-228 988.78,-203.94 1006.77,-165.45 1023.18,-140.19"/>
<polygon fill="#63b8ff" stroke="#63b8ff" points="1631.33,-286.62 1641.36,-283.21 1631.4,-279.62 1631.33,-286.62"/>
</a>
</g>
</g>
<!-- Node20 -->
<g id="Node000020" class="node">
<title>Node20</title>
<g id="a_Node000020"><a xlink:href="_dam_break_8cpp.html" target="_top" xlink:title=" ">
<polygon fill="white" stroke="#666666" points="1332,-222.5 1182,-222.5 1182,-181.5 1332,-181.5 1332,-222.5"/>
<text text-anchor="start" x="1190" y="-210.5" font-family="Helvetica,sans-Serif" font-size="10.00">/home/runner/work/amr</text>
<text text-anchor="start" x="1190" y="-199.5" font-family="Helvetica,sans-Serif" font-size="10.00">&#45;wind/amr&#45;wind/src/physics</text>
<text text-anchor="middle" x="1257" y="-188.5" font-family="Helvetica,sans-Serif" font-size="10.00">/multiphase/DamBreak.cpp</text>
</a>
</g>
</g>
<!-- Node1&#45;&gt;Node20 -->
<g id="edge21_Node000001_Node000020" class="edge">
<title>Node1&#45;&gt;Node20</title>
<g id="a_edge21_Node000001_Node000020"><a xlink:title=" ">
<path fill="none" stroke="#63b8ff" d="M1630.93,-275.01C1556.27,-266.04 1440.11,-250.13 1341,-228 1333.87,-226.41 1326.46,-224.53 1319.13,-222.54"/>
<polygon fill="#63b8ff" stroke="#63b8ff" points="1630.84,-278.53 1641.19,-276.23 1631.67,-271.57 1630.84,-278.53"/>
</a>
</g>
</g>
<!-- Node21 -->
<g id="Node000021" class="node">
<title>Node21</title>
<g id="a_Node000021"><a xlink:href="_sloshing_tank_8cpp.html" target="_top" xlink:title=" ">
<polygon fill="white" stroke="#666666" points="1511.5,-222.5 1350.5,-222.5 1350.5,-181.5 1511.5,-181.5 1511.5,-222.5"/>
<text text-anchor="start" x="1358.5" y="-210.5" font-family="Helvetica,sans-Serif" font-size="10.00">/home/runner/work/amr</text>
<text text-anchor="start" x="1358.5" y="-199.5" font-family="Helvetica,sans-Serif" font-size="10.00">&#45;wind/amr&#45;wind/src/physics</text>
<text text-anchor="middle" x="1431" y="-188.5" font-family="Helvetica,sans-Serif" font-size="10.00">/multiphase/SloshingTank.cpp</text>
</a>
</g>
</g>
<!-- Node1&#45;&gt;Node21 -->
<g id="edge22_Node000001_Node000021" class="edge">
<title>Node1&#45;&gt;Node21</title>
<g id="a_edge22_Node000001_Node000021"><a xlink:title=" ">
<path fill="none" stroke="#63b8ff" d="M1631.47,-261.26C1589.82,-249.15 1538.74,-234.31 1498.56,-222.63"/>
<polygon fill="#63b8ff" stroke="#63b8ff" points="1630.72,-264.69 1641.3,-264.12 1632.67,-257.96 1630.72,-264.69"/>
</a>
</g>
</g>
<!-- Node22 -->
<g id="Node000022" class="node">
<title>Node22</title>
<g id="a_Node000022"><a xlink:href="_zalesak_disk_8cpp.html" target="_top" xlink:title=" ">
<polygon fill="white" stroke="#666666" points="1688,-222.5 1530,-222.5 1530,-181.5 1688,-181.5 1688,-222.5"/>
<text text-anchor="start" x="1538" y="-210.5" font-family="Helvetica,sans-Serif" font-size="10.00">/home/runner/work/amr</text>
<text text-anchor="start" x="1538" y="-199.5" font-family="Helvetica,sans-Serif" font-size="10.00">&#45;wind/amr&#45;wind/src/physics</text>
<text text-anchor="middle" x="1609" y="-188.5" font-family="Helvetica,sans-Serif" font-size="10.00">/multiphase/ZalesakDisk.cpp</text>
</a>
</g>
</g>
<!-- Node1&#45;&gt;Node22 -->
<g id="edge23_Node000001_Node000022" class="edge">
<title>Node1&#45;&gt;Node22</title>
<g id="a_edge23_Node000001_Node000022"><a xlink:title=" ">
<path fill="none" stroke="#63b8ff" d="M1675.91,-257.41C1662.07,-246.15 1646.15,-233.21 1633.31,-222.77"/>
<polygon fill="#63b8ff" stroke="#63b8ff" points="1673.81,-260.21 1683.78,-263.81 1678.23,-254.78 1673.81,-260.21"/>
</a>
</g>
</g>
<!-- Node23 -->
<g id="Node000023" class="node">
<title>Node23</title>
<g id="a_Node000023"><a xlink:href="_zalesak_disk_scalar_vel_8cpp.html" target="_top" xlink:title=" ">
<polygon fill="white" stroke="#666666" points="1908.5,-222.5 1705.5,-222.5 1705.5,-181.5 1908.5,-181.5 1908.5,-222.5"/>
<text text-anchor="start" x="1713.5" y="-210.5" font-family="Helvetica,sans-Serif" font-size="10.00">/home/runner/work/amr</text>
<text text-anchor="start" x="1713.5" y="-199.5" font-family="Helvetica,sans-Serif" font-size="10.00">&#45;wind/amr&#45;wind/src/physics</text>
<text text-anchor="middle" x="1807" y="-188.5" font-family="Helvetica,sans-Serif" font-size="10.00">/multiphase/ZalesakDiskScalarVel.cpp</text>
</a>
</g>
</g>
<!-- Node1&#45;&gt;Node23 -->
<g id="edge24_Node000001_Node000023" class="edge">
<title>Node1&#45;&gt;Node23</title>
<g id="a_edge24_Node000001_Node000023"><a xlink:title=" ">
<path fill="none" stroke="#63b8ff" d="M1740.09,-257.41C1753.93,-246.15 1769.85,-233.21 1782.69,-222.77"/>
<polygon fill="#63b8ff" stroke="#63b8ff" points="1737.77,-254.78 1732.22,-263.81 1742.19,-260.21 1737.77,-254.78"/>
</a>
</g>
</g>
<!-- Node24 -->
<g id="Node000024" class="node">
<title>Node24</title>
<g id="a_Node000024"><a xlink:href="_a_m_d_8cpp.html" target="_top" xlink:title=" ">
<polygon fill="white" stroke="#666666" points="2091.5,-222.5 1926.5,-222.5 1926.5,-181.5 2091.5,-181.5 2091.5,-222.5"/>
<text text-anchor="start" x="1934.5" y="-210.5" font-family="Helvetica,sans-Serif" font-size="10.00">/home/runner/work/amr</text>
<text text-anchor="start" x="1934.5" y="-199.5" font-family="Helvetica,sans-Serif" font-size="10.00">&#45;wind/amr&#45;wind/src/turbulence</text>
<text text-anchor="middle" x="2009" y="-188.5" font-family="Helvetica,sans-Serif" font-size="10.00">/LES/AMD.cpp</text>
</a>
</g>
</g>
<!-- Node1&#45;&gt;Node24 -->
<g id="edge25_Node000001_Node000024" class="edge">
<title>Node1&#45;&gt;Node24</title>
<g id="a_edge25_Node000001_Node000024"><a xlink:title=" ">
<path fill="none" stroke="#63b8ff" d="M1784.63,-263.44C1824.43,-252.97 1873.86,-239.9 1918,-228 1924.49,-226.25 1931.23,-224.42 1937.98,-222.58"/>
<polygon fill="#63b8ff" stroke="#63b8ff" points="1783.5,-260.12 1774.72,-266.04 1785.28,-266.89 1783.5,-260.12"/>
</a>
</g>
</g>
<!-- Node25 -->
<g id="Node000025" class="node">
<title>Node25</title>
<g id="a_Node000025"><a xlink:href="_a_m_d_no_therm_8cpp.html" target="_top" xlink:title=" ">
<polygon fill="white" stroke="#666666" points="2274.5,-222.5 2109.5,-222.5 2109.5,-181.5 2274.5,-181.5 2274.5,-222.5"/>
<text text-anchor="start" x="2117.5" y="-210.5" font-family="Helvetica,sans-Serif" font-size="10.00">/home/runner/work/amr</text>
<text text-anchor="start" x="2117.5" y="-199.5" font-family="Helvetica,sans-Serif" font-size="10.00">&#45;wind/amr&#45;wind/src/turbulence</text>
<text text-anchor="middle" x="2192" y="-188.5" font-family="Helvetica,sans-Serif" font-size="10.00">/LES/AMDNoTherm.cpp</text>
</a>
</g>
</g>
<!-- Node1&#45;&gt;Node25 -->
<g id="edge26_Node000001_Node000025" class="edge">
<title>Node1&#45;&gt;Node25</title>
<g id="a_edge26_Node000001_Node000025"><a xlink:title=" ">
<path fill="none" stroke="#63b8ff" d="M1784.93,-275.58C1864.52,-266.7 1992.19,-250.53 2101,-228 2108.7,-226.41 2116.71,-224.53 2124.65,-222.53"/>
<polygon fill="#63b8ff" stroke="#63b8ff" points="1784.06,-272.16 1774.5,-276.73 1784.83,-279.11 1784.06,-272.16"/>
</a>
</g>
</g>
<!-- Node26 -->
<g id="Node000026" class="node">
<title>Node26</title>
<g id="a_Node000026"><a xlink:href="_one_eq_ksgs_8cpp.html" target="_top" xlink:title=" ">
<polygon fill="white" stroke="#666666" points="2457.5,-222.5 2292.5,-222.5 2292.5,-181.5 2457.5,-181.5 2457.5,-222.5"/>
<text text-anchor="start" x="2300.5" y="-210.5" font-family="Helvetica,sans-Serif" font-size="10.00">/home/runner/work/amr</text>
<text text-anchor="start" x="2300.5" y="-199.5" font-family="Helvetica,sans-Serif" font-size="10.00">&#45;wind/amr&#45;wind/src/turbulence</text>
<text text-anchor="middle" x="2375" y="-188.5" font-family="Helvetica,sans-Serif" font-size="10.00">/LES/OneEqKsgs.cpp</text>
</a>
</g>
</g>
<!-- Node1&#45;&gt;Node26 -->
<g id="edge27_Node000001_Node000026" class="edge">
<title>Node1&#45;&gt;Node26</title>
<g id="a_edge27_Node000001_Node000026"><a xlink:title=" ">
<path fill="none" stroke="#63b8ff" d="M1784.69,-280.31C1895.63,-274.75 2106.99,-260.59 2284,-228 2292.22,-226.49 2300.77,-224.58 2309.2,-222.51"/>
<polygon fill="#63b8ff" stroke="#63b8ff" points="1784.42,-276.82 1774.6,-280.81 1784.76,-283.81 1784.42,-276.82"/>
</a>
</g>
</g>
<!-- Node27 -->
<g id="Node000027" class="node">
<title>Node27</title>
<g id="a_Node000027"><a xlink:href="_k_l_axell_8cpp.html" target="_top" xlink:title=" ">
<polygon fill="white" stroke="#666666" points="2640.5,-222.5 2475.5,-222.5 2475.5,-181.5 2640.5,-181.5 2640.5,-222.5"/>
<text text-anchor="start" x="2483.5" y="-210.5" font-family="Helvetica,sans-Serif" font-size="10.00">/home/runner/work/amr</text>
<text text-anchor="start" x="2483.5" y="-199.5" font-family="Helvetica,sans-Serif" font-size="10.00">&#45;wind/amr&#45;wind/src/turbulence</text>
<text text-anchor="middle" x="2558" y="-188.5" font-family="Helvetica,sans-Serif" font-size="10.00">/RANS/KLAxell.cpp</text>
</a>
</g>
</g>
<!-- Node1&#45;&gt;Node27 -->
<g id="edge28_Node000001_Node000027" class="edge">
<title>Node1&#45;&gt;Node27</title>
<g id="a_edge28_Node000001_Node000027"><a xlink:title=" ">
<path fill="none" stroke="#63b8ff" d="M1784.54,-282.82C1922.13,-280.51 2219.93,-270.55 2467,-228 2475.4,-226.55 2484.14,-224.66 2492.73,-222.57"/>
<polygon fill="#63b8ff" stroke="#63b8ff" points="1784.46,-279.32 1774.52,-282.98 1784.57,-286.32 1784.46,-279.32"/>
</a>
</g>
</g>
<!-- Node28 -->
<g id="Node000028" class="node">
<title>Node28</title>
<g id="a_Node000028"><a xlink:href="_k_omega_s_s_t_8cpp.html" target="_top" xlink:title=" ">
<polygon fill="white" stroke="#666666" points="2823.5,-222.5 2658.5,-222.5 2658.5,-181.5 2823.5,-181.5 2823.5,-222.5"/>
<text text-anchor="start" x="2666.5" y="-210.5" font-family="Helvetica,sans-Serif" font-size="10.00">/home/runner/work/amr</text>
<text text-anchor="start" x="2666.5" y="-199.5" font-family="Helvetica,sans-Serif" font-size="10.00">&#45;wind/amr&#45;wind/src/turbulence</text>
<text text-anchor="middle" x="2741" y="-188.5" font-family="Helvetica,sans-Serif" font-size="10.00">/RANS/KOmegaSST.cpp</text>
</a>
</g>
</g>
<!-- Node1&#45;&gt;Node28 -->
<g id="edge29_Node000001_Node000028" class="edge">
<title>Node1&#45;&gt;Node28</title>
<g id="a_edge29_Node000001_Node000028"><a xlink:title=" ">
<path fill="none" stroke="#63b8ff" d="M1785.08,-284.39C1946.64,-285.06 2332.08,-280.44 2650,-228 2658.57,-226.59 2667.49,-224.69 2676.25,-222.56"/>
<polygon fill="#63b8ff" stroke="#63b8ff" points="1784.79,-280.89 1774.77,-284.34 1784.75,-287.89 1784.79,-280.89"/>
</a>
</g>
</g>
<!-- Node29 -->
<g id="Node000029" class="node">
<title>Node29</title>
<g id="a_Node000029"><a xlink:href="_k_omega_s_s_t_i_d_d_e_s_8cpp.html" target="_top" xlink:title=" ">
<polygon fill="white" stroke="#666666" points="3006.5,-222.5 2841.5,-222.5 2841.5,-181.5 3006.5,-181.5 3006.5,-222.5"/>
<text text-anchor="start" x="2849.5" y="-210.5" font-family="Helvetica,sans-Serif" font-size="10.00">/home/runner/work/amr</text>
<text text-anchor="start" x="2849.5" y="-199.5" font-family="Helvetica,sans-Serif" font-size="10.00">&#45;wind/amr&#45;wind/src/turbulence</text>
<text text-anchor="middle" x="2924" y="-188.5" font-family="Helvetica,sans-Serif" font-size="10.00">/RANS/KOmegaSSTIDDES.cpp</text>
</a>
</g>
</g>
<!-- Node1&#45;&gt;Node29 -->
<g id="edge30_Node000001_Node000029" class="edge">
<title>Node1&#45;&gt;Node29</title>
<g id="a_edge30_Node000001_Node000029"><a xlink:title=" ">
<path fill="none" stroke="#63b8ff" d="M1784.92,-281.9C2004.34,-276.98 2630.45,-260.42 2833,-228 2841.74,-226.6 2850.84,-224.68 2859.76,-222.52"/>
<polygon fill="#63b8ff" stroke="#63b8ff" points="1784.7,-278.4 1774.78,-282.12 1784.86,-285.4 1784.7,-278.4"/>
</a>
</g>
</g>
<!-- Node30 -->
<g id="Node000030" class="node">
<title>Node30</title>
<g id="a_Node000030"><a xlink:href="_a_b_l_stats_8cpp.html" target="_top" xlink:title=" ">
<polygon fill="white" stroke="#666666" points="3161.5,-222.5 3024.5,-222.5 3024.5,-181.5 3161.5,-181.5 3161.5,-222.5"/>
<text text-anchor="start" x="3032.5" y="-210.5" font-family="Helvetica,sans-Serif" font-size="10.00">/home/runner/work/amr</text>
<text text-anchor="start" x="3032.5" y="-199.5" font-family="Helvetica,sans-Serif" font-size="10.00">&#45;wind/amr&#45;wind/src/wind</text>
<text text-anchor="middle" x="3093" y="-188.5" font-family="Helvetica,sans-Serif" font-size="10.00">_energy/ABLStats.cpp</text>
</a>
</g>
</g>
<!-- Node1&#45;&gt;Node30 -->
<g id="edge31_Node000001_Node000030" class="edge">
<title>Node1&#45;&gt;Node30</title>
<g id="a_edge31_Node000001_Node000030"><a xlink:title=" ">
<path fill="none" stroke="#63b8ff" d="M1784.66,-282.97C2027.42,-280.87 2777.28,-270.99 3016,-228 3023.61,-226.63 3031.5,-224.69 3039.21,-222.5"/>
<polygon fill="#63b8ff" stroke="#63b8ff" points="1784.49,-279.47 1774.52,-283.06 1784.55,-286.47 1784.49,-279.47"/>
</a>
</g>
</g>
<!-- Node3 -->
<g id="Node000003" class="node">
<title>Node3</title>
<g id="a_Node000003"><a xlink:href="_derived_qty_defs_8cpp.html" target="_top" xlink:title=" ">
<polygon fill="white" stroke="#666666" points="150,-134.5 0,-134.5 0,-93.5 150,-93.5 150,-134.5"/>
<text text-anchor="start" x="8" y="-122.5" font-family="Helvetica,sans-Serif" font-size="10.00">/home/runner/work/amr</text>
<text text-anchor="start" x="8" y="-111.5" font-family="Helvetica,sans-Serif" font-size="10.00">&#45;wind/amr&#45;wind/src/utilities</text>
<text text-anchor="middle" x="75" y="-100.5" font-family="Helvetica,sans-Serif" font-size="10.00">/DerivedQtyDefs.cpp</text>
</a>
</g>
</g>
<!-- Node2&#45;&gt;Node3 -->
<g id="edge2_Node000002_Node000003" class="edge">
<title>Node2&#45;&gt;Node3</title>
<g id="a_edge2_Node000002_Node000003"><a xlink:title=" ">
<path fill="none" stroke="#63b8ff" d="M210.63,-182.42C182.26,-168.32 143.35,-148.98 114.47,-134.62"/>
<polygon fill="#63b8ff" stroke="#63b8ff" points="209.31,-185.67 219.82,-186.99 212.42,-179.41 209.31,-185.67"/>
</a>
</g>
</g>
<!-- Node4&#45;&gt;Node5 -->
<g id="edge4_Node000004_Node000005" class="edge">
<title>Node4&#45;&gt;Node5</title>
<g id="a_edge4_Node000004_Node000005"><a xlink:title=" ">
<path fill="none" stroke="#63b8ff" d="M551.44,-184.2C491.37,-172.77 411.24,-156.72 341,-140 337.97,-139.28 334.89,-138.53 331.78,-137.75"/>
<polygon fill="#63b8ff" stroke="#63b8ff" points="550.8,-187.65 561.28,-186.07 552.1,-180.77 550.8,-187.65"/>
</a>
</g>
</g>
<!-- Node6 -->
<g id="Node000006" class="node">
<title>Node6</title>
<g id="a_Node000006"><a xlink:href="box__ops_8_h.html" target="_top" xlink:title=" ">
<polygon fill="white" stroke="#666666" points="526,-134.5 350,-134.5 350,-93.5 526,-93.5 526,-134.5"/>
<text text-anchor="start" x="358" y="-122.5" font-family="Helvetica,sans-Serif" font-size="10.00">/home/runner/work/amr</text>
<text text-anchor="start" x="358" y="-111.5" font-family="Helvetica,sans-Serif" font-size="10.00">&#45;wind/amr&#45;wind/src/immersed</text>
<text text-anchor="middle" x="438" y="-100.5" font-family="Helvetica,sans-Serif" font-size="10.00">_boundary/bluff_body/box_ops.H</text>
</a>
</g>
</g>
<!-- Node4&#45;&gt;Node6 -->
<g id="edge5_Node000004_Node000006" class="edge">
<title>Node4&#45;&gt;Node6</title>
<g id="a_edge5_Node000004_Node000006"><a xlink:title=" ">
<path fill="none" stroke="#63b8ff" d="M573.77,-171.96C544.39,-159.63 510.91,-145.59 484.56,-134.53"/>
<polygon fill="#63b8ff" stroke="#63b8ff" points="572.58,-175.25 583.15,-175.89 575.29,-168.8 572.58,-175.25"/>
</a>
</g>
</g>
<!-- Node8 -->
<g id="Node000008" class="node">
<title>Node8</title>
<g id="a_Node000008"><a xlink:href="cylinder__ops_8_h.html" target="_top" xlink:title=" ">
<polygon fill="white" stroke="#666666" points="741.5,-134.5 544.5,-134.5 544.5,-93.5 741.5,-93.5 741.5,-134.5"/>
<text text-anchor="start" x="552.5" y="-122.5" font-family="Helvetica,sans-Serif" font-size="10.00">/home/runner/work/amr</text>
<text text-anchor="start" x="552.5" y="-111.5" font-family="Helvetica,sans-Serif" font-size="10.00">&#45;wind/amr&#45;wind/src/immersed</text>
<text text-anchor="middle" x="643" y="-100.5" font-family="Helvetica,sans-Serif" font-size="10.00">_boundary/bluff_body/cylinder_ops.H</text>
</a>
</g>
</g>
<!-- Node4&#45;&gt;Node8 -->
<g id="edge7_Node000004_Node000008" class="edge">
<title>Node4&#45;&gt;Node8</title>
<g id="a_edge7_Node000004_Node000008"><a xlink:title=" ">
<path fill="none" stroke="#63b8ff" d="M643,-165.45C643,-154.94 643,-143.82 643,-134.7"/>
<polygon fill="#63b8ff" stroke="#63b8ff" points="639.5,-165.66 643,-175.66 646.5,-165.66 639.5,-165.66"/>
</a>
</g>
</g>
<!-- Node10 -->
<g id="Node000010" class="node">
<title>Node10</title>
<g id="a_Node000010"><a xlink:href="sphere__ops_8_h.html" target="_top" xlink:title=" ">
<polygon fill="white" stroke="#666666" points="950.5,-134.5 759.5,-134.5 759.5,-93.5 950.5,-93.5 950.5,-134.5"/>
<text text-anchor="start" x="767.5" y="-122.5" font-family="Helvetica,sans-Serif" font-size="10.00">/home/runner/work/amr</text>
<text text-anchor="start" x="767.5" y="-111.5" font-family="Helvetica,sans-Serif" font-size="10.00">&#45;wind/amr&#45;wind/src/immersed</text>
<text text-anchor="middle" x="855" y="-100.5" font-family="Helvetica,sans-Serif" font-size="10.00">_boundary/bluff_body/sphere_ops.H</text>
</a>
</g>
</g>
<!-- Node4&#45;&gt;Node10 -->
<g id="edge9_Node000004_Node000010" class="edge">
<title>Node4&#45;&gt;Node10</title>
<g id="a_edge9_Node000004_Node000010"><a xlink:title=" ">
<path fill="none" stroke="#63b8ff" d="M714.2,-172.12C744.68,-159.75 779.48,-145.64 806.85,-134.53"/>
<polygon fill="#63b8ff" stroke="#63b8ff" points="712.84,-168.89 704.89,-175.89 715.47,-175.38 712.84,-168.89"/>
</a>
</g>
</g>
<!-- Node7 -->
<g id="Node000007" class="node">
<title>Node7</title>
<g id="a_Node000007"><a xlink:href="_box_8cpp.html" target="_top" xlink:title=" ">
<polygon fill="white" stroke="#666666" points="520,-46.5 356,-46.5 356,-5.5 520,-5.5 520,-46.5"/>
<text text-anchor="start" x="364" y="-34.5" font-family="Helvetica,sans-Serif" font-size="10.00">/home/runner/work/amr</text>
<text text-anchor="start" x="364" y="-23.5" font-family="Helvetica,sans-Serif" font-size="10.00">&#45;wind/amr&#45;wind/src/immersed</text>
<text text-anchor="middle" x="438" y="-12.5" font-family="Helvetica,sans-Serif" font-size="10.00">_boundary/bluff_body/Box.cpp</text>
</a>
</g>
</g>
<!-- Node6&#45;&gt;Node7 -->
<g id="edge6_Node000006_Node000007" class="edge">
<title>Node6&#45;&gt;Node7</title>
<g id="a_edge6_Node000006_Node000007"><a xlink:title=" ">
<path fill="none" stroke="#63b8ff" d="M438,-83.36C438,-71.26 438,-57.58 438,-46.74"/>
<polygon fill="#63b8ff" stroke="#63b8ff" points="434.5,-83.49 438,-93.49 441.5,-83.49 434.5,-83.49"/>
</a>
</g>
</g>
<!-- Node9 -->
<g id="Node000009" class="node">
<title>Node9</title>
<g id="a_Node000009"><a xlink:href="_cylinder_8cpp.html" target="_top" xlink:title=" ">
<polygon fill="white" stroke="#666666" points="735.5,-46.5 550.5,-46.5 550.5,-5.5 735.5,-5.5 735.5,-46.5"/>
<text text-anchor="start" x="558.5" y="-34.5" font-family="Helvetica,sans-Serif" font-size="10.00">/home/runner/work/amr</text>
<text text-anchor="start" x="558.5" y="-23.5" font-family="Helvetica,sans-Serif" font-size="10.00">&#45;wind/amr&#45;wind/src/immersed</text>
<text text-anchor="middle" x="643" y="-12.5" font-family="Helvetica,sans-Serif" font-size="10.00">_boundary/bluff_body/Cylinder.cpp</text>
</a>
</g>
</g>
<!-- Node8&#45;&gt;Node9 -->
<g id="edge8_Node000008_Node000009" class="edge">
<title>Node8&#45;&gt;Node9</title>
<g id="a_edge8_Node000008_Node000009"><a xlink:title=" ">
<path fill="none" stroke="#63b8ff" d="M643,-83.36C643,-71.26 643,-57.58 643,-46.74"/>
<polygon fill="#63b8ff" stroke="#63b8ff" points="639.5,-83.49 643,-93.49 646.5,-83.49 639.5,-83.49"/>
</a>
</g>
</g>
<!-- Node11 -->
<g id="Node000011" class="node">
<title>Node11</title>
<g id="a_Node000011"><a xlink:href="_sphere_8cpp.html" target="_top" xlink:title=" ">
<polygon fill="white" stroke="#666666" points="944.5,-46.5 765.5,-46.5 765.5,-5.5 944.5,-5.5 944.5,-46.5"/>
<text text-anchor="start" x="773.5" y="-34.5" font-family="Helvetica,sans-Serif" font-size="10.00">/home/runner/work/amr</text>
<text text-anchor="start" x="773.5" y="-23.5" font-family="Helvetica,sans-Serif" font-size="10.00">&#45;wind/amr&#45;wind/src/immersed</text>
<text text-anchor="middle" x="855" y="-12.5" font-family="Helvetica,sans-Serif" font-size="10.00">_boundary/bluff_body/Sphere.cpp</text>
</a>
</g>
</g>
<!-- Node10&#45;&gt;Node11 -->
<g id="edge10_Node000010_Node000011" class="edge">
<title>Node10&#45;&gt;Node11</title>
<g id="a_edge10_Node000010_Node000011"><a xlink:title=" ">
<path fill="none" stroke="#63b8ff" d="M855,-83.36C855,-71.26 855,-57.58 855,-46.74"/>
<polygon fill="#63b8ff" stroke="#63b8ff" points="851.5,-83.49 855,-93.49 858.5,-83.49 851.5,-83.49"/>
</a>
</g>
</g>
<!-- Node13 -->
<g id="Node000013" class="node">
<title>Node13</title>
<g id="a_Node000013"><a xlink:href="linear__waves__ops_8_h.html" target="_top" xlink:title=" ">
<polygon fill="white" stroke="#666666" points="1276.5,-140 1133.5,-140 1133.5,-88 1276.5,-88 1276.5,-140"/>
<text text-anchor="start" x="1141.5" y="-128" font-family="Helvetica,sans-Serif" font-size="10.00">/home/runner/work/amr</text>
<text text-anchor="start" x="1141.5" y="-117" font-family="Helvetica,sans-Serif" font-size="10.00">&#45;wind/amr&#45;wind/src/ocean</text>
<text text-anchor="start" x="1141.5" y="-106" font-family="Helvetica,sans-Serif" font-size="10.00">_waves/relaxation_zones</text>
<text text-anchor="middle" x="1205" y="-95" font-family="Helvetica,sans-Serif" font-size="10.00">/linear_waves_ops.H</text>
</a>
</g>
</g>
<!-- Node12&#45;&gt;Node13 -->
<g id="edge13_Node000012_Node000013" class="edge">
<title>Node12&#45;&gt;Node13</title>
<g id="a_edge13_Node000012_Node000013"><a xlink:title=" ">
<path fill="none" stroke="#63b8ff" d="M1133.15,-169.69C1145.85,-160.02 1159.68,-149.49 1171.78,-140.29"/>
<polygon fill="#63b8ff" stroke="#63b8ff" points="1130.83,-167.05 1124.99,-175.89 1135.07,-172.62 1130.83,-167.05"/>
</a>
</g>
</g>
<!-- Node12&#45;&gt;Node15 -->
<g id="edge15_Node000012_Node000015" class="edge">
<title>Node12&#45;&gt;Node15</title>
<g id="a_edge15_Node000012_Node000015"><a xlink:title=" ">
<path fill="none" stroke="#63b8ff" d="M1072.21,-166.96C1067.01,-158.02 1061.5,-148.54 1056.63,-140.16"/>
<polygon fill="#63b8ff" stroke="#63b8ff" points="1069.22,-168.78 1077.27,-175.66 1075.27,-165.26 1069.22,-168.78"/>
</a>
</g>
</g>
<!-- Node16 -->
<g id="Node000016" class="node">
<title>Node16</title>
<g id="a_Node000016"><a xlink:href="stokes__waves__ops_8_h.html" target="_top" xlink:title=" ">
<polygon fill="white" stroke="#666666" points="1437.5,-140 1294.5,-140 1294.5,-88 1437.5,-88 1437.5,-140"/>
<text text-anchor="start" x="1302.5" y="-128" font-family="Helvetica,sans-Serif" font-size="10.00">/home/runner/work/amr</text>
<text text-anchor="start" x="1302.5" y="-117" font-family="Helvetica,sans-Serif" font-size="10.00">&#45;wind/amr&#45;wind/src/ocean</text>
<text text-anchor="start" x="1302.5" y="-106" font-family="Helvetica,sans-Serif" font-size="10.00">_waves/relaxation_zones</text>
<text text-anchor="middle" x="1366" y="-95" font-family="Helvetica,sans-Serif" font-size="10.00">/stokes_waves_ops.H</text>
</a>
</g>
</g>
<!-- Node12&#45;&gt;Node16 -->
<g id="edge16_Node000012_Node000016" class="edge">
<title>Node12&#45;&gt;Node16</title>
<g id="a_edge16_Node000012_Node000016"><a xlink:title=" ">
<path fill="none" stroke="#63b8ff" d="M1173.24,-175.5C1211.68,-163.44 1257.17,-149.16 1294.31,-137.5"/>
<polygon fill="#63b8ff" stroke="#63b8ff" points="1172.13,-172.18 1163.63,-178.52 1174.22,-178.86 1172.13,-172.18"/>
</a>
</g>
</g>
<!-- Node18 -->
<g id="Node000018" class="node">
<title>Node18</title>
<g id="a_Node000018"><a xlink:href="waves2amr__ops_8_h.html" target="_top" xlink:title=" ">
<polygon fill="white" stroke="#666666" points="1598.5,-140 1455.5,-140 1455.5,-88 1598.5,-88 1598.5,-140"/>
<text text-anchor="start" x="1463.5" y="-128" font-family="Helvetica,sans-Serif" font-size="10.00">/home/runner/work/amr</text>
<text text-anchor="start" x="1463.5" y="-117" font-family="Helvetica,sans-Serif" font-size="10.00">&#45;wind/amr&#45;wind/src/ocean</text>
<text text-anchor="start" x="1463.5" y="-106" font-family="Helvetica,sans-Serif" font-size="10.00">_waves/relaxation_zones</text>
<text text-anchor="middle" x="1527" y="-95" font-family="Helvetica,sans-Serif" font-size="10.00">/waves2amr_ops.H</text>
</a>
</g>
</g>
<!-- Node12&#45;&gt;Node18 -->
<g id="edge18_Node000012_Node000018" class="edge">
<title>Node12&#45;&gt;Node18</title>
<g id="a_edge18_Node000012_Node000018"><a xlink:title=" ">
<path fill="none" stroke="#63b8ff" d="M1173.84,-175.99C1294.85,-150.64 1330.21,-165.72 1447,-140 1449.7,-139.41 1452.44,-138.76 1455.2,-138.08"/>
<polygon fill="#63b8ff" stroke="#63b8ff" points="1172.86,-172.62 1163.82,-178.14 1174.33,-179.47 1172.86,-172.62"/>
</a>
</g>
</g>
<!-- Node14 -->
<g id="Node000014" class="node">
<title>Node14</title>
<g id="a_Node000014"><a xlink:href="_linear_waves_8cpp.html" target="_top" xlink:title=" ">
<polygon fill="white" stroke="#666666" points="1276.5,-52 1133.5,-52 1133.5,0 1276.5,0 1276.5,-52"/>
<text text-anchor="start" x="1141.5" y="-40" font-family="Helvetica,sans-Serif" font-size="10.00">/home/runner/work/amr</text>
<text text-anchor="start" x="1141.5" y="-29" font-family="Helvetica,sans-Serif" font-size="10.00">&#45;wind/amr&#45;wind/src/ocean</text>
<text text-anchor="start" x="1141.5" y="-18" font-family="Helvetica,sans-Serif" font-size="10.00">_waves/relaxation_zones</text>
<text text-anchor="middle" x="1205" y="-7" font-family="Helvetica,sans-Serif" font-size="10.00">/LinearWaves.cpp</text>
</a>
</g>
</g>
<!-- Node13&#45;&gt;Node14 -->
<g id="edge14_Node000013_Node000014" class="edge">
<title>Node13&#45;&gt;Node14</title>
<g id="a_edge14_Node000013_Node000014"><a xlink:title=" ">
<path fill="none" stroke="#63b8ff" d="M1205,-77.56C1205,-69.04 1205,-60.1 1205,-52.16"/>
<polygon fill="#63b8ff" stroke="#63b8ff" points="1201.5,-77.66 1205,-87.66 1208.5,-77.66 1201.5,-77.66"/>
</a>
</g>
</g>
<!-- Node17 -->
<g id="Node000017" class="node">
<title>Node17</title>
<g id="a_Node000017"><a xlink:href="_stokes_waves_8cpp.html" target="_top" xlink:title=" ">
<polygon fill="white" stroke="#666666" points="1437.5,-52 1294.5,-52 1294.5,0 1437.5,0 1437.5,-52"/>
<text text-anchor="start" x="1302.5" y="-40" font-family="Helvetica,sans-Serif" font-size="10.00">/home/runner/work/amr</text>
<text text-anchor="start" x="1302.5" y="-29" font-family="Helvetica,sans-Serif" font-size="10.00">&#45;wind/amr&#45;wind/src/ocean</text>
<text text-anchor="start" x="1302.5" y="-18" font-family="Helvetica,sans-Serif" font-size="10.00">_waves/relaxation_zones</text>
<text text-anchor="middle" x="1366" y="-7" font-family="Helvetica,sans-Serif" font-size="10.00">/StokesWaves.cpp</text>
</a>
</g>
</g>
<!-- Node16&#45;&gt;Node17 -->
<g id="edge17_Node000016_Node000017" class="edge">
<title>Node16&#45;&gt;Node17</title>
<g id="a_edge17_Node000016_Node000017"><a xlink:title=" ">
<path fill="none" stroke="#63b8ff" d="M1366,-77.56C1366,-69.04 1366,-60.1 1366,-52.16"/>
<polygon fill="#63b8ff" stroke="#63b8ff" points="1362.5,-77.66 1366,-87.66 1369.5,-77.66 1362.5,-77.66"/>
</a>
</g>
</g>
<!-- Node19 -->
<g id="Node000019" class="node">
<title>Node19</title>
<g id="a_Node000019"><a xlink:href="_w2_a_waves_8cpp.html" target="_top" xlink:title=" ">
<polygon fill="white" stroke="#666666" points="1598.5,-52 1455.5,-52 1455.5,0 1598.5,0 1598.5,-52"/>
<text text-anchor="start" x="1463.5" y="-40" font-family="Helvetica,sans-Serif" font-size="10.00">/home/runner/work/amr</text>
<text text-anchor="start" x="1463.5" y="-29" font-family="Helvetica,sans-Serif" font-size="10.00">&#45;wind/amr&#45;wind/src/ocean</text>
<text text-anchor="start" x="1463.5" y="-18" font-family="Helvetica,sans-Serif" font-size="10.00">_waves/relaxation_zones</text>
<text text-anchor="middle" x="1527" y="-7" font-family="Helvetica,sans-Serif" font-size="10.00">/W2AWaves.cpp</text>
</a>
</g>
</g>
<!-- Node18&#45;&gt;Node19 -->
<g id="edge19_Node000018_Node000019" class="edge">
<title>Node18&#45;&gt;Node19</title>
<g id="a_edge19_Node000018_Node000019"><a xlink:title=" ">
<path fill="none" stroke="#63b8ff" d="M1527,-77.56C1527,-69.04 1527,-60.1 1527,-52.16"/>
<polygon fill="#63b8ff" stroke="#63b8ff" points="1523.5,-77.66 1527,-87.66 1530.5,-77.66 1523.5,-77.66"/>
</a>
</g>
</g>
</g>
</svg>
