<?xml version="1.0" encoding="UTF-8" standalone="no"?>
<!DOCTYPE svg PUBLIC "-//W3C//DTD SVG 1.1//EN"
 "http://www.w3.org/Graphics/SVG/1.1/DTD/svg11.dtd">
<!-- Generated by graphviz version 2.43.0 (0)
 -->
<!-- Title: Utilities Pages: 1 -->
<svg width="351pt" height="199pt"
 viewBox="0.00 0.00 351.00 198.50" xmlns="http://www.w3.org/2000/svg" xmlns:xlink="http://www.w3.org/1999/xlink">

<svg id="main" version="1.1" xmlns="http://www.w3.org/2000/svg" xmlns:xlink="http://www.w3.org/1999/xlink" xml:space="preserve">

<style type="text/css"><![CDATA[
.node, .edge {opacity: 0.7;}
.node.selected, .edge.selected {opacity: 1;}
.edge:hover path { stroke: red; }
.edge:hover polygon { stroke: red; fill: red; }
]]></style>
<script type="application/ecmascript" xlink:href="svg.min.js"/>
<svg id="graph" class="graph">
<g id="graph0" class="graph" transform="scale(1 1) rotate(0) translate(4 194.5)">
<title>Utilities</title>
<!-- Node5 -->
<g id="Node000005" class="node">
<title>Node5</title>
<g id="a_Node000005"><a xlink:href="group__amr__utils.html" target="_top" xlink:title=" ">
<polygon fill="white" stroke="#666666" points="328.5,-190.5 229.5,-190.5 229.5,-171.5 328.5,-171.5 328.5,-190.5"/>
<text text-anchor="middle" x="279" y="-178.5" font-family="Helvetica,sans-Serif" font-size="10.00">Mesh refinement</text>
</a>
</g>
</g>
<!-- Node6 -->
<g id="Node000006" class="node">
<title>Node6</title>
<g id="a_Node000006"><a xlink:href="group__field__bc.html" target="_top" xlink:title=" ">
<polygon fill="white" stroke="#666666" points="337,-153 221,-153 221,-123 337,-123 337,-153"/>
<text text-anchor="start" x="229" y="-141" font-family="Helvetica,sans-Serif" font-size="10.00">Boundary conditions</text>
<text text-anchor="middle" x="279" y="-130" font-family="Helvetica,sans-Serif" font-size="10.00"> management</text>
</a>
</g>
</g>
<!-- Node3 -->
<g id="Node000003" class="node">
<title>Node3</title>
<g id="a_Node000003"><a xlink:href="group__sampling.html" target="_top" xlink:title=" ">
<polygon fill="white" stroke="#666666" points="343,-104.5 215,-104.5 215,-85.5 343,-85.5 343,-104.5"/>
<text text-anchor="middle" x="279" y="-92.5" font-family="Helvetica,sans-Serif" font-size="10.00">Data&#45;sampling utilities</text>
</a>
</g>
</g>
<!-- Node2 -->
<g id="Node000002" class="node">
<title>Node2</title>
<g id="a_Node000002"><a xlink:href="group__statistics.html" target="_top" xlink:title=" ">
<polygon fill="white" stroke="#666666" points="322.5,-67.5 235.5,-67.5 235.5,-48.5 322.5,-48.5 322.5,-67.5"/>
<text text-anchor="middle" x="279" y="-55.5" font-family="Helvetica,sans-Serif" font-size="10.00">Field statistics</text>
</a>
</g>
</g>
<!-- Node4 -->
<g id="Node000004" class="node">
<title>Node4</title>
<g id="a_Node000004"><a xlink:href="group__subvolume.html" target="_top" xlink:title=" ">
<polygon fill="white" stroke="#666666" points="341.5,-30 216.5,-30 216.5,0 341.5,0 341.5,-30"/>
<text text-anchor="start" x="224.5" y="-18" font-family="Helvetica,sans-Serif" font-size="10.00">Mesh data subvolume</text>
<text text-anchor="middle" x="279" y="-7" font-family="Helvetica,sans-Serif" font-size="10.00"> utilities</text>
</a>
</g>
</g>
<!-- Node1 -->
<g id="Node000001" class="node">
<title>Node1</title>
<g id="a_Node000001"><a xlink:title=" ">
<polygon fill="#999999" stroke="#666666" points="55,-104.5 0,-104.5 0,-85.5 55,-85.5 55,-104.5"/>
<text text-anchor="middle" x="27.5" y="-92.5" font-family="Helvetica,sans-Serif" font-size="10.00">Utilities</text>
</a>
</g>
</g>
<!-- Node1&#45;&gt;Node5 -->
<g id="edge4" class="edge">
<title>Node1&#45;&gt;Node5</title>
<path fill="none" stroke="black" d="M40.22,-112.98C48.18,-123.69 59.65,-136.6 73,-144 121.56,-170.91 185.59,-178.85 229.08,-180.9"/>
<polygon fill="black" stroke="black" points="43.01,-110.86 34.41,-104.67 37.27,-114.87 43.01,-110.86"/>
</g>
<!-- Node1&#45;&gt;Node6 -->
<g id="edge5" class="edge">
<title>Node1&#45;&gt;Node6</title>
<path fill="none" stroke="orange" stroke-dasharray="5,2" d="M55.13,-104.16C60.97,-105.95 67.15,-107.68 73,-109 122.43,-120.19 179.6,-127.85 220.99,-132.48"/>
<text text-anchor="middle" x="135" y="-132" font-family="Helvetica,sans-Serif" font-size="10.00">kynema_sgf::VelWallFunc</text>
</g>
<!-- Node1&#45;&gt;Node3 -->
<g id="edge2" class="edge">
<title>Node1&#45;&gt;Node3</title>
<path fill="none" stroke="black" d="M65.39,-95C104.72,-95 167.72,-95 214.95,-95"/>
<polygon fill="black" stroke="black" points="65.2,-91.5 55.2,-95 65.2,-98.5 65.2,-91.5"/>
</g>
<!-- Node1&#45;&gt;Node2 -->
<g id="edge1" class="edge">
<title>Node1&#45;&gt;Node2</title>
<path fill="none" stroke="black" d="M65.18,-89.56C110.48,-82.84 187.39,-71.44 235.3,-64.33"/>
<polygon fill="black" stroke="black" points="64.58,-86.11 55.2,-91.04 65.61,-93.04 64.58,-86.11"/>
</g>
<!-- Node1&#45;&gt;Node4 -->
<g id="edge3" class="edge">
<title>Node1&#45;&gt;Node4</title>
<path fill="none" stroke="black" d="M49.88,-79.65C56.98,-75.08 65.1,-70.39 73,-67 119.23,-47.18 174.69,-33.68 216.26,-25.41"/>
<polygon fill="black" stroke="black" points="47.87,-76.78 41.53,-85.27 51.78,-82.59 47.87,-76.78"/>
</g>
</g>
</svg>
</svg>

<style type='text/css'>
<![CDATA[
[data-mouse-over-selected='false'] { opacity: 0.7; }
[data-mouse-over-selected='true']  { opacity: 1.0; }
]]>
</style>
<script type="application/ecmascript"><![CDATA[
document.addEventListener('DOMContentLoaded', (event) => {
  highlightEdges();
  highlightAdjacentNodes();
});
]]></script>
</svg>
