<?xml version="1.0" encoding="UTF-8" standalone="no"?>
<!DOCTYPE svg PUBLIC "-//W3C//DTD SVG 1.1//EN"
 "http://www.w3.org/Graphics/SVG/1.1/DTD/svg11.dtd">
<!-- Generated by graphviz version 2.43.0 (0)
 -->
<!-- Title: ABL Pages: 1 -->
<!--zoomable 570 -->

<svg id="main" version="1.1" xmlns="http://www.w3.org/2000/svg" xmlns:xlink="http://www.w3.org/1999/xlink" xml:space="preserve" onload="init(evt)">

<style type="text/css"><![CDATA[
.node, .edge {opacity: 0.7;}
.node.selected, .edge.selected {opacity: 1;}
.edge:hover path { stroke: red; }
.edge:hover polygon { stroke: red; fill: red; }
]]></style>

<defs>
  <circle id="rim" cx="0" cy="0" r="7"/>
  <circle id="rim2" cx="0" cy="0" r="3.5"/>
  <g id="zoomPlus">
    <use xlink:href="#rim" fill="#404040"><set attributeName="fill" to="#808080" begin="zoomplus.mouseover" end="zoomplus.mouseout"/></use>
    <path d="M-4,0h8M0,-4v8" fill="none" stroke="white" stroke-width="1.5" pointer-events="none"/>
  </g>
  <g id="zoomMin">
    <use xlink:href="#rim" fill="#404040"><set attributeName="fill" to="#808080" begin="zoomminus.mouseover" end="zoomminus.mouseout"/></use>
    <path d="M-4,0h8" fill="none" stroke="white" stroke-width="1.5" pointer-events="none"/>
  </g>
  <g id="arrowUp" transform="translate(30 24)">
    <use xlink:href="#rim"/>
    <path pointer-events="none" fill="none" stroke="white" stroke-width="1.5" d="M0,-3.0v7 M-2.5,-0.5L0,-3.0L2.5,-0.5"/>
  </g>
  <g id="arrowRight" transform="rotate(90) translate(36 -43)">
    <use xlink:href="#rim"/>
    <path pointer-events="none" fill="none" stroke="white" stroke-width="1.5" d="M0,-3.0v7 M-2.5,-0.5L0,-3.0L2.5,-0.5"/>
  </g>
  <g id="arrowDown" transform="rotate(180) translate(-30 -48)">
    <use xlink:href="#rim"/>
    <path pointer-events="none" fill="none" stroke="white" stroke-width="1.5" d="M0,-3.0v7 M-2.5,-0.5L0,-3.0L2.5,-0.5"/>
  </g>
  <g id="arrowLeft" transform="rotate(270) translate(-36 17)">
    <use xlink:href="#rim"/>
    <path pointer-events="none" fill="none" stroke="white" stroke-width="1.5" d="M0,-3.0v7 M-2.5,-0.5L0,-3.0L2.5,-0.5"/>
  </g>
  <g id="resetDef">
    <use xlink:href="#rim2" fill="#404040"><set attributeName="fill" to="#808080" begin="reset.mouseover" end="reset.mouseout"/></use>
  </g>
</defs>
<script type="application/ecmascript">
var viewWidth = 559;
var viewHeight = 570;
var sectionId = 'dynsection-0';
</script>
<script type="application/ecmascript" xlink:href="svg.min.js"/>
<svg id="graph" class="graph">
<g id="viewport">
<title>ABL</title>
<!-- Node3 -->
<g id="Node000003" class="node">
<title>Node3</title>
<g id="a_Node000003"><a xlink:href="group__abl__istats.html" target="_top" xlink:title=" ">
<polygon fill="white" stroke="#666666" points="522.5,-552.81 439.5,-552.81 439.5,-533.81 522.5,-533.81 522.5,-552.81"/>
<text text-anchor="middle" x="481" y="-540.81" font-family="Helvetica,sans-Serif" font-size="10.00">ABL Statistics</text>
</a>
</g>
</g>
<!-- Node9 -->
<g id="Node000009" class="node">
<title>Node9</title>
<g id="a_Node000009"><a xlink:href="group__field__bc.html" target="_top" xlink:title=" ">
<polygon fill="white" stroke="#666666" points="539,-515.31 423,-515.31 423,-485.31 539,-485.31 539,-515.31"/>
<text text-anchor="start" x="431" y="-503.31" font-family="Helvetica,sans-Serif" font-size="10.00">Boundary conditions</text>
<text text-anchor="middle" x="481" y="-492.31" font-family="Helvetica,sans-Serif" font-size="10.00"> management</text>
</a>
</g>
</g>
<!-- Node5 -->
<g id="Node000005" class="node">
<title>Node5</title>
<g id="a_Node000005"><a xlink:href="group__icns__src.html" target="_top" xlink:title=" ">
<polygon fill="white" stroke="#666666" points="534.5,-356.81 427.5,-356.81 427.5,-337.81 534.5,-337.81 534.5,-356.81"/>
<text text-anchor="middle" x="481" y="-344.81" font-family="Helvetica,sans-Serif" font-size="10.00">ICNS Source terms</text>
</a>
</g>
</g>
<!-- Node4 -->
<g id="Node000004" class="node">
<title>Node4</title>
<g id="a_Node000004"><a xlink:href="group__shear__stress.html" target="_top" xlink:title=" ">
<polygon fill="white" stroke="#666666" points="551,-319.81 411,-319.81 411,-300.81 551,-300.81 551,-319.81"/>
<text text-anchor="middle" x="481" y="-307.81" font-family="Helvetica,sans-Serif" font-size="10.00">Shear Stress Wall Models</text>
</a>
</g>
</g>
<!-- Node8 -->
<g id="Node000008" class="node">
<title>Node8</title>
<g id="a_Node000008"><a xlink:href="group__statistics.html" target="_top" xlink:title=" ">
<polygon fill="white" stroke="#666666" points="524.5,-262.81 437.5,-262.81 437.5,-243.81 524.5,-243.81 524.5,-262.81"/>
<text text-anchor="middle" x="481" y="-250.81" font-family="Helvetica,sans-Serif" font-size="10.00">Field statistics</text>
</a>
</g>
</g>
<!-- Node6 -->
<g id="Node000006" class="node">
<title>Node6</title>
<g id="a_Node000006"><a xlink:href="group__tke__src.html" target="_top" xlink:title=" ">
<polygon fill="white" stroke="#666666" points="532.5,-173.81 429.5,-173.81 429.5,-154.81 532.5,-154.81 532.5,-173.81"/>
<text text-anchor="middle" x="481" y="-161.81" font-family="Helvetica,sans-Serif" font-size="10.00">TKE Source terms</text>
</a>
</g>
</g>
<!-- Node7 -->
<g id="Node000007" class="node">
<title>Node7</title>
<g id="a_Node000007"><a xlink:href="group__turb__model.html" target="_top" xlink:title=" ">
<polygon fill="white" stroke="#666666" points="535,-40.81 427,-40.81 427,-21.81 535,-21.81 535,-40.81"/>
<text text-anchor="middle" x="481" y="-28.81" font-family="Helvetica,sans-Serif" font-size="10.00">Turbulence models</text>
</a>
</g>
</g>
<!-- Node1 -->
<g id="Node000001" class="node">
<title>Node1</title>
<g id="a_Node000001"><a xlink:title=" ">
<polygon fill="#999999" stroke="#666666" points="199,-321.81 164,-321.81 164,-302.81 199,-302.81 199,-321.81"/>
<text text-anchor="middle" x="181.5" y="-309.81" font-family="Helvetica,sans-Serif" font-size="10.00">ABL</text>
</a>
</g>
</g>
<!-- Node1&#45;&gt;Node3 -->
<g id="edge2" class="edge">
<title>Node1&#45;&gt;Node3</title>
<path fill="none" stroke="black" d="M182.86,-332.07C184.17,-378.64 190.09,-493.25 217,-518.31 277.42,-574.57 382.9,-564.07 440.2,-552.88"/>
<polygon fill="black" stroke="black" points="186.36,-331.94 182.63,-322.02 179.36,-332.1 186.36,-331.94"/>
</g>
<!-- Node1&#45;&gt;Node9 -->
<g id="edge8" class="edge">
<title>Node1&#45;&gt;Node9</title>
<path fill="none" stroke="orange" stroke-dasharray="5,2" d="M183.05,-322.1C185.08,-354.5 193.31,-457.33 217,-478.31 246.46,-504.39 354.77,-505.38 422.87,-503.2"/>
<text text-anchor="middle" x="305" y="-506.31" font-family="Helvetica,sans-Serif" font-size="10.00">kynema_sgf::ABLVelWallFunc</text>
</g>
<!-- Node1&#45;&gt;Node5 -->
<g id="edge4" class="edge">
<title>Node1&#45;&gt;Node5</title>
<path fill="none" stroke="orange" stroke-dasharray="5,2" d="M199.15,-318.42C204.75,-320.26 211.08,-322.11 217,-323.31 288.9,-337.87 373.66,-343.6 427.12,-345.86"/>
<text text-anchor="start" x="249" y="-468.31" font-family="Helvetica,sans-Serif" font-size="10.00">kynema_sgf::pde::icns</text>
<text text-anchor="middle" x="305" y="-457.31" font-family="Helvetica,sans-Serif" font-size="10.00">::ABLForcing</text>
<text text-anchor="start" x="249" y="-446.31" font-family="Helvetica,sans-Serif" font-size="10.00">kynema_sgf::pde::icns</text>
<text text-anchor="middle" x="305" y="-435.31" font-family="Helvetica,sans-Serif" font-size="10.00">::ABLMeanBoussinesq</text>
<text text-anchor="start" x="249" y="-424.31" font-family="Helvetica,sans-Serif" font-size="10.00">kynema_sgf::pde::icns</text>
<text text-anchor="middle" x="305" y="-413.31" font-family="Helvetica,sans-Serif" font-size="10.00">::ABLMesoForcingMom</text>
<text text-anchor="start" x="249" y="-402.31" font-family="Helvetica,sans-Serif" font-size="10.00">kynema_sgf::pde::icns</text>
<text text-anchor="middle" x="305" y="-391.31" font-family="Helvetica,sans-Serif" font-size="10.00">::BoussinesqBuoyancy</text>
<text text-anchor="start" x="249" y="-380.31" font-family="Helvetica,sans-Serif" font-size="10.00">kynema_sgf::pde::icns</text>
<text text-anchor="middle" x="305" y="-369.31" font-family="Helvetica,sans-Serif" font-size="10.00">::CoriolisForcing</text>
<text text-anchor="start" x="249" y="-358.31" font-family="Helvetica,sans-Serif" font-size="10.00">kynema_sgf::pde::icns</text>
<text text-anchor="middle" x="305" y="-347.31" font-family="Helvetica,sans-Serif" font-size="10.00">::GeostrophicForcing</text>
</g>
<!-- Node1&#45;&gt;Node4 -->
<g id="edge3" class="edge">
<title>Node1&#45;&gt;Node4</title>
<path fill="none" stroke="black" d="M209.5,-312.13C254.59,-311.82 346.58,-311.2 410.7,-310.77"/>
<polygon fill="black" stroke="black" points="209.32,-308.63 199.35,-312.19 209.37,-315.63 209.32,-308.63"/>
</g>
<!-- Node1&#45;&gt;Node8 -->
<g id="edge7" class="edge">
<title>Node1&#45;&gt;Node8</title>
<path fill="none" stroke="orange" stroke-dasharray="5,2" d="M186.13,-302.7C191.11,-291.03 201.28,-271.85 217,-263.31 286.66,-225.46 382.7,-234.32 437.37,-243.96"/>
<text text-anchor="middle" x="305" y="-299.31" font-family="Helvetica,sans-Serif" font-size="10.00">kynema_sgf::FPlaneAveraging</text>
<text text-anchor="middle" x="305" y="-288.31" font-family="Helvetica,sans-Serif" font-size="10.00">kynema_sgf::VelPlaneAveraging</text>
<text text-anchor="middle" x="305" y="-277.31" font-family="Helvetica,sans-Serif" font-size="10.00">kynema_sgf::FPlaneAveragingFine</text>
<text text-anchor="middle" x="305" y="-266.31" font-family="Helvetica,sans-Serif" font-size="10.00">kynema_sgf::VelPlaneAveragingFine</text>
</g>
<!-- Node1&#45;&gt;Node6 -->
<g id="edge5" class="edge">
<title>Node1&#45;&gt;Node6</title>
<path fill="none" stroke="orange" stroke-dasharray="5,2" d="M183.26,-302.8C185.83,-273.19 195.31,-183.6 217,-166.31 248.59,-141.11 362.22,-149.8 429.35,-157.56"/>
<text text-anchor="start" x="253" y="-224.31" font-family="Helvetica,sans-Serif" font-size="10.00">kynema_sgf::pde::tke</text>
<text text-anchor="middle" x="305" y="-213.31" font-family="Helvetica,sans-Serif" font-size="10.00">::KransAxell</text>
<text text-anchor="start" x="253" y="-202.31" font-family="Helvetica,sans-Serif" font-size="10.00">kynema_sgf::pde::tke</text>
<text text-anchor="middle" x="305" y="-191.31" font-family="Helvetica,sans-Serif" font-size="10.00">::KsgsM84Src</text>
<text text-anchor="start" x="253" y="-180.31" font-family="Helvetica,sans-Serif" font-size="10.00">kynema_sgf::pde::tke</text>
<text text-anchor="middle" x="305" y="-169.31" font-family="Helvetica,sans-Serif" font-size="10.00">::KsgsS94Src</text>
</g>
<!-- Node1&#45;&gt;Node7 -->
<g id="edge6" class="edge">
<title>Node1&#45;&gt;Node7</title>
<path fill="none" stroke="orange" stroke-dasharray="5,2" d="M182.97,-302.58C185.36,-255.69 196.72,-54.56 217,-36.31 283.03,23.11 400.54,-4.87 453.19,-21.75"/>
<text text-anchor="start" x="246.5" y="-138.31" font-family="Helvetica,sans-Serif" font-size="10.00">kynema_sgf::pde::tke</text>
<text text-anchor="middle" x="305" y="-127.31" font-family="Helvetica,sans-Serif" font-size="10.00">::KransAxell</text>
<text text-anchor="start" x="246.5" y="-116.31" font-family="Helvetica,sans-Serif" font-size="10.00">kynema_sgf::pde::tke</text>
<text text-anchor="middle" x="305" y="-105.31" font-family="Helvetica,sans-Serif" font-size="10.00">::KsgsM84Src</text>
<text text-anchor="start" x="246.5" y="-94.31" font-family="Helvetica,sans-Serif" font-size="10.00">kynema_sgf::pde::tke</text>
<text text-anchor="middle" x="305" y="-83.31" font-family="Helvetica,sans-Serif" font-size="10.00">::KsgsS94Src</text>
<text text-anchor="start" x="246.5" y="-72.31" font-family="Helvetica,sans-Serif" font-size="10.00">kynema_sgf::turbulence</text>
<text text-anchor="middle" x="305" y="-61.31" font-family="Helvetica,sans-Serif" font-size="10.00">::OneEqKsgsM84</text>
<text text-anchor="start" x="246.5" y="-50.31" font-family="Helvetica,sans-Serif" font-size="10.00">kynema_sgf::turbulence</text>
<text text-anchor="middle" x="305" y="-39.31" font-family="Helvetica,sans-Serif" font-size="10.00">::OneEqKsgsS94</text>
</g>
<!-- Node2 -->
<g id="Node000002" class="node">
<title>Node2</title>
<g id="a_Node000002"><a xlink:href="group__wind.html" target="_top" xlink:title=" ">
<polygon fill="white" stroke="#666666" points="127,-321.81 0,-321.81 0,-302.81 127,-302.81 127,-321.81"/>
<text text-anchor="middle" x="63.5" y="-309.81" font-family="Helvetica,sans-Serif" font-size="10.00">Wind energy modeling</text>
</a>
</g>
</g>
<!-- Node2&#45;&gt;Node1 -->
<g id="edge1" class="edge">
<title>Node2&#45;&gt;Node1</title>
<path fill="none" stroke="black" d="M137.54,-312.31C147.25,-312.31 156.35,-312.31 163.66,-312.31"/>
<polygon fill="black" stroke="black" points="137.25,-308.81 127.25,-312.31 137.25,-315.81 137.25,-308.81"/>
</g>
</g>
</svg>

<g id="navigator" transform="translate(0 0)" fill="#404254">
  <rect fill="#f2f5e9" fill-opacity="0.5" stroke="#606060" stroke-width=".5" x="0" y="0" width="60" height="60"/>
  <use id="zoomplus" xlink:href="#zoomPlus" x="17" y="9" onmousedown="handleZoom(evt,'in')"/>
  <use id="zoomminus" xlink:href="#zoomMin" x="42" y="9" onmousedown="handleZoom(evt,'out')"/>
  <use id="reset" xlink:href="#resetDef" x="30" y="36" onmousedown="handleReset()"/>
   <use id="arrowup" xlink:href="#arrowUp" x="0" y="0" onmousedown="handlePan(0,-1)"/>
  <use id="arrowright" xlink:href="#arrowRight" x="0" y="0" onmousedown="handlePan(1,0)"/>
  <use id="arrowdown" xlink:href="#arrowDown" x="0" y="0" onmousedown="handlePan(0,1)"/>
  <use id="arrowleft" xlink:href="#arrowLeft" x="0" y="0" onmousedown="handlePan(-1,0)"/>
</g>
<svg viewBox="0 0 15 15" width="100%" height="30px" preserveAspectRatio="xMaxYMin meet">
 <g id="arrow_out" transform="scale(0.3 0.3)">
  <a xlink:href="group__we__abl_org.svg" target="_base">
   <rect id="button" ry="5" rx="5" y="6" x="6" height="38" width="38"
        fill="#f2f5e9" fill-opacity="0.5" stroke="#606060" stroke-width="1.0"/>
   <path id="arrow"
     d="M 11.500037,31.436501 C 11.940474,20.09759 22.043105,11.32322 32.158766,21.979434 L 37.068811,17.246167 C 37.068811,17.246167 37.088388,32 37.088388,32 L 22.160133,31.978069 C 22.160133,31.978069 26.997745,27.140456 26.997745,27.140456 C 18.528582,18.264221 13.291696,25.230495 11.500037,31.436501 z"
     style="fill:#404040;"/>
  </a>
 </g>
</svg>

<style type='text/css'>
<![CDATA[
[data-mouse-over-selected='false'] { opacity: 0.7; }
[data-mouse-over-selected='true']  { opacity: 1.0; }
]]>
</style>
<script type="application/ecmascript"><![CDATA[
document.addEventListener('DOMContentLoaded', (event) => {
  highlightEdges();
  highlightAdjacentNodes();
});
]]></script>
</svg>
