<?xml version="1.0" encoding="UTF-8" standalone="no"?>
<!DOCTYPE svg PUBLIC "-//W3C//DTD SVG 1.1//EN"
 "http://www.w3.org/Graphics/SVG/1.1/DTD/svg11.dtd">
<!-- Generated by graphviz version 2.43.0 (0)
 -->
<!-- Title: ABL Pages: 1 -->
<svg width="559pt" height="570pt"
 viewBox="0.00 0.00 559.00 570.39" xmlns="http://www.w3.org/2000/svg" xmlns:xlink="http://www.w3.org/1999/xlink">
<g id="graph0" class="graph" transform="scale(1 1) rotate(0) translate(4 566.39)">
<title>ABL</title>
<!-- Node3 -->
<g id="Node000003" class="node">
<title>Node3</title>
<g id="a_Node000003"><a xlink:href="group__abl__istats.html" target="_top" xlink:title=" ">
<polygon fill="white" stroke="#666666" points="522.5,-552.81 439.5,-552.81 439.5,-533.81 522.5,-533.81 522.5,-552.81"/>
<text text-anchor="middle" x="481" y="-540.81" font-family="Helvetica,sans-Serif" font-size="10.00">ABL Statistics</text>
</a>
</g>
</g>
<!-- Node9 -->
<g id="Node000009" class="node">
<title>Node9</title>
<g id="a_Node000009"><a xlink:href="group__field__bc.html" target="_top" xlink:title=" ">
<polygon fill="white" stroke="#666666" points="539,-515.31 423,-515.31 423,-485.31 539,-485.31 539,-515.31"/>
<text text-anchor="start" x="431" y="-503.31" font-family="Helvetica,sans-Serif" font-size="10.00">Boundary conditions</text>
<text text-anchor="middle" x="481" y="-492.31" font-family="Helvetica,sans-Serif" font-size="10.00"> management</text>
</a>
</g>
</g>
<!-- Node5 -->
<g id="Node000005" class="node">
<title>Node5</title>
<g id="a_Node000005"><a xlink:href="group__icns__src.html" target="_top" xlink:title=" ">
<polygon fill="white" stroke="#666666" points="534.5,-356.81 427.5,-356.81 427.5,-337.81 534.5,-337.81 534.5,-356.81"/>
<text text-anchor="middle" x="481" y="-344.81" font-family="Helvetica,sans-Serif" font-size="10.00">ICNS Source terms</text>
</a>
</g>
</g>
<!-- Node4 -->
<g id="Node000004" class="node">
<title>Node4</title>
<g id="a_Node000004"><a xlink:href="group__shear__stress.html" target="_top" xlink:title=" ">
<polygon fill="white" stroke="#666666" points="551,-319.81 411,-319.81 411,-300.81 551,-300.81 551,-319.81"/>
<text text-anchor="middle" x="481" y="-307.81" font-family="Helvetica,sans-Serif" font-size="10.00">Shear Stress Wall Models</text>
</a>
</g>
</g>
<!-- Node8 -->
<g id="Node000008" class="node">
<title>Node8</title>
<g id="a_Node000008"><a xlink:href="group__statistics.html" target="_top" xlink:title=" ">
<polygon fill="white" stroke="#666666" points="524.5,-262.81 437.5,-262.81 437.5,-243.81 524.5,-243.81 524.5,-262.81"/>
<text text-anchor="middle" x="481" y="-250.81" font-family="Helvetica,sans-Serif" font-size="10.00">Field statistics</text>
</a>
</g>
</g>
<!-- Node6 -->
<g id="Node000006" class="node">
<title>Node6</title>
<g id="a_Node000006"><a xlink:href="group__tke__src.html" target="_top" xlink:title=" ">
<polygon fill="white" stroke="#666666" points="532.5,-173.81 429.5,-173.81 429.5,-154.81 532.5,-154.81 532.5,-173.81"/>
<text text-anchor="middle" x="481" y="-161.81" font-family="Helvetica,sans-Serif" font-size="10.00">TKE Source terms</text>
</a>
</g>
</g>
<!-- Node7 -->
<g id="Node000007" class="node">
<title>Node7</title>
<g id="a_Node000007"><a xlink:href="group__turb__model.html" target="_top" xlink:title=" ">
<polygon fill="white" stroke="#666666" points="535,-40.81 427,-40.81 427,-21.81 535,-21.81 535,-40.81"/>
<text text-anchor="middle" x="481" y="-28.81" font-family="Helvetica,sans-Serif" font-size="10.00">Turbulence models</text>
</a>
</g>
</g>
<!-- Node1 -->
<g id="Node000001" class="node">
<title>Node1</title>
<g id="a_Node000001"><a xlink:title=" ">
<polygon fill="#999999" stroke="#666666" points="199,-321.81 164,-321.81 164,-302.81 199,-302.81 199,-321.81"/>
<text text-anchor="middle" x="181.5" y="-309.81" font-family="Helvetica,sans-Serif" font-size="10.00">ABL</text>
</a>
</g>
</g>
<!-- Node1&#45;&gt;Node3 -->
<g id="edge2" class="edge">
<title>Node1&#45;&gt;Node3</title>
<path fill="none" stroke="black" d="M182.86,-332.07C184.17,-378.64 190.09,-493.25 217,-518.31 277.42,-574.57 382.9,-564.07 440.2,-552.88"/>
<polygon fill="black" stroke="black" points="186.36,-331.94 182.63,-322.02 179.36,-332.1 186.36,-331.94"/>
</g>
<!-- Node1&#45;&gt;Node9 -->
<g id="edge8" class="edge">
<title>Node1&#45;&gt;Node9</title>
<path fill="none" stroke="orange" stroke-dasharray="5,2" d="M183.05,-322.1C185.08,-354.5 193.31,-457.33 217,-478.31 246.46,-504.39 354.77,-505.38 422.87,-503.2"/>
<text text-anchor="middle" x="305" y="-506.31" font-family="Helvetica,sans-Serif" font-size="10.00">kynema_sgf::ABLVelWallFunc</text>
</g>
<!-- Node1&#45;&gt;Node5 -->
<g id="edge4" class="edge">
<title>Node1&#45;&gt;Node5</title>
<path fill="none" stroke="orange" stroke-dasharray="5,2" d="M199.15,-318.42C204.75,-320.26 211.08,-322.11 217,-323.31 288.9,-337.87 373.66,-343.6 427.12,-345.86"/>
<text text-anchor="start" x="249" y="-468.31" font-family="Helvetica,sans-Serif" font-size="10.00">kynema_sgf::pde::icns</text>
<text text-anchor="middle" x="305" y="-457.31" font-family="Helvetica,sans-Serif" font-size="10.00">::ABLForcing</text>
<text text-anchor="start" x="249" y="-446.31" font-family="Helvetica,sans-Serif" font-size="10.00">kynema_sgf::pde::icns</text>
<text text-anchor="middle" x="305" y="-435.31" font-family="Helvetica,sans-Serif" font-size="10.00">::ABLMeanBoussinesq</text>
<text text-anchor="start" x="249" y="-424.31" font-family="Helvetica,sans-Serif" font-size="10.00">kynema_sgf::pde::icns</text>
<text text-anchor="middle" x="305" y="-413.31" font-family="Helvetica,sans-Serif" font-size="10.00">::ABLMesoForcingMom</text>
<text text-anchor="start" x="249" y="-402.31" font-family="Helvetica,sans-Serif" font-size="10.00">kynema_sgf::pde::icns</text>
<text text-anchor="middle" x="305" y="-391.31" font-family="Helvetica,sans-Serif" font-size="10.00">::BoussinesqBuoyancy</text>
<text text-anchor="start" x="249" y="-380.31" font-family="Helvetica,sans-Serif" font-size="10.00">kynema_sgf::pde::icns</text>
<text text-anchor="middle" x="305" y="-369.31" font-family="Helvetica,sans-Serif" font-size="10.00">::CoriolisForcing</text>
<text text-anchor="start" x="249" y="-358.31" font-family="Helvetica,sans-Serif" font-size="10.00">kynema_sgf::pde::icns</text>
<text text-anchor="middle" x="305" y="-347.31" font-family="Helvetica,sans-Serif" font-size="10.00">::GeostrophicForcing</text>
</g>
<!-- Node1&#45;&gt;Node4 -->
<g id="edge3" class="edge">
<title>Node1&#45;&gt;Node4</title>
<path fill="none" stroke="black" d="M209.5,-312.13C254.59,-311.82 346.58,-311.2 410.7,-310.77"/>
<polygon fill="black" stroke="black" points="209.32,-308.63 199.35,-312.19 209.37,-315.63 209.32,-308.63"/>
</g>
<!-- Node1&#45;&gt;Node8 -->
<g id="edge7" class="edge">
<title>Node1&#45;&gt;Node8</title>
<path fill="none" stroke="orange" stroke-dasharray="5,2" d="M186.13,-302.7C191.11,-291.03 201.28,-271.85 217,-263.31 286.66,-225.46 382.7,-234.32 437.37,-243.96"/>
<text text-anchor="middle" x="305" y="-299.31" font-family="Helvetica,sans-Serif" font-size="10.00">kynema_sgf::FPlaneAveraging</text>
<text text-anchor="middle" x="305" y="-288.31" font-family="Helvetica,sans-Serif" font-size="10.00">kynema_sgf::VelPlaneAveraging</text>
<text text-anchor="middle" x="305" y="-277.31" font-family="Helvetica,sans-Serif" font-size="10.00">kynema_sgf::FPlaneAveragingFine</text>
<text text-anchor="middle" x="305" y="-266.31" font-family="Helvetica,sans-Serif" font-size="10.00">kynema_sgf::VelPlaneAveragingFine</text>
</g>
<!-- Node1&#45;&gt;Node6 -->
<g id="edge5" class="edge">
<title>Node1&#45;&gt;Node6</title>
<path fill="none" stroke="orange" stroke-dasharray="5,2" d="M183.26,-302.8C185.83,-273.19 195.31,-183.6 217,-166.31 248.59,-141.11 362.22,-149.8 429.35,-157.56"/>
<text text-anchor="start" x="253" y="-224.31" font-family="Helvetica,sans-Serif" font-size="10.00">kynema_sgf::pde::tke</text>
<text text-anchor="middle" x="305" y="-213.31" font-family="Helvetica,sans-Serif" font-size="10.00">::KransAxell</text>
<text text-anchor="start" x="253" y="-202.31" font-family="Helvetica,sans-Serif" font-size="10.00">kynema_sgf::pde::tke</text>
<text text-anchor="middle" x="305" y="-191.31" font-family="Helvetica,sans-Serif" font-size="10.00">::KsgsM84Src</text>
<text text-anchor="start" x="253" y="-180.31" font-family="Helvetica,sans-Serif" font-size="10.00">kynema_sgf::pde::tke</text>
<text text-anchor="middle" x="305" y="-169.31" font-family="Helvetica,sans-Serif" font-size="10.00">::KsgsS94Src</text>
</g>
<!-- Node1&#45;&gt;Node7 -->
<g id="edge6" class="edge">
<title>Node1&#45;&gt;Node7</title>
<path fill="none" stroke="orange" stroke-dasharray="5,2" d="M182.97,-302.58C185.36,-255.69 196.72,-54.56 217,-36.31 283.03,23.11 400.54,-4.87 453.19,-21.75"/>
<text text-anchor="start" x="246.5" y="-138.31" font-family="Helvetica,sans-Serif" font-size="10.00">kynema_sgf::pde::tke</text>
<text text-anchor="middle" x="305" y="-127.31" font-family="Helvetica,sans-Serif" font-size="10.00">::KransAxell</text>
<text text-anchor="start" x="246.5" y="-116.31" font-family="Helvetica,sans-Serif" font-size="10.00">kynema_sgf::pde::tke</text>
<text text-anchor="middle" x="305" y="-105.31" font-family="Helvetica,sans-Serif" font-size="10.00">::KsgsM84Src</text>
<text text-anchor="start" x="246.5" y="-94.31" font-family="Helvetica,sans-Serif" font-size="10.00">kynema_sgf::pde::tke</text>
<text text-anchor="middle" x="305" y="-83.31" font-family="Helvetica,sans-Serif" font-size="10.00">::KsgsS94Src</text>
<text text-anchor="start" x="246.5" y="-72.31" font-family="Helvetica,sans-Serif" font-size="10.00">kynema_sgf::turbulence</text>
<text text-anchor="middle" x="305" y="-61.31" font-family="Helvetica,sans-Serif" font-size="10.00">::OneEqKsgsM84</text>
<text text-anchor="start" x="246.5" y="-50.31" font-family="Helvetica,sans-Serif" font-size="10.00">kynema_sgf::turbulence</text>
<text text-anchor="middle" x="305" y="-39.31" font-family="Helvetica,sans-Serif" font-size="10.00">::OneEqKsgsS94</text>
</g>
<!-- Node2 -->
<g id="Node000002" class="node">
<title>Node2</title>
<g id="a_Node000002"><a xlink:href="group__wind.html" target="_top" xlink:title=" ">
<polygon fill="white" stroke="#666666" points="127,-321.81 0,-321.81 0,-302.81 127,-302.81 127,-321.81"/>
<text text-anchor="middle" x="63.5" y="-309.81" font-family="Helvetica,sans-Serif" font-size="10.00">Wind energy modeling</text>
</a>
</g>
</g>
<!-- Node2&#45;&gt;Node1 -->
<g id="edge1" class="edge">
<title>Node2&#45;&gt;Node1</title>
<path fill="none" stroke="black" d="M137.54,-312.31C147.25,-312.31 156.35,-312.31 163.66,-312.31"/>
<polygon fill="black" stroke="black" points="137.25,-308.81 127.25,-312.31 137.25,-315.81 137.25,-308.81"/>
</g>
</g>
</svg>
