<?xml version="1.0" encoding="UTF-8" standalone="no"?>
<!DOCTYPE svg PUBLIC "-//W3C//DTD SVG 1.1//EN"
 "http://www.w3.org/Graphics/SVG/1.1/DTD/svg11.dtd">
<!-- Generated by graphviz version 2.43.0 (0)
 -->
<!-- Title: Graphical Class Hierarchy Pages: 1 -->
<svg width="501pt" height="382pt"
 viewBox="0.00 0.00 501.00 382.00" xmlns="http://www.w3.org/2000/svg" xmlns:xlink="http://www.w3.org/1999/xlink">
<g id="graph0" class="graph" transform="scale(1 1) rotate(0) translate(4 378)">
<title>Graphical Class Hierarchy</title>
<!-- Node0 -->
<g id="Node000000" class="node">
<title>Node0</title>
<g id="a_Node000000"><a xlink:href="structkynema__sgf_1_1actuator_1_1_actuator_type.html" target="_top" xlink:title=" ">
<polygon fill="white" stroke="#666666" points="122,-197 0,-197 0,-167 122,-167 122,-197"/>
<text text-anchor="start" x="8" y="-185" font-family="Helvetica,sans-Serif" font-size="10.00">kynema_sgf::actuator</text>
<text text-anchor="middle" x="61" y="-174" font-family="Helvetica,sans-Serif" font-size="10.00">::ActuatorType</text>
</a>
</g>
</g>
<!-- Node1 -->
<g id="Node000001" class="node">
<title>Node1</title>
<g id="a_Node000001"><a xlink:href="structkynema__sgf_1_1actuator_1_1_disk_type.html" target="_top" xlink:title=" ">
<polygon fill="white" stroke="#666666" points="280,-326 158,-326 158,-296 280,-296 280,-326"/>
<text text-anchor="start" x="166" y="-314" font-family="Helvetica,sans-Serif" font-size="10.00">kynema_sgf::actuator</text>
<text text-anchor="middle" x="219" y="-303" font-family="Helvetica,sans-Serif" font-size="10.00">::DiskType</text>
</a>
</g>
</g>
<!-- Node0&#45;&gt;Node1 -->
<g id="edge43_Node000000_Node000001" class="edge">
<title>Node0&#45;&gt;Node1</title>
<g id="a_edge43_Node000000_Node000001"><a xlink:title=" ">
<path fill="none" stroke="#63b8ff" d="M88.12,-203.6C119.62,-229.64 171.77,-272.77 199.43,-295.65"/>
<polygon fill="#63b8ff" stroke="#63b8ff" points="90.14,-200.73 80.2,-197.05 85.68,-206.12 90.14,-200.73"/>
</a>
</g>
</g>
<!-- Node4 -->
<g id="Node000004" class="node">
<title>Node4</title>
<g id="a_Node000004"><a xlink:href="structkynema__sgf_1_1actuator_1_1_turbine_type.html" target="_top" xlink:title=" ">
<polygon fill="white" stroke="#666666" points="280,-197 158,-197 158,-167 280,-167 280,-197"/>
<text text-anchor="start" x="166" y="-185" font-family="Helvetica,sans-Serif" font-size="10.00">kynema_sgf::actuator</text>
<text text-anchor="middle" x="219" y="-174" font-family="Helvetica,sans-Serif" font-size="10.00">::TurbineType</text>
</a>
</g>
</g>
<!-- Node0&#45;&gt;Node4 -->
<g id="edge46_Node000000_Node000004" class="edge">
<title>Node0&#45;&gt;Node4</title>
<g id="a_edge46_Node000000_Node000004"><a xlink:title=" ">
<path fill="none" stroke="#63b8ff" d="M132.54,-182C140.99,-182 149.56,-182 157.85,-182"/>
<polygon fill="#63b8ff" stroke="#63b8ff" points="132.31,-178.5 122.31,-182 132.31,-185.5 132.31,-178.5"/>
</a>
</g>
</g>
<!-- Node8 -->
<g id="Node000008" class="node">
<title>Node8</title>
<g id="a_Node000008"><a xlink:href="structkynema__sgf_1_1actuator_1_1_wing_type.html" target="_top" xlink:title=" ">
<polygon fill="white" stroke="#666666" points="280,-78 158,-78 158,-48 280,-48 280,-78"/>
<text text-anchor="start" x="166" y="-66" font-family="Helvetica,sans-Serif" font-size="10.00">kynema_sgf::actuator</text>
<text text-anchor="middle" x="219" y="-55" font-family="Helvetica,sans-Serif" font-size="10.00">::WingType</text>
</a>
</g>
</g>
<!-- Node0&#45;&gt;Node8 -->
<g id="edge50_Node000000_Node000008" class="edge">
<title>Node0&#45;&gt;Node8</title>
<g id="a_edge50_Node000000_Node000008"><a xlink:title=" ">
<path fill="none" stroke="#63b8ff" d="M90,-160.64C121.08,-136.93 170.45,-99.27 197.91,-78.32"/>
<polygon fill="#63b8ff" stroke="#63b8ff" points="87.59,-158.08 81.76,-166.93 91.83,-163.65 87.59,-158.08"/>
</a>
</g>
</g>
<!-- Node2 -->
<g id="Node000002" class="node">
<title>Node2</title>
<g id="a_Node000002"><a xlink:href="structkynema__sgf_1_1actuator_1_1_joukowsky.html" target="_top" xlink:title=" ">
<polygon fill="white" stroke="#666666" points="465.5,-374 343.5,-374 343.5,-344 465.5,-344 465.5,-374"/>
<text text-anchor="start" x="351.5" y="-362" font-family="Helvetica,sans-Serif" font-size="10.00">kynema_sgf::actuator</text>
<text text-anchor="middle" x="404.5" y="-351" font-family="Helvetica,sans-Serif" font-size="10.00">::Joukowsky</text>
</a>
</g>
</g>
<!-- Node1&#45;&gt;Node2 -->
<g id="edge44_Node000001_Node000002" class="edge">
<title>Node1&#45;&gt;Node2</title>
<g id="a_edge44_Node000001_Node000002"><a xlink:title=" ">
<path fill="none" stroke="#63b8ff" d="M287.47,-328.65C306.74,-333.69 327.55,-339.13 346.15,-344"/>
<polygon fill="#63b8ff" stroke="#63b8ff" points="288.12,-325.2 277.56,-326.06 286.35,-331.97 288.12,-325.2"/>
</a>
</g>
</g>
<!-- Node3 -->
<g id="Node000003" class="node">
<title>Node3</title>
<g id="a_Node000003"><a xlink:href="structkynema__sgf_1_1actuator_1_1_uniform_ct.html" target="_top" xlink:title=" ">
<polygon fill="white" stroke="#666666" points="465.5,-326 343.5,-326 343.5,-296 465.5,-296 465.5,-326"/>
<text text-anchor="start" x="351.5" y="-314" font-family="Helvetica,sans-Serif" font-size="10.00">kynema_sgf::actuator</text>
<text text-anchor="middle" x="404.5" y="-303" font-family="Helvetica,sans-Serif" font-size="10.00">::UniformCt</text>
</a>
</g>
</g>
<!-- Node1&#45;&gt;Node3 -->
<g id="edge45_Node000001_Node000003" class="edge">
<title>Node1&#45;&gt;Node3</title>
<g id="a_edge45_Node000001_Node000003"><a xlink:title=" ">
<path fill="none" stroke="#63b8ff" d="M290.23,-311C307.72,-311 326.32,-311 343.28,-311"/>
<polygon fill="#63b8ff" stroke="#63b8ff" points="290.08,-307.5 280.08,-311 290.08,-314.5 290.08,-307.5"/>
</a>
</g>
</g>
<!-- Node5 -->
<g id="Node000005" class="node">
<title>Node5</title>
<g id="a_Node000005"><a xlink:href="structkynema__sgf_1_1actuator_1_1_turbine_from_ext_solver.html" target="_top" xlink:title=" ">
<polygon fill="white" stroke="#666666" points="483,-278 326,-278 326,-226 483,-226 483,-278"/>
<text text-anchor="start" x="334" y="-266" font-family="Helvetica,sans-Serif" font-size="10.00">kynema_sgf::actuator</text>
<text text-anchor="start" x="334" y="-255" font-family="Helvetica,sans-Serif" font-size="10.00">::TurbineFromExtSolver</text>
<text text-anchor="start" x="334" y="-244" font-family="Helvetica,sans-Serif" font-size="10.00">&lt;::ext_turb::FastTurbine,</text>
<text text-anchor="middle" x="404.5" y="-233" font-family="Helvetica,sans-Serif" font-size="10.00"> ::ext_turb::FastSolverData &gt;</text>
</a>
</g>
</g>
<!-- Node4&#45;&gt;Node5 -->
<g id="edge47_Node000004_Node000005" class="edge">
<title>Node4&#45;&gt;Node5</title>
<g id="a_edge47_Node000004_Node000005"><a xlink:title=" ">
<path fill="none" stroke="#63b8ff" d="M268.76,-200.6C289.15,-208.38 313.2,-217.55 335.3,-225.98"/>
<polygon fill="#63b8ff" stroke="#63b8ff" points="269.96,-197.31 259.37,-197.02 267.46,-203.85 269.96,-197.31"/>
</a>
</g>
</g>
<!-- Node6 -->
<g id="Node000006" class="node">
<title>Node6</title>
<g id="a_Node000006"><a xlink:href="structkynema__sgf_1_1actuator_1_1_turbine_from_ext_solver.html" target="_top" xlink:title=" ">
<polygon fill="white" stroke="#666666" points="493,-208 316,-208 316,-156 493,-156 493,-208"/>
<text text-anchor="start" x="324" y="-196" font-family="Helvetica,sans-Serif" font-size="10.00">kynema_sgf::actuator</text>
<text text-anchor="start" x="324" y="-185" font-family="Helvetica,sans-Serif" font-size="10.00">::TurbineFromExtSolver</text>
<text text-anchor="start" x="324" y="-174" font-family="Helvetica,sans-Serif" font-size="10.00">&lt; ::ext_turb::KynemaTurbine,</text>
<text text-anchor="middle" x="404.5" y="-163" font-family="Helvetica,sans-Serif" font-size="10.00"> ::ext_turb::KynemaSolverData &gt;</text>
</a>
</g>
</g>
<!-- Node4&#45;&gt;Node6 -->
<g id="edge48_Node000004_Node000006" class="edge">
<title>Node4&#45;&gt;Node6</title>
<g id="a_edge48_Node000004_Node000006"><a xlink:title=" ">
<path fill="none" stroke="#63b8ff" d="M290.22,-182C298.66,-182 307.35,-182 315.99,-182"/>
<polygon fill="#63b8ff" stroke="#63b8ff" points="290.08,-178.5 280.08,-182 290.08,-185.5 290.08,-178.5"/>
</a>
</g>
</g>
<!-- Node7 -->
<g id="Node000007" class="node">
<title>Node7</title>
<g id="a_Node000007"><a xlink:href="structkynema__sgf_1_1actuator_1_1_turbine_from_ext_solver.html" target="_top" xlink:title=" ">
<polygon fill="white" stroke="#666666" points="487,-137.5 322,-137.5 322,-96.5 487,-96.5 487,-137.5"/>
<text text-anchor="start" x="330" y="-125.5" font-family="Helvetica,sans-Serif" font-size="10.00">kynema_sgf::actuator</text>
<text text-anchor="start" x="330" y="-114.5" font-family="Helvetica,sans-Serif" font-size="10.00">::TurbineFromExtSolver</text>
<text text-anchor="middle" x="404.5" y="-103.5" font-family="Helvetica,sans-Serif" font-size="10.00">&lt; SolverTurbine, SolverData &gt;</text>
</a>
</g>
</g>
<!-- Node4&#45;&gt;Node7 -->
<g id="edge49_Node000004_Node000007" class="edge">
<title>Node4&#45;&gt;Node7</title>
<g id="a_edge49_Node000004_Node000007"><a xlink:title=" ">
<path fill="none" stroke="#63b8ff" d="M270.46,-163.4C285.12,-158.05 301.18,-152.24 316,-147 324.78,-143.89 334.07,-140.66 343.2,-137.5"/>
<polygon fill="#63b8ff" stroke="#63b8ff" points="269.24,-160.12 261.05,-166.84 271.64,-166.69 269.24,-160.12"/>
</a>
</g>
</g>
<!-- Node9 -->
<g id="Node000009" class="node">
<title>Node9</title>
<g id="a_Node000009"><a xlink:href="structkynema__sgf_1_1actuator_1_1_fixed_wing.html" target="_top" xlink:title=" ">
<polygon fill="white" stroke="#666666" points="465.5,-78 343.5,-78 343.5,-48 465.5,-48 465.5,-78"/>
<text text-anchor="start" x="351.5" y="-66" font-family="Helvetica,sans-Serif" font-size="10.00">kynema_sgf::actuator</text>
<text text-anchor="middle" x="404.5" y="-55" font-family="Helvetica,sans-Serif" font-size="10.00">::FixedWing</text>
</a>
</g>
</g>
<!-- Node8&#45;&gt;Node9 -->
<g id="edge51_Node000008_Node000009" class="edge">
<title>Node8&#45;&gt;Node9</title>
<g id="a_edge51_Node000008_Node000009"><a xlink:title=" ">
<path fill="none" stroke="#63b8ff" d="M290.23,-63C307.72,-63 326.32,-63 343.28,-63"/>
<polygon fill="#63b8ff" stroke="#63b8ff" points="290.08,-59.5 280.08,-63 290.08,-66.5 290.08,-59.5"/>
</a>
</g>
</g>
<!-- Node10 -->
<g id="Node000010" class="node">
<title>Node10</title>
<g id="a_Node000010"><a xlink:href="structkynema__sgf_1_1actuator_1_1_flat_plate.html" target="_top" xlink:title=" ">
<polygon fill="white" stroke="#666666" points="465.5,-30 343.5,-30 343.5,0 465.5,0 465.5,-30"/>
<text text-anchor="start" x="351.5" y="-18" font-family="Helvetica,sans-Serif" font-size="10.00">kynema_sgf::actuator</text>
<text text-anchor="middle" x="404.5" y="-7" font-family="Helvetica,sans-Serif" font-size="10.00">::FlatPlate</text>
</a>
</g>
</g>
<!-- Node8&#45;&gt;Node10 -->
<g id="edge52_Node000008_Node000010" class="edge">
<title>Node8&#45;&gt;Node10</title>
<g id="a_edge52_Node000008_Node000010"><a xlink:title=" ">
<path fill="none" stroke="#63b8ff" d="M287.47,-45.35C306.74,-40.31 327.55,-34.87 346.15,-30"/>
<polygon fill="#63b8ff" stroke="#63b8ff" points="286.35,-42.03 277.56,-47.94 288.12,-48.8 286.35,-42.03"/>
</a>
</g>
</g>
</g>
</svg>
