<?xml version="1.0" encoding="UTF-8" standalone="no"?>
<!DOCTYPE svg PUBLIC "-//W3C//DTD SVG 1.1//EN"
 "http://www.w3.org/Graphics/SVG/1.1/DTD/svg11.dtd">
<!-- Generated by graphviz version 2.43.0 (0)
 -->
<!-- Title: kynema_sgf::actuator::TurbineType Pages: 1 -->
<svg width="877pt" height="143pt"
 viewBox="0.00 0.00 877.00 142.70" xmlns="http://www.w3.org/2000/svg" xmlns:xlink="http://www.w3.org/1999/xlink">
<g id="graph0" class="graph" transform="scale(1 1) rotate(0) translate(4 138.7)">
<title>kynema_sgf::actuator::TurbineType</title>
<!-- Node1 -->
<g id="Node000001" class="node">
<title>Node1</title>
<g id="a_Node000001"><a xlink:title=" ">
<polygon fill="#999999" stroke="#666666" points="281,-87 159,-87 159,-57 281,-57 281,-87"/>
<text text-anchor="start" x="167" y="-75" font-family="Helvetica,sans-Serif" font-size="10.00">kynema_sgf::actuator</text>
<text text-anchor="middle" x="220" y="-64" font-family="Helvetica,sans-Serif" font-size="10.00">::TurbineType</text>
</a>
</g>
</g>
<!-- Node3 -->
<g id="Node000003" class="node">
<title>Node3</title>
<g id="a_Node000003"><a xlink:href="structkynema__sgf_1_1actuator_1_1_turbine_from_ext_solver.html" target="_top" xlink:title=" ">
<polygon fill="white" stroke="#666666" points="859,-131 702,-131 702,-79 859,-79 859,-131"/>
<text text-anchor="start" x="710" y="-119" font-family="Helvetica,sans-Serif" font-size="10.00">kynema_sgf::actuator</text>
<text text-anchor="start" x="710" y="-108" font-family="Helvetica,sans-Serif" font-size="10.00">::TurbineFromExtSolver</text>
<text text-anchor="start" x="710" y="-97" font-family="Helvetica,sans-Serif" font-size="10.00">&lt;::ext_turb::FastTurbine,</text>
<text text-anchor="middle" x="780.5" y="-86" font-family="Helvetica,sans-Serif" font-size="10.00"> ::ext_turb::FastSolverData &gt;</text>
</a>
</g>
</g>
<!-- Node1&#45;&gt;Node3 -->
<g id="edge2_Node000001_Node000003" class="edge">
<title>Node1&#45;&gt;Node3</title>
<g id="a_edge2_Node000001_Node000003"><a xlink:title=" ">
<path fill="none" stroke="#63b8ff" d="M273.68,-90.07C287.93,-94.47 303.45,-98.82 318,-102 472.92,-135.86 516.18,-141.55 674,-126 683.11,-125.1 692.59,-123.78 701.98,-122.23"/>
<polygon fill="#63b8ff" stroke="#63b8ff" points="274.63,-86.7 264.04,-87.03 272.52,-93.38 274.63,-86.7"/>
</a>
</g>
</g>
<!-- Node4 -->
<g id="Node000004" class="node">
<title>Node4</title>
<g id="a_Node000004"><a xlink:href="structkynema__sgf_1_1actuator_1_1_turbine_from_ext_solver.html" target="_top" xlink:title=" ">
<polygon fill="white" stroke="#666666" points="869,-52 692,-52 692,0 869,0 869,-52"/>
<text text-anchor="start" x="700" y="-40" font-family="Helvetica,sans-Serif" font-size="10.00">kynema_sgf::actuator</text>
<text text-anchor="start" x="700" y="-29" font-family="Helvetica,sans-Serif" font-size="10.00">::TurbineFromExtSolver</text>
<text text-anchor="start" x="700" y="-18" font-family="Helvetica,sans-Serif" font-size="10.00">&lt; ::ext_turb::KynemaTurbine,</text>
<text text-anchor="middle" x="780.5" y="-7" font-family="Helvetica,sans-Serif" font-size="10.00"> ::ext_turb::KynemaSolverData &gt;</text>
</a>
</g>
</g>
<!-- Node1&#45;&gt;Node4 -->
<g id="edge3_Node000001_Node000004" class="edge">
<title>Node1&#45;&gt;Node4</title>
<g id="a_edge3_Node000001_Node000004"><a xlink:title=" ">
<path fill="none" stroke="#63b8ff" d="M272.79,-53.87C287.27,-49.38 303.12,-45 318,-42 446.1,-16.17 598.17,-16.74 691.75,-20.57"/>
<polygon fill="#63b8ff" stroke="#63b8ff" points="271.48,-50.61 263.02,-56.98 273.61,-57.28 271.48,-50.61"/>
</a>
</g>
</g>
<!-- Node5 -->
<g id="Node000005" class="node">
<title>Node5</title>
<g id="a_Node000005"><a xlink:href="structkynema__sgf_1_1actuator_1_1_turbine_from_ext_solver.html" target="_top" xlink:title=" ">
<polygon fill="white" stroke="#666666" points="483,-92.5 318,-92.5 318,-51.5 483,-51.5 483,-92.5"/>
<text text-anchor="start" x="326" y="-80.5" font-family="Helvetica,sans-Serif" font-size="10.00">kynema_sgf::actuator</text>
<text text-anchor="start" x="326" y="-69.5" font-family="Helvetica,sans-Serif" font-size="10.00">::TurbineFromExtSolver</text>
<text text-anchor="middle" x="400.5" y="-58.5" font-family="Helvetica,sans-Serif" font-size="10.00">&lt; SolverTurbine, SolverData &gt;</text>
</a>
</g>
</g>
<!-- Node1&#45;&gt;Node5 -->
<g id="edge4_Node000001_Node000005" class="edge">
<title>Node1&#45;&gt;Node5</title>
<g id="a_edge4_Node000001_Node000005"><a xlink:title=" ">
<path fill="none" stroke="#63b8ff" d="M291.49,-72C300.17,-72 309.1,-72 317.92,-72"/>
<polygon fill="#63b8ff" stroke="#63b8ff" points="291.43,-68.5 281.43,-72 291.43,-75.5 291.43,-68.5"/>
</a>
</g>
</g>
<!-- Node2 -->
<g id="Node000002" class="node">
<title>Node2</title>
<g id="a_Node000002"><a xlink:href="structkynema__sgf_1_1actuator_1_1_actuator_type.html" target="_top" xlink:title=" ">
<polygon fill="white" stroke="#666666" points="122,-87 0,-87 0,-57 122,-57 122,-87"/>
<text text-anchor="start" x="8" y="-75" font-family="Helvetica,sans-Serif" font-size="10.00">kynema_sgf::actuator</text>
<text text-anchor="middle" x="61" y="-64" font-family="Helvetica,sans-Serif" font-size="10.00">::ActuatorType</text>
</a>
</g>
</g>
<!-- Node2&#45;&gt;Node1 -->
<g id="edge1_Node000001_Node000002" class="edge">
<title>Node2&#45;&gt;Node1</title>
<g id="a_edge1_Node000001_Node000002"><a xlink:title=" ">
<path fill="none" stroke="#63b8ff" d="M132.51,-72C141.32,-72 150.27,-72 158.91,-72"/>
<polygon fill="#63b8ff" stroke="#63b8ff" points="132.25,-68.5 122.25,-72 132.25,-75.5 132.25,-68.5"/>
</a>
</g>
</g>
<!-- Node5&#45;&gt;Node3 -->
<g id="edge5_Node000005_Node000003" class="edge">
<title>Node5&#45;&gt;Node3</title>
<g id="a_edge5_Node000005_Node000003"><a xlink:title=" ">
<path fill="none" stroke="orange" stroke-dasharray="5,2" d="M493.26,-78.87C546.13,-82.97 613.84,-88.44 674,-94 682.99,-94.83 692.4,-95.75 701.74,-96.68"/>
<polygon fill="orange" stroke="orange" points="493.46,-75.38 483.22,-78.1 492.92,-82.36 493.46,-75.38"/>
</a>
</g>
<text text-anchor="start" x="514.5" y="-115" font-family="Helvetica,sans-Serif" font-size="10.00" fill="grey">&lt;::ext_turb::FastTurbine,</text>
<text text-anchor="start" x="514.5" y="-100" font-family="Helvetica,sans-Serif" font-size="10.00" fill="grey">   ::ext_turb::FastSolverData &gt;</text>
</g>
<!-- Node5&#45;&gt;Node4 -->
<g id="edge6_Node000005_Node000004" class="edge">
<title>Node5&#45;&gt;Node4</title>
<g id="a_edge6_Node000005_Node000004"><a xlink:title=" ">
<path fill="none" stroke="orange" stroke-dasharray="5,2" d="M476.94,-48.99C485.01,-47.07 493.14,-45.34 501,-44 564.28,-33.17 636.66,-28.73 691.77,-26.97"/>
<polygon fill="orange" stroke="orange" points="476.01,-45.62 467.16,-51.43 477.71,-52.41 476.01,-45.62"/>
</a>
</g>
<text text-anchor="start" x="504.5" y="-65" font-family="Helvetica,sans-Serif" font-size="10.00" fill="grey">&lt; ::ext_turb::KynemaTurbine,</text>
<text text-anchor="start" x="504.5" y="-50" font-family="Helvetica,sans-Serif" font-size="10.00" fill="grey">   ::ext_turb::KynemaSolverData &gt;</text>
</g>
</g>
</svg>
