<?xml version="1.0" encoding="UTF-8" standalone="no"?>
<!DOCTYPE svg PUBLIC "-//W3C//DTD SVG 1.1//EN"
 "http://www.w3.org/Graphics/SVG/1.1/DTD/svg11.dtd">
<!-- Generated by graphviz version 2.43.0 (0)
 -->
<!-- Title: kynema_sgf::actuator::ops::ReadInputsOp&lt; ActTrait, SrcTrait, typename &gt; Pages: 1 -->
<svg width="503pt" height="344pt"
 viewBox="0.00 0.00 503.00 344.00" xmlns="http://www.w3.org/2000/svg" xmlns:xlink="http://www.w3.org/1999/xlink">
<g id="graph0" class="graph" transform="scale(1 1) rotate(0) translate(4 340)">
<title>kynema_sgf::actuator::ops::ReadInputsOp&lt; ActTrait, SrcTrait, typename &gt;</title>
<!-- Node1 -->
<g id="Node000001" class="node">
<title>Node1</title>
<g id="a_Node000001"><a xlink:title=" ">
<polygon fill="#999999" stroke="#666666" points="165,-188 0,-188 0,-147 165,-147 165,-188"/>
<text text-anchor="start" x="8" y="-176" font-family="Helvetica,sans-Serif" font-size="10.00">kynema_sgf::actuator</text>
<text text-anchor="start" x="8" y="-165" font-family="Helvetica,sans-Serif" font-size="10.00">::ops::ReadInputsOp&lt;</text>
<text text-anchor="middle" x="82.5" y="-154" font-family="Helvetica,sans-Serif" font-size="10.00"> ActTrait, SrcTrait, typename &gt;</text>
</a>
</g>
</g>
<!-- Node2 -->
<g id="Node000002" class="node">
<title>Node2</title>
<g id="a_Node000002"><a xlink:href="structkynema__sgf_1_1actuator_1_1ops_1_1_read_inputs_op_3_01_fixed_wing_00_01_act_src_line_01_4.html" target="_top" xlink:title=" ">
<polygon fill="white" stroke="#666666" points="490,-336 352,-336 352,-295 490,-295 490,-336"/>
<text text-anchor="start" x="360" y="-324" font-family="Helvetica,sans-Serif" font-size="10.00">kynema_sgf::actuator</text>
<text text-anchor="start" x="360" y="-313" font-family="Helvetica,sans-Serif" font-size="10.00">::ops::ReadInputsOp&lt;</text>
<text text-anchor="middle" x="421" y="-302" font-family="Helvetica,sans-Serif" font-size="10.00"> FixedWing, ActSrcLine &gt;</text>
</a>
</g>
</g>
<!-- Node1&#45;&gt;Node2 -->
<g id="edge1_Node000001_Node000002" class="edge">
<title>Node1&#45;&gt;Node2</title>
<g id="a_edge1_Node000001_Node000002"><a xlink:title=" ">
<path fill="none" stroke="orange" stroke-dasharray="5,2" d="M105.6,-196.14C123.97,-217.93 152.04,-246.92 183,-263.5 235.64,-291.69 302.65,-304.61 351.97,-310.52"/>
<polygon fill="orange" stroke="orange" points="108.1,-193.67 99.04,-188.18 102.7,-198.12 108.1,-193.67"/>
</a>
</g>
<text text-anchor="start" x="191" y="-312" font-family="Helvetica,sans-Serif" font-size="10.00" fill="grey">&lt; FixedWing, ActSrcLine &gt;</text>
</g>
<!-- Node3 -->
<g id="Node000003" class="node">
<title>Node3</title>
<g id="a_Node000003"><a xlink:href="structkynema__sgf_1_1actuator_1_1ops_1_1_read_inputs_op_3_01_flat_plate_00_01_act_src_line_01_4.html" target="_top" xlink:title=" ">
<polygon fill="white" stroke="#666666" points="486.5,-277 355.5,-277 355.5,-236 486.5,-236 486.5,-277"/>
<text text-anchor="start" x="363.5" y="-265" font-family="Helvetica,sans-Serif" font-size="10.00">kynema_sgf::actuator</text>
<text text-anchor="start" x="363.5" y="-254" font-family="Helvetica,sans-Serif" font-size="10.00">::ops::ReadInputsOp&lt;</text>
<text text-anchor="middle" x="421" y="-243" font-family="Helvetica,sans-Serif" font-size="10.00"> FlatPlate, ActSrcLine &gt;</text>
</a>
</g>
</g>
<!-- Node1&#45;&gt;Node3 -->
<g id="edge2_Node000001_Node000003" class="edge">
<title>Node1&#45;&gt;Node3</title>
<g id="a_edge2_Node000001_Node000003"><a xlink:title=" ">
<path fill="none" stroke="orange" stroke-dasharray="5,2" d="M136.39,-192.18C151.25,-198.46 167.56,-204.76 183,-209.5 240.15,-227.03 307.11,-239.6 355.25,-247.31"/>
<polygon fill="orange" stroke="orange" points="137.44,-188.82 126.87,-188.07 134.67,-195.25 137.44,-188.82"/>
</a>
</g>
<text text-anchor="start" x="194" y="-248" font-family="Helvetica,sans-Serif" font-size="10.00" fill="grey">&lt; FlatPlate, ActSrcLine &gt;</text>
</g>
<!-- Node4 -->
<g id="Node000004" class="node">
<title>Node4</title>
<g id="a_Node000004"><a xlink:href="structkynema__sgf_1_1actuator_1_1ops_1_1_read_inputs_op_3_01_joukowsky_00_01_act_src_disk_01_4.html" target="_top" xlink:title=" ">
<polygon fill="white" stroke="#666666" points="491,-218 351,-218 351,-177 491,-177 491,-218"/>
<text text-anchor="start" x="359" y="-206" font-family="Helvetica,sans-Serif" font-size="10.00">kynema_sgf::actuator</text>
<text text-anchor="start" x="359" y="-195" font-family="Helvetica,sans-Serif" font-size="10.00">::ops::ReadInputsOp&lt;</text>
<text text-anchor="middle" x="421" y="-184" font-family="Helvetica,sans-Serif" font-size="10.00"> Joukowsky, ActSrcDisk &gt;</text>
</a>
</g>
</g>
<!-- Node1&#45;&gt;Node4 -->
<g id="edge3_Node000001_Node000004" class="edge">
<title>Node1&#45;&gt;Node4</title>
<g id="a_edge3_Node000001_Node000004"><a xlink:title=" ">
<path fill="none" stroke="orange" stroke-dasharray="5,2" d="M175.55,-175.71C230.89,-180.64 300.17,-186.82 350.83,-191.33"/>
<polygon fill="orange" stroke="orange" points="175.66,-172.2 165.39,-174.8 175.04,-179.17 175.66,-172.2"/>
</a>
</g>
<text text-anchor="start" x="190" y="-194" font-family="Helvetica,sans-Serif" font-size="10.00" fill="grey">&lt; Joukowsky, ActSrcDisk &gt;</text>
</g>
<!-- Node5 -->
<g id="Node000005" class="node">
<title>Node5</title>
<g id="a_Node000005"><a xlink:href="structkynema__sgf_1_1actuator_1_1ops_1_1_read_inputs_op_3_01_turbine_fast_00_01_src_trait_01_4.html" target="_top" xlink:title=" ">
<polygon fill="white" stroke="#666666" points="485,-159 357,-159 357,-118 485,-118 485,-159"/>
<text text-anchor="start" x="365" y="-147" font-family="Helvetica,sans-Serif" font-size="10.00">kynema_sgf::actuator</text>
<text text-anchor="start" x="365" y="-136" font-family="Helvetica,sans-Serif" font-size="10.00">::ops::ReadInputsOp&lt;</text>
<text text-anchor="middle" x="421" y="-125" font-family="Helvetica,sans-Serif" font-size="10.00"> TurbineFast, SrcTrait &gt;</text>
</a>
</g>
</g>
<!-- Node1&#45;&gt;Node5 -->
<g id="edge4_Node000001_Node000005" class="edge">
<title>Node1&#45;&gt;Node5</title>
<g id="a_edge4_Node000001_Node000005"><a xlink:title=" ">
<path fill="none" stroke="orange" stroke-dasharray="5,2" d="M175.31,-159.18C177.9,-158.95 180.47,-158.72 183,-158.5 241.93,-153.35 309.11,-147.7 356.87,-143.72"/>
<polygon fill="orange" stroke="orange" points="174.87,-155.7 165.22,-160.07 175.49,-162.67 174.87,-155.7"/>
</a>
</g>
<text text-anchor="start" x="196" y="-164" font-family="Helvetica,sans-Serif" font-size="10.00" fill="grey">&lt; TurbineFast, SrcTrait &gt;</text>
</g>
<!-- Node6 -->
<g id="Node000006" class="node">
<title>Node6</title>
<g id="a_Node000006"><a xlink:href="structkynema__sgf_1_1actuator_1_1ops_1_1_read_inputs_op_3_01_turbine_kynema_00_01_src_trait_01_4.html" target="_top" xlink:title=" ">
<polygon fill="white" stroke="#666666" points="495,-100 347,-100 347,-59 495,-59 495,-100"/>
<text text-anchor="start" x="355" y="-88" font-family="Helvetica,sans-Serif" font-size="10.00">kynema_sgf::actuator</text>
<text text-anchor="start" x="355" y="-77" font-family="Helvetica,sans-Serif" font-size="10.00">::ops::ReadInputsOp&lt;</text>
<text text-anchor="middle" x="421" y="-66" font-family="Helvetica,sans-Serif" font-size="10.00"> TurbineKynema, SrcTrait &gt;</text>
</a>
</g>
</g>
<!-- Node1&#45;&gt;Node6 -->
<g id="edge5_Node000001_Node000006" class="edge">
<title>Node1&#45;&gt;Node6</title>
<g id="a_edge5_Node000001_Node000006"><a xlink:title=" ">
<path fill="none" stroke="orange" stroke-dasharray="5,2" d="M134.62,-142.85C149.92,-136.17 166.91,-129.44 183,-124.5 236.85,-107.97 299.54,-96.39 346.91,-89.12"/>
<polygon fill="orange" stroke="orange" points="133.05,-139.72 125.33,-146.98 135.89,-146.11 133.05,-139.72"/>
</a>
</g>
<text text-anchor="start" x="186" y="-130" font-family="Helvetica,sans-Serif" font-size="10.00" fill="grey">&lt; TurbineKynema, SrcTrait &gt;</text>
</g>
<!-- Node7 -->
<g id="Node000007" class="node">
<title>Node7</title>
<g id="a_Node000007"><a xlink:href="structkynema__sgf_1_1actuator_1_1ops_1_1_read_inputs_op_3_01_uniform_ct_00_01_act_src_disk_01_4.html" target="_top" xlink:title=" ">
<polygon fill="white" stroke="#666666" points="491,-41 351,-41 351,0 491,0 491,-41"/>
<text text-anchor="start" x="359" y="-29" font-family="Helvetica,sans-Serif" font-size="10.00">kynema_sgf::actuator</text>
<text text-anchor="start" x="359" y="-18" font-family="Helvetica,sans-Serif" font-size="10.00">::ops::ReadInputsOp&lt;</text>
<text text-anchor="middle" x="421" y="-7" font-family="Helvetica,sans-Serif" font-size="10.00"> UniformCt, ActSrcDisk &gt;</text>
</a>
</g>
</g>
<!-- Node1&#45;&gt;Node7 -->
<g id="edge6_Node000001_Node000007" class="edge">
<title>Node1&#45;&gt;Node7</title>
<g id="a_edge6_Node000001_Node000007"><a xlink:title=" ">
<path fill="none" stroke="orange" stroke-dasharray="5,2" d="M105.17,-138.89C123.48,-116.78 151.67,-87.22 183,-70.5 235.21,-42.63 301.66,-30.29 350.9,-24.83"/>
<polygon fill="orange" stroke="orange" points="102.21,-136.98 98.65,-146.96 107.66,-141.38 102.21,-136.98"/>
</a>
</g>
<text text-anchor="start" x="190" y="-76" font-family="Helvetica,sans-Serif" font-size="10.00" fill="grey">&lt; UniformCt, ActSrcDisk &gt;</text>
</g>
</g>
</svg>
