<?xml version="1.0" encoding="UTF-8" standalone="no"?>
<!DOCTYPE svg PUBLIC "-//W3C//DTD SVG 1.1//EN"
 "http://www.w3.org/Graphics/SVG/1.1/DTD/svg11.dtd">
<!-- Generated by graphviz version 2.43.0 (0)
 -->
<!-- Title: kynema_sgf::actuator::TurbineFromExtSolver&lt; SolverTurbine, SolverData &gt; Pages: 1 -->
<svg width="877pt" height="130pt"
 viewBox="0.00 0.00 877.00 130.00" xmlns="http://www.w3.org/2000/svg" xmlns:xlink="http://www.w3.org/1999/xlink">
<g id="graph0" class="graph" transform="scale(1 1) rotate(0) translate(4 126)">
<title>kynema_sgf::actuator::TurbineFromExtSolver&lt; SolverTurbine, SolverData &gt;</title>
<!-- Node1 -->
<g id="Node000001" class="node">
<title>Node1</title>
<g id="a_Node000001"><a xlink:title=" ">
<polygon fill="#999999" stroke="#666666" points="483,-81.5 318,-81.5 318,-40.5 483,-40.5 483,-81.5"/>
<text text-anchor="start" x="326" y="-69.5" font-family="Helvetica,sans-Serif" font-size="10.00">kynema_sgf::actuator</text>
<text text-anchor="start" x="326" y="-58.5" font-family="Helvetica,sans-Serif" font-size="10.00">::TurbineFromExtSolver</text>
<text text-anchor="middle" x="400.5" y="-47.5" font-family="Helvetica,sans-Serif" font-size="10.00">&lt; SolverTurbine, SolverData &gt;</text>
</a>
</g>
</g>
<!-- Node4 -->
<g id="Node000004" class="node">
<title>Node4</title>
<g id="a_Node000004"><a xlink:href="structkynema__sgf_1_1actuator_1_1_turbine_from_ext_solver.html" target="_top" xlink:title=" ">
<polygon fill="white" stroke="#666666" points="859,-122 702,-122 702,-70 859,-70 859,-122"/>
<text text-anchor="start" x="710" y="-110" font-family="Helvetica,sans-Serif" font-size="10.00">kynema_sgf::actuator</text>
<text text-anchor="start" x="710" y="-99" font-family="Helvetica,sans-Serif" font-size="10.00">::TurbineFromExtSolver</text>
<text text-anchor="start" x="710" y="-88" font-family="Helvetica,sans-Serif" font-size="10.00">&lt;::ext_turb::FastTurbine,</text>
<text text-anchor="middle" x="780.5" y="-77" font-family="Helvetica,sans-Serif" font-size="10.00"> ::ext_turb::FastSolverData &gt;</text>
</a>
</g>
</g>
<!-- Node1&#45;&gt;Node4 -->
<g id="edge3_Node000001_Node000004" class="edge">
<title>Node1&#45;&gt;Node4</title>
<g id="a_edge3_Node000001_Node000004"><a xlink:title=" ">
<path fill="none" stroke="orange" stroke-dasharray="5,2" d="M493.13,-69.48C557.04,-75.4 641.39,-83.21 701.96,-88.82"/>
<polygon fill="orange" stroke="orange" points="493.34,-65.99 483.05,-68.55 492.69,-72.96 493.34,-65.99"/>
</a>
</g>
<text text-anchor="start" x="514.5" y="-106" font-family="Helvetica,sans-Serif" font-size="10.00" fill="grey">&lt;::ext_turb::FastTurbine,</text>
<text text-anchor="start" x="514.5" y="-91" font-family="Helvetica,sans-Serif" font-size="10.00" fill="grey">   ::ext_turb::FastSolverData &gt;</text>
</g>
<!-- Node5 -->
<g id="Node000005" class="node">
<title>Node5</title>
<g id="a_Node000005"><a xlink:href="structkynema__sgf_1_1actuator_1_1_turbine_from_ext_solver.html" target="_top" xlink:title=" ">
<polygon fill="white" stroke="#666666" points="869,-52 692,-52 692,0 869,0 869,-52"/>
<text text-anchor="start" x="700" y="-40" font-family="Helvetica,sans-Serif" font-size="10.00">kynema_sgf::actuator</text>
<text text-anchor="start" x="700" y="-29" font-family="Helvetica,sans-Serif" font-size="10.00">::TurbineFromExtSolver</text>
<text text-anchor="start" x="700" y="-18" font-family="Helvetica,sans-Serif" font-size="10.00">&lt; ::ext_turb::KynemaTurbine,</text>
<text text-anchor="middle" x="780.5" y="-7" font-family="Helvetica,sans-Serif" font-size="10.00"> ::ext_turb::KynemaSolverData &gt;</text>
</a>
</g>
</g>
<!-- Node1&#45;&gt;Node5 -->
<g id="edge4_Node000001_Node000005" class="edge">
<title>Node1&#45;&gt;Node5</title>
<g id="a_edge4_Node000001_Node000005"><a xlink:title=" ">
<path fill="none" stroke="orange" stroke-dasharray="5,2" d="M478.6,-38.17C486.12,-36.52 493.67,-35.08 501,-34 564.4,-24.62 636.78,-22.81 691.86,-23.24"/>
<polygon fill="orange" stroke="orange" points="477.7,-34.79 468.75,-40.45 479.28,-41.61 477.7,-34.79"/>
</a>
</g>
<text text-anchor="start" x="504.5" y="-55" font-family="Helvetica,sans-Serif" font-size="10.00" fill="grey">&lt; ::ext_turb::KynemaTurbine,</text>
<text text-anchor="start" x="504.5" y="-40" font-family="Helvetica,sans-Serif" font-size="10.00" fill="grey">   ::ext_turb::KynemaSolverData &gt;</text>
</g>
<!-- Node2 -->
<g id="Node000002" class="node">
<title>Node2</title>
<g id="a_Node000002"><a xlink:href="structkynema__sgf_1_1actuator_1_1_turbine_type.html" target="_top" xlink:title=" ">
<polygon fill="white" stroke="#666666" points="281,-76 159,-76 159,-46 281,-46 281,-76"/>
<text text-anchor="start" x="167" y="-64" font-family="Helvetica,sans-Serif" font-size="10.00">kynema_sgf::actuator</text>
<text text-anchor="middle" x="220" y="-53" font-family="Helvetica,sans-Serif" font-size="10.00">::TurbineType</text>
</a>
</g>
</g>
<!-- Node2&#45;&gt;Node1 -->
<g id="edge1_Node000001_Node000002" class="edge">
<title>Node2&#45;&gt;Node1</title>
<g id="a_edge1_Node000001_Node000002"><a xlink:title=" ">
<path fill="none" stroke="#63b8ff" d="M291.49,-61C300.17,-61 309.1,-61 317.92,-61"/>
<polygon fill="#63b8ff" stroke="#63b8ff" points="291.43,-57.5 281.43,-61 291.43,-64.5 291.43,-57.5"/>
</a>
</g>
</g>
<!-- Node3 -->
<g id="Node000003" class="node">
<title>Node3</title>
<g id="a_Node000003"><a xlink:href="structkynema__sgf_1_1actuator_1_1_actuator_type.html" target="_top" xlink:title=" ">
<polygon fill="white" stroke="#666666" points="122,-76 0,-76 0,-46 122,-46 122,-76"/>
<text text-anchor="start" x="8" y="-64" font-family="Helvetica,sans-Serif" font-size="10.00">kynema_sgf::actuator</text>
<text text-anchor="middle" x="61" y="-53" font-family="Helvetica,sans-Serif" font-size="10.00">::ActuatorType</text>
</a>
</g>
</g>
<!-- Node3&#45;&gt;Node2 -->
<g id="edge2_Node000002_Node000003" class="edge">
<title>Node3&#45;&gt;Node2</title>
<g id="a_edge2_Node000002_Node000003"><a xlink:title=" ">
<path fill="none" stroke="#63b8ff" d="M132.51,-61C141.32,-61 150.27,-61 158.91,-61"/>
<polygon fill="#63b8ff" stroke="#63b8ff" points="132.25,-57.5 122.25,-61 132.25,-64.5 132.25,-57.5"/>
</a>
</g>
</g>
</g>
</svg>
