<?xml version="1.0" encoding="UTF-8" standalone="no"?>
<!DOCTYPE svg PUBLIC "-//W3C//DTD SVG 1.1//EN"
 "http://www.w3.org/Graphics/SVG/1.1/DTD/svg11.dtd">
<!-- Generated by graphviz version 2.43.0 (0)
 -->
<!-- Title: kynema_sgf::actuator::ops::InitDataOp&lt; ActTrait, SrcTrait, typename &gt; Pages: 1 -->
<svg width="527pt" height="344pt"
 viewBox="0.00 0.00 527.00 344.00" xmlns="http://www.w3.org/2000/svg" xmlns:xlink="http://www.w3.org/1999/xlink">
<g id="graph0" class="graph" transform="scale(1 1) rotate(0) translate(4 340)">
<title>kynema_sgf::actuator::ops::InitDataOp&lt; ActTrait, SrcTrait, typename &gt;</title>
<!-- Node1 -->
<g id="Node000001" class="node">
<title>Node1</title>
<g id="a_Node000001"><a xlink:title=" ">
<polygon fill="#999999" stroke="#666666" points="149,-188 0,-188 0,-147 149,-147 149,-188"/>
<text text-anchor="start" x="8" y="-176" font-family="Helvetica,sans-Serif" font-size="10.00">kynema_sgf::actuator</text>
<text text-anchor="start" x="8" y="-165" font-family="Helvetica,sans-Serif" font-size="10.00">::ops::InitDataOp&lt; ActTrait,</text>
<text text-anchor="middle" x="74.5" y="-154" font-family="Helvetica,sans-Serif" font-size="10.00"> SrcTrait, typename &gt;</text>
</a>
</g>
</g>
<!-- Node2 -->
<g id="Node000002" class="node">
<title>Node2</title>
<g id="a_Node000002"><a xlink:href="structkynema__sgf_1_1actuator_1_1ops_1_1_init_data_op_3_01_fixed_wing_00_01_act_src_line_01_4.html" target="_top" xlink:title=" ">
<polygon fill="white" stroke="#666666" points="506.5,-336 343.5,-336 343.5,-295 506.5,-295 506.5,-336"/>
<text text-anchor="start" x="351.5" y="-324" font-family="Helvetica,sans-Serif" font-size="10.00">kynema_sgf::actuator</text>
<text text-anchor="start" x="351.5" y="-313" font-family="Helvetica,sans-Serif" font-size="10.00">::ops::InitDataOp&lt; FixedWing,</text>
<text text-anchor="middle" x="425" y="-302" font-family="Helvetica,sans-Serif" font-size="10.00"> ActSrcLine &gt;</text>
</a>
</g>
</g>
<!-- Node1&#45;&gt;Node2 -->
<g id="edge1_Node000001_Node000002" class="edge">
<title>Node1&#45;&gt;Node2</title>
<g id="a_edge1_Node000001_Node000002"><a xlink:title=" ">
<path fill="none" stroke="orange" stroke-dasharray="5,2" d="M95.95,-196.31C112.63,-217.62 138.11,-245.61 167,-261.5 221.33,-291.39 290.46,-304.76 343.34,-310.73"/>
<polygon fill="orange" stroke="orange" points="98.62,-194.05 89.78,-188.22 93.06,-198.29 98.62,-194.05"/>
</a>
</g>
<text text-anchor="start" x="175" y="-311" font-family="Helvetica,sans-Serif" font-size="10.00" fill="grey">&lt; FixedWing, ActSrcLine &gt;</text>
</g>
<!-- Node3 -->
<g id="Node000003" class="node">
<title>Node3</title>
<g id="a_Node000003"><a xlink:href="structkynema__sgf_1_1actuator_1_1ops_1_1_init_data_op_3_01_flat_plate_00_01_act_src_line_01_4.html" target="_top" xlink:title=" ">
<polygon fill="white" stroke="#666666" points="503,-277 347,-277 347,-236 503,-236 503,-277"/>
<text text-anchor="start" x="355" y="-265" font-family="Helvetica,sans-Serif" font-size="10.00">kynema_sgf::actuator</text>
<text text-anchor="start" x="355" y="-254" font-family="Helvetica,sans-Serif" font-size="10.00">::ops::InitDataOp&lt; FlatPlate,</text>
<text text-anchor="middle" x="425" y="-243" font-family="Helvetica,sans-Serif" font-size="10.00"> ActSrcLine &gt;</text>
</a>
</g>
</g>
<!-- Node1&#45;&gt;Node3 -->
<g id="edge2_Node000001_Node000003" class="edge">
<title>Node1&#45;&gt;Node3</title>
<g id="a_edge2_Node000001_Node000003"><a xlink:title=" ">
<path fill="none" stroke="orange" stroke-dasharray="5,2" d="M125.55,-192.48C138.78,-198.38 153.23,-204.2 167,-208.5 226.14,-226.98 295.27,-239.4 346.94,-246.97"/>
<polygon fill="orange" stroke="orange" points="126.7,-189.16 116.14,-188.2 123.79,-195.53 126.7,-189.16"/>
</a>
</g>
<text text-anchor="start" x="178" y="-246" font-family="Helvetica,sans-Serif" font-size="10.00" fill="grey">&lt; FlatPlate, ActSrcLine &gt;</text>
</g>
<!-- Node4 -->
<g id="Node000004" class="node">
<title>Node4</title>
<g id="a_Node000004"><a xlink:href="structkynema__sgf_1_1actuator_1_1ops_1_1_init_data_op_3_01_joukowsky_00_01_act_src_disk_01_4.html" target="_top" xlink:title=" ">
<polygon fill="white" stroke="#666666" points="507,-218 343,-218 343,-177 507,-177 507,-218"/>
<text text-anchor="start" x="351" y="-206" font-family="Helvetica,sans-Serif" font-size="10.00">kynema_sgf::actuator</text>
<text text-anchor="start" x="351" y="-195" font-family="Helvetica,sans-Serif" font-size="10.00">::ops::InitDataOp&lt; Joukowsky,</text>
<text text-anchor="middle" x="425" y="-184" font-family="Helvetica,sans-Serif" font-size="10.00"> ActSrcDisk &gt;</text>
</a>
</g>
</g>
<!-- Node1&#45;&gt;Node4 -->
<g id="edge3_Node000001_Node000004" class="edge">
<title>Node1&#45;&gt;Node4</title>
<g id="a_edge3_Node000001_Node000004"><a xlink:title=" ">
<path fill="none" stroke="orange" stroke-dasharray="5,2" d="M159.39,-174.84C161.96,-175.06 164.5,-175.28 167,-175.5 225.89,-180.6 292.38,-186.29 342.97,-190.6"/>
<polygon fill="orange" stroke="orange" points="159.67,-171.35 149.41,-173.97 159.07,-178.33 159.67,-171.35"/>
</a>
</g>
<text text-anchor="start" x="174" y="-193" font-family="Helvetica,sans-Serif" font-size="10.00" fill="grey">&lt; Joukowsky, ActSrcDisk &gt;</text>
</g>
<!-- Node5 -->
<g id="Node000005" class="node">
<title>Node5</title>
<g id="a_Node000005"><a xlink:href="structkynema__sgf_1_1actuator_1_1ops_1_1_init_data_op_3_01_turbine_fast_00_01_src_trait_01_4.html" target="_top" xlink:title=" ">
<polygon fill="white" stroke="#666666" points="508.5,-159 341.5,-159 341.5,-118 508.5,-118 508.5,-159"/>
<text text-anchor="start" x="349.5" y="-147" font-family="Helvetica,sans-Serif" font-size="10.00">kynema_sgf::actuator</text>
<text text-anchor="start" x="349.5" y="-136" font-family="Helvetica,sans-Serif" font-size="10.00">::ops::InitDataOp&lt; TurbineFast,</text>
<text text-anchor="middle" x="425" y="-125" font-family="Helvetica,sans-Serif" font-size="10.00"> SrcTrait &gt;</text>
</a>
</g>
</g>
<!-- Node1&#45;&gt;Node5 -->
<g id="edge4_Node000001_Node000005" class="edge">
<title>Node1&#45;&gt;Node5</title>
<g id="a_edge4_Node000001_Node000005"><a xlink:title=" ">
<path fill="none" stroke="orange" stroke-dasharray="5,2" d="M159.39,-159.18C161.95,-158.95 164.5,-158.72 167,-158.5 225.29,-153.37 291.08,-148.26 341.5,-144.49"/>
<polygon fill="orange" stroke="orange" points="159.03,-155.7 149.4,-160.1 159.68,-162.67 159.03,-155.7"/>
</a>
</g>
<text text-anchor="start" x="180" y="-164" font-family="Helvetica,sans-Serif" font-size="10.00" fill="grey">&lt; TurbineFast, SrcTrait &gt;</text>
</g>
<!-- Node6 -->
<g id="Node000006" class="node">
<title>Node6</title>
<g id="a_Node000006"><a xlink:href="structkynema__sgf_1_1actuator_1_1ops_1_1_init_data_op_3_01_turbine_kynema_00_01_src_trait_01_4.html" target="_top" xlink:title=" ">
<polygon fill="white" stroke="#666666" points="519,-100 331,-100 331,-59 519,-59 519,-100"/>
<text text-anchor="start" x="339" y="-88" font-family="Helvetica,sans-Serif" font-size="10.00">kynema_sgf::actuator</text>
<text text-anchor="start" x="339" y="-77" font-family="Helvetica,sans-Serif" font-size="10.00">::ops::InitDataOp&lt; TurbineKynema,</text>
<text text-anchor="middle" x="425" y="-66" font-family="Helvetica,sans-Serif" font-size="10.00"> SrcTrait &gt;</text>
</a>
</g>
</g>
<!-- Node1&#45;&gt;Node6 -->
<g id="edge5_Node000001_Node000006" class="edge">
<title>Node1&#45;&gt;Node6</title>
<g id="a_edge5_Node000001_Node000006"><a xlink:title=" ">
<path fill="none" stroke="orange" stroke-dasharray="5,2" d="M123.92,-142.51C137.58,-136.23 152.64,-130 167,-125.5 220.09,-108.86 281.36,-97.6 330.75,-90.39"/>
<polygon fill="orange" stroke="orange" points="122.27,-139.42 114.72,-146.85 125.26,-145.75 122.27,-139.42"/>
</a>
</g>
<text text-anchor="start" x="170" y="-131" font-family="Helvetica,sans-Serif" font-size="10.00" fill="grey">&lt; TurbineKynema, SrcTrait &gt;</text>
</g>
<!-- Node7 -->
<g id="Node000007" class="node">
<title>Node7</title>
<g id="a_Node000007"><a xlink:href="structkynema__sgf_1_1actuator_1_1ops_1_1_init_data_op_3_01_uniform_ct_00_01_act_src_disk_01_4.html" target="_top" xlink:title=" ">
<polygon fill="white" stroke="#666666" points="506.5,-41 343.5,-41 343.5,0 506.5,0 506.5,-41"/>
<text text-anchor="start" x="351.5" y="-29" font-family="Helvetica,sans-Serif" font-size="10.00">kynema_sgf::actuator</text>
<text text-anchor="start" x="351.5" y="-18" font-family="Helvetica,sans-Serif" font-size="10.00">::ops::InitDataOp&lt; UniformCt,</text>
<text text-anchor="middle" x="425" y="-7" font-family="Helvetica,sans-Serif" font-size="10.00"> ActSrcDisk &gt;</text>
</a>
</g>
</g>
<!-- Node1&#45;&gt;Node7 -->
<g id="edge6_Node000001_Node000007" class="edge">
<title>Node1&#45;&gt;Node7</title>
<g id="a_edge6_Node000001_Node000007"><a xlink:title=" ">
<path fill="none" stroke="orange" stroke-dasharray="5,2" d="M95.46,-138.38C112.04,-116.51 137.61,-87.66 167,-71.5 221.21,-41.7 290.36,-29.17 343.27,-23.97"/>
<polygon fill="orange" stroke="orange" points="92.46,-136.54 89.35,-146.67 98.1,-140.7 92.46,-136.54"/>
</a>
</g>
<text text-anchor="start" x="174" y="-77" font-family="Helvetica,sans-Serif" font-size="10.00" fill="grey">&lt; UniformCt, ActSrcDisk &gt;</text>
</g>
</g>
</svg>
